%TF.GenerationSoftware,KiCad,Pcbnew,(5.1.9)-1*%
%TF.CreationDate,2021-02-16T15:18:36+08:00*%
%TF.ProjectId,STM32_Core_Board,53544d33-325f-4436-9f72-655f426f6172,rev?*%
%TF.SameCoordinates,Original*%
%TF.FileFunction,Paste,Top*%
%TF.FilePolarity,Positive*%
%FSLAX46Y46*%
G04 Gerber Fmt 4.6, Leading zero omitted, Abs format (unit mm)*
G04 Created by KiCad (PCBNEW (5.1.9)-1) date 2021-02-16 15:18:36*
%MOMM*%
%LPD*%
G01*
G04 APERTURE LIST*
%ADD10R,1.100000X0.450000*%
%ADD11R,1.900000X1.300000*%
%ADD12R,1.524000X0.762000*%
G04 APERTURE END LIST*
%TO.C,U1*%
G36*
G01*
X81995484Y-151554264D02*
X82932400Y-152491180D01*
G75*
G02*
X82932400Y-152597246I-53033J-53033D01*
G01*
X82826334Y-152703312D01*
G75*
G02*
X82720268Y-152703312I-53033J53033D01*
G01*
X81783352Y-151766396D01*
G75*
G02*
X81783352Y-151660330I53033J53033D01*
G01*
X81889418Y-151554264D01*
G75*
G02*
X81995484Y-151554264I53033J-53033D01*
G01*
G37*
G36*
G01*
X81641930Y-151907818D02*
X82578846Y-152844734D01*
G75*
G02*
X82578846Y-152950800I-53033J-53033D01*
G01*
X82472780Y-153056866D01*
G75*
G02*
X82366714Y-153056866I-53033J53033D01*
G01*
X81429798Y-152119950D01*
G75*
G02*
X81429798Y-152013884I53033J53033D01*
G01*
X81535864Y-151907818D01*
G75*
G02*
X81641930Y-151907818I53033J-53033D01*
G01*
G37*
G36*
G01*
X81288377Y-152261371D02*
X82225293Y-153198287D01*
G75*
G02*
X82225293Y-153304353I-53033J-53033D01*
G01*
X82119227Y-153410419D01*
G75*
G02*
X82013161Y-153410419I-53033J53033D01*
G01*
X81076245Y-152473503D01*
G75*
G02*
X81076245Y-152367437I53033J53033D01*
G01*
X81182311Y-152261371D01*
G75*
G02*
X81288377Y-152261371I53033J-53033D01*
G01*
G37*
G36*
G01*
X80934823Y-152614925D02*
X81871739Y-153551841D01*
G75*
G02*
X81871739Y-153657907I-53033J-53033D01*
G01*
X81765673Y-153763973D01*
G75*
G02*
X81659607Y-153763973I-53033J53033D01*
G01*
X80722691Y-152827057D01*
G75*
G02*
X80722691Y-152720991I53033J53033D01*
G01*
X80828757Y-152614925D01*
G75*
G02*
X80934823Y-152614925I53033J-53033D01*
G01*
G37*
G36*
G01*
X80581270Y-152968478D02*
X81518186Y-153905394D01*
G75*
G02*
X81518186Y-154011460I-53033J-53033D01*
G01*
X81412120Y-154117526D01*
G75*
G02*
X81306054Y-154117526I-53033J53033D01*
G01*
X80369138Y-153180610D01*
G75*
G02*
X80369138Y-153074544I53033J53033D01*
G01*
X80475204Y-152968478D01*
G75*
G02*
X80581270Y-152968478I53033J-53033D01*
G01*
G37*
G36*
G01*
X80227717Y-153322031D02*
X81164633Y-154258947D01*
G75*
G02*
X81164633Y-154365013I-53033J-53033D01*
G01*
X81058567Y-154471079D01*
G75*
G02*
X80952501Y-154471079I-53033J53033D01*
G01*
X80015585Y-153534163D01*
G75*
G02*
X80015585Y-153428097I53033J53033D01*
G01*
X80121651Y-153322031D01*
G75*
G02*
X80227717Y-153322031I53033J-53033D01*
G01*
G37*
G36*
G01*
X79874163Y-153675585D02*
X80811079Y-154612501D01*
G75*
G02*
X80811079Y-154718567I-53033J-53033D01*
G01*
X80705013Y-154824633D01*
G75*
G02*
X80598947Y-154824633I-53033J53033D01*
G01*
X79662031Y-153887717D01*
G75*
G02*
X79662031Y-153781651I53033J53033D01*
G01*
X79768097Y-153675585D01*
G75*
G02*
X79874163Y-153675585I53033J-53033D01*
G01*
G37*
G36*
G01*
X79520610Y-154029138D02*
X80457526Y-154966054D01*
G75*
G02*
X80457526Y-155072120I-53033J-53033D01*
G01*
X80351460Y-155178186D01*
G75*
G02*
X80245394Y-155178186I-53033J53033D01*
G01*
X79308478Y-154241270D01*
G75*
G02*
X79308478Y-154135204I53033J53033D01*
G01*
X79414544Y-154029138D01*
G75*
G02*
X79520610Y-154029138I53033J-53033D01*
G01*
G37*
G36*
G01*
X79167057Y-154382691D02*
X80103973Y-155319607D01*
G75*
G02*
X80103973Y-155425673I-53033J-53033D01*
G01*
X79997907Y-155531739D01*
G75*
G02*
X79891841Y-155531739I-53033J53033D01*
G01*
X78954925Y-154594823D01*
G75*
G02*
X78954925Y-154488757I53033J53033D01*
G01*
X79060991Y-154382691D01*
G75*
G02*
X79167057Y-154382691I53033J-53033D01*
G01*
G37*
G36*
G01*
X78813503Y-154736245D02*
X79750419Y-155673161D01*
G75*
G02*
X79750419Y-155779227I-53033J-53033D01*
G01*
X79644353Y-155885293D01*
G75*
G02*
X79538287Y-155885293I-53033J53033D01*
G01*
X78601371Y-154948377D01*
G75*
G02*
X78601371Y-154842311I53033J53033D01*
G01*
X78707437Y-154736245D01*
G75*
G02*
X78813503Y-154736245I53033J-53033D01*
G01*
G37*
G36*
G01*
X78459950Y-155089798D02*
X79396866Y-156026714D01*
G75*
G02*
X79396866Y-156132780I-53033J-53033D01*
G01*
X79290800Y-156238846D01*
G75*
G02*
X79184734Y-156238846I-53033J53033D01*
G01*
X78247818Y-155301930D01*
G75*
G02*
X78247818Y-155195864I53033J53033D01*
G01*
X78353884Y-155089798D01*
G75*
G02*
X78459950Y-155089798I53033J-53033D01*
G01*
G37*
G36*
G01*
X78106396Y-155443352D02*
X79043312Y-156380268D01*
G75*
G02*
X79043312Y-156486334I-53033J-53033D01*
G01*
X78937246Y-156592400D01*
G75*
G02*
X78831180Y-156592400I-53033J53033D01*
G01*
X77894264Y-155655484D01*
G75*
G02*
X77894264Y-155549418I53033J53033D01*
G01*
X78000330Y-155443352D01*
G75*
G02*
X78106396Y-155443352I53033J-53033D01*
G01*
G37*
G36*
G01*
X76939670Y-155443352D02*
X77045736Y-155549418D01*
G75*
G02*
X77045736Y-155655484I-53033J-53033D01*
G01*
X76108820Y-156592400D01*
G75*
G02*
X76002754Y-156592400I-53033J53033D01*
G01*
X75896688Y-156486334D01*
G75*
G02*
X75896688Y-156380268I53033J53033D01*
G01*
X76833604Y-155443352D01*
G75*
G02*
X76939670Y-155443352I53033J-53033D01*
G01*
G37*
G36*
G01*
X76586116Y-155089798D02*
X76692182Y-155195864D01*
G75*
G02*
X76692182Y-155301930I-53033J-53033D01*
G01*
X75755266Y-156238846D01*
G75*
G02*
X75649200Y-156238846I-53033J53033D01*
G01*
X75543134Y-156132780D01*
G75*
G02*
X75543134Y-156026714I53033J53033D01*
G01*
X76480050Y-155089798D01*
G75*
G02*
X76586116Y-155089798I53033J-53033D01*
G01*
G37*
G36*
G01*
X76232563Y-154736245D02*
X76338629Y-154842311D01*
G75*
G02*
X76338629Y-154948377I-53033J-53033D01*
G01*
X75401713Y-155885293D01*
G75*
G02*
X75295647Y-155885293I-53033J53033D01*
G01*
X75189581Y-155779227D01*
G75*
G02*
X75189581Y-155673161I53033J53033D01*
G01*
X76126497Y-154736245D01*
G75*
G02*
X76232563Y-154736245I53033J-53033D01*
G01*
G37*
G36*
G01*
X75879009Y-154382691D02*
X75985075Y-154488757D01*
G75*
G02*
X75985075Y-154594823I-53033J-53033D01*
G01*
X75048159Y-155531739D01*
G75*
G02*
X74942093Y-155531739I-53033J53033D01*
G01*
X74836027Y-155425673D01*
G75*
G02*
X74836027Y-155319607I53033J53033D01*
G01*
X75772943Y-154382691D01*
G75*
G02*
X75879009Y-154382691I53033J-53033D01*
G01*
G37*
G36*
G01*
X75525456Y-154029138D02*
X75631522Y-154135204D01*
G75*
G02*
X75631522Y-154241270I-53033J-53033D01*
G01*
X74694606Y-155178186D01*
G75*
G02*
X74588540Y-155178186I-53033J53033D01*
G01*
X74482474Y-155072120D01*
G75*
G02*
X74482474Y-154966054I53033J53033D01*
G01*
X75419390Y-154029138D01*
G75*
G02*
X75525456Y-154029138I53033J-53033D01*
G01*
G37*
G36*
G01*
X75171903Y-153675585D02*
X75277969Y-153781651D01*
G75*
G02*
X75277969Y-153887717I-53033J-53033D01*
G01*
X74341053Y-154824633D01*
G75*
G02*
X74234987Y-154824633I-53033J53033D01*
G01*
X74128921Y-154718567D01*
G75*
G02*
X74128921Y-154612501I53033J53033D01*
G01*
X75065837Y-153675585D01*
G75*
G02*
X75171903Y-153675585I53033J-53033D01*
G01*
G37*
G36*
G01*
X74818349Y-153322031D02*
X74924415Y-153428097D01*
G75*
G02*
X74924415Y-153534163I-53033J-53033D01*
G01*
X73987499Y-154471079D01*
G75*
G02*
X73881433Y-154471079I-53033J53033D01*
G01*
X73775367Y-154365013D01*
G75*
G02*
X73775367Y-154258947I53033J53033D01*
G01*
X74712283Y-153322031D01*
G75*
G02*
X74818349Y-153322031I53033J-53033D01*
G01*
G37*
G36*
G01*
X74464796Y-152968478D02*
X74570862Y-153074544D01*
G75*
G02*
X74570862Y-153180610I-53033J-53033D01*
G01*
X73633946Y-154117526D01*
G75*
G02*
X73527880Y-154117526I-53033J53033D01*
G01*
X73421814Y-154011460D01*
G75*
G02*
X73421814Y-153905394I53033J53033D01*
G01*
X74358730Y-152968478D01*
G75*
G02*
X74464796Y-152968478I53033J-53033D01*
G01*
G37*
G36*
G01*
X74111243Y-152614925D02*
X74217309Y-152720991D01*
G75*
G02*
X74217309Y-152827057I-53033J-53033D01*
G01*
X73280393Y-153763973D01*
G75*
G02*
X73174327Y-153763973I-53033J53033D01*
G01*
X73068261Y-153657907D01*
G75*
G02*
X73068261Y-153551841I53033J53033D01*
G01*
X74005177Y-152614925D01*
G75*
G02*
X74111243Y-152614925I53033J-53033D01*
G01*
G37*
G36*
G01*
X73757689Y-152261371D02*
X73863755Y-152367437D01*
G75*
G02*
X73863755Y-152473503I-53033J-53033D01*
G01*
X72926839Y-153410419D01*
G75*
G02*
X72820773Y-153410419I-53033J53033D01*
G01*
X72714707Y-153304353D01*
G75*
G02*
X72714707Y-153198287I53033J53033D01*
G01*
X73651623Y-152261371D01*
G75*
G02*
X73757689Y-152261371I53033J-53033D01*
G01*
G37*
G36*
G01*
X73404136Y-151907818D02*
X73510202Y-152013884D01*
G75*
G02*
X73510202Y-152119950I-53033J-53033D01*
G01*
X72573286Y-153056866D01*
G75*
G02*
X72467220Y-153056866I-53033J53033D01*
G01*
X72361154Y-152950800D01*
G75*
G02*
X72361154Y-152844734I53033J53033D01*
G01*
X73298070Y-151907818D01*
G75*
G02*
X73404136Y-151907818I53033J-53033D01*
G01*
G37*
G36*
G01*
X73050582Y-151554264D02*
X73156648Y-151660330D01*
G75*
G02*
X73156648Y-151766396I-53033J-53033D01*
G01*
X72219732Y-152703312D01*
G75*
G02*
X72113666Y-152703312I-53033J53033D01*
G01*
X72007600Y-152597246D01*
G75*
G02*
X72007600Y-152491180I53033J53033D01*
G01*
X72944516Y-151554264D01*
G75*
G02*
X73050582Y-151554264I53033J-53033D01*
G01*
G37*
G36*
G01*
X72219732Y-149556688D02*
X73156648Y-150493604D01*
G75*
G02*
X73156648Y-150599670I-53033J-53033D01*
G01*
X73050582Y-150705736D01*
G75*
G02*
X72944516Y-150705736I-53033J53033D01*
G01*
X72007600Y-149768820D01*
G75*
G02*
X72007600Y-149662754I53033J53033D01*
G01*
X72113666Y-149556688D01*
G75*
G02*
X72219732Y-149556688I53033J-53033D01*
G01*
G37*
G36*
G01*
X72573286Y-149203134D02*
X73510202Y-150140050D01*
G75*
G02*
X73510202Y-150246116I-53033J-53033D01*
G01*
X73404136Y-150352182D01*
G75*
G02*
X73298070Y-150352182I-53033J53033D01*
G01*
X72361154Y-149415266D01*
G75*
G02*
X72361154Y-149309200I53033J53033D01*
G01*
X72467220Y-149203134D01*
G75*
G02*
X72573286Y-149203134I53033J-53033D01*
G01*
G37*
G36*
G01*
X72926839Y-148849581D02*
X73863755Y-149786497D01*
G75*
G02*
X73863755Y-149892563I-53033J-53033D01*
G01*
X73757689Y-149998629D01*
G75*
G02*
X73651623Y-149998629I-53033J53033D01*
G01*
X72714707Y-149061713D01*
G75*
G02*
X72714707Y-148955647I53033J53033D01*
G01*
X72820773Y-148849581D01*
G75*
G02*
X72926839Y-148849581I53033J-53033D01*
G01*
G37*
G36*
G01*
X73280393Y-148496027D02*
X74217309Y-149432943D01*
G75*
G02*
X74217309Y-149539009I-53033J-53033D01*
G01*
X74111243Y-149645075D01*
G75*
G02*
X74005177Y-149645075I-53033J53033D01*
G01*
X73068261Y-148708159D01*
G75*
G02*
X73068261Y-148602093I53033J53033D01*
G01*
X73174327Y-148496027D01*
G75*
G02*
X73280393Y-148496027I53033J-53033D01*
G01*
G37*
G36*
G01*
X73633946Y-148142474D02*
X74570862Y-149079390D01*
G75*
G02*
X74570862Y-149185456I-53033J-53033D01*
G01*
X74464796Y-149291522D01*
G75*
G02*
X74358730Y-149291522I-53033J53033D01*
G01*
X73421814Y-148354606D01*
G75*
G02*
X73421814Y-148248540I53033J53033D01*
G01*
X73527880Y-148142474D01*
G75*
G02*
X73633946Y-148142474I53033J-53033D01*
G01*
G37*
G36*
G01*
X73987499Y-147788921D02*
X74924415Y-148725837D01*
G75*
G02*
X74924415Y-148831903I-53033J-53033D01*
G01*
X74818349Y-148937969D01*
G75*
G02*
X74712283Y-148937969I-53033J53033D01*
G01*
X73775367Y-148001053D01*
G75*
G02*
X73775367Y-147894987I53033J53033D01*
G01*
X73881433Y-147788921D01*
G75*
G02*
X73987499Y-147788921I53033J-53033D01*
G01*
G37*
G36*
G01*
X74341053Y-147435367D02*
X75277969Y-148372283D01*
G75*
G02*
X75277969Y-148478349I-53033J-53033D01*
G01*
X75171903Y-148584415D01*
G75*
G02*
X75065837Y-148584415I-53033J53033D01*
G01*
X74128921Y-147647499D01*
G75*
G02*
X74128921Y-147541433I53033J53033D01*
G01*
X74234987Y-147435367D01*
G75*
G02*
X74341053Y-147435367I53033J-53033D01*
G01*
G37*
G36*
G01*
X74694606Y-147081814D02*
X75631522Y-148018730D01*
G75*
G02*
X75631522Y-148124796I-53033J-53033D01*
G01*
X75525456Y-148230862D01*
G75*
G02*
X75419390Y-148230862I-53033J53033D01*
G01*
X74482474Y-147293946D01*
G75*
G02*
X74482474Y-147187880I53033J53033D01*
G01*
X74588540Y-147081814D01*
G75*
G02*
X74694606Y-147081814I53033J-53033D01*
G01*
G37*
G36*
G01*
X75048159Y-146728261D02*
X75985075Y-147665177D01*
G75*
G02*
X75985075Y-147771243I-53033J-53033D01*
G01*
X75879009Y-147877309D01*
G75*
G02*
X75772943Y-147877309I-53033J53033D01*
G01*
X74836027Y-146940393D01*
G75*
G02*
X74836027Y-146834327I53033J53033D01*
G01*
X74942093Y-146728261D01*
G75*
G02*
X75048159Y-146728261I53033J-53033D01*
G01*
G37*
G36*
G01*
X75401713Y-146374707D02*
X76338629Y-147311623D01*
G75*
G02*
X76338629Y-147417689I-53033J-53033D01*
G01*
X76232563Y-147523755D01*
G75*
G02*
X76126497Y-147523755I-53033J53033D01*
G01*
X75189581Y-146586839D01*
G75*
G02*
X75189581Y-146480773I53033J53033D01*
G01*
X75295647Y-146374707D01*
G75*
G02*
X75401713Y-146374707I53033J-53033D01*
G01*
G37*
G36*
G01*
X75755266Y-146021154D02*
X76692182Y-146958070D01*
G75*
G02*
X76692182Y-147064136I-53033J-53033D01*
G01*
X76586116Y-147170202D01*
G75*
G02*
X76480050Y-147170202I-53033J53033D01*
G01*
X75543134Y-146233286D01*
G75*
G02*
X75543134Y-146127220I53033J53033D01*
G01*
X75649200Y-146021154D01*
G75*
G02*
X75755266Y-146021154I53033J-53033D01*
G01*
G37*
G36*
G01*
X76108820Y-145667600D02*
X77045736Y-146604516D01*
G75*
G02*
X77045736Y-146710582I-53033J-53033D01*
G01*
X76939670Y-146816648D01*
G75*
G02*
X76833604Y-146816648I-53033J53033D01*
G01*
X75896688Y-145879732D01*
G75*
G02*
X75896688Y-145773666I53033J53033D01*
G01*
X76002754Y-145667600D01*
G75*
G02*
X76108820Y-145667600I53033J-53033D01*
G01*
G37*
G36*
G01*
X78937246Y-145667600D02*
X79043312Y-145773666D01*
G75*
G02*
X79043312Y-145879732I-53033J-53033D01*
G01*
X78106396Y-146816648D01*
G75*
G02*
X78000330Y-146816648I-53033J53033D01*
G01*
X77894264Y-146710582D01*
G75*
G02*
X77894264Y-146604516I53033J53033D01*
G01*
X78831180Y-145667600D01*
G75*
G02*
X78937246Y-145667600I53033J-53033D01*
G01*
G37*
G36*
G01*
X79290800Y-146021154D02*
X79396866Y-146127220D01*
G75*
G02*
X79396866Y-146233286I-53033J-53033D01*
G01*
X78459950Y-147170202D01*
G75*
G02*
X78353884Y-147170202I-53033J53033D01*
G01*
X78247818Y-147064136D01*
G75*
G02*
X78247818Y-146958070I53033J53033D01*
G01*
X79184734Y-146021154D01*
G75*
G02*
X79290800Y-146021154I53033J-53033D01*
G01*
G37*
G36*
G01*
X79644353Y-146374707D02*
X79750419Y-146480773D01*
G75*
G02*
X79750419Y-146586839I-53033J-53033D01*
G01*
X78813503Y-147523755D01*
G75*
G02*
X78707437Y-147523755I-53033J53033D01*
G01*
X78601371Y-147417689D01*
G75*
G02*
X78601371Y-147311623I53033J53033D01*
G01*
X79538287Y-146374707D01*
G75*
G02*
X79644353Y-146374707I53033J-53033D01*
G01*
G37*
G36*
G01*
X79997907Y-146728261D02*
X80103973Y-146834327D01*
G75*
G02*
X80103973Y-146940393I-53033J-53033D01*
G01*
X79167057Y-147877309D01*
G75*
G02*
X79060991Y-147877309I-53033J53033D01*
G01*
X78954925Y-147771243D01*
G75*
G02*
X78954925Y-147665177I53033J53033D01*
G01*
X79891841Y-146728261D01*
G75*
G02*
X79997907Y-146728261I53033J-53033D01*
G01*
G37*
G36*
G01*
X80351460Y-147081814D02*
X80457526Y-147187880D01*
G75*
G02*
X80457526Y-147293946I-53033J-53033D01*
G01*
X79520610Y-148230862D01*
G75*
G02*
X79414544Y-148230862I-53033J53033D01*
G01*
X79308478Y-148124796D01*
G75*
G02*
X79308478Y-148018730I53033J53033D01*
G01*
X80245394Y-147081814D01*
G75*
G02*
X80351460Y-147081814I53033J-53033D01*
G01*
G37*
G36*
G01*
X80705013Y-147435367D02*
X80811079Y-147541433D01*
G75*
G02*
X80811079Y-147647499I-53033J-53033D01*
G01*
X79874163Y-148584415D01*
G75*
G02*
X79768097Y-148584415I-53033J53033D01*
G01*
X79662031Y-148478349D01*
G75*
G02*
X79662031Y-148372283I53033J53033D01*
G01*
X80598947Y-147435367D01*
G75*
G02*
X80705013Y-147435367I53033J-53033D01*
G01*
G37*
G36*
G01*
X81058567Y-147788921D02*
X81164633Y-147894987D01*
G75*
G02*
X81164633Y-148001053I-53033J-53033D01*
G01*
X80227717Y-148937969D01*
G75*
G02*
X80121651Y-148937969I-53033J53033D01*
G01*
X80015585Y-148831903D01*
G75*
G02*
X80015585Y-148725837I53033J53033D01*
G01*
X80952501Y-147788921D01*
G75*
G02*
X81058567Y-147788921I53033J-53033D01*
G01*
G37*
G36*
G01*
X81412120Y-148142474D02*
X81518186Y-148248540D01*
G75*
G02*
X81518186Y-148354606I-53033J-53033D01*
G01*
X80581270Y-149291522D01*
G75*
G02*
X80475204Y-149291522I-53033J53033D01*
G01*
X80369138Y-149185456D01*
G75*
G02*
X80369138Y-149079390I53033J53033D01*
G01*
X81306054Y-148142474D01*
G75*
G02*
X81412120Y-148142474I53033J-53033D01*
G01*
G37*
G36*
G01*
X81765673Y-148496027D02*
X81871739Y-148602093D01*
G75*
G02*
X81871739Y-148708159I-53033J-53033D01*
G01*
X80934823Y-149645075D01*
G75*
G02*
X80828757Y-149645075I-53033J53033D01*
G01*
X80722691Y-149539009D01*
G75*
G02*
X80722691Y-149432943I53033J53033D01*
G01*
X81659607Y-148496027D01*
G75*
G02*
X81765673Y-148496027I53033J-53033D01*
G01*
G37*
G36*
G01*
X82119227Y-148849581D02*
X82225293Y-148955647D01*
G75*
G02*
X82225293Y-149061713I-53033J-53033D01*
G01*
X81288377Y-149998629D01*
G75*
G02*
X81182311Y-149998629I-53033J53033D01*
G01*
X81076245Y-149892563D01*
G75*
G02*
X81076245Y-149786497I53033J53033D01*
G01*
X82013161Y-148849581D01*
G75*
G02*
X82119227Y-148849581I53033J-53033D01*
G01*
G37*
G36*
G01*
X82472780Y-149203134D02*
X82578846Y-149309200D01*
G75*
G02*
X82578846Y-149415266I-53033J-53033D01*
G01*
X81641930Y-150352182D01*
G75*
G02*
X81535864Y-150352182I-53033J53033D01*
G01*
X81429798Y-150246116D01*
G75*
G02*
X81429798Y-150140050I53033J53033D01*
G01*
X82366714Y-149203134D01*
G75*
G02*
X82472780Y-149203134I53033J-53033D01*
G01*
G37*
G36*
G01*
X82826334Y-149556688D02*
X82932400Y-149662754D01*
G75*
G02*
X82932400Y-149768820I-53033J-53033D01*
G01*
X81995484Y-150705736D01*
G75*
G02*
X81889418Y-150705736I-53033J53033D01*
G01*
X81783352Y-150599670D01*
G75*
G02*
X81783352Y-150493604I53033J53033D01*
G01*
X82720268Y-149556688D01*
G75*
G02*
X82826334Y-149556688I53033J-53033D01*
G01*
G37*
%TD*%
D10*
%TO.C,J1*%
X57150000Y-149830000D03*
X57150000Y-150480000D03*
X57150000Y-151130000D03*
X57150000Y-151780000D03*
X57150000Y-152430000D03*
%TD*%
D11*
%TO.C,Y2*%
X93802000Y-148380000D03*
X93802000Y-153880000D03*
X90602000Y-153880000D03*
X90602000Y-148380000D03*
%TD*%
D12*
%TO.C,SW1*%
X63246000Y-151511000D03*
X68834000Y-151511000D03*
X63246000Y-155321000D03*
X68834000Y-155321000D03*
%TD*%
%TO.C,D2*%
G36*
G01*
X95555750Y-147770000D02*
X96468250Y-147770000D01*
G75*
G02*
X96712000Y-148013750I0J-243750D01*
G01*
X96712000Y-148501250D01*
G75*
G02*
X96468250Y-148745000I-243750J0D01*
G01*
X95555750Y-148745000D01*
G75*
G02*
X95312000Y-148501250I0J243750D01*
G01*
X95312000Y-148013750D01*
G75*
G02*
X95555750Y-147770000I243750J0D01*
G01*
G37*
G36*
G01*
X95555750Y-145895000D02*
X96468250Y-145895000D01*
G75*
G02*
X96712000Y-146138750I0J-243750D01*
G01*
X96712000Y-146626250D01*
G75*
G02*
X96468250Y-146870000I-243750J0D01*
G01*
X95555750Y-146870000D01*
G75*
G02*
X95312000Y-146626250I0J243750D01*
G01*
X95312000Y-146138750D01*
G75*
G02*
X95555750Y-145895000I243750J0D01*
G01*
G37*
%TD*%
%TO.C,D1*%
G36*
G01*
X96468250Y-154490000D02*
X95555750Y-154490000D01*
G75*
G02*
X95312000Y-154246250I0J243750D01*
G01*
X95312000Y-153758750D01*
G75*
G02*
X95555750Y-153515000I243750J0D01*
G01*
X96468250Y-153515000D01*
G75*
G02*
X96712000Y-153758750I0J-243750D01*
G01*
X96712000Y-154246250D01*
G75*
G02*
X96468250Y-154490000I-243750J0D01*
G01*
G37*
G36*
G01*
X96468250Y-156365000D02*
X95555750Y-156365000D01*
G75*
G02*
X95312000Y-156121250I0J243750D01*
G01*
X95312000Y-155633750D01*
G75*
G02*
X95555750Y-155390000I243750J0D01*
G01*
X96468250Y-155390000D01*
G75*
G02*
X96712000Y-155633750I0J-243750D01*
G01*
X96712000Y-156121250D01*
G75*
G02*
X96468250Y-156365000I-243750J0D01*
G01*
G37*
%TD*%
M02*
