%TF.GenerationSoftware,KiCad,Pcbnew,(5.1.9)-1*%
%TF.CreationDate,2021-02-16T15:18:36+08:00*%
%TF.ProjectId,STM32_Core_Board,53544d33-325f-4436-9f72-655f426f6172,rev?*%
%TF.SameCoordinates,Original*%
%TF.FileFunction,Paste,Bot*%
%TF.FilePolarity,Positive*%
%FSLAX46Y46*%
G04 Gerber Fmt 4.6, Leading zero omitted, Abs format (unit mm)*
G04 Created by KiCad (PCBNEW (5.1.9)-1) date 2021-02-16 15:18:36*
%MOMM*%
%LPD*%
G01*
G04 APERTURE LIST*
%ADD10R,1.060000X0.650000*%
G04 APERTURE END LIST*
%TO.C,C14*%
G36*
G01*
X87701000Y-146808000D02*
X87701000Y-146308000D01*
G75*
G02*
X87926000Y-146083000I225000J0D01*
G01*
X88376000Y-146083000D01*
G75*
G02*
X88601000Y-146308000I0J-225000D01*
G01*
X88601000Y-146808000D01*
G75*
G02*
X88376000Y-147033000I-225000J0D01*
G01*
X87926000Y-147033000D01*
G75*
G02*
X87701000Y-146808000I0J225000D01*
G01*
G37*
G36*
G01*
X86151000Y-146808000D02*
X86151000Y-146308000D01*
G75*
G02*
X86376000Y-146083000I225000J0D01*
G01*
X86826000Y-146083000D01*
G75*
G02*
X87051000Y-146308000I0J-225000D01*
G01*
X87051000Y-146808000D01*
G75*
G02*
X86826000Y-147033000I-225000J0D01*
G01*
X86376000Y-147033000D01*
G75*
G02*
X86151000Y-146808000I0J225000D01*
G01*
G37*
%TD*%
%TO.C,C13*%
G36*
G01*
X87701000Y-155952000D02*
X87701000Y-155452000D01*
G75*
G02*
X87926000Y-155227000I225000J0D01*
G01*
X88376000Y-155227000D01*
G75*
G02*
X88601000Y-155452000I0J-225000D01*
G01*
X88601000Y-155952000D01*
G75*
G02*
X88376000Y-156177000I-225000J0D01*
G01*
X87926000Y-156177000D01*
G75*
G02*
X87701000Y-155952000I0J225000D01*
G01*
G37*
G36*
G01*
X86151000Y-155952000D02*
X86151000Y-155452000D01*
G75*
G02*
X86376000Y-155227000I225000J0D01*
G01*
X86826000Y-155227000D01*
G75*
G02*
X87051000Y-155452000I0J-225000D01*
G01*
X87051000Y-155952000D01*
G75*
G02*
X86826000Y-156177000I-225000J0D01*
G01*
X86376000Y-156177000D01*
G75*
G02*
X86151000Y-155952000I0J225000D01*
G01*
G37*
%TD*%
%TO.C,C12*%
G36*
G01*
X93552200Y-151455000D02*
X94052200Y-151455000D01*
G75*
G02*
X94277200Y-151680000I0J-225000D01*
G01*
X94277200Y-152130000D01*
G75*
G02*
X94052200Y-152355000I-225000J0D01*
G01*
X93552200Y-152355000D01*
G75*
G02*
X93327200Y-152130000I0J225000D01*
G01*
X93327200Y-151680000D01*
G75*
G02*
X93552200Y-151455000I225000J0D01*
G01*
G37*
G36*
G01*
X93552200Y-149905000D02*
X94052200Y-149905000D01*
G75*
G02*
X94277200Y-150130000I0J-225000D01*
G01*
X94277200Y-150580000D01*
G75*
G02*
X94052200Y-150805000I-225000J0D01*
G01*
X93552200Y-150805000D01*
G75*
G02*
X93327200Y-150580000I0J225000D01*
G01*
X93327200Y-150130000D01*
G75*
G02*
X93552200Y-149905000I225000J0D01*
G01*
G37*
%TD*%
%TO.C,C11*%
G36*
G01*
X90351800Y-151455000D02*
X90851800Y-151455000D01*
G75*
G02*
X91076800Y-151680000I0J-225000D01*
G01*
X91076800Y-152130000D01*
G75*
G02*
X90851800Y-152355000I-225000J0D01*
G01*
X90351800Y-152355000D01*
G75*
G02*
X90126800Y-152130000I0J225000D01*
G01*
X90126800Y-151680000D01*
G75*
G02*
X90351800Y-151455000I225000J0D01*
G01*
G37*
G36*
G01*
X90351800Y-149905000D02*
X90851800Y-149905000D01*
G75*
G02*
X91076800Y-150130000I0J-225000D01*
G01*
X91076800Y-150580000D01*
G75*
G02*
X90851800Y-150805000I-225000J0D01*
G01*
X90351800Y-150805000D01*
G75*
G02*
X90126800Y-150580000I0J225000D01*
G01*
X90126800Y-150130000D01*
G75*
G02*
X90351800Y-149905000I225000J0D01*
G01*
G37*
%TD*%
%TO.C,C10*%
G36*
G01*
X79977000Y-146489000D02*
X79027000Y-146489000D01*
G75*
G02*
X78777000Y-146239000I0J250000D01*
G01*
X78777000Y-145739000D01*
G75*
G02*
X79027000Y-145489000I250000J0D01*
G01*
X79977000Y-145489000D01*
G75*
G02*
X80227000Y-145739000I0J-250000D01*
G01*
X80227000Y-146239000D01*
G75*
G02*
X79977000Y-146489000I-250000J0D01*
G01*
G37*
G36*
G01*
X79977000Y-148389000D02*
X79027000Y-148389000D01*
G75*
G02*
X78777000Y-148139000I0J250000D01*
G01*
X78777000Y-147639000D01*
G75*
G02*
X79027000Y-147389000I250000J0D01*
G01*
X79977000Y-147389000D01*
G75*
G02*
X80227000Y-147639000I0J-250000D01*
G01*
X80227000Y-148139000D01*
G75*
G02*
X79977000Y-148389000I-250000J0D01*
G01*
G37*
%TD*%
%TO.C,C9*%
G36*
G01*
X98735000Y-156468000D02*
X98735000Y-156968000D01*
G75*
G02*
X98510000Y-157193000I-225000J0D01*
G01*
X98060000Y-157193000D01*
G75*
G02*
X97835000Y-156968000I0J225000D01*
G01*
X97835000Y-156468000D01*
G75*
G02*
X98060000Y-156243000I225000J0D01*
G01*
X98510000Y-156243000D01*
G75*
G02*
X98735000Y-156468000I0J-225000D01*
G01*
G37*
G36*
G01*
X100285000Y-156468000D02*
X100285000Y-156968000D01*
G75*
G02*
X100060000Y-157193000I-225000J0D01*
G01*
X99610000Y-157193000D01*
G75*
G02*
X99385000Y-156968000I0J225000D01*
G01*
X99385000Y-156468000D01*
G75*
G02*
X99610000Y-156243000I225000J0D01*
G01*
X100060000Y-156243000D01*
G75*
G02*
X100285000Y-156468000I0J-225000D01*
G01*
G37*
%TD*%
%TO.C,C8*%
G36*
G01*
X77339000Y-146614000D02*
X76839000Y-146614000D01*
G75*
G02*
X76614000Y-146389000I0J225000D01*
G01*
X76614000Y-145939000D01*
G75*
G02*
X76839000Y-145714000I225000J0D01*
G01*
X77339000Y-145714000D01*
G75*
G02*
X77564000Y-145939000I0J-225000D01*
G01*
X77564000Y-146389000D01*
G75*
G02*
X77339000Y-146614000I-225000J0D01*
G01*
G37*
G36*
G01*
X77339000Y-148164000D02*
X76839000Y-148164000D01*
G75*
G02*
X76614000Y-147939000I0J225000D01*
G01*
X76614000Y-147489000D01*
G75*
G02*
X76839000Y-147264000I225000J0D01*
G01*
X77339000Y-147264000D01*
G75*
G02*
X77564000Y-147489000I0J-225000D01*
G01*
X77564000Y-147939000D01*
G75*
G02*
X77339000Y-148164000I-225000J0D01*
G01*
G37*
%TD*%
%TO.C,C7*%
G36*
G01*
X68905000Y-154555000D02*
X68905000Y-154055000D01*
G75*
G02*
X69130000Y-153830000I225000J0D01*
G01*
X69580000Y-153830000D01*
G75*
G02*
X69805000Y-154055000I0J-225000D01*
G01*
X69805000Y-154555000D01*
G75*
G02*
X69580000Y-154780000I-225000J0D01*
G01*
X69130000Y-154780000D01*
G75*
G02*
X68905000Y-154555000I0J225000D01*
G01*
G37*
G36*
G01*
X67355000Y-154555000D02*
X67355000Y-154055000D01*
G75*
G02*
X67580000Y-153830000I225000J0D01*
G01*
X68030000Y-153830000D01*
G75*
G02*
X68255000Y-154055000I0J-225000D01*
G01*
X68255000Y-154555000D01*
G75*
G02*
X68030000Y-154780000I-225000J0D01*
G01*
X67580000Y-154780000D01*
G75*
G02*
X67355000Y-154555000I0J225000D01*
G01*
G37*
%TD*%
%TO.C,C6*%
G36*
G01*
X68130000Y-155735000D02*
X68130000Y-156685000D01*
G75*
G02*
X67880000Y-156935000I-250000J0D01*
G01*
X67380000Y-156935000D01*
G75*
G02*
X67130000Y-156685000I0J250000D01*
G01*
X67130000Y-155735000D01*
G75*
G02*
X67380000Y-155485000I250000J0D01*
G01*
X67880000Y-155485000D01*
G75*
G02*
X68130000Y-155735000I0J-250000D01*
G01*
G37*
G36*
G01*
X70030000Y-155735000D02*
X70030000Y-156685000D01*
G75*
G02*
X69780000Y-156935000I-250000J0D01*
G01*
X69280000Y-156935000D01*
G75*
G02*
X69030000Y-156685000I0J250000D01*
G01*
X69030000Y-155735000D01*
G75*
G02*
X69280000Y-155485000I250000J0D01*
G01*
X69780000Y-155485000D01*
G75*
G02*
X70030000Y-155735000I0J-250000D01*
G01*
G37*
%TD*%
%TO.C,C5*%
G36*
G01*
X68905000Y-153031000D02*
X68905000Y-152531000D01*
G75*
G02*
X69130000Y-152306000I225000J0D01*
G01*
X69580000Y-152306000D01*
G75*
G02*
X69805000Y-152531000I0J-225000D01*
G01*
X69805000Y-153031000D01*
G75*
G02*
X69580000Y-153256000I-225000J0D01*
G01*
X69130000Y-153256000D01*
G75*
G02*
X68905000Y-153031000I0J225000D01*
G01*
G37*
G36*
G01*
X67355000Y-153031000D02*
X67355000Y-152531000D01*
G75*
G02*
X67580000Y-152306000I225000J0D01*
G01*
X68030000Y-152306000D01*
G75*
G02*
X68255000Y-152531000I0J-225000D01*
G01*
X68255000Y-153031000D01*
G75*
G02*
X68030000Y-153256000I-225000J0D01*
G01*
X67580000Y-153256000D01*
G75*
G02*
X67355000Y-153031000I0J225000D01*
G01*
G37*
%TD*%
%TO.C,C4*%
G36*
G01*
X60710000Y-154223600D02*
X61210000Y-154223600D01*
G75*
G02*
X61435000Y-154448600I0J-225000D01*
G01*
X61435000Y-154898600D01*
G75*
G02*
X61210000Y-155123600I-225000J0D01*
G01*
X60710000Y-155123600D01*
G75*
G02*
X60485000Y-154898600I0J225000D01*
G01*
X60485000Y-154448600D01*
G75*
G02*
X60710000Y-154223600I225000J0D01*
G01*
G37*
G36*
G01*
X60710000Y-152673600D02*
X61210000Y-152673600D01*
G75*
G02*
X61435000Y-152898600I0J-225000D01*
G01*
X61435000Y-153348600D01*
G75*
G02*
X61210000Y-153573600I-225000J0D01*
G01*
X60710000Y-153573600D01*
G75*
G02*
X60485000Y-153348600I0J225000D01*
G01*
X60485000Y-152898600D01*
G75*
G02*
X60710000Y-152673600I225000J0D01*
G01*
G37*
%TD*%
%TO.C,C3*%
G36*
G01*
X78923000Y-150880000D02*
X78923000Y-151380000D01*
G75*
G02*
X78698000Y-151605000I-225000J0D01*
G01*
X78248000Y-151605000D01*
G75*
G02*
X78023000Y-151380000I0J225000D01*
G01*
X78023000Y-150880000D01*
G75*
G02*
X78248000Y-150655000I225000J0D01*
G01*
X78698000Y-150655000D01*
G75*
G02*
X78923000Y-150880000I0J-225000D01*
G01*
G37*
G36*
G01*
X80473000Y-150880000D02*
X80473000Y-151380000D01*
G75*
G02*
X80248000Y-151605000I-225000J0D01*
G01*
X79798000Y-151605000D01*
G75*
G02*
X79573000Y-151380000I0J225000D01*
G01*
X79573000Y-150880000D01*
G75*
G02*
X79798000Y-150655000I225000J0D01*
G01*
X80248000Y-150655000D01*
G75*
G02*
X80473000Y-150880000I0J-225000D01*
G01*
G37*
%TD*%
%TO.C,C2*%
G36*
G01*
X76017000Y-151380000D02*
X76017000Y-150880000D01*
G75*
G02*
X76242000Y-150655000I225000J0D01*
G01*
X76692000Y-150655000D01*
G75*
G02*
X76917000Y-150880000I0J-225000D01*
G01*
X76917000Y-151380000D01*
G75*
G02*
X76692000Y-151605000I-225000J0D01*
G01*
X76242000Y-151605000D01*
G75*
G02*
X76017000Y-151380000I0J225000D01*
G01*
G37*
G36*
G01*
X74467000Y-151380000D02*
X74467000Y-150880000D01*
G75*
G02*
X74692000Y-150655000I225000J0D01*
G01*
X75142000Y-150655000D01*
G75*
G02*
X75367000Y-150880000I0J-225000D01*
G01*
X75367000Y-151380000D01*
G75*
G02*
X75142000Y-151605000I-225000J0D01*
G01*
X74692000Y-151605000D01*
G75*
G02*
X74467000Y-151380000I0J225000D01*
G01*
G37*
%TD*%
%TO.C,C1*%
G36*
G01*
X60710000Y-147645000D02*
X61210000Y-147645000D01*
G75*
G02*
X61435000Y-147870000I0J-225000D01*
G01*
X61435000Y-148320000D01*
G75*
G02*
X61210000Y-148545000I-225000J0D01*
G01*
X60710000Y-148545000D01*
G75*
G02*
X60485000Y-148320000I0J225000D01*
G01*
X60485000Y-147870000D01*
G75*
G02*
X60710000Y-147645000I225000J0D01*
G01*
G37*
G36*
G01*
X60710000Y-146095000D02*
X61210000Y-146095000D01*
G75*
G02*
X61435000Y-146320000I0J-225000D01*
G01*
X61435000Y-146770000D01*
G75*
G02*
X61210000Y-146995000I-225000J0D01*
G01*
X60710000Y-146995000D01*
G75*
G02*
X60485000Y-146770000I0J225000D01*
G01*
X60485000Y-146320000D01*
G75*
G02*
X60710000Y-146095000I225000J0D01*
G01*
G37*
%TD*%
D10*
%TO.C,U2*%
X65870000Y-155001000D03*
X65870000Y-153101000D03*
X63670000Y-153101000D03*
X63670000Y-154051000D03*
X63670000Y-155001000D03*
%TD*%
%TO.C,R9*%
G36*
G01*
X88540000Y-150705000D02*
X87990000Y-150705000D01*
G75*
G02*
X87790000Y-150505000I0J200000D01*
G01*
X87790000Y-150105000D01*
G75*
G02*
X87990000Y-149905000I200000J0D01*
G01*
X88540000Y-149905000D01*
G75*
G02*
X88740000Y-150105000I0J-200000D01*
G01*
X88740000Y-150505000D01*
G75*
G02*
X88540000Y-150705000I-200000J0D01*
G01*
G37*
G36*
G01*
X88540000Y-152355000D02*
X87990000Y-152355000D01*
G75*
G02*
X87790000Y-152155000I0J200000D01*
G01*
X87790000Y-151755000D01*
G75*
G02*
X87990000Y-151555000I200000J0D01*
G01*
X88540000Y-151555000D01*
G75*
G02*
X88740000Y-151755000I0J-200000D01*
G01*
X88740000Y-152155000D01*
G75*
G02*
X88540000Y-152355000I-200000J0D01*
G01*
G37*
%TD*%
%TO.C,R8*%
G36*
G01*
X73046000Y-146514000D02*
X72496000Y-146514000D01*
G75*
G02*
X72296000Y-146314000I0J200000D01*
G01*
X72296000Y-145914000D01*
G75*
G02*
X72496000Y-145714000I200000J0D01*
G01*
X73046000Y-145714000D01*
G75*
G02*
X73246000Y-145914000I0J-200000D01*
G01*
X73246000Y-146314000D01*
G75*
G02*
X73046000Y-146514000I-200000J0D01*
G01*
G37*
G36*
G01*
X73046000Y-148164000D02*
X72496000Y-148164000D01*
G75*
G02*
X72296000Y-147964000I0J200000D01*
G01*
X72296000Y-147564000D01*
G75*
G02*
X72496000Y-147364000I200000J0D01*
G01*
X73046000Y-147364000D01*
G75*
G02*
X73246000Y-147564000I0J-200000D01*
G01*
X73246000Y-147964000D01*
G75*
G02*
X73046000Y-148164000I-200000J0D01*
G01*
G37*
%TD*%
%TO.C,R7*%
G36*
G01*
X76475000Y-155277000D02*
X75925000Y-155277000D01*
G75*
G02*
X75725000Y-155077000I0J200000D01*
G01*
X75725000Y-154677000D01*
G75*
G02*
X75925000Y-154477000I200000J0D01*
G01*
X76475000Y-154477000D01*
G75*
G02*
X76675000Y-154677000I0J-200000D01*
G01*
X76675000Y-155077000D01*
G75*
G02*
X76475000Y-155277000I-200000J0D01*
G01*
G37*
G36*
G01*
X76475000Y-156927000D02*
X75925000Y-156927000D01*
G75*
G02*
X75725000Y-156727000I0J200000D01*
G01*
X75725000Y-156327000D01*
G75*
G02*
X75925000Y-156127000I200000J0D01*
G01*
X76475000Y-156127000D01*
G75*
G02*
X76675000Y-156327000I0J-200000D01*
G01*
X76675000Y-156727000D01*
G75*
G02*
X76475000Y-156927000I-200000J0D01*
G01*
G37*
%TD*%
%TO.C,R6*%
G36*
G01*
X74443000Y-155277000D02*
X73893000Y-155277000D01*
G75*
G02*
X73693000Y-155077000I0J200000D01*
G01*
X73693000Y-154677000D01*
G75*
G02*
X73893000Y-154477000I200000J0D01*
G01*
X74443000Y-154477000D01*
G75*
G02*
X74643000Y-154677000I0J-200000D01*
G01*
X74643000Y-155077000D01*
G75*
G02*
X74443000Y-155277000I-200000J0D01*
G01*
G37*
G36*
G01*
X74443000Y-156927000D02*
X73893000Y-156927000D01*
G75*
G02*
X73693000Y-156727000I0J200000D01*
G01*
X73693000Y-156327000D01*
G75*
G02*
X73893000Y-156127000I200000J0D01*
G01*
X74443000Y-156127000D01*
G75*
G02*
X74643000Y-156327000I0J-200000D01*
G01*
X74643000Y-156727000D01*
G75*
G02*
X74443000Y-156927000I-200000J0D01*
G01*
G37*
%TD*%
%TO.C,R5*%
G36*
G01*
X72411000Y-155277000D02*
X71861000Y-155277000D01*
G75*
G02*
X71661000Y-155077000I0J200000D01*
G01*
X71661000Y-154677000D01*
G75*
G02*
X71861000Y-154477000I200000J0D01*
G01*
X72411000Y-154477000D01*
G75*
G02*
X72611000Y-154677000I0J-200000D01*
G01*
X72611000Y-155077000D01*
G75*
G02*
X72411000Y-155277000I-200000J0D01*
G01*
G37*
G36*
G01*
X72411000Y-156927000D02*
X71861000Y-156927000D01*
G75*
G02*
X71661000Y-156727000I0J200000D01*
G01*
X71661000Y-156327000D01*
G75*
G02*
X71861000Y-156127000I200000J0D01*
G01*
X72411000Y-156127000D01*
G75*
G02*
X72611000Y-156327000I0J-200000D01*
G01*
X72611000Y-156727000D01*
G75*
G02*
X72411000Y-156927000I-200000J0D01*
G01*
G37*
%TD*%
%TO.C,R4*%
G36*
G01*
X95737000Y-147745000D02*
X96287000Y-147745000D01*
G75*
G02*
X96487000Y-147945000I0J-200000D01*
G01*
X96487000Y-148345000D01*
G75*
G02*
X96287000Y-148545000I-200000J0D01*
G01*
X95737000Y-148545000D01*
G75*
G02*
X95537000Y-148345000I0J200000D01*
G01*
X95537000Y-147945000D01*
G75*
G02*
X95737000Y-147745000I200000J0D01*
G01*
G37*
G36*
G01*
X95737000Y-146095000D02*
X96287000Y-146095000D01*
G75*
G02*
X96487000Y-146295000I0J-200000D01*
G01*
X96487000Y-146695000D01*
G75*
G02*
X96287000Y-146895000I-200000J0D01*
G01*
X95737000Y-146895000D01*
G75*
G02*
X95537000Y-146695000I0J200000D01*
G01*
X95537000Y-146295000D01*
G75*
G02*
X95737000Y-146095000I200000J0D01*
G01*
G37*
%TD*%
%TO.C,R3*%
G36*
G01*
X96287000Y-154515000D02*
X95737000Y-154515000D01*
G75*
G02*
X95537000Y-154315000I0J200000D01*
G01*
X95537000Y-153915000D01*
G75*
G02*
X95737000Y-153715000I200000J0D01*
G01*
X96287000Y-153715000D01*
G75*
G02*
X96487000Y-153915000I0J-200000D01*
G01*
X96487000Y-154315000D01*
G75*
G02*
X96287000Y-154515000I-200000J0D01*
G01*
G37*
G36*
G01*
X96287000Y-156165000D02*
X95737000Y-156165000D01*
G75*
G02*
X95537000Y-155965000I0J200000D01*
G01*
X95537000Y-155565000D01*
G75*
G02*
X95737000Y-155365000I200000J0D01*
G01*
X96287000Y-155365000D01*
G75*
G02*
X96487000Y-155565000I0J-200000D01*
G01*
X96487000Y-155965000D01*
G75*
G02*
X96287000Y-156165000I-200000J0D01*
G01*
G37*
%TD*%
%TO.C,R2*%
G36*
G01*
X74655000Y-147364000D02*
X75205000Y-147364000D01*
G75*
G02*
X75405000Y-147564000I0J-200000D01*
G01*
X75405000Y-147964000D01*
G75*
G02*
X75205000Y-148164000I-200000J0D01*
G01*
X74655000Y-148164000D01*
G75*
G02*
X74455000Y-147964000I0J200000D01*
G01*
X74455000Y-147564000D01*
G75*
G02*
X74655000Y-147364000I200000J0D01*
G01*
G37*
G36*
G01*
X74655000Y-145714000D02*
X75205000Y-145714000D01*
G75*
G02*
X75405000Y-145914000I0J-200000D01*
G01*
X75405000Y-146314000D01*
G75*
G02*
X75205000Y-146514000I-200000J0D01*
G01*
X74655000Y-146514000D01*
G75*
G02*
X74455000Y-146314000I0J200000D01*
G01*
X74455000Y-145914000D01*
G75*
G02*
X74655000Y-145714000I200000J0D01*
G01*
G37*
%TD*%
%TO.C,R1*%
G36*
G01*
X81005000Y-156127000D02*
X81555000Y-156127000D01*
G75*
G02*
X81755000Y-156327000I0J-200000D01*
G01*
X81755000Y-156727000D01*
G75*
G02*
X81555000Y-156927000I-200000J0D01*
G01*
X81005000Y-156927000D01*
G75*
G02*
X80805000Y-156727000I0J200000D01*
G01*
X80805000Y-156327000D01*
G75*
G02*
X81005000Y-156127000I200000J0D01*
G01*
G37*
G36*
G01*
X81005000Y-154477000D02*
X81555000Y-154477000D01*
G75*
G02*
X81755000Y-154677000I0J-200000D01*
G01*
X81755000Y-155077000D01*
G75*
G02*
X81555000Y-155277000I-200000J0D01*
G01*
X81005000Y-155277000D01*
G75*
G02*
X80805000Y-155077000I0J200000D01*
G01*
X80805000Y-154677000D01*
G75*
G02*
X81005000Y-154477000I200000J0D01*
G01*
G37*
%TD*%
M02*
