%TF.GenerationSoftware,KiCad,Pcbnew,(5.1.9)-1*%
%TF.CreationDate,2021-02-16T15:18:35+08:00*%
%TF.ProjectId,STM32_Core_Board,53544d33-325f-4436-9f72-655f426f6172,rev?*%
%TF.SameCoordinates,Original*%
%TF.FileFunction,Copper,L1,Top*%
%TF.FilePolarity,Positive*%
%FSLAX46Y46*%
G04 Gerber Fmt 4.6, Leading zero omitted, Abs format (unit mm)*
G04 Created by KiCad (PCBNEW (5.1.9)-1) date 2021-02-16 15:18:35*
%MOMM*%
%LPD*%
G01*
G04 APERTURE LIST*
%TA.AperFunction,SMDPad,CuDef*%
%ADD10R,1.100000X0.450000*%
%TD*%
%TA.AperFunction,ComponentPad*%
%ADD11O,2.400000X1.200000*%
%TD*%
%TA.AperFunction,SMDPad,CuDef*%
%ADD12R,1.900000X1.300000*%
%TD*%
%TA.AperFunction,ComponentPad*%
%ADD13C,1.500000*%
%TD*%
%TA.AperFunction,SMDPad,CuDef*%
%ADD14R,1.524000X0.762000*%
%TD*%
%TA.AperFunction,ComponentPad*%
%ADD15C,1.879600*%
%TD*%
%TA.AperFunction,ComponentPad*%
%ADD16O,1.700000X1.700000*%
%TD*%
%TA.AperFunction,ComponentPad*%
%ADD17R,1.700000X1.700000*%
%TD*%
%TA.AperFunction,ViaPad*%
%ADD18C,0.800000*%
%TD*%
%TA.AperFunction,ViaPad*%
%ADD19C,0.400000*%
%TD*%
%TA.AperFunction,Conductor*%
%ADD20C,0.250000*%
%TD*%
%TA.AperFunction,Conductor*%
%ADD21C,0.400000*%
%TD*%
%TA.AperFunction,Conductor*%
%ADD22C,0.200000*%
%TD*%
%TA.AperFunction,Conductor*%
%ADD23C,0.100000*%
%TD*%
G04 APERTURE END LIST*
%TO.P,U1,48*%
%TO.N,+3V3*%
%TA.AperFunction,SMDPad,CuDef*%
G36*
G01*
X81995484Y-151554264D02*
X82932400Y-152491180D01*
G75*
G02*
X82932400Y-152597246I-53033J-53033D01*
G01*
X82826334Y-152703312D01*
G75*
G02*
X82720268Y-152703312I-53033J53033D01*
G01*
X81783352Y-151766396D01*
G75*
G02*
X81783352Y-151660330I53033J53033D01*
G01*
X81889418Y-151554264D01*
G75*
G02*
X81995484Y-151554264I53033J-53033D01*
G01*
G37*
%TD.AperFunction*%
%TO.P,U1,47*%
%TO.N,GND*%
%TA.AperFunction,SMDPad,CuDef*%
G36*
G01*
X81641930Y-151907818D02*
X82578846Y-152844734D01*
G75*
G02*
X82578846Y-152950800I-53033J-53033D01*
G01*
X82472780Y-153056866D01*
G75*
G02*
X82366714Y-153056866I-53033J53033D01*
G01*
X81429798Y-152119950D01*
G75*
G02*
X81429798Y-152013884I53033J53033D01*
G01*
X81535864Y-151907818D01*
G75*
G02*
X81641930Y-151907818I53033J-53033D01*
G01*
G37*
%TD.AperFunction*%
%TO.P,U1,46*%
%TO.N,/PB9*%
%TA.AperFunction,SMDPad,CuDef*%
G36*
G01*
X81288377Y-152261371D02*
X82225293Y-153198287D01*
G75*
G02*
X82225293Y-153304353I-53033J-53033D01*
G01*
X82119227Y-153410419D01*
G75*
G02*
X82013161Y-153410419I-53033J53033D01*
G01*
X81076245Y-152473503D01*
G75*
G02*
X81076245Y-152367437I53033J53033D01*
G01*
X81182311Y-152261371D01*
G75*
G02*
X81288377Y-152261371I53033J-53033D01*
G01*
G37*
%TD.AperFunction*%
%TO.P,U1,45*%
%TO.N,/PB8*%
%TA.AperFunction,SMDPad,CuDef*%
G36*
G01*
X80934823Y-152614925D02*
X81871739Y-153551841D01*
G75*
G02*
X81871739Y-153657907I-53033J-53033D01*
G01*
X81765673Y-153763973D01*
G75*
G02*
X81659607Y-153763973I-53033J53033D01*
G01*
X80722691Y-152827057D01*
G75*
G02*
X80722691Y-152720991I53033J53033D01*
G01*
X80828757Y-152614925D01*
G75*
G02*
X80934823Y-152614925I53033J-53033D01*
G01*
G37*
%TD.AperFunction*%
%TO.P,U1,44*%
%TO.N,/BOOT0*%
%TA.AperFunction,SMDPad,CuDef*%
G36*
G01*
X80581270Y-152968478D02*
X81518186Y-153905394D01*
G75*
G02*
X81518186Y-154011460I-53033J-53033D01*
G01*
X81412120Y-154117526D01*
G75*
G02*
X81306054Y-154117526I-53033J53033D01*
G01*
X80369138Y-153180610D01*
G75*
G02*
X80369138Y-153074544I53033J53033D01*
G01*
X80475204Y-152968478D01*
G75*
G02*
X80581270Y-152968478I53033J-53033D01*
G01*
G37*
%TD.AperFunction*%
%TO.P,U1,43*%
%TO.N,/PB7*%
%TA.AperFunction,SMDPad,CuDef*%
G36*
G01*
X80227717Y-153322031D02*
X81164633Y-154258947D01*
G75*
G02*
X81164633Y-154365013I-53033J-53033D01*
G01*
X81058567Y-154471079D01*
G75*
G02*
X80952501Y-154471079I-53033J53033D01*
G01*
X80015585Y-153534163D01*
G75*
G02*
X80015585Y-153428097I53033J53033D01*
G01*
X80121651Y-153322031D01*
G75*
G02*
X80227717Y-153322031I53033J-53033D01*
G01*
G37*
%TD.AperFunction*%
%TO.P,U1,42*%
%TO.N,/PB6*%
%TA.AperFunction,SMDPad,CuDef*%
G36*
G01*
X79874163Y-153675585D02*
X80811079Y-154612501D01*
G75*
G02*
X80811079Y-154718567I-53033J-53033D01*
G01*
X80705013Y-154824633D01*
G75*
G02*
X80598947Y-154824633I-53033J53033D01*
G01*
X79662031Y-153887717D01*
G75*
G02*
X79662031Y-153781651I53033J53033D01*
G01*
X79768097Y-153675585D01*
G75*
G02*
X79874163Y-153675585I53033J-53033D01*
G01*
G37*
%TD.AperFunction*%
%TO.P,U1,41*%
%TO.N,/PB5*%
%TA.AperFunction,SMDPad,CuDef*%
G36*
G01*
X79520610Y-154029138D02*
X80457526Y-154966054D01*
G75*
G02*
X80457526Y-155072120I-53033J-53033D01*
G01*
X80351460Y-155178186D01*
G75*
G02*
X80245394Y-155178186I-53033J53033D01*
G01*
X79308478Y-154241270D01*
G75*
G02*
X79308478Y-154135204I53033J53033D01*
G01*
X79414544Y-154029138D01*
G75*
G02*
X79520610Y-154029138I53033J-53033D01*
G01*
G37*
%TD.AperFunction*%
%TO.P,U1,40*%
%TO.N,/PB4*%
%TA.AperFunction,SMDPad,CuDef*%
G36*
G01*
X79167057Y-154382691D02*
X80103973Y-155319607D01*
G75*
G02*
X80103973Y-155425673I-53033J-53033D01*
G01*
X79997907Y-155531739D01*
G75*
G02*
X79891841Y-155531739I-53033J53033D01*
G01*
X78954925Y-154594823D01*
G75*
G02*
X78954925Y-154488757I53033J53033D01*
G01*
X79060991Y-154382691D01*
G75*
G02*
X79167057Y-154382691I53033J-53033D01*
G01*
G37*
%TD.AperFunction*%
%TO.P,U1,39*%
%TO.N,/PB3*%
%TA.AperFunction,SMDPad,CuDef*%
G36*
G01*
X78813503Y-154736245D02*
X79750419Y-155673161D01*
G75*
G02*
X79750419Y-155779227I-53033J-53033D01*
G01*
X79644353Y-155885293D01*
G75*
G02*
X79538287Y-155885293I-53033J53033D01*
G01*
X78601371Y-154948377D01*
G75*
G02*
X78601371Y-154842311I53033J53033D01*
G01*
X78707437Y-154736245D01*
G75*
G02*
X78813503Y-154736245I53033J-53033D01*
G01*
G37*
%TD.AperFunction*%
%TO.P,U1,38*%
%TO.N,/PA15*%
%TA.AperFunction,SMDPad,CuDef*%
G36*
G01*
X78459950Y-155089798D02*
X79396866Y-156026714D01*
G75*
G02*
X79396866Y-156132780I-53033J-53033D01*
G01*
X79290800Y-156238846D01*
G75*
G02*
X79184734Y-156238846I-53033J53033D01*
G01*
X78247818Y-155301930D01*
G75*
G02*
X78247818Y-155195864I53033J53033D01*
G01*
X78353884Y-155089798D01*
G75*
G02*
X78459950Y-155089798I53033J-53033D01*
G01*
G37*
%TD.AperFunction*%
%TO.P,U1,37*%
%TO.N,/PA14*%
%TA.AperFunction,SMDPad,CuDef*%
G36*
G01*
X78106396Y-155443352D02*
X79043312Y-156380268D01*
G75*
G02*
X79043312Y-156486334I-53033J-53033D01*
G01*
X78937246Y-156592400D01*
G75*
G02*
X78831180Y-156592400I-53033J53033D01*
G01*
X77894264Y-155655484D01*
G75*
G02*
X77894264Y-155549418I53033J53033D01*
G01*
X78000330Y-155443352D01*
G75*
G02*
X78106396Y-155443352I53033J-53033D01*
G01*
G37*
%TD.AperFunction*%
%TO.P,U1,36*%
%TO.N,+3V3*%
%TA.AperFunction,SMDPad,CuDef*%
G36*
G01*
X76939670Y-155443352D02*
X77045736Y-155549418D01*
G75*
G02*
X77045736Y-155655484I-53033J-53033D01*
G01*
X76108820Y-156592400D01*
G75*
G02*
X76002754Y-156592400I-53033J53033D01*
G01*
X75896688Y-156486334D01*
G75*
G02*
X75896688Y-156380268I53033J53033D01*
G01*
X76833604Y-155443352D01*
G75*
G02*
X76939670Y-155443352I53033J-53033D01*
G01*
G37*
%TD.AperFunction*%
%TO.P,U1,35*%
%TO.N,GND*%
%TA.AperFunction,SMDPad,CuDef*%
G36*
G01*
X76586116Y-155089798D02*
X76692182Y-155195864D01*
G75*
G02*
X76692182Y-155301930I-53033J-53033D01*
G01*
X75755266Y-156238846D01*
G75*
G02*
X75649200Y-156238846I-53033J53033D01*
G01*
X75543134Y-156132780D01*
G75*
G02*
X75543134Y-156026714I53033J53033D01*
G01*
X76480050Y-155089798D01*
G75*
G02*
X76586116Y-155089798I53033J-53033D01*
G01*
G37*
%TD.AperFunction*%
%TO.P,U1,34*%
%TO.N,/PA13*%
%TA.AperFunction,SMDPad,CuDef*%
G36*
G01*
X76232563Y-154736245D02*
X76338629Y-154842311D01*
G75*
G02*
X76338629Y-154948377I-53033J-53033D01*
G01*
X75401713Y-155885293D01*
G75*
G02*
X75295647Y-155885293I-53033J53033D01*
G01*
X75189581Y-155779227D01*
G75*
G02*
X75189581Y-155673161I53033J53033D01*
G01*
X76126497Y-154736245D01*
G75*
G02*
X76232563Y-154736245I53033J-53033D01*
G01*
G37*
%TD.AperFunction*%
%TO.P,U1,33*%
%TO.N,/PA12*%
%TA.AperFunction,SMDPad,CuDef*%
G36*
G01*
X75879009Y-154382691D02*
X75985075Y-154488757D01*
G75*
G02*
X75985075Y-154594823I-53033J-53033D01*
G01*
X75048159Y-155531739D01*
G75*
G02*
X74942093Y-155531739I-53033J53033D01*
G01*
X74836027Y-155425673D01*
G75*
G02*
X74836027Y-155319607I53033J53033D01*
G01*
X75772943Y-154382691D01*
G75*
G02*
X75879009Y-154382691I53033J-53033D01*
G01*
G37*
%TD.AperFunction*%
%TO.P,U1,32*%
%TO.N,/PA11*%
%TA.AperFunction,SMDPad,CuDef*%
G36*
G01*
X75525456Y-154029138D02*
X75631522Y-154135204D01*
G75*
G02*
X75631522Y-154241270I-53033J-53033D01*
G01*
X74694606Y-155178186D01*
G75*
G02*
X74588540Y-155178186I-53033J53033D01*
G01*
X74482474Y-155072120D01*
G75*
G02*
X74482474Y-154966054I53033J53033D01*
G01*
X75419390Y-154029138D01*
G75*
G02*
X75525456Y-154029138I53033J-53033D01*
G01*
G37*
%TD.AperFunction*%
%TO.P,U1,31*%
%TO.N,/PA10*%
%TA.AperFunction,SMDPad,CuDef*%
G36*
G01*
X75171903Y-153675585D02*
X75277969Y-153781651D01*
G75*
G02*
X75277969Y-153887717I-53033J-53033D01*
G01*
X74341053Y-154824633D01*
G75*
G02*
X74234987Y-154824633I-53033J53033D01*
G01*
X74128921Y-154718567D01*
G75*
G02*
X74128921Y-154612501I53033J53033D01*
G01*
X75065837Y-153675585D01*
G75*
G02*
X75171903Y-153675585I53033J-53033D01*
G01*
G37*
%TD.AperFunction*%
%TO.P,U1,30*%
%TO.N,/PA9*%
%TA.AperFunction,SMDPad,CuDef*%
G36*
G01*
X74818349Y-153322031D02*
X74924415Y-153428097D01*
G75*
G02*
X74924415Y-153534163I-53033J-53033D01*
G01*
X73987499Y-154471079D01*
G75*
G02*
X73881433Y-154471079I-53033J53033D01*
G01*
X73775367Y-154365013D01*
G75*
G02*
X73775367Y-154258947I53033J53033D01*
G01*
X74712283Y-153322031D01*
G75*
G02*
X74818349Y-153322031I53033J-53033D01*
G01*
G37*
%TD.AperFunction*%
%TO.P,U1,29*%
%TO.N,/PA8*%
%TA.AperFunction,SMDPad,CuDef*%
G36*
G01*
X74464796Y-152968478D02*
X74570862Y-153074544D01*
G75*
G02*
X74570862Y-153180610I-53033J-53033D01*
G01*
X73633946Y-154117526D01*
G75*
G02*
X73527880Y-154117526I-53033J53033D01*
G01*
X73421814Y-154011460D01*
G75*
G02*
X73421814Y-153905394I53033J53033D01*
G01*
X74358730Y-152968478D01*
G75*
G02*
X74464796Y-152968478I53033J-53033D01*
G01*
G37*
%TD.AperFunction*%
%TO.P,U1,28*%
%TO.N,/PB15*%
%TA.AperFunction,SMDPad,CuDef*%
G36*
G01*
X74111243Y-152614925D02*
X74217309Y-152720991D01*
G75*
G02*
X74217309Y-152827057I-53033J-53033D01*
G01*
X73280393Y-153763973D01*
G75*
G02*
X73174327Y-153763973I-53033J53033D01*
G01*
X73068261Y-153657907D01*
G75*
G02*
X73068261Y-153551841I53033J53033D01*
G01*
X74005177Y-152614925D01*
G75*
G02*
X74111243Y-152614925I53033J-53033D01*
G01*
G37*
%TD.AperFunction*%
%TO.P,U1,27*%
%TO.N,/PB14*%
%TA.AperFunction,SMDPad,CuDef*%
G36*
G01*
X73757689Y-152261371D02*
X73863755Y-152367437D01*
G75*
G02*
X73863755Y-152473503I-53033J-53033D01*
G01*
X72926839Y-153410419D01*
G75*
G02*
X72820773Y-153410419I-53033J53033D01*
G01*
X72714707Y-153304353D01*
G75*
G02*
X72714707Y-153198287I53033J53033D01*
G01*
X73651623Y-152261371D01*
G75*
G02*
X73757689Y-152261371I53033J-53033D01*
G01*
G37*
%TD.AperFunction*%
%TO.P,U1,26*%
%TO.N,/PB13*%
%TA.AperFunction,SMDPad,CuDef*%
G36*
G01*
X73404136Y-151907818D02*
X73510202Y-152013884D01*
G75*
G02*
X73510202Y-152119950I-53033J-53033D01*
G01*
X72573286Y-153056866D01*
G75*
G02*
X72467220Y-153056866I-53033J53033D01*
G01*
X72361154Y-152950800D01*
G75*
G02*
X72361154Y-152844734I53033J53033D01*
G01*
X73298070Y-151907818D01*
G75*
G02*
X73404136Y-151907818I53033J-53033D01*
G01*
G37*
%TD.AperFunction*%
%TO.P,U1,25*%
%TO.N,/PB12*%
%TA.AperFunction,SMDPad,CuDef*%
G36*
G01*
X73050582Y-151554264D02*
X73156648Y-151660330D01*
G75*
G02*
X73156648Y-151766396I-53033J-53033D01*
G01*
X72219732Y-152703312D01*
G75*
G02*
X72113666Y-152703312I-53033J53033D01*
G01*
X72007600Y-152597246D01*
G75*
G02*
X72007600Y-152491180I53033J53033D01*
G01*
X72944516Y-151554264D01*
G75*
G02*
X73050582Y-151554264I53033J-53033D01*
G01*
G37*
%TD.AperFunction*%
%TO.P,U1,24*%
%TO.N,+3V3*%
%TA.AperFunction,SMDPad,CuDef*%
G36*
G01*
X72219732Y-149556688D02*
X73156648Y-150493604D01*
G75*
G02*
X73156648Y-150599670I-53033J-53033D01*
G01*
X73050582Y-150705736D01*
G75*
G02*
X72944516Y-150705736I-53033J53033D01*
G01*
X72007600Y-149768820D01*
G75*
G02*
X72007600Y-149662754I53033J53033D01*
G01*
X72113666Y-149556688D01*
G75*
G02*
X72219732Y-149556688I53033J-53033D01*
G01*
G37*
%TD.AperFunction*%
%TO.P,U1,23*%
%TO.N,GND*%
%TA.AperFunction,SMDPad,CuDef*%
G36*
G01*
X72573286Y-149203134D02*
X73510202Y-150140050D01*
G75*
G02*
X73510202Y-150246116I-53033J-53033D01*
G01*
X73404136Y-150352182D01*
G75*
G02*
X73298070Y-150352182I-53033J53033D01*
G01*
X72361154Y-149415266D01*
G75*
G02*
X72361154Y-149309200I53033J53033D01*
G01*
X72467220Y-149203134D01*
G75*
G02*
X72573286Y-149203134I53033J-53033D01*
G01*
G37*
%TD.AperFunction*%
%TO.P,U1,22*%
%TO.N,/PB11*%
%TA.AperFunction,SMDPad,CuDef*%
G36*
G01*
X72926839Y-148849581D02*
X73863755Y-149786497D01*
G75*
G02*
X73863755Y-149892563I-53033J-53033D01*
G01*
X73757689Y-149998629D01*
G75*
G02*
X73651623Y-149998629I-53033J53033D01*
G01*
X72714707Y-149061713D01*
G75*
G02*
X72714707Y-148955647I53033J53033D01*
G01*
X72820773Y-148849581D01*
G75*
G02*
X72926839Y-148849581I53033J-53033D01*
G01*
G37*
%TD.AperFunction*%
%TO.P,U1,21*%
%TO.N,/PB10*%
%TA.AperFunction,SMDPad,CuDef*%
G36*
G01*
X73280393Y-148496027D02*
X74217309Y-149432943D01*
G75*
G02*
X74217309Y-149539009I-53033J-53033D01*
G01*
X74111243Y-149645075D01*
G75*
G02*
X74005177Y-149645075I-53033J53033D01*
G01*
X73068261Y-148708159D01*
G75*
G02*
X73068261Y-148602093I53033J53033D01*
G01*
X73174327Y-148496027D01*
G75*
G02*
X73280393Y-148496027I53033J-53033D01*
G01*
G37*
%TD.AperFunction*%
%TO.P,U1,20*%
%TO.N,/BOOT1*%
%TA.AperFunction,SMDPad,CuDef*%
G36*
G01*
X73633946Y-148142474D02*
X74570862Y-149079390D01*
G75*
G02*
X74570862Y-149185456I-53033J-53033D01*
G01*
X74464796Y-149291522D01*
G75*
G02*
X74358730Y-149291522I-53033J53033D01*
G01*
X73421814Y-148354606D01*
G75*
G02*
X73421814Y-148248540I53033J53033D01*
G01*
X73527880Y-148142474D01*
G75*
G02*
X73633946Y-148142474I53033J-53033D01*
G01*
G37*
%TD.AperFunction*%
%TO.P,U1,19*%
%TO.N,/PB1*%
%TA.AperFunction,SMDPad,CuDef*%
G36*
G01*
X73987499Y-147788921D02*
X74924415Y-148725837D01*
G75*
G02*
X74924415Y-148831903I-53033J-53033D01*
G01*
X74818349Y-148937969D01*
G75*
G02*
X74712283Y-148937969I-53033J53033D01*
G01*
X73775367Y-148001053D01*
G75*
G02*
X73775367Y-147894987I53033J53033D01*
G01*
X73881433Y-147788921D01*
G75*
G02*
X73987499Y-147788921I53033J-53033D01*
G01*
G37*
%TD.AperFunction*%
%TO.P,U1,18*%
%TO.N,/PB0*%
%TA.AperFunction,SMDPad,CuDef*%
G36*
G01*
X74341053Y-147435367D02*
X75277969Y-148372283D01*
G75*
G02*
X75277969Y-148478349I-53033J-53033D01*
G01*
X75171903Y-148584415D01*
G75*
G02*
X75065837Y-148584415I-53033J53033D01*
G01*
X74128921Y-147647499D01*
G75*
G02*
X74128921Y-147541433I53033J53033D01*
G01*
X74234987Y-147435367D01*
G75*
G02*
X74341053Y-147435367I53033J-53033D01*
G01*
G37*
%TD.AperFunction*%
%TO.P,U1,17*%
%TO.N,/PA7*%
%TA.AperFunction,SMDPad,CuDef*%
G36*
G01*
X74694606Y-147081814D02*
X75631522Y-148018730D01*
G75*
G02*
X75631522Y-148124796I-53033J-53033D01*
G01*
X75525456Y-148230862D01*
G75*
G02*
X75419390Y-148230862I-53033J53033D01*
G01*
X74482474Y-147293946D01*
G75*
G02*
X74482474Y-147187880I53033J53033D01*
G01*
X74588540Y-147081814D01*
G75*
G02*
X74694606Y-147081814I53033J-53033D01*
G01*
G37*
%TD.AperFunction*%
%TO.P,U1,16*%
%TO.N,/PA6*%
%TA.AperFunction,SMDPad,CuDef*%
G36*
G01*
X75048159Y-146728261D02*
X75985075Y-147665177D01*
G75*
G02*
X75985075Y-147771243I-53033J-53033D01*
G01*
X75879009Y-147877309D01*
G75*
G02*
X75772943Y-147877309I-53033J53033D01*
G01*
X74836027Y-146940393D01*
G75*
G02*
X74836027Y-146834327I53033J53033D01*
G01*
X74942093Y-146728261D01*
G75*
G02*
X75048159Y-146728261I53033J-53033D01*
G01*
G37*
%TD.AperFunction*%
%TO.P,U1,15*%
%TO.N,/PA5*%
%TA.AperFunction,SMDPad,CuDef*%
G36*
G01*
X75401713Y-146374707D02*
X76338629Y-147311623D01*
G75*
G02*
X76338629Y-147417689I-53033J-53033D01*
G01*
X76232563Y-147523755D01*
G75*
G02*
X76126497Y-147523755I-53033J53033D01*
G01*
X75189581Y-146586839D01*
G75*
G02*
X75189581Y-146480773I53033J53033D01*
G01*
X75295647Y-146374707D01*
G75*
G02*
X75401713Y-146374707I53033J-53033D01*
G01*
G37*
%TD.AperFunction*%
%TO.P,U1,14*%
%TO.N,/PA4*%
%TA.AperFunction,SMDPad,CuDef*%
G36*
G01*
X75755266Y-146021154D02*
X76692182Y-146958070D01*
G75*
G02*
X76692182Y-147064136I-53033J-53033D01*
G01*
X76586116Y-147170202D01*
G75*
G02*
X76480050Y-147170202I-53033J53033D01*
G01*
X75543134Y-146233286D01*
G75*
G02*
X75543134Y-146127220I53033J53033D01*
G01*
X75649200Y-146021154D01*
G75*
G02*
X75755266Y-146021154I53033J-53033D01*
G01*
G37*
%TD.AperFunction*%
%TO.P,U1,13*%
%TO.N,/PA3*%
%TA.AperFunction,SMDPad,CuDef*%
G36*
G01*
X76108820Y-145667600D02*
X77045736Y-146604516D01*
G75*
G02*
X77045736Y-146710582I-53033J-53033D01*
G01*
X76939670Y-146816648D01*
G75*
G02*
X76833604Y-146816648I-53033J53033D01*
G01*
X75896688Y-145879732D01*
G75*
G02*
X75896688Y-145773666I53033J53033D01*
G01*
X76002754Y-145667600D01*
G75*
G02*
X76108820Y-145667600I53033J-53033D01*
G01*
G37*
%TD.AperFunction*%
%TO.P,U1,12*%
%TO.N,/PA2*%
%TA.AperFunction,SMDPad,CuDef*%
G36*
G01*
X78937246Y-145667600D02*
X79043312Y-145773666D01*
G75*
G02*
X79043312Y-145879732I-53033J-53033D01*
G01*
X78106396Y-146816648D01*
G75*
G02*
X78000330Y-146816648I-53033J53033D01*
G01*
X77894264Y-146710582D01*
G75*
G02*
X77894264Y-146604516I53033J53033D01*
G01*
X78831180Y-145667600D01*
G75*
G02*
X78937246Y-145667600I53033J-53033D01*
G01*
G37*
%TD.AperFunction*%
%TO.P,U1,11*%
%TO.N,/PA1*%
%TA.AperFunction,SMDPad,CuDef*%
G36*
G01*
X79290800Y-146021154D02*
X79396866Y-146127220D01*
G75*
G02*
X79396866Y-146233286I-53033J-53033D01*
G01*
X78459950Y-147170202D01*
G75*
G02*
X78353884Y-147170202I-53033J53033D01*
G01*
X78247818Y-147064136D01*
G75*
G02*
X78247818Y-146958070I53033J53033D01*
G01*
X79184734Y-146021154D01*
G75*
G02*
X79290800Y-146021154I53033J-53033D01*
G01*
G37*
%TD.AperFunction*%
%TO.P,U1,10*%
%TO.N,/PA0*%
%TA.AperFunction,SMDPad,CuDef*%
G36*
G01*
X79644353Y-146374707D02*
X79750419Y-146480773D01*
G75*
G02*
X79750419Y-146586839I-53033J-53033D01*
G01*
X78813503Y-147523755D01*
G75*
G02*
X78707437Y-147523755I-53033J53033D01*
G01*
X78601371Y-147417689D01*
G75*
G02*
X78601371Y-147311623I53033J53033D01*
G01*
X79538287Y-146374707D01*
G75*
G02*
X79644353Y-146374707I53033J-53033D01*
G01*
G37*
%TD.AperFunction*%
%TO.P,U1,9*%
%TO.N,+3V3*%
%TA.AperFunction,SMDPad,CuDef*%
G36*
G01*
X79997907Y-146728261D02*
X80103973Y-146834327D01*
G75*
G02*
X80103973Y-146940393I-53033J-53033D01*
G01*
X79167057Y-147877309D01*
G75*
G02*
X79060991Y-147877309I-53033J53033D01*
G01*
X78954925Y-147771243D01*
G75*
G02*
X78954925Y-147665177I53033J53033D01*
G01*
X79891841Y-146728261D01*
G75*
G02*
X79997907Y-146728261I53033J-53033D01*
G01*
G37*
%TD.AperFunction*%
%TO.P,U1,8*%
%TO.N,GND*%
%TA.AperFunction,SMDPad,CuDef*%
G36*
G01*
X80351460Y-147081814D02*
X80457526Y-147187880D01*
G75*
G02*
X80457526Y-147293946I-53033J-53033D01*
G01*
X79520610Y-148230862D01*
G75*
G02*
X79414544Y-148230862I-53033J53033D01*
G01*
X79308478Y-148124796D01*
G75*
G02*
X79308478Y-148018730I53033J53033D01*
G01*
X80245394Y-147081814D01*
G75*
G02*
X80351460Y-147081814I53033J-53033D01*
G01*
G37*
%TD.AperFunction*%
%TO.P,U1,7*%
%TO.N,/RESET*%
%TA.AperFunction,SMDPad,CuDef*%
G36*
G01*
X80705013Y-147435367D02*
X80811079Y-147541433D01*
G75*
G02*
X80811079Y-147647499I-53033J-53033D01*
G01*
X79874163Y-148584415D01*
G75*
G02*
X79768097Y-148584415I-53033J53033D01*
G01*
X79662031Y-148478349D01*
G75*
G02*
X79662031Y-148372283I53033J53033D01*
G01*
X80598947Y-147435367D01*
G75*
G02*
X80705013Y-147435367I53033J-53033D01*
G01*
G37*
%TD.AperFunction*%
%TO.P,U1,6*%
%TO.N,/OSCOUT*%
%TA.AperFunction,SMDPad,CuDef*%
G36*
G01*
X81058567Y-147788921D02*
X81164633Y-147894987D01*
G75*
G02*
X81164633Y-148001053I-53033J-53033D01*
G01*
X80227717Y-148937969D01*
G75*
G02*
X80121651Y-148937969I-53033J53033D01*
G01*
X80015585Y-148831903D01*
G75*
G02*
X80015585Y-148725837I53033J53033D01*
G01*
X80952501Y-147788921D01*
G75*
G02*
X81058567Y-147788921I53033J-53033D01*
G01*
G37*
%TD.AperFunction*%
%TO.P,U1,5*%
%TO.N,/OSCIN*%
%TA.AperFunction,SMDPad,CuDef*%
G36*
G01*
X81412120Y-148142474D02*
X81518186Y-148248540D01*
G75*
G02*
X81518186Y-148354606I-53033J-53033D01*
G01*
X80581270Y-149291522D01*
G75*
G02*
X80475204Y-149291522I-53033J53033D01*
G01*
X80369138Y-149185456D01*
G75*
G02*
X80369138Y-149079390I53033J53033D01*
G01*
X81306054Y-148142474D01*
G75*
G02*
X81412120Y-148142474I53033J-53033D01*
G01*
G37*
%TD.AperFunction*%
%TO.P,U1,4*%
%TO.N,/PC15*%
%TA.AperFunction,SMDPad,CuDef*%
G36*
G01*
X81765673Y-148496027D02*
X81871739Y-148602093D01*
G75*
G02*
X81871739Y-148708159I-53033J-53033D01*
G01*
X80934823Y-149645075D01*
G75*
G02*
X80828757Y-149645075I-53033J53033D01*
G01*
X80722691Y-149539009D01*
G75*
G02*
X80722691Y-149432943I53033J53033D01*
G01*
X81659607Y-148496027D01*
G75*
G02*
X81765673Y-148496027I53033J-53033D01*
G01*
G37*
%TD.AperFunction*%
%TO.P,U1,3*%
%TO.N,/PC14*%
%TA.AperFunction,SMDPad,CuDef*%
G36*
G01*
X82119227Y-148849581D02*
X82225293Y-148955647D01*
G75*
G02*
X82225293Y-149061713I-53033J-53033D01*
G01*
X81288377Y-149998629D01*
G75*
G02*
X81182311Y-149998629I-53033J53033D01*
G01*
X81076245Y-149892563D01*
G75*
G02*
X81076245Y-149786497I53033J53033D01*
G01*
X82013161Y-148849581D01*
G75*
G02*
X82119227Y-148849581I53033J-53033D01*
G01*
G37*
%TD.AperFunction*%
%TO.P,U1,2*%
%TO.N,/PC13*%
%TA.AperFunction,SMDPad,CuDef*%
G36*
G01*
X82472780Y-149203134D02*
X82578846Y-149309200D01*
G75*
G02*
X82578846Y-149415266I-53033J-53033D01*
G01*
X81641930Y-150352182D01*
G75*
G02*
X81535864Y-150352182I-53033J53033D01*
G01*
X81429798Y-150246116D01*
G75*
G02*
X81429798Y-150140050I53033J53033D01*
G01*
X82366714Y-149203134D01*
G75*
G02*
X82472780Y-149203134I53033J-53033D01*
G01*
G37*
%TD.AperFunction*%
%TO.P,U1,1*%
%TO.N,V_BATT*%
%TA.AperFunction,SMDPad,CuDef*%
G36*
G01*
X82826334Y-149556688D02*
X82932400Y-149662754D01*
G75*
G02*
X82932400Y-149768820I-53033J-53033D01*
G01*
X81995484Y-150705736D01*
G75*
G02*
X81889418Y-150705736I-53033J53033D01*
G01*
X81783352Y-150599670D01*
G75*
G02*
X81783352Y-150493604I53033J53033D01*
G01*
X82720268Y-149556688D01*
G75*
G02*
X82826334Y-149556688I53033J-53033D01*
G01*
G37*
%TD.AperFunction*%
%TD*%
D10*
%TO.P,J1,1*%
%TO.N,+5V*%
X57150000Y-149830000D03*
%TO.P,J1,2*%
%TO.N,Net-(J1-Pad2)*%
X57150000Y-150480000D03*
%TO.P,J1,3*%
%TO.N,Net-(J1-Pad3)*%
X57150000Y-151130000D03*
%TO.P,J1,4*%
%TO.N,GND*%
X57150000Y-151780000D03*
%TO.P,J1,5*%
X57150000Y-152430000D03*
D11*
%TO.P,J1,6*%
%TO.N,Net-(J1-Pad6)*%
X56630000Y-146180000D03*
X52630000Y-146180000D03*
X56630000Y-156080000D03*
X52630000Y-156080000D03*
%TD*%
D12*
%TO.P,Y2,4*%
%TO.N,/PC15*%
X93802000Y-148380000D03*
%TO.P,Y2,3*%
%TO.N,Net-(Y2-Pad3)*%
X93802000Y-153880000D03*
%TO.P,Y2,2*%
%TO.N,Net-(Y2-Pad2)*%
X90602000Y-153880000D03*
%TO.P,Y2,1*%
%TO.N,/PC14*%
X90602000Y-148380000D03*
%TD*%
D13*
%TO.P,Y1,2*%
%TO.N,/OSCOUT*%
X86614000Y-148663000D03*
%TO.P,Y1,1*%
%TO.N,/OSCIN*%
X86614000Y-153543000D03*
%TD*%
D14*
%TO.P,SW1,4*%
%TO.N,N/C*%
X63246000Y-151511000D03*
%TO.P,SW1,3*%
X68834000Y-151511000D03*
%TO.P,SW1,2*%
%TO.N,/RESET*%
X63246000Y-155321000D03*
%TO.P,SW1,1*%
%TO.N,GND*%
X68834000Y-155321000D03*
%TD*%
D15*
%TO.P,J5,20*%
%TO.N,/PB12*%
X53340000Y-158750000D03*
%TO.P,J5,19*%
%TO.N,/PB13*%
X55880000Y-158750000D03*
%TO.P,J5,18*%
%TO.N,/PB14*%
X58420000Y-158750000D03*
%TO.P,J5,17*%
%TO.N,/PB15*%
X60960000Y-158750000D03*
%TO.P,J5,16*%
%TO.N,/PA8*%
X63500000Y-158750000D03*
%TO.P,J5,15*%
%TO.N,/PA9*%
X66040000Y-158750000D03*
%TO.P,J5,14*%
%TO.N,/PA10*%
X68580000Y-158750000D03*
%TO.P,J5,13*%
%TO.N,/PA11*%
X71120000Y-158750000D03*
%TO.P,J5,12*%
%TO.N,/PA12*%
X73660000Y-158750000D03*
%TO.P,J5,11*%
%TO.N,/PA15*%
X76200000Y-158750000D03*
%TO.P,J5,10*%
%TO.N,/PB3*%
X78740000Y-158750000D03*
%TO.P,J5,9*%
%TO.N,/PB4*%
X81280000Y-158750000D03*
%TO.P,J5,8*%
%TO.N,/PB5*%
X83820000Y-158750000D03*
%TO.P,J5,7*%
%TO.N,/PB6*%
X86360000Y-158750000D03*
%TO.P,J5,6*%
%TO.N,/PB7*%
X88900000Y-158750000D03*
%TO.P,J5,5*%
%TO.N,/PB8*%
X91440000Y-158750000D03*
%TO.P,J5,4*%
%TO.N,/PB9*%
X93980000Y-158750000D03*
%TO.P,J5,3*%
%TO.N,+5V*%
X96520000Y-158750000D03*
%TO.P,J5,2*%
%TO.N,GND*%
X99060000Y-158750000D03*
%TO.P,J5,1*%
%TO.N,+3V3*%
X101600000Y-158750000D03*
%TD*%
%TO.P,J4,20*%
%TO.N,GND*%
X53340000Y-143510000D03*
%TO.P,J4,19*%
X55880000Y-143510000D03*
%TO.P,J4,18*%
%TO.N,+3V3*%
X58420000Y-143510000D03*
%TO.P,J4,17*%
%TO.N,/RESET*%
X60960000Y-143510000D03*
%TO.P,J4,16*%
%TO.N,/PB11*%
X63500000Y-143510000D03*
%TO.P,J4,15*%
%TO.N,/PB10*%
X66040000Y-143510000D03*
%TO.P,J4,14*%
%TO.N,/PB1*%
X68580000Y-143510000D03*
%TO.P,J4,13*%
%TO.N,/PB0*%
X71120000Y-143510000D03*
%TO.P,J4,12*%
%TO.N,/PA7*%
X73660000Y-143510000D03*
%TO.P,J4,11*%
%TO.N,/PA6*%
X76200000Y-143510000D03*
%TO.P,J4,10*%
%TO.N,/PA5*%
X78740000Y-143510000D03*
%TO.P,J4,9*%
%TO.N,/PA4*%
X81280000Y-143510000D03*
%TO.P,J4,8*%
%TO.N,/PA3*%
X83820000Y-143510000D03*
%TO.P,J4,7*%
%TO.N,/PA2*%
X86360000Y-143510000D03*
%TO.P,J4,6*%
%TO.N,/PA1*%
X88900000Y-143510000D03*
%TO.P,J4,5*%
%TO.N,/PA0*%
X91440000Y-143510000D03*
%TO.P,J4,4*%
%TO.N,/PC15*%
X93980000Y-143510000D03*
%TO.P,J4,3*%
%TO.N,/PC14*%
X96520000Y-143510000D03*
%TO.P,J4,2*%
%TO.N,/PC13*%
X99060000Y-143510000D03*
%TO.P,J4,1*%
%TO.N,V_BATT*%
X101600000Y-143510000D03*
%TD*%
D16*
%TO.P,J3,4*%
%TO.N,GND*%
X98298000Y-154940000D03*
%TO.P,J3,3*%
%TO.N,/PA14*%
X98298000Y-152400000D03*
%TO.P,J3,2*%
%TO.N,/PA13*%
X98298000Y-149860000D03*
D17*
%TO.P,J3,1*%
%TO.N,+3V3*%
X98298000Y-147320000D03*
%TD*%
D15*
%TO.P,J2,6*%
%TO.N,GND*%
X68326000Y-146558000D03*
%TO.P,J2,5*%
X68326000Y-149098000D03*
%TO.P,J2,4*%
%TO.N,Net-(J2-Pad4)*%
X65786000Y-146558000D03*
%TO.P,J2,3*%
%TO.N,Net-(J2-Pad3)*%
X65786000Y-149098000D03*
%TO.P,J2,2*%
%TO.N,+3V3*%
X63246000Y-146558000D03*
%TO.P,J2,1*%
X63246000Y-149098000D03*
%TD*%
%TO.P,D2,2*%
%TO.N,+3V3*%
%TA.AperFunction,SMDPad,CuDef*%
G36*
G01*
X95555750Y-147770000D02*
X96468250Y-147770000D01*
G75*
G02*
X96712000Y-148013750I0J-243750D01*
G01*
X96712000Y-148501250D01*
G75*
G02*
X96468250Y-148745000I-243750J0D01*
G01*
X95555750Y-148745000D01*
G75*
G02*
X95312000Y-148501250I0J243750D01*
G01*
X95312000Y-148013750D01*
G75*
G02*
X95555750Y-147770000I243750J0D01*
G01*
G37*
%TD.AperFunction*%
%TO.P,D2,1*%
%TO.N,Net-(D2-Pad1)*%
%TA.AperFunction,SMDPad,CuDef*%
G36*
G01*
X95555750Y-145895000D02*
X96468250Y-145895000D01*
G75*
G02*
X96712000Y-146138750I0J-243750D01*
G01*
X96712000Y-146626250D01*
G75*
G02*
X96468250Y-146870000I-243750J0D01*
G01*
X95555750Y-146870000D01*
G75*
G02*
X95312000Y-146626250I0J243750D01*
G01*
X95312000Y-146138750D01*
G75*
G02*
X95555750Y-145895000I243750J0D01*
G01*
G37*
%TD.AperFunction*%
%TD*%
%TO.P,D1,2*%
%TO.N,+3V3*%
%TA.AperFunction,SMDPad,CuDef*%
G36*
G01*
X96468250Y-154490000D02*
X95555750Y-154490000D01*
G75*
G02*
X95312000Y-154246250I0J243750D01*
G01*
X95312000Y-153758750D01*
G75*
G02*
X95555750Y-153515000I243750J0D01*
G01*
X96468250Y-153515000D01*
G75*
G02*
X96712000Y-153758750I0J-243750D01*
G01*
X96712000Y-154246250D01*
G75*
G02*
X96468250Y-154490000I-243750J0D01*
G01*
G37*
%TD.AperFunction*%
%TO.P,D1,1*%
%TO.N,Net-(D1-Pad1)*%
%TA.AperFunction,SMDPad,CuDef*%
G36*
G01*
X96468250Y-156365000D02*
X95555750Y-156365000D01*
G75*
G02*
X95312000Y-156121250I0J243750D01*
G01*
X95312000Y-155633750D01*
G75*
G02*
X95555750Y-155390000I243750J0D01*
G01*
X96468250Y-155390000D01*
G75*
G02*
X96712000Y-155633750I0J-243750D01*
G01*
X96712000Y-156121250D01*
G75*
G02*
X96468250Y-156365000I-243750J0D01*
G01*
G37*
%TD.AperFunction*%
%TD*%
D18*
%TO.N,GND*%
X100076000Y-145669000D03*
X88392000Y-148590000D03*
X85090000Y-152400000D03*
X57785000Y-147955000D03*
X57785000Y-154305000D03*
D19*
X80645000Y-146685000D03*
X61595000Y-157099000D03*
X84074000Y-154051000D03*
X76835000Y-153924000D03*
X65913000Y-155956000D03*
D18*
%TO.N,+3V3*%
X76317401Y-149850401D03*
X70662803Y-152603197D03*
X81051400Y-151130000D03*
X84074000Y-151130000D03*
X70662801Y-149225000D03*
%TO.N,+5V*%
X60959995Y-149860000D03*
%TO.N,/RESET*%
X61976000Y-156083000D03*
X59055000Y-146177000D03*
X81366001Y-146880443D03*
%TO.N,/PC14*%
X90601800Y-149453600D03*
%TO.N,/PC15*%
X93802200Y-149453600D03*
%TO.N,/OSCIN*%
X79800680Y-149860000D03*
%TO.N,/OSCOUT*%
X84201000Y-147472400D03*
%TO.N,Net-(D1-Pad1)*%
X93728300Y-155877500D03*
%TO.N,Net-(D2-Pad1)*%
X93980008Y-146812000D03*
%TO.N,Net-(J1-Pad2)*%
X65785997Y-150876254D03*
%TO.N,Net-(J1-Pad3)*%
X65809231Y-151895579D03*
%TO.N,/PA14*%
X77470000Y-156464000D03*
%TO.N,/PA13*%
X100931560Y-155287560D03*
%TO.N,/PA3*%
X78105000Y-148971000D03*
%TO.N,/PC13*%
X92202000Y-149606000D03*
%TO.N,/PB12*%
X59055000Y-156083026D03*
%TO.N,/BOOT0*%
X79248000Y-152908000D03*
%TO.N,/BOOT1*%
X75031600Y-149758400D03*
%TD*%
D20*
%TO.N,+3V3*%
X78830001Y-149319001D02*
X78289002Y-149860000D01*
X79494107Y-147302785D02*
X78830001Y-147966891D01*
X78830001Y-147966891D02*
X78830001Y-149319001D01*
X79529449Y-147302785D02*
X79494107Y-147302785D01*
X76327000Y-149860000D02*
X76317401Y-149850401D01*
X78289002Y-149860000D02*
X76327000Y-149860000D01*
X77470000Y-155019088D02*
X76471212Y-156017876D01*
X77470000Y-151003000D02*
X77470000Y-155019088D01*
X76317401Y-149850401D02*
X77470000Y-151003000D01*
X81359088Y-151130000D02*
X82357876Y-152128788D01*
X81051400Y-151130000D02*
X81359088Y-151130000D01*
D21*
X95402400Y-151130000D02*
X96012000Y-150520400D01*
X84074000Y-151130000D02*
X95402400Y-151130000D01*
X96012000Y-150520400D02*
X96012000Y-148257500D01*
X96012000Y-154002500D02*
X96012000Y-150520400D01*
X97360500Y-148257500D02*
X98298000Y-147320000D01*
X96012000Y-148257500D02*
X97360500Y-148257500D01*
X70662803Y-152603197D02*
X70662803Y-149225002D01*
X70662803Y-149225002D02*
X70662801Y-149225000D01*
D20*
X72582124Y-150131212D02*
X71569013Y-150131212D01*
X71569013Y-150131212D02*
X70662801Y-149225000D01*
D21*
%TO.N,+5V*%
X60929995Y-149830000D02*
X60959995Y-149860000D01*
X57150000Y-149830000D02*
X60929995Y-149830000D01*
D20*
%TO.N,/RESET*%
X59055000Y-145415000D02*
X60960000Y-143510000D01*
X59055000Y-146177000D02*
X59055000Y-145415000D01*
X62738000Y-155321000D02*
X61976000Y-156083000D01*
X63246000Y-155321000D02*
X62738000Y-155321000D01*
X80236555Y-148009891D02*
X80966002Y-147280442D01*
X80966002Y-147280442D02*
X81366001Y-146880443D01*
%TO.N,/PC14*%
X90602000Y-149453400D02*
X90601800Y-149453600D01*
X90602000Y-148380000D02*
X90602000Y-149453400D01*
X95772000Y-143510000D02*
X96520000Y-143510000D01*
X90602000Y-148380000D02*
X90902000Y-148380000D01*
X89357200Y-147472400D02*
X90264800Y-148380000D01*
X84810600Y-148717000D02*
X86055200Y-147472400D01*
X86055200Y-147472400D02*
X89357200Y-147472400D01*
X82357307Y-148717000D02*
X84810600Y-148717000D01*
X81650769Y-149423538D02*
X82357307Y-148717000D01*
X90264800Y-148380000D02*
X90602000Y-148380000D01*
X81650769Y-149424105D02*
X81650769Y-149423538D01*
%TO.N,/PC15*%
X93802000Y-149453400D02*
X93802200Y-149453600D01*
X93802000Y-148380000D02*
X93802000Y-149453400D01*
X93802000Y-143688000D02*
X93980000Y-143510000D01*
X93516000Y-148380000D02*
X91846400Y-146710400D01*
X93802000Y-148380000D02*
X93516000Y-148380000D01*
X93980000Y-144576800D02*
X93980000Y-143510000D01*
X91846400Y-146710400D02*
X93980000Y-144576800D01*
X90779600Y-146710400D02*
X91846400Y-146710400D01*
X86080600Y-146710400D02*
X90779600Y-146710400D01*
X84582000Y-148209000D02*
X86080600Y-146710400D01*
X82158766Y-148209000D02*
X84582000Y-148209000D01*
X81297215Y-149070551D02*
X82158766Y-148209000D01*
%TO.N,/OSCIN*%
X80943662Y-148716998D02*
X79800680Y-149859980D01*
X79800680Y-149859980D02*
X79800680Y-149860000D01*
%TO.N,/OSCOUT*%
X81277954Y-147675600D02*
X83997800Y-147675600D01*
X83997800Y-147675600D02*
X84201000Y-147472400D01*
X80590109Y-148363445D02*
X81277954Y-147675600D01*
%TO.N,Net-(D1-Pad1)*%
X96012000Y-155877500D02*
X93728300Y-155877500D01*
%TO.N,Net-(D2-Pad1)*%
X94409508Y-146382500D02*
X93980008Y-146812000D01*
X96012000Y-146382500D02*
X94409508Y-146382500D01*
%TO.N,Net-(J1-Pad2)*%
X59639200Y-150622000D02*
X65531743Y-150622000D01*
X59497200Y-150480000D02*
X59639200Y-150622000D01*
X65531743Y-150622000D02*
X65785997Y-150876254D01*
X57150000Y-150480000D02*
X59497200Y-150480000D01*
%TO.N,Net-(J1-Pad3)*%
X60858400Y-152628600D02*
X65076210Y-152628600D01*
X59359800Y-151130000D02*
X60858400Y-152628600D01*
X65076210Y-152628600D02*
X65809231Y-151895579D01*
X57150000Y-151130000D02*
X59359800Y-151130000D01*
%TO.N,/PA14*%
X98298000Y-153263600D02*
X98298000Y-152400000D01*
X78028800Y-156464000D02*
X77470000Y-156464000D01*
X78468788Y-156024012D02*
X78028800Y-156464000D01*
X78468788Y-156017876D02*
X78468788Y-156024012D01*
%TO.N,/PA13*%
X98891520Y-157327600D02*
X100931560Y-155287560D01*
X96012000Y-157327600D02*
X98891520Y-157327600D01*
X95255199Y-158084401D02*
X96012000Y-157327600D01*
X95255199Y-159346707D02*
X95255199Y-158084401D01*
X94073906Y-160528000D02*
X95255199Y-159346707D01*
X76106094Y-160528000D02*
X94073906Y-160528000D01*
X74935199Y-159357105D02*
X76106094Y-160528000D01*
X74935199Y-156139675D02*
X74935199Y-159357105D01*
X75764105Y-155310769D02*
X74935199Y-156139675D01*
%TO.N,/PB11*%
X65245411Y-145255411D02*
X69120537Y-145255411D01*
X63500000Y-143510000D02*
X65245411Y-145255411D01*
X69120537Y-145255411D02*
X73289231Y-149424105D01*
%TO.N,/PB10*%
X69377634Y-144805400D02*
X73642785Y-149070551D01*
X67335400Y-144805400D02*
X69377634Y-144805400D01*
X66040000Y-143510000D02*
X67335400Y-144805400D01*
%TO.N,/PB1*%
X68910200Y-143510000D02*
X68580000Y-143510000D01*
X72313800Y-146913600D02*
X68910200Y-143510000D01*
X72898000Y-146913600D02*
X72313800Y-146913600D01*
X74347845Y-148363445D02*
X72898000Y-146913600D01*
X74349891Y-148363445D02*
X74347845Y-148363445D01*
%TO.N,/PB0*%
X71120000Y-144424400D02*
X71120000Y-143510000D01*
X74703445Y-148007845D02*
X71120000Y-144424400D01*
X74703445Y-148009891D02*
X74703445Y-148007845D01*
%TO.N,/PA7*%
X73660000Y-146259340D02*
X75056998Y-147656338D01*
X73660000Y-143510000D02*
X73660000Y-146259340D01*
%TO.N,/PA6*%
X74244200Y-145465800D02*
X76200000Y-143510000D01*
X74244200Y-146136434D02*
X74244200Y-145465800D01*
X75410551Y-147302785D02*
X74244200Y-146136434D01*
%TO.N,/PA5*%
X75292614Y-146477740D02*
X75292614Y-146463414D01*
X77419200Y-144830800D02*
X78740000Y-143510000D01*
X75565000Y-144830800D02*
X77419200Y-144830800D01*
X74904600Y-145491200D02*
X75565000Y-144830800D01*
X74904600Y-146089726D02*
X74904600Y-145491200D01*
X75764105Y-146949231D02*
X74904600Y-146089726D01*
%TO.N,/PA4*%
X79316506Y-144805400D02*
X80611906Y-143510000D01*
X78409800Y-144805400D02*
X79316506Y-144805400D01*
X77934389Y-145280811D02*
X78409800Y-144805400D01*
X75438000Y-145643600D02*
X75800789Y-145280811D01*
X80611906Y-143510000D02*
X81280000Y-143510000D01*
X75800789Y-145280811D02*
X77934389Y-145280811D01*
X76117658Y-146595678D02*
X75438000Y-145916020D01*
X75438000Y-145916020D02*
X75438000Y-145643600D01*
%TO.N,/PA3*%
X78105000Y-147875912D02*
X76471212Y-146242124D01*
X78105000Y-148971000D02*
X78105000Y-147875912D01*
%TO.N,/PA2*%
X84614589Y-145255411D02*
X86360000Y-143510000D01*
X79455501Y-145255411D02*
X84614589Y-145255411D01*
X78468788Y-146242124D02*
X79455501Y-145255411D01*
%TO.N,/PA1*%
X86704578Y-145705422D02*
X88900000Y-143510000D01*
X79712598Y-145705422D02*
X86704578Y-145705422D01*
X78822342Y-146595678D02*
X79712598Y-145705422D01*
%TO.N,/PA0*%
X90500201Y-144449799D02*
X91440000Y-143510000D01*
X88794567Y-146155433D02*
X90500201Y-144449799D01*
X79969693Y-146155433D02*
X88794567Y-146155433D01*
X79175895Y-146949231D02*
X79969693Y-146155433D01*
%TO.N,/PC13*%
X91465400Y-150342600D02*
X92202000Y-149606000D01*
X85979000Y-150342600D02*
X91465400Y-150342600D01*
X84836000Y-149199600D02*
X85979000Y-150342600D01*
X82582380Y-149199600D02*
X84836000Y-149199600D01*
X82004322Y-149777658D02*
X82582380Y-149199600D01*
%TO.N,V_BATT*%
X98348800Y-156845000D02*
X101600000Y-153593800D01*
X93395800Y-156845000D02*
X98348800Y-156845000D01*
X91694000Y-155143200D02*
X93395800Y-156845000D01*
X86385400Y-155143200D02*
X91694000Y-155143200D01*
X82357876Y-151115676D02*
X86385400Y-155143200D01*
X82357876Y-150131212D02*
X82357876Y-151115676D01*
D21*
X101600000Y-143510000D02*
X101600000Y-153593800D01*
D20*
%TO.N,/PB12*%
X59055000Y-155194000D02*
X59055000Y-156083026D01*
X60858400Y-153390600D02*
X59055000Y-155194000D01*
X71320312Y-153390600D02*
X60858400Y-153390600D01*
X72582124Y-152128788D02*
X71320312Y-153390600D01*
%TO.N,/PB13*%
X71519420Y-153898600D02*
X72935678Y-152482342D01*
X60147200Y-155321000D02*
X61569600Y-153898600D01*
X60147200Y-156387800D02*
X60147200Y-155321000D01*
X59309000Y-157226000D02*
X60147200Y-156387800D01*
X57404000Y-157226000D02*
X59309000Y-157226000D01*
X61569600Y-153898600D02*
X71519420Y-153898600D01*
X55880000Y-158750000D02*
X57404000Y-157226000D01*
%TO.N,/PB14*%
X60960000Y-156476700D02*
X58686700Y-158750000D01*
X60960000Y-155676600D02*
X60960000Y-156476700D01*
X71718526Y-154406600D02*
X62230000Y-154406600D01*
X58686700Y-158750000D02*
X58420000Y-158750000D01*
X62230000Y-154406600D02*
X60960000Y-155676600D01*
X73289231Y-152835895D02*
X71718526Y-154406600D01*
%TO.N,/PB15*%
X70753067Y-156079167D02*
X73642785Y-153189449D01*
X67059833Y-156079167D02*
X70753067Y-156079167D01*
X66986831Y-156152169D02*
X67059833Y-156079167D01*
X66961659Y-156152169D02*
X66986831Y-156152169D01*
X66268828Y-156845000D02*
X66961659Y-156152169D01*
X62865000Y-156845000D02*
X66268828Y-156845000D01*
X60960000Y-158750000D02*
X62865000Y-156845000D01*
%TO.N,/PA8*%
X64897000Y-157353000D02*
X63500000Y-158750000D01*
X67371822Y-156529178D02*
X66548000Y-157353000D01*
X66548000Y-157353000D02*
X64897000Y-157353000D01*
X71010162Y-156529178D02*
X67371822Y-156529178D01*
X73996338Y-153543002D02*
X71010162Y-156529178D01*
%TO.N,/PA9*%
X74347845Y-153896555D02*
X74349891Y-153896555D01*
X71265211Y-156979189D02*
X74347845Y-153896555D01*
X67810811Y-156979189D02*
X71265211Y-156979189D01*
X66040000Y-158750000D02*
X67810811Y-156979189D01*
%TO.N,/PA10*%
X74692791Y-154250109D02*
X74703445Y-154250109D01*
X71513700Y-157429200D02*
X74692791Y-154250109D01*
X69900800Y-157429200D02*
X71513700Y-157429200D01*
X68580000Y-158750000D02*
X69900800Y-157429200D01*
%TO.N,/PA11*%
X74489050Y-155171610D02*
X75056998Y-154603662D01*
X71120000Y-158540660D02*
X74489050Y-155171610D01*
X71120000Y-158750000D02*
X71120000Y-158540660D01*
%TO.N,/PA12*%
X73660000Y-156707766D02*
X75410551Y-154957215D01*
X73660000Y-158750000D02*
X73660000Y-156707766D01*
%TO.N,/PA15*%
X77724000Y-157226000D02*
X76200000Y-158750000D01*
X79146400Y-157226000D02*
X77724000Y-157226000D01*
X79451200Y-156286200D02*
X79451200Y-156921200D01*
X79444220Y-156286200D02*
X79451200Y-156286200D01*
X79451200Y-156921200D02*
X79146400Y-157226000D01*
X78822342Y-155664322D02*
X79444220Y-156286200D01*
%TO.N,/PB3*%
X79188380Y-155310769D02*
X79175895Y-155310769D01*
X80010000Y-156132389D02*
X79188380Y-155310769D01*
X80010000Y-157480000D02*
X80010000Y-156132389D01*
X78740000Y-158750000D02*
X80010000Y-157480000D01*
%TO.N,/PB4*%
X81280000Y-156718000D02*
X81280000Y-158750000D01*
X79529449Y-154967449D02*
X81280000Y-156718000D01*
X79529449Y-154957215D02*
X79529449Y-154967449D01*
%TO.N,/PB5*%
X79883002Y-154603662D02*
X79883002Y-154609802D01*
X83820000Y-158546800D02*
X83820000Y-158750000D01*
X79883002Y-154609802D02*
X83820000Y-158546800D01*
%TO.N,/PB6*%
X84886800Y-157276800D02*
X86360000Y-158750000D01*
X83263246Y-157276800D02*
X84886800Y-157276800D01*
X80236555Y-154250109D02*
X83263246Y-157276800D01*
%TO.N,/PB7*%
X82448576Y-155755022D02*
X80590109Y-153896555D01*
X83462354Y-156768800D02*
X82448576Y-155755022D01*
X86918800Y-156768800D02*
X83462354Y-156768800D01*
X88900000Y-158750000D02*
X86918800Y-156768800D01*
%TO.N,/PB8*%
X88950800Y-156260800D02*
X91440000Y-158750000D01*
X84368566Y-156260800D02*
X88950800Y-156260800D01*
X81297215Y-153189449D02*
X84368566Y-156260800D01*
%TO.N,/PB9*%
X90957400Y-155727400D02*
X93040201Y-157810201D01*
X84562841Y-155727400D02*
X90957400Y-155727400D01*
X93040201Y-157810201D02*
X93980000Y-158750000D01*
X81671336Y-152835895D02*
X84562841Y-155727400D01*
X81650769Y-152835895D02*
X81671336Y-152835895D01*
%TO.N,/BOOT0*%
X80308660Y-152908000D02*
X80943662Y-153543002D01*
X79248000Y-152908000D02*
X80308660Y-152908000D01*
%TO.N,/BOOT1*%
X73996338Y-148723138D02*
X75031600Y-149758400D01*
X73996338Y-148716998D02*
X73996338Y-148723138D01*
%TD*%
D22*
%TO.N,GND*%
X103815001Y-156194039D02*
X103815000Y-162235000D01*
X51125000Y-162235000D01*
X51125000Y-158627890D01*
X52100200Y-158627890D01*
X52100200Y-158872110D01*
X52147845Y-159111636D01*
X52241303Y-159337266D01*
X52376984Y-159540327D01*
X52549673Y-159713016D01*
X52752734Y-159848697D01*
X52978364Y-159942155D01*
X53217890Y-159989800D01*
X53462110Y-159989800D01*
X53701636Y-159942155D01*
X53927266Y-159848697D01*
X54130327Y-159713016D01*
X54303016Y-159540327D01*
X54438697Y-159337266D01*
X54532155Y-159111636D01*
X54579800Y-158872110D01*
X54579800Y-158627890D01*
X54532155Y-158388364D01*
X54438697Y-158162734D01*
X54303016Y-157959673D01*
X54130327Y-157786984D01*
X53927266Y-157651303D01*
X53701636Y-157557845D01*
X53462110Y-157510200D01*
X53217890Y-157510200D01*
X52978364Y-157557845D01*
X52752734Y-157651303D01*
X52549673Y-157786984D01*
X52376984Y-157959673D01*
X52241303Y-158162734D01*
X52147845Y-158388364D01*
X52100200Y-158627890D01*
X51125000Y-158627890D01*
X51125000Y-155392000D01*
X51449653Y-155392000D01*
X51390525Y-155440525D01*
X51278057Y-155577568D01*
X51194486Y-155733919D01*
X51143023Y-155903569D01*
X51125646Y-156080000D01*
X51143023Y-156256431D01*
X51194486Y-156426081D01*
X51278057Y-156582432D01*
X51390525Y-156719475D01*
X51527568Y-156831943D01*
X51683919Y-156915514D01*
X51853569Y-156966977D01*
X51985793Y-156980000D01*
X53274207Y-156980000D01*
X53406431Y-156966977D01*
X53576081Y-156915514D01*
X53732432Y-156831943D01*
X53869475Y-156719475D01*
X53981943Y-156582432D01*
X54065514Y-156426081D01*
X54116977Y-156256431D01*
X54134354Y-156080000D01*
X54116977Y-155903569D01*
X54065514Y-155733919D01*
X53981943Y-155577568D01*
X53869475Y-155440525D01*
X53810347Y-155392000D01*
X55387961Y-155392000D01*
X55402072Y-155390610D01*
X55406775Y-155390643D01*
X55411292Y-155390201D01*
X55457802Y-155385313D01*
X55390525Y-155440525D01*
X55278057Y-155577568D01*
X55194486Y-155733919D01*
X55143023Y-155903569D01*
X55125646Y-156080000D01*
X55143023Y-156256431D01*
X55194486Y-156426081D01*
X55278057Y-156582432D01*
X55390525Y-156719475D01*
X55527568Y-156831943D01*
X55683919Y-156915514D01*
X55853569Y-156966977D01*
X55985793Y-156980000D01*
X57048959Y-156980000D01*
X56403902Y-157625057D01*
X56241636Y-157557845D01*
X56002110Y-157510200D01*
X55757890Y-157510200D01*
X55518364Y-157557845D01*
X55292734Y-157651303D01*
X55089673Y-157786984D01*
X54916984Y-157959673D01*
X54781303Y-158162734D01*
X54687845Y-158388364D01*
X54640200Y-158627890D01*
X54640200Y-158872110D01*
X54687845Y-159111636D01*
X54781303Y-159337266D01*
X54916984Y-159540327D01*
X55089673Y-159713016D01*
X55292734Y-159848697D01*
X55518364Y-159942155D01*
X55757890Y-159989800D01*
X56002110Y-159989800D01*
X56241636Y-159942155D01*
X56467266Y-159848697D01*
X56670327Y-159713016D01*
X56843016Y-159540327D01*
X56978697Y-159337266D01*
X57072155Y-159111636D01*
X57119800Y-158872110D01*
X57119800Y-158627890D01*
X57072155Y-158388364D01*
X57004943Y-158226098D01*
X57580041Y-157651000D01*
X57833466Y-157651000D01*
X57832734Y-157651303D01*
X57629673Y-157786984D01*
X57456984Y-157959673D01*
X57321303Y-158162734D01*
X57227845Y-158388364D01*
X57180200Y-158627890D01*
X57180200Y-158872110D01*
X57227845Y-159111636D01*
X57321303Y-159337266D01*
X57456984Y-159540327D01*
X57629673Y-159713016D01*
X57832734Y-159848697D01*
X58058364Y-159942155D01*
X58297890Y-159989800D01*
X58542110Y-159989800D01*
X58781636Y-159942155D01*
X59007266Y-159848697D01*
X59210327Y-159713016D01*
X59383016Y-159540327D01*
X59518697Y-159337266D01*
X59612155Y-159111636D01*
X59659800Y-158872110D01*
X59659800Y-158627890D01*
X59618330Y-158419410D01*
X59851613Y-158186127D01*
X59767845Y-158388364D01*
X59720200Y-158627890D01*
X59720200Y-158872110D01*
X59767845Y-159111636D01*
X59861303Y-159337266D01*
X59996984Y-159540327D01*
X60169673Y-159713016D01*
X60372734Y-159848697D01*
X60598364Y-159942155D01*
X60837890Y-159989800D01*
X61082110Y-159989800D01*
X61321636Y-159942155D01*
X61547266Y-159848697D01*
X61750327Y-159713016D01*
X61923016Y-159540327D01*
X62058697Y-159337266D01*
X62152155Y-159111636D01*
X62199800Y-158872110D01*
X62199800Y-158627890D01*
X62152155Y-158388364D01*
X62084943Y-158226098D01*
X63041041Y-157270000D01*
X64378959Y-157270000D01*
X64023902Y-157625057D01*
X63861636Y-157557845D01*
X63622110Y-157510200D01*
X63377890Y-157510200D01*
X63138364Y-157557845D01*
X62912734Y-157651303D01*
X62709673Y-157786984D01*
X62536984Y-157959673D01*
X62401303Y-158162734D01*
X62307845Y-158388364D01*
X62260200Y-158627890D01*
X62260200Y-158872110D01*
X62307845Y-159111636D01*
X62401303Y-159337266D01*
X62536984Y-159540327D01*
X62709673Y-159713016D01*
X62912734Y-159848697D01*
X63138364Y-159942155D01*
X63377890Y-159989800D01*
X63622110Y-159989800D01*
X63861636Y-159942155D01*
X64087266Y-159848697D01*
X64290327Y-159713016D01*
X64463016Y-159540327D01*
X64598697Y-159337266D01*
X64692155Y-159111636D01*
X64739800Y-158872110D01*
X64739800Y-158627890D01*
X64692155Y-158388364D01*
X64624943Y-158226098D01*
X65073041Y-157778000D01*
X65263119Y-157778000D01*
X65249673Y-157786984D01*
X65076984Y-157959673D01*
X64941303Y-158162734D01*
X64847845Y-158388364D01*
X64800200Y-158627890D01*
X64800200Y-158872110D01*
X64847845Y-159111636D01*
X64941303Y-159337266D01*
X65076984Y-159540327D01*
X65249673Y-159713016D01*
X65452734Y-159848697D01*
X65678364Y-159942155D01*
X65917890Y-159989800D01*
X66162110Y-159989800D01*
X66401636Y-159942155D01*
X66627266Y-159848697D01*
X66830327Y-159713016D01*
X67003016Y-159540327D01*
X67138697Y-159337266D01*
X67232155Y-159111636D01*
X67279800Y-158872110D01*
X67279800Y-158627890D01*
X67232155Y-158388364D01*
X67164943Y-158226098D01*
X67986852Y-157404189D01*
X69324770Y-157404189D01*
X69103902Y-157625057D01*
X68941636Y-157557845D01*
X68702110Y-157510200D01*
X68457890Y-157510200D01*
X68218364Y-157557845D01*
X67992734Y-157651303D01*
X67789673Y-157786984D01*
X67616984Y-157959673D01*
X67481303Y-158162734D01*
X67387845Y-158388364D01*
X67340200Y-158627890D01*
X67340200Y-158872110D01*
X67387845Y-159111636D01*
X67481303Y-159337266D01*
X67616984Y-159540327D01*
X67789673Y-159713016D01*
X67992734Y-159848697D01*
X68218364Y-159942155D01*
X68457890Y-159989800D01*
X68702110Y-159989800D01*
X68941636Y-159942155D01*
X69167266Y-159848697D01*
X69370327Y-159713016D01*
X69543016Y-159540327D01*
X69678697Y-159337266D01*
X69772155Y-159111636D01*
X69819800Y-158872110D01*
X69819800Y-158627890D01*
X69772155Y-158388364D01*
X69704943Y-158226098D01*
X70076841Y-157854200D01*
X70262457Y-157854200D01*
X70156984Y-157959673D01*
X70021303Y-158162734D01*
X69927845Y-158388364D01*
X69880200Y-158627890D01*
X69880200Y-158872110D01*
X69927845Y-159111636D01*
X70021303Y-159337266D01*
X70156984Y-159540327D01*
X70329673Y-159713016D01*
X70532734Y-159848697D01*
X70758364Y-159942155D01*
X70997890Y-159989800D01*
X71242110Y-159989800D01*
X71481636Y-159942155D01*
X71707266Y-159848697D01*
X71910327Y-159713016D01*
X72083016Y-159540327D01*
X72218697Y-159337266D01*
X72312155Y-159111636D01*
X72359800Y-158872110D01*
X72359800Y-158627890D01*
X72312155Y-158388364D01*
X72218697Y-158162734D01*
X72170740Y-158090961D01*
X73235001Y-157026700D01*
X73235001Y-157584091D01*
X73072734Y-157651303D01*
X72869673Y-157786984D01*
X72696984Y-157959673D01*
X72561303Y-158162734D01*
X72467845Y-158388364D01*
X72420200Y-158627890D01*
X72420200Y-158872110D01*
X72467845Y-159111636D01*
X72561303Y-159337266D01*
X72696984Y-159540327D01*
X72869673Y-159713016D01*
X73072734Y-159848697D01*
X73298364Y-159942155D01*
X73537890Y-159989800D01*
X73782110Y-159989800D01*
X74021636Y-159942155D01*
X74247266Y-159848697D01*
X74450327Y-159713016D01*
X74576236Y-159587107D01*
X74580116Y-159594365D01*
X74633226Y-159659079D01*
X74649438Y-159672384D01*
X75790810Y-160813756D01*
X75804120Y-160829974D01*
X75868834Y-160883084D01*
X75942665Y-160922547D01*
X75942667Y-160922548D01*
X76022780Y-160946850D01*
X76106094Y-160955056D01*
X76126968Y-160953000D01*
X94053039Y-160953000D01*
X94073906Y-160955055D01*
X94094773Y-160953000D01*
X94094780Y-160953000D01*
X94157220Y-160946850D01*
X94237333Y-160922548D01*
X94311166Y-160883084D01*
X94375880Y-160829974D01*
X94389190Y-160813756D01*
X95540957Y-159661989D01*
X95557173Y-159648681D01*
X95605929Y-159589272D01*
X95729673Y-159713016D01*
X95932734Y-159848697D01*
X96158364Y-159942155D01*
X96397890Y-159989800D01*
X96642110Y-159989800D01*
X96881636Y-159942155D01*
X97107266Y-159848697D01*
X97310327Y-159713016D01*
X97397762Y-159625581D01*
X98222602Y-159625581D01*
X98317852Y-159817414D01*
X98540354Y-159941690D01*
X98782826Y-160020170D01*
X99035950Y-160049838D01*
X99289998Y-160029554D01*
X99535207Y-159960097D01*
X99762154Y-159844137D01*
X99802148Y-159817414D01*
X99897398Y-159625581D01*
X99060000Y-158788184D01*
X98222602Y-159625581D01*
X97397762Y-159625581D01*
X97483016Y-159540327D01*
X97618697Y-159337266D01*
X97712155Y-159111636D01*
X97759800Y-158872110D01*
X97759800Y-158725950D01*
X97760162Y-158725950D01*
X97780446Y-158979998D01*
X97849903Y-159225207D01*
X97965863Y-159452154D01*
X97992586Y-159492148D01*
X98184419Y-159587398D01*
X99021816Y-158750000D01*
X99098184Y-158750000D01*
X99935581Y-159587398D01*
X100127414Y-159492148D01*
X100251690Y-159269646D01*
X100330170Y-159027174D01*
X100359838Y-158774050D01*
X100348169Y-158627890D01*
X100360200Y-158627890D01*
X100360200Y-158872110D01*
X100407845Y-159111636D01*
X100501303Y-159337266D01*
X100636984Y-159540327D01*
X100809673Y-159713016D01*
X101012734Y-159848697D01*
X101238364Y-159942155D01*
X101477890Y-159989800D01*
X101722110Y-159989800D01*
X101961636Y-159942155D01*
X102187266Y-159848697D01*
X102390327Y-159713016D01*
X102563016Y-159540327D01*
X102698697Y-159337266D01*
X102792155Y-159111636D01*
X102839800Y-158872110D01*
X102839800Y-158627890D01*
X102792155Y-158388364D01*
X102698697Y-158162734D01*
X102563016Y-157959673D01*
X102390327Y-157786984D01*
X102187266Y-157651303D01*
X101961636Y-157557845D01*
X101722110Y-157510200D01*
X101477890Y-157510200D01*
X101238364Y-157557845D01*
X101012734Y-157651303D01*
X100809673Y-157786984D01*
X100636984Y-157959673D01*
X100501303Y-158162734D01*
X100407845Y-158388364D01*
X100360200Y-158627890D01*
X100348169Y-158627890D01*
X100339554Y-158520002D01*
X100270097Y-158274793D01*
X100154137Y-158047846D01*
X100127414Y-158007852D01*
X99935581Y-157912602D01*
X99098184Y-158750000D01*
X99021816Y-158750000D01*
X98184419Y-157912602D01*
X97992586Y-158007852D01*
X97868310Y-158230354D01*
X97789830Y-158472826D01*
X97760162Y-158725950D01*
X97759800Y-158725950D01*
X97759800Y-158627890D01*
X97712155Y-158388364D01*
X97618697Y-158162734D01*
X97483016Y-157959673D01*
X97310327Y-157786984D01*
X97258868Y-157752600D01*
X98283088Y-157752600D01*
X98222602Y-157874419D01*
X99060000Y-158711816D01*
X99897398Y-157874419D01*
X99802148Y-157682586D01*
X99579646Y-157558310D01*
X99339558Y-157480602D01*
X100837581Y-155982580D01*
X100862616Y-155987560D01*
X101000504Y-155987560D01*
X101135742Y-155960659D01*
X101263134Y-155907892D01*
X101377784Y-155831286D01*
X101475286Y-155733784D01*
X101551892Y-155619134D01*
X101604659Y-155491742D01*
X101631560Y-155356504D01*
X101631560Y-155218616D01*
X101604659Y-155083378D01*
X101551892Y-154955986D01*
X101475286Y-154841336D01*
X101377784Y-154743834D01*
X101263134Y-154667228D01*
X101167306Y-154627535D01*
X101712743Y-154082098D01*
X101792267Y-154057975D01*
X101879129Y-154011546D01*
X101955264Y-153949064D01*
X102017746Y-153872929D01*
X102064175Y-153786067D01*
X102092765Y-153691817D01*
X102100000Y-153618360D01*
X102100000Y-144644843D01*
X102187266Y-144608697D01*
X102390327Y-144473016D01*
X102563016Y-144300327D01*
X102698697Y-144097266D01*
X102792155Y-143871636D01*
X102839800Y-143632110D01*
X102839800Y-143387890D01*
X102792155Y-143148364D01*
X102698697Y-142922734D01*
X102563016Y-142719673D01*
X102390327Y-142546984D01*
X102187266Y-142411303D01*
X101961636Y-142317845D01*
X101722110Y-142270200D01*
X101477890Y-142270200D01*
X101238364Y-142317845D01*
X101012734Y-142411303D01*
X100809673Y-142546984D01*
X100636984Y-142719673D01*
X100501303Y-142922734D01*
X100407845Y-143148364D01*
X100360200Y-143387890D01*
X100360200Y-143632110D01*
X100407845Y-143871636D01*
X100501303Y-144097266D01*
X100636984Y-144300327D01*
X100809673Y-144473016D01*
X101012734Y-144608697D01*
X101100000Y-144644843D01*
X101100001Y-153492758D01*
X99470547Y-155122213D01*
X99413173Y-154967000D01*
X98325000Y-154967000D01*
X98325000Y-156055198D01*
X98480209Y-156112550D01*
X98172760Y-156420000D01*
X96923785Y-156420000D01*
X96971950Y-156329889D01*
X97002975Y-156227613D01*
X97013451Y-156121250D01*
X97013451Y-155633750D01*
X97002975Y-155527387D01*
X96971950Y-155425111D01*
X96921568Y-155330853D01*
X96853765Y-155248235D01*
X96771147Y-155180432D01*
X96723506Y-155154967D01*
X97113346Y-155154967D01*
X97121257Y-155194745D01*
X97193566Y-155419421D01*
X97308318Y-155625673D01*
X97461103Y-155805575D01*
X97646049Y-155952214D01*
X97856049Y-156059954D01*
X98083033Y-156124655D01*
X98271000Y-156055198D01*
X98271000Y-154967000D01*
X97182827Y-154967000D01*
X97113346Y-155154967D01*
X96723506Y-155154967D01*
X96676889Y-155130050D01*
X96574613Y-155099025D01*
X96468250Y-155088549D01*
X95555750Y-155088549D01*
X95449387Y-155099025D01*
X95347111Y-155130050D01*
X95252853Y-155180432D01*
X95170235Y-155248235D01*
X95102432Y-155330853D01*
X95052050Y-155425111D01*
X95043742Y-155452500D01*
X94286207Y-155452500D01*
X94272026Y-155431276D01*
X94174524Y-155333774D01*
X94059874Y-155257168D01*
X93932482Y-155204401D01*
X93797244Y-155177500D01*
X93659356Y-155177500D01*
X93524118Y-155204401D01*
X93396726Y-155257168D01*
X93282076Y-155333774D01*
X93184574Y-155431276D01*
X93107968Y-155545926D01*
X93055201Y-155673318D01*
X93028300Y-155808556D01*
X93028300Y-155876460D01*
X92009284Y-154857444D01*
X91995974Y-154841226D01*
X91931260Y-154788116D01*
X91857427Y-154748652D01*
X91779940Y-154725146D01*
X91802647Y-154697477D01*
X91830504Y-154645360D01*
X91847659Y-154588810D01*
X91853451Y-154530000D01*
X91853451Y-153230000D01*
X91847659Y-153171190D01*
X91830504Y-153114640D01*
X91802647Y-153062523D01*
X91765158Y-153016842D01*
X91719477Y-152979353D01*
X91667360Y-152951496D01*
X91610810Y-152934341D01*
X91552000Y-152928549D01*
X89652000Y-152928549D01*
X89593190Y-152934341D01*
X89536640Y-152951496D01*
X89484523Y-152979353D01*
X89438842Y-153016842D01*
X89401353Y-153062523D01*
X89373496Y-153114640D01*
X89356341Y-153171190D01*
X89350549Y-153230000D01*
X89350549Y-154530000D01*
X89356341Y-154588810D01*
X89373496Y-154645360D01*
X89401353Y-154697477D01*
X89418360Y-154718200D01*
X86561441Y-154718200D01*
X86417782Y-154574541D01*
X86510584Y-154593000D01*
X86717416Y-154593000D01*
X86920274Y-154552650D01*
X87111362Y-154473498D01*
X87283336Y-154358589D01*
X87429589Y-154212336D01*
X87544498Y-154040362D01*
X87623650Y-153849274D01*
X87664000Y-153646416D01*
X87664000Y-153439584D01*
X87623650Y-153236726D01*
X87544498Y-153045638D01*
X87429589Y-152873664D01*
X87283336Y-152727411D01*
X87111362Y-152612502D01*
X86920274Y-152533350D01*
X86717416Y-152493000D01*
X86510584Y-152493000D01*
X86307726Y-152533350D01*
X86116638Y-152612502D01*
X85944664Y-152727411D01*
X85798411Y-152873664D01*
X85683502Y-153045638D01*
X85604350Y-153236726D01*
X85564000Y-153439584D01*
X85564000Y-153646416D01*
X85582459Y-153739218D01*
X82782876Y-150939636D01*
X82782876Y-150344660D01*
X83145558Y-149981978D01*
X83192375Y-149924932D01*
X83227162Y-149859849D01*
X83248585Y-149789229D01*
X83255818Y-149715787D01*
X83248585Y-149642345D01*
X83243202Y-149624600D01*
X84659960Y-149624600D01*
X85663721Y-150628362D01*
X85665065Y-150630000D01*
X84563950Y-150630000D01*
X84520224Y-150586274D01*
X84405574Y-150509668D01*
X84278182Y-150456901D01*
X84142944Y-150430000D01*
X84005056Y-150430000D01*
X83869818Y-150456901D01*
X83742426Y-150509668D01*
X83627776Y-150586274D01*
X83530274Y-150683776D01*
X83453668Y-150798426D01*
X83400901Y-150925818D01*
X83374000Y-151061056D01*
X83374000Y-151198944D01*
X83400901Y-151334182D01*
X83453668Y-151461574D01*
X83530274Y-151576224D01*
X83627776Y-151673726D01*
X83742426Y-151750332D01*
X83869818Y-151803099D01*
X84005056Y-151830000D01*
X84142944Y-151830000D01*
X84278182Y-151803099D01*
X84405574Y-151750332D01*
X84520224Y-151673726D01*
X84563950Y-151630000D01*
X95377840Y-151630000D01*
X95402400Y-151632419D01*
X95426960Y-151630000D01*
X95500417Y-151622765D01*
X95512001Y-151619251D01*
X95512000Y-153217858D01*
X95449387Y-153224025D01*
X95347111Y-153255050D01*
X95252853Y-153305432D01*
X95170235Y-153373235D01*
X95102432Y-153455853D01*
X95053451Y-153547490D01*
X95053451Y-153230000D01*
X95047659Y-153171190D01*
X95030504Y-153114640D01*
X95002647Y-153062523D01*
X94965158Y-153016842D01*
X94919477Y-152979353D01*
X94867360Y-152951496D01*
X94810810Y-152934341D01*
X94752000Y-152928549D01*
X92852000Y-152928549D01*
X92793190Y-152934341D01*
X92736640Y-152951496D01*
X92684523Y-152979353D01*
X92638842Y-153016842D01*
X92601353Y-153062523D01*
X92573496Y-153114640D01*
X92556341Y-153171190D01*
X92550549Y-153230000D01*
X92550549Y-154530000D01*
X92556341Y-154588810D01*
X92573496Y-154645360D01*
X92601353Y-154697477D01*
X92638842Y-154743158D01*
X92684523Y-154780647D01*
X92736640Y-154808504D01*
X92793190Y-154825659D01*
X92852000Y-154831451D01*
X94752000Y-154831451D01*
X94810810Y-154825659D01*
X94867360Y-154808504D01*
X94919477Y-154780647D01*
X94965158Y-154743158D01*
X95002647Y-154697477D01*
X95030504Y-154645360D01*
X95047659Y-154588810D01*
X95053451Y-154530000D01*
X95053451Y-154457510D01*
X95102432Y-154549147D01*
X95170235Y-154631765D01*
X95252853Y-154699568D01*
X95347111Y-154749950D01*
X95449387Y-154780975D01*
X95555750Y-154791451D01*
X96468250Y-154791451D01*
X96574613Y-154780975D01*
X96676889Y-154749950D01*
X96723505Y-154725033D01*
X97113346Y-154725033D01*
X97182827Y-154913000D01*
X98271000Y-154913000D01*
X98271000Y-153824802D01*
X98325000Y-153824802D01*
X98325000Y-154913000D01*
X99413173Y-154913000D01*
X99482654Y-154725033D01*
X99474743Y-154685255D01*
X99402434Y-154460579D01*
X99287682Y-154254327D01*
X99134897Y-154074425D01*
X98949951Y-153927786D01*
X98739951Y-153820046D01*
X98512967Y-153755345D01*
X98325000Y-153824802D01*
X98271000Y-153824802D01*
X98083033Y-153755345D01*
X97856049Y-153820046D01*
X97646049Y-153927786D01*
X97461103Y-154074425D01*
X97308318Y-154254327D01*
X97193566Y-154460579D01*
X97121257Y-154685255D01*
X97113346Y-154725033D01*
X96723505Y-154725033D01*
X96771147Y-154699568D01*
X96853765Y-154631765D01*
X96921568Y-154549147D01*
X96971950Y-154454889D01*
X97002975Y-154352613D01*
X97013451Y-154246250D01*
X97013451Y-153758750D01*
X97002975Y-153652387D01*
X96971950Y-153550111D01*
X96921568Y-153455853D01*
X96853765Y-153373235D01*
X96771147Y-153305432D01*
X96676889Y-153255050D01*
X96574613Y-153224025D01*
X96512000Y-153217858D01*
X96512000Y-152286735D01*
X97148000Y-152286735D01*
X97148000Y-152513265D01*
X97192194Y-152735443D01*
X97278884Y-152944729D01*
X97404737Y-153133082D01*
X97564918Y-153293263D01*
X97753271Y-153419116D01*
X97940727Y-153496764D01*
X97942916Y-153500859D01*
X97996026Y-153565574D01*
X98060740Y-153618684D01*
X98134573Y-153658148D01*
X98214686Y-153682450D01*
X98298000Y-153690656D01*
X98381313Y-153682450D01*
X98461426Y-153658148D01*
X98535259Y-153618684D01*
X98599974Y-153565574D01*
X98653084Y-153500860D01*
X98655274Y-153496763D01*
X98842729Y-153419116D01*
X99031082Y-153293263D01*
X99191263Y-153133082D01*
X99317116Y-152944729D01*
X99403806Y-152735443D01*
X99448000Y-152513265D01*
X99448000Y-152286735D01*
X99403806Y-152064557D01*
X99317116Y-151855271D01*
X99191263Y-151666918D01*
X99031082Y-151506737D01*
X98842729Y-151380884D01*
X98633443Y-151294194D01*
X98411265Y-151250000D01*
X98184735Y-151250000D01*
X97962557Y-151294194D01*
X97753271Y-151380884D01*
X97564918Y-151506737D01*
X97404737Y-151666918D01*
X97278884Y-151855271D01*
X97192194Y-152064557D01*
X97148000Y-152286735D01*
X96512000Y-152286735D01*
X96512000Y-150544959D01*
X96514419Y-150520400D01*
X96512000Y-150495840D01*
X96512000Y-149746735D01*
X97148000Y-149746735D01*
X97148000Y-149973265D01*
X97192194Y-150195443D01*
X97278884Y-150404729D01*
X97404737Y-150593082D01*
X97564918Y-150753263D01*
X97753271Y-150879116D01*
X97962557Y-150965806D01*
X98184735Y-151010000D01*
X98411265Y-151010000D01*
X98633443Y-150965806D01*
X98842729Y-150879116D01*
X99031082Y-150753263D01*
X99191263Y-150593082D01*
X99317116Y-150404729D01*
X99403806Y-150195443D01*
X99448000Y-149973265D01*
X99448000Y-149746735D01*
X99403806Y-149524557D01*
X99317116Y-149315271D01*
X99191263Y-149126918D01*
X99031082Y-148966737D01*
X98842729Y-148840884D01*
X98633443Y-148754194D01*
X98411265Y-148710000D01*
X98184735Y-148710000D01*
X97962557Y-148754194D01*
X97753271Y-148840884D01*
X97564918Y-148966737D01*
X97404737Y-149126918D01*
X97278884Y-149315271D01*
X97192194Y-149524557D01*
X97148000Y-149746735D01*
X96512000Y-149746735D01*
X96512000Y-149042142D01*
X96574613Y-149035975D01*
X96676889Y-149004950D01*
X96771147Y-148954568D01*
X96853765Y-148886765D01*
X96921568Y-148804147D01*
X96946501Y-148757500D01*
X97335940Y-148757500D01*
X97360500Y-148759919D01*
X97385060Y-148757500D01*
X97458517Y-148750265D01*
X97552767Y-148721675D01*
X97639629Y-148675246D01*
X97715764Y-148612764D01*
X97731429Y-148593676D01*
X97853654Y-148471451D01*
X99148000Y-148471451D01*
X99206810Y-148465659D01*
X99263360Y-148448504D01*
X99315477Y-148420647D01*
X99361158Y-148383158D01*
X99398647Y-148337477D01*
X99426504Y-148285360D01*
X99443659Y-148228810D01*
X99449451Y-148170000D01*
X99449451Y-146470000D01*
X99443659Y-146411190D01*
X99426504Y-146354640D01*
X99398647Y-146302523D01*
X99361158Y-146256842D01*
X99315477Y-146219353D01*
X99263360Y-146191496D01*
X99206810Y-146174341D01*
X99148000Y-146168549D01*
X97448000Y-146168549D01*
X97389190Y-146174341D01*
X97332640Y-146191496D01*
X97280523Y-146219353D01*
X97234842Y-146256842D01*
X97197353Y-146302523D01*
X97169496Y-146354640D01*
X97152341Y-146411190D01*
X97146549Y-146470000D01*
X97146549Y-147757500D01*
X96946501Y-147757500D01*
X96921568Y-147710853D01*
X96853765Y-147628235D01*
X96771147Y-147560432D01*
X96676889Y-147510050D01*
X96574613Y-147479025D01*
X96468250Y-147468549D01*
X95555750Y-147468549D01*
X95449387Y-147479025D01*
X95347111Y-147510050D01*
X95252853Y-147560432D01*
X95170235Y-147628235D01*
X95102432Y-147710853D01*
X95053451Y-147802490D01*
X95053451Y-147730000D01*
X95047659Y-147671190D01*
X95030504Y-147614640D01*
X95002647Y-147562523D01*
X94965158Y-147516842D01*
X94919477Y-147479353D01*
X94867360Y-147451496D01*
X94810810Y-147434341D01*
X94752000Y-147428549D01*
X94317244Y-147428549D01*
X94426232Y-147355726D01*
X94523734Y-147258224D01*
X94600340Y-147143574D01*
X94653107Y-147016182D01*
X94680008Y-146880944D01*
X94680008Y-146807500D01*
X95043742Y-146807500D01*
X95052050Y-146834889D01*
X95102432Y-146929147D01*
X95170235Y-147011765D01*
X95252853Y-147079568D01*
X95347111Y-147129950D01*
X95449387Y-147160975D01*
X95555750Y-147171451D01*
X96468250Y-147171451D01*
X96574613Y-147160975D01*
X96676889Y-147129950D01*
X96771147Y-147079568D01*
X96853765Y-147011765D01*
X96921568Y-146929147D01*
X96971950Y-146834889D01*
X97002975Y-146732613D01*
X97013451Y-146626250D01*
X97013451Y-146138750D01*
X97002975Y-146032387D01*
X96971950Y-145930111D01*
X96921568Y-145835853D01*
X96853765Y-145753235D01*
X96771147Y-145685432D01*
X96676889Y-145635050D01*
X96574613Y-145604025D01*
X96468250Y-145593549D01*
X95555750Y-145593549D01*
X95449387Y-145604025D01*
X95347111Y-145635050D01*
X95252853Y-145685432D01*
X95170235Y-145753235D01*
X95102432Y-145835853D01*
X95052050Y-145930111D01*
X95043742Y-145957500D01*
X94430375Y-145957500D01*
X94409508Y-145955445D01*
X94388641Y-145957500D01*
X94388634Y-145957500D01*
X94326194Y-145963650D01*
X94246080Y-145987952D01*
X94238496Y-145992006D01*
X94172248Y-146027416D01*
X94107534Y-146080526D01*
X94094229Y-146096738D01*
X94073987Y-146116980D01*
X94048952Y-146112000D01*
X93911064Y-146112000D01*
X93775826Y-146138901D01*
X93648434Y-146191668D01*
X93533784Y-146268274D01*
X93436282Y-146365776D01*
X93359676Y-146480426D01*
X93306909Y-146607818D01*
X93280008Y-146743056D01*
X93280008Y-146880944D01*
X93306909Y-147016182D01*
X93359676Y-147143574D01*
X93436282Y-147258224D01*
X93533784Y-147355726D01*
X93642772Y-147428549D01*
X93165590Y-147428549D01*
X92447440Y-146710400D01*
X94265763Y-144892078D01*
X94281974Y-144878774D01*
X94335084Y-144814060D01*
X94374548Y-144740227D01*
X94392486Y-144681092D01*
X94567266Y-144608697D01*
X94770327Y-144473016D01*
X94943016Y-144300327D01*
X95078697Y-144097266D01*
X95172155Y-143871636D01*
X95219800Y-143632110D01*
X95219800Y-143387890D01*
X95280200Y-143387890D01*
X95280200Y-143632110D01*
X95327845Y-143871636D01*
X95421303Y-144097266D01*
X95556984Y-144300327D01*
X95729673Y-144473016D01*
X95932734Y-144608697D01*
X96158364Y-144702155D01*
X96397890Y-144749800D01*
X96642110Y-144749800D01*
X96881636Y-144702155D01*
X97107266Y-144608697D01*
X97310327Y-144473016D01*
X97483016Y-144300327D01*
X97618697Y-144097266D01*
X97712155Y-143871636D01*
X97759800Y-143632110D01*
X97759800Y-143387890D01*
X97820200Y-143387890D01*
X97820200Y-143632110D01*
X97867845Y-143871636D01*
X97961303Y-144097266D01*
X98096984Y-144300327D01*
X98269673Y-144473016D01*
X98472734Y-144608697D01*
X98698364Y-144702155D01*
X98937890Y-144749800D01*
X99182110Y-144749800D01*
X99421636Y-144702155D01*
X99647266Y-144608697D01*
X99850327Y-144473016D01*
X100023016Y-144300327D01*
X100158697Y-144097266D01*
X100252155Y-143871636D01*
X100299800Y-143632110D01*
X100299800Y-143387890D01*
X100252155Y-143148364D01*
X100158697Y-142922734D01*
X100023016Y-142719673D01*
X99850327Y-142546984D01*
X99647266Y-142411303D01*
X99421636Y-142317845D01*
X99182110Y-142270200D01*
X98937890Y-142270200D01*
X98698364Y-142317845D01*
X98472734Y-142411303D01*
X98269673Y-142546984D01*
X98096984Y-142719673D01*
X97961303Y-142922734D01*
X97867845Y-143148364D01*
X97820200Y-143387890D01*
X97759800Y-143387890D01*
X97712155Y-143148364D01*
X97618697Y-142922734D01*
X97483016Y-142719673D01*
X97310327Y-142546984D01*
X97107266Y-142411303D01*
X96881636Y-142317845D01*
X96642110Y-142270200D01*
X96397890Y-142270200D01*
X96158364Y-142317845D01*
X95932734Y-142411303D01*
X95729673Y-142546984D01*
X95556984Y-142719673D01*
X95421303Y-142922734D01*
X95327845Y-143148364D01*
X95280200Y-143387890D01*
X95219800Y-143387890D01*
X95172155Y-143148364D01*
X95078697Y-142922734D01*
X94943016Y-142719673D01*
X94770327Y-142546984D01*
X94567266Y-142411303D01*
X94341636Y-142317845D01*
X94102110Y-142270200D01*
X93857890Y-142270200D01*
X93618364Y-142317845D01*
X93392734Y-142411303D01*
X93189673Y-142546984D01*
X93016984Y-142719673D01*
X92881303Y-142922734D01*
X92787845Y-143148364D01*
X92740200Y-143387890D01*
X92740200Y-143632110D01*
X92787845Y-143871636D01*
X92881303Y-144097266D01*
X93016984Y-144300327D01*
X93189673Y-144473016D01*
X93365356Y-144590403D01*
X91670360Y-146285400D01*
X89265640Y-146285400D01*
X90815481Y-144735560D01*
X90815485Y-144735555D01*
X90916097Y-144634943D01*
X91078364Y-144702155D01*
X91317890Y-144749800D01*
X91562110Y-144749800D01*
X91801636Y-144702155D01*
X92027266Y-144608697D01*
X92230327Y-144473016D01*
X92403016Y-144300327D01*
X92538697Y-144097266D01*
X92632155Y-143871636D01*
X92679800Y-143632110D01*
X92679800Y-143387890D01*
X92632155Y-143148364D01*
X92538697Y-142922734D01*
X92403016Y-142719673D01*
X92230327Y-142546984D01*
X92027266Y-142411303D01*
X91801636Y-142317845D01*
X91562110Y-142270200D01*
X91317890Y-142270200D01*
X91078364Y-142317845D01*
X90852734Y-142411303D01*
X90649673Y-142546984D01*
X90476984Y-142719673D01*
X90341303Y-142922734D01*
X90247845Y-143148364D01*
X90200200Y-143387890D01*
X90200200Y-143632110D01*
X90247845Y-143871636D01*
X90315057Y-144033903D01*
X90214445Y-144134515D01*
X90214440Y-144134519D01*
X88618527Y-145730433D01*
X87280607Y-145730433D01*
X88376097Y-144634943D01*
X88538364Y-144702155D01*
X88777890Y-144749800D01*
X89022110Y-144749800D01*
X89261636Y-144702155D01*
X89487266Y-144608697D01*
X89690327Y-144473016D01*
X89863016Y-144300327D01*
X89998697Y-144097266D01*
X90092155Y-143871636D01*
X90139800Y-143632110D01*
X90139800Y-143387890D01*
X90092155Y-143148364D01*
X89998697Y-142922734D01*
X89863016Y-142719673D01*
X89690327Y-142546984D01*
X89487266Y-142411303D01*
X89261636Y-142317845D01*
X89022110Y-142270200D01*
X88777890Y-142270200D01*
X88538364Y-142317845D01*
X88312734Y-142411303D01*
X88109673Y-142546984D01*
X87936984Y-142719673D01*
X87801303Y-142922734D01*
X87707845Y-143148364D01*
X87660200Y-143387890D01*
X87660200Y-143632110D01*
X87707845Y-143871636D01*
X87775057Y-144033903D01*
X86528538Y-145280422D01*
X85190618Y-145280422D01*
X85836098Y-144634943D01*
X85998364Y-144702155D01*
X86237890Y-144749800D01*
X86482110Y-144749800D01*
X86721636Y-144702155D01*
X86947266Y-144608697D01*
X87150327Y-144473016D01*
X87323016Y-144300327D01*
X87458697Y-144097266D01*
X87552155Y-143871636D01*
X87599800Y-143632110D01*
X87599800Y-143387890D01*
X87552155Y-143148364D01*
X87458697Y-142922734D01*
X87323016Y-142719673D01*
X87150327Y-142546984D01*
X86947266Y-142411303D01*
X86721636Y-142317845D01*
X86482110Y-142270200D01*
X86237890Y-142270200D01*
X85998364Y-142317845D01*
X85772734Y-142411303D01*
X85569673Y-142546984D01*
X85396984Y-142719673D01*
X85261303Y-142922734D01*
X85167845Y-143148364D01*
X85120200Y-143387890D01*
X85120200Y-143632110D01*
X85167845Y-143871636D01*
X85235057Y-144033902D01*
X84438549Y-144830411D01*
X79892535Y-144830411D01*
X80369802Y-144353145D01*
X80489673Y-144473016D01*
X80692734Y-144608697D01*
X80918364Y-144702155D01*
X81157890Y-144749800D01*
X81402110Y-144749800D01*
X81641636Y-144702155D01*
X81867266Y-144608697D01*
X82070327Y-144473016D01*
X82243016Y-144300327D01*
X82378697Y-144097266D01*
X82472155Y-143871636D01*
X82519800Y-143632110D01*
X82519800Y-143387890D01*
X82580200Y-143387890D01*
X82580200Y-143632110D01*
X82627845Y-143871636D01*
X82721303Y-144097266D01*
X82856984Y-144300327D01*
X83029673Y-144473016D01*
X83232734Y-144608697D01*
X83458364Y-144702155D01*
X83697890Y-144749800D01*
X83942110Y-144749800D01*
X84181636Y-144702155D01*
X84407266Y-144608697D01*
X84610327Y-144473016D01*
X84783016Y-144300327D01*
X84918697Y-144097266D01*
X85012155Y-143871636D01*
X85059800Y-143632110D01*
X85059800Y-143387890D01*
X85012155Y-143148364D01*
X84918697Y-142922734D01*
X84783016Y-142719673D01*
X84610327Y-142546984D01*
X84407266Y-142411303D01*
X84181636Y-142317845D01*
X83942110Y-142270200D01*
X83697890Y-142270200D01*
X83458364Y-142317845D01*
X83232734Y-142411303D01*
X83029673Y-142546984D01*
X82856984Y-142719673D01*
X82721303Y-142922734D01*
X82627845Y-143148364D01*
X82580200Y-143387890D01*
X82519800Y-143387890D01*
X82472155Y-143148364D01*
X82378697Y-142922734D01*
X82243016Y-142719673D01*
X82070327Y-142546984D01*
X81867266Y-142411303D01*
X81641636Y-142317845D01*
X81402110Y-142270200D01*
X81157890Y-142270200D01*
X80918364Y-142317845D01*
X80692734Y-142411303D01*
X80489673Y-142546984D01*
X80316984Y-142719673D01*
X80181303Y-142922734D01*
X80087845Y-143148364D01*
X80040200Y-143387890D01*
X80040200Y-143480665D01*
X79979800Y-143541065D01*
X79979800Y-143387890D01*
X79932155Y-143148364D01*
X79838697Y-142922734D01*
X79703016Y-142719673D01*
X79530327Y-142546984D01*
X79327266Y-142411303D01*
X79101636Y-142317845D01*
X78862110Y-142270200D01*
X78617890Y-142270200D01*
X78378364Y-142317845D01*
X78152734Y-142411303D01*
X77949673Y-142546984D01*
X77776984Y-142719673D01*
X77641303Y-142922734D01*
X77547845Y-143148364D01*
X77500200Y-143387890D01*
X77500200Y-143632110D01*
X77547845Y-143871636D01*
X77615057Y-144033902D01*
X77243160Y-144405800D01*
X77057543Y-144405800D01*
X77163016Y-144300327D01*
X77298697Y-144097266D01*
X77392155Y-143871636D01*
X77439800Y-143632110D01*
X77439800Y-143387890D01*
X77392155Y-143148364D01*
X77298697Y-142922734D01*
X77163016Y-142719673D01*
X76990327Y-142546984D01*
X76787266Y-142411303D01*
X76561636Y-142317845D01*
X76322110Y-142270200D01*
X76077890Y-142270200D01*
X75838364Y-142317845D01*
X75612734Y-142411303D01*
X75409673Y-142546984D01*
X75236984Y-142719673D01*
X75101303Y-142922734D01*
X75007845Y-143148364D01*
X74960200Y-143387890D01*
X74960200Y-143632110D01*
X75007845Y-143871636D01*
X75075057Y-144033902D01*
X74085000Y-145023960D01*
X74085000Y-144675909D01*
X74247266Y-144608697D01*
X74450327Y-144473016D01*
X74623016Y-144300327D01*
X74758697Y-144097266D01*
X74852155Y-143871636D01*
X74899800Y-143632110D01*
X74899800Y-143387890D01*
X74852155Y-143148364D01*
X74758697Y-142922734D01*
X74623016Y-142719673D01*
X74450327Y-142546984D01*
X74247266Y-142411303D01*
X74021636Y-142317845D01*
X73782110Y-142270200D01*
X73537890Y-142270200D01*
X73298364Y-142317845D01*
X73072734Y-142411303D01*
X72869673Y-142546984D01*
X72696984Y-142719673D01*
X72561303Y-142922734D01*
X72467845Y-143148364D01*
X72420200Y-143387890D01*
X72420200Y-143632110D01*
X72467845Y-143871636D01*
X72561303Y-144097266D01*
X72696984Y-144300327D01*
X72869673Y-144473016D01*
X73072734Y-144608697D01*
X73235000Y-144675909D01*
X73235001Y-145938361D01*
X71826001Y-144529361D01*
X71910327Y-144473016D01*
X72083016Y-144300327D01*
X72218697Y-144097266D01*
X72312155Y-143871636D01*
X72359800Y-143632110D01*
X72359800Y-143387890D01*
X72312155Y-143148364D01*
X72218697Y-142922734D01*
X72083016Y-142719673D01*
X71910327Y-142546984D01*
X71707266Y-142411303D01*
X71481636Y-142317845D01*
X71242110Y-142270200D01*
X70997890Y-142270200D01*
X70758364Y-142317845D01*
X70532734Y-142411303D01*
X70329673Y-142546984D01*
X70156984Y-142719673D01*
X70021303Y-142922734D01*
X69927845Y-143148364D01*
X69880200Y-143387890D01*
X69880200Y-143632110D01*
X69927845Y-143871636D01*
X69966713Y-143965473D01*
X69788866Y-143787626D01*
X69819800Y-143632110D01*
X69819800Y-143387890D01*
X69772155Y-143148364D01*
X69678697Y-142922734D01*
X69543016Y-142719673D01*
X69370327Y-142546984D01*
X69167266Y-142411303D01*
X68941636Y-142317845D01*
X68702110Y-142270200D01*
X68457890Y-142270200D01*
X68218364Y-142317845D01*
X67992734Y-142411303D01*
X67789673Y-142546984D01*
X67616984Y-142719673D01*
X67481303Y-142922734D01*
X67387845Y-143148364D01*
X67340200Y-143387890D01*
X67340200Y-143632110D01*
X67387845Y-143871636D01*
X67481303Y-144097266D01*
X67616984Y-144300327D01*
X67697057Y-144380400D01*
X67511441Y-144380400D01*
X67164943Y-144033902D01*
X67232155Y-143871636D01*
X67279800Y-143632110D01*
X67279800Y-143387890D01*
X67232155Y-143148364D01*
X67138697Y-142922734D01*
X67003016Y-142719673D01*
X66830327Y-142546984D01*
X66627266Y-142411303D01*
X66401636Y-142317845D01*
X66162110Y-142270200D01*
X65917890Y-142270200D01*
X65678364Y-142317845D01*
X65452734Y-142411303D01*
X65249673Y-142546984D01*
X65076984Y-142719673D01*
X64941303Y-142922734D01*
X64847845Y-143148364D01*
X64800200Y-143387890D01*
X64800200Y-143632110D01*
X64847845Y-143871636D01*
X64941303Y-144097266D01*
X65076984Y-144300327D01*
X65249673Y-144473016D01*
X65452734Y-144608697D01*
X65678364Y-144702155D01*
X65917890Y-144749800D01*
X66162110Y-144749800D01*
X66401636Y-144702155D01*
X66563902Y-144634943D01*
X66759370Y-144830411D01*
X65421452Y-144830411D01*
X64624943Y-144033902D01*
X64692155Y-143871636D01*
X64739800Y-143632110D01*
X64739800Y-143387890D01*
X64692155Y-143148364D01*
X64598697Y-142922734D01*
X64463016Y-142719673D01*
X64290327Y-142546984D01*
X64087266Y-142411303D01*
X63861636Y-142317845D01*
X63622110Y-142270200D01*
X63377890Y-142270200D01*
X63138364Y-142317845D01*
X62912734Y-142411303D01*
X62709673Y-142546984D01*
X62536984Y-142719673D01*
X62401303Y-142922734D01*
X62307845Y-143148364D01*
X62260200Y-143387890D01*
X62260200Y-143632110D01*
X62307845Y-143871636D01*
X62401303Y-144097266D01*
X62536984Y-144300327D01*
X62709673Y-144473016D01*
X62912734Y-144608697D01*
X63138364Y-144702155D01*
X63377890Y-144749800D01*
X63622110Y-144749800D01*
X63861636Y-144702155D01*
X64023902Y-144634943D01*
X64930130Y-145541171D01*
X64943437Y-145557385D01*
X64959649Y-145570690D01*
X64959650Y-145570691D01*
X64967266Y-145576941D01*
X64992778Y-145597879D01*
X64822984Y-145767673D01*
X64687303Y-145970734D01*
X64593845Y-146196364D01*
X64546200Y-146435890D01*
X64546200Y-146680110D01*
X64593845Y-146919636D01*
X64687303Y-147145266D01*
X64822984Y-147348327D01*
X64995673Y-147521016D01*
X65198734Y-147656697D01*
X65424364Y-147750155D01*
X65663890Y-147797800D01*
X65908110Y-147797800D01*
X66147636Y-147750155D01*
X66373266Y-147656697D01*
X66576327Y-147521016D01*
X66663762Y-147433581D01*
X67488602Y-147433581D01*
X67583852Y-147625414D01*
X67806354Y-147749690D01*
X68048826Y-147828170D01*
X68057913Y-147829235D01*
X67850793Y-147887903D01*
X67623846Y-148003863D01*
X67583852Y-148030586D01*
X67488602Y-148222419D01*
X68326000Y-149059816D01*
X69163398Y-148222419D01*
X69068148Y-148030586D01*
X68845646Y-147906310D01*
X68603174Y-147827830D01*
X68594087Y-147826765D01*
X68801207Y-147768097D01*
X69028154Y-147652137D01*
X69068148Y-147625414D01*
X69163398Y-147433581D01*
X68326000Y-146596184D01*
X67488602Y-147433581D01*
X66663762Y-147433581D01*
X66749016Y-147348327D01*
X66884697Y-147145266D01*
X66978155Y-146919636D01*
X67025800Y-146680110D01*
X67025800Y-146435890D01*
X66978155Y-146196364D01*
X66884697Y-145970734D01*
X66749016Y-145767673D01*
X66661754Y-145680411D01*
X67410225Y-145680411D01*
X67450417Y-145720603D01*
X67258586Y-145815852D01*
X67134310Y-146038354D01*
X67055830Y-146280826D01*
X67026162Y-146533950D01*
X67046446Y-146787998D01*
X67115903Y-147033207D01*
X67231863Y-147260154D01*
X67258586Y-147300148D01*
X67450419Y-147395398D01*
X68287816Y-146558000D01*
X68273674Y-146543858D01*
X68311858Y-146505674D01*
X68326000Y-146519816D01*
X68340142Y-146505674D01*
X68378326Y-146543858D01*
X68364184Y-146558000D01*
X69201581Y-147395398D01*
X69393414Y-147300148D01*
X69517690Y-147077646D01*
X69596170Y-146835174D01*
X69625838Y-146582050D01*
X69606722Y-146342636D01*
X72245542Y-148981456D01*
X72245542Y-149049338D01*
X72935678Y-149739474D01*
X72949820Y-149725332D01*
X72988004Y-149763516D01*
X72973862Y-149777658D01*
X73663998Y-150467794D01*
X73789156Y-150467794D01*
X73814762Y-150444610D01*
X73859000Y-150390707D01*
X73891871Y-150329209D01*
X73912114Y-150262479D01*
X73912423Y-150259341D01*
X73913801Y-150258604D01*
X73970847Y-150211787D01*
X74076913Y-150105721D01*
X74123730Y-150048675D01*
X74158517Y-149983592D01*
X74168701Y-149950021D01*
X74202272Y-149939837D01*
X74267355Y-149905050D01*
X74324401Y-149858233D01*
X74335530Y-149847104D01*
X74358501Y-149962582D01*
X74411268Y-150089974D01*
X74487874Y-150204624D01*
X74585376Y-150302126D01*
X74700026Y-150378732D01*
X74827418Y-150431499D01*
X74962656Y-150458400D01*
X75100544Y-150458400D01*
X75235782Y-150431499D01*
X75363174Y-150378732D01*
X75477824Y-150302126D01*
X75575326Y-150204624D01*
X75651932Y-150089974D01*
X75655447Y-150081489D01*
X75697069Y-150181975D01*
X75773675Y-150296625D01*
X75871177Y-150394127D01*
X75985827Y-150470733D01*
X76113219Y-150523500D01*
X76248457Y-150550401D01*
X76386345Y-150550401D01*
X76411381Y-150545421D01*
X77045000Y-151179041D01*
X77045001Y-154843047D01*
X76913862Y-154974186D01*
X76845978Y-154974186D01*
X76155842Y-155664322D01*
X76169984Y-155678464D01*
X76131800Y-155716648D01*
X76117658Y-155702506D01*
X76103516Y-155716648D01*
X76065332Y-155678464D01*
X76079474Y-155664322D01*
X76065332Y-155650180D01*
X76103516Y-155611996D01*
X76117658Y-155626138D01*
X76807794Y-154936002D01*
X76807794Y-154810844D01*
X76784610Y-154785238D01*
X76730707Y-154741000D01*
X76669209Y-154708129D01*
X76602479Y-154687886D01*
X76599341Y-154687577D01*
X76598604Y-154686199D01*
X76551787Y-154629153D01*
X76445721Y-154523087D01*
X76388675Y-154476270D01*
X76323592Y-154441483D01*
X76290021Y-154431299D01*
X76279837Y-154397728D01*
X76245050Y-154332645D01*
X76198233Y-154275599D01*
X76092167Y-154169533D01*
X76035121Y-154122716D01*
X75970038Y-154087929D01*
X75936468Y-154077745D01*
X75926284Y-154044175D01*
X75891497Y-153979092D01*
X75844680Y-153922046D01*
X75738614Y-153815980D01*
X75681568Y-153769163D01*
X75616485Y-153734376D01*
X75582915Y-153724192D01*
X75572731Y-153690622D01*
X75537944Y-153625539D01*
X75491127Y-153568493D01*
X75385061Y-153462427D01*
X75328015Y-153415610D01*
X75262932Y-153380823D01*
X75229361Y-153370639D01*
X75219177Y-153337068D01*
X75184390Y-153271985D01*
X75137573Y-153214939D01*
X75031507Y-153108873D01*
X74974461Y-153062056D01*
X74909378Y-153027269D01*
X74875808Y-153017085D01*
X74865624Y-152983515D01*
X74830837Y-152918432D01*
X74784020Y-152861386D01*
X74677954Y-152755320D01*
X74620908Y-152708503D01*
X74555825Y-152673716D01*
X74522255Y-152663532D01*
X74512071Y-152629962D01*
X74477284Y-152564879D01*
X74430467Y-152507833D01*
X74324401Y-152401767D01*
X74267355Y-152354950D01*
X74202272Y-152320163D01*
X74168701Y-152309979D01*
X74158517Y-152276408D01*
X74123730Y-152211325D01*
X74076913Y-152154279D01*
X73970847Y-152048213D01*
X73913801Y-152001396D01*
X73848718Y-151966609D01*
X73815148Y-151956425D01*
X73804964Y-151922855D01*
X73770177Y-151857772D01*
X73723360Y-151800726D01*
X73617294Y-151694660D01*
X73560248Y-151647843D01*
X73495165Y-151613056D01*
X73461594Y-151602872D01*
X73451410Y-151569301D01*
X73416623Y-151504218D01*
X73369806Y-151447172D01*
X73263740Y-151341106D01*
X73206694Y-151294289D01*
X73141611Y-151259502D01*
X73070991Y-151238079D01*
X72997549Y-151230846D01*
X72924107Y-151238079D01*
X72853487Y-151259502D01*
X72788404Y-151294289D01*
X72731358Y-151341106D01*
X71794442Y-152278022D01*
X71747625Y-152335068D01*
X71716417Y-152393455D01*
X71344198Y-152765674D01*
X71362803Y-152672141D01*
X71362803Y-152534253D01*
X71335902Y-152399015D01*
X71283135Y-152271623D01*
X71206529Y-152156973D01*
X71162803Y-152113247D01*
X71162803Y-150326043D01*
X71253734Y-150416974D01*
X71267039Y-150433186D01*
X71331753Y-150486296D01*
X71405586Y-150525760D01*
X71461396Y-150542690D01*
X71485698Y-150550062D01*
X71494111Y-150550891D01*
X71548139Y-150556212D01*
X71548145Y-150556212D01*
X71569012Y-150558267D01*
X71589879Y-150556212D01*
X72368676Y-150556212D01*
X72731358Y-150918894D01*
X72788404Y-150965711D01*
X72853487Y-151000498D01*
X72924107Y-151021921D01*
X72997549Y-151029154D01*
X73070991Y-151021921D01*
X73141611Y-151000498D01*
X73206694Y-150965711D01*
X73263740Y-150918894D01*
X73369806Y-150812828D01*
X73416623Y-150755782D01*
X73417360Y-150754403D01*
X73420499Y-150754094D01*
X73487229Y-150733851D01*
X73548727Y-150700980D01*
X73602630Y-150656742D01*
X73625814Y-150631136D01*
X73625814Y-150505978D01*
X72935678Y-149815842D01*
X72921536Y-149829984D01*
X72883352Y-149791800D01*
X72897494Y-149777658D01*
X72207358Y-149087522D01*
X72082200Y-149087522D01*
X72056594Y-149110706D01*
X72012356Y-149164609D01*
X71979485Y-149226107D01*
X71959242Y-149292837D01*
X71958933Y-149295976D01*
X71957554Y-149296713D01*
X71900508Y-149343530D01*
X71794442Y-149449596D01*
X71747625Y-149506642D01*
X71712838Y-149571725D01*
X71691415Y-149642345D01*
X71690498Y-149651656D01*
X71357821Y-149318980D01*
X71362801Y-149293944D01*
X71362801Y-149156056D01*
X71335900Y-149020818D01*
X71283133Y-148893426D01*
X71206527Y-148778776D01*
X71109025Y-148681274D01*
X70994375Y-148604668D01*
X70866983Y-148551901D01*
X70731745Y-148525000D01*
X70593857Y-148525000D01*
X70458619Y-148551901D01*
X70331227Y-148604668D01*
X70216577Y-148681274D01*
X70119075Y-148778776D01*
X70042469Y-148893426D01*
X69989702Y-149020818D01*
X69962801Y-149156056D01*
X69962801Y-149293944D01*
X69989702Y-149429182D01*
X70042469Y-149556574D01*
X70119075Y-149671224D01*
X70162804Y-149714953D01*
X70162803Y-152113247D01*
X70119077Y-152156973D01*
X70042471Y-152271623D01*
X69989704Y-152399015D01*
X69962803Y-152534253D01*
X69962803Y-152672141D01*
X69989704Y-152807379D01*
X70042471Y-152934771D01*
X70063070Y-152965600D01*
X65335505Y-152965600D01*
X65378184Y-152930574D01*
X65391493Y-152914357D01*
X65715251Y-152590599D01*
X65740287Y-152595579D01*
X65878175Y-152595579D01*
X66013413Y-152568678D01*
X66140805Y-152515911D01*
X66255455Y-152439305D01*
X66352957Y-152341803D01*
X66429563Y-152227153D01*
X66482330Y-152099761D01*
X66509231Y-151964523D01*
X66509231Y-151826635D01*
X66482330Y-151691397D01*
X66429563Y-151564005D01*
X66352957Y-151449355D01*
X66277902Y-151374300D01*
X66329723Y-151322478D01*
X66406329Y-151207828D01*
X66438566Y-151130000D01*
X67770549Y-151130000D01*
X67770549Y-151892000D01*
X67776341Y-151950810D01*
X67793496Y-152007360D01*
X67821353Y-152059477D01*
X67858842Y-152105158D01*
X67904523Y-152142647D01*
X67956640Y-152170504D01*
X68013190Y-152187659D01*
X68072000Y-152193451D01*
X69596000Y-152193451D01*
X69654810Y-152187659D01*
X69711360Y-152170504D01*
X69763477Y-152142647D01*
X69809158Y-152105158D01*
X69846647Y-152059477D01*
X69874504Y-152007360D01*
X69891659Y-151950810D01*
X69897451Y-151892000D01*
X69897451Y-151130000D01*
X69891659Y-151071190D01*
X69874504Y-151014640D01*
X69846647Y-150962523D01*
X69809158Y-150916842D01*
X69763477Y-150879353D01*
X69711360Y-150851496D01*
X69654810Y-150834341D01*
X69596000Y-150828549D01*
X68072000Y-150828549D01*
X68013190Y-150834341D01*
X67956640Y-150851496D01*
X67904523Y-150879353D01*
X67858842Y-150916842D01*
X67821353Y-150962523D01*
X67793496Y-151014640D01*
X67776341Y-151071190D01*
X67770549Y-151130000D01*
X66438566Y-151130000D01*
X66459096Y-151080436D01*
X66485997Y-150945198D01*
X66485997Y-150807310D01*
X66459096Y-150672072D01*
X66406329Y-150544680D01*
X66329723Y-150430030D01*
X66232221Y-150332528D01*
X66160704Y-150284742D01*
X66373266Y-150196697D01*
X66576327Y-150061016D01*
X66663762Y-149973581D01*
X67488602Y-149973581D01*
X67583852Y-150165414D01*
X67806354Y-150289690D01*
X68048826Y-150368170D01*
X68301950Y-150397838D01*
X68555998Y-150377554D01*
X68801207Y-150308097D01*
X69028154Y-150192137D01*
X69068148Y-150165414D01*
X69163398Y-149973581D01*
X68326000Y-149136184D01*
X67488602Y-149973581D01*
X66663762Y-149973581D01*
X66749016Y-149888327D01*
X66884697Y-149685266D01*
X66978155Y-149459636D01*
X67025800Y-149220110D01*
X67025800Y-149073950D01*
X67026162Y-149073950D01*
X67046446Y-149327998D01*
X67115903Y-149573207D01*
X67231863Y-149800154D01*
X67258586Y-149840148D01*
X67450419Y-149935398D01*
X68287816Y-149098000D01*
X68364184Y-149098000D01*
X69201581Y-149935398D01*
X69393414Y-149840148D01*
X69517690Y-149617646D01*
X69596170Y-149375174D01*
X69625838Y-149122050D01*
X69605554Y-148868002D01*
X69536097Y-148622793D01*
X69420137Y-148395846D01*
X69393414Y-148355852D01*
X69201581Y-148260602D01*
X68364184Y-149098000D01*
X68287816Y-149098000D01*
X67450419Y-148260602D01*
X67258586Y-148355852D01*
X67134310Y-148578354D01*
X67055830Y-148820826D01*
X67026162Y-149073950D01*
X67025800Y-149073950D01*
X67025800Y-148975890D01*
X66978155Y-148736364D01*
X66884697Y-148510734D01*
X66749016Y-148307673D01*
X66576327Y-148134984D01*
X66373266Y-147999303D01*
X66147636Y-147905845D01*
X65908110Y-147858200D01*
X65663890Y-147858200D01*
X65424364Y-147905845D01*
X65198734Y-147999303D01*
X64995673Y-148134984D01*
X64822984Y-148307673D01*
X64687303Y-148510734D01*
X64593845Y-148736364D01*
X64546200Y-148975890D01*
X64546200Y-149220110D01*
X64593845Y-149459636D01*
X64687303Y-149685266D01*
X64822984Y-149888327D01*
X64995673Y-150061016D01*
X65198734Y-150196697D01*
X65199466Y-150197000D01*
X63832534Y-150197000D01*
X63833266Y-150196697D01*
X64036327Y-150061016D01*
X64209016Y-149888327D01*
X64344697Y-149685266D01*
X64438155Y-149459636D01*
X64485800Y-149220110D01*
X64485800Y-148975890D01*
X64438155Y-148736364D01*
X64344697Y-148510734D01*
X64209016Y-148307673D01*
X64036327Y-148134984D01*
X63833266Y-147999303D01*
X63607636Y-147905845D01*
X63368110Y-147858200D01*
X63123890Y-147858200D01*
X62884364Y-147905845D01*
X62658734Y-147999303D01*
X62455673Y-148134984D01*
X62282984Y-148307673D01*
X62147303Y-148510734D01*
X62053845Y-148736364D01*
X62006200Y-148975890D01*
X62006200Y-149220110D01*
X62053845Y-149459636D01*
X62147303Y-149685266D01*
X62282984Y-149888327D01*
X62455673Y-150061016D01*
X62658734Y-150196697D01*
X62659466Y-150197000D01*
X61576701Y-150197000D01*
X61580327Y-150191574D01*
X61633094Y-150064182D01*
X61659995Y-149928944D01*
X61659995Y-149791056D01*
X61633094Y-149655818D01*
X61580327Y-149528426D01*
X61503721Y-149413776D01*
X61406219Y-149316274D01*
X61291569Y-149239668D01*
X61164177Y-149186901D01*
X61028939Y-149160000D01*
X60891051Y-149160000D01*
X60755813Y-149186901D01*
X60628421Y-149239668D01*
X60513771Y-149316274D01*
X60500045Y-149330000D01*
X57821916Y-149330000D01*
X57815360Y-149326496D01*
X57758810Y-149309341D01*
X57700000Y-149303549D01*
X56600000Y-149303549D01*
X56541190Y-149309341D01*
X56484640Y-149326496D01*
X56459000Y-149340201D01*
X56459000Y-147939039D01*
X56457610Y-147924928D01*
X56457643Y-147920225D01*
X56457201Y-147915709D01*
X56441656Y-147767807D01*
X56435731Y-147738945D01*
X56430213Y-147710020D01*
X56428902Y-147705676D01*
X56384926Y-147563609D01*
X56373513Y-147536458D01*
X56362476Y-147509142D01*
X56360346Y-147505135D01*
X56289613Y-147374317D01*
X56273129Y-147349878D01*
X56257011Y-147325249D01*
X56254143Y-147321732D01*
X56159347Y-147207143D01*
X56138437Y-147186379D01*
X56117837Y-147165343D01*
X56114340Y-147162450D01*
X56013246Y-147080000D01*
X57274207Y-147080000D01*
X57406431Y-147066977D01*
X57576081Y-147015514D01*
X57732432Y-146931943D01*
X57869475Y-146819475D01*
X57981943Y-146682432D01*
X58065514Y-146526081D01*
X58116977Y-146356431D01*
X58134354Y-146180000D01*
X58127269Y-146108056D01*
X58355000Y-146108056D01*
X58355000Y-146245944D01*
X58381901Y-146381182D01*
X58434668Y-146508574D01*
X58511274Y-146623224D01*
X58608776Y-146720726D01*
X58723426Y-146797332D01*
X58850818Y-146850099D01*
X58986056Y-146877000D01*
X59123944Y-146877000D01*
X59259182Y-146850099D01*
X59386574Y-146797332D01*
X59501224Y-146720726D01*
X59598726Y-146623224D01*
X59675332Y-146508574D01*
X59705438Y-146435890D01*
X62006200Y-146435890D01*
X62006200Y-146680110D01*
X62053845Y-146919636D01*
X62147303Y-147145266D01*
X62282984Y-147348327D01*
X62455673Y-147521016D01*
X62658734Y-147656697D01*
X62884364Y-147750155D01*
X63123890Y-147797800D01*
X63368110Y-147797800D01*
X63607636Y-147750155D01*
X63833266Y-147656697D01*
X64036327Y-147521016D01*
X64209016Y-147348327D01*
X64344697Y-147145266D01*
X64438155Y-146919636D01*
X64485800Y-146680110D01*
X64485800Y-146435890D01*
X64438155Y-146196364D01*
X64344697Y-145970734D01*
X64209016Y-145767673D01*
X64036327Y-145594984D01*
X63833266Y-145459303D01*
X63607636Y-145365845D01*
X63368110Y-145318200D01*
X63123890Y-145318200D01*
X62884364Y-145365845D01*
X62658734Y-145459303D01*
X62455673Y-145594984D01*
X62282984Y-145767673D01*
X62147303Y-145970734D01*
X62053845Y-146196364D01*
X62006200Y-146435890D01*
X59705438Y-146435890D01*
X59728099Y-146381182D01*
X59755000Y-146245944D01*
X59755000Y-146108056D01*
X59728099Y-145972818D01*
X59675332Y-145845426D01*
X59598726Y-145730776D01*
X59501224Y-145633274D01*
X59480000Y-145619093D01*
X59480000Y-145591040D01*
X60436098Y-144634943D01*
X60598364Y-144702155D01*
X60837890Y-144749800D01*
X61082110Y-144749800D01*
X61321636Y-144702155D01*
X61547266Y-144608697D01*
X61750327Y-144473016D01*
X61923016Y-144300327D01*
X62058697Y-144097266D01*
X62152155Y-143871636D01*
X62199800Y-143632110D01*
X62199800Y-143387890D01*
X62152155Y-143148364D01*
X62058697Y-142922734D01*
X61923016Y-142719673D01*
X61750327Y-142546984D01*
X61547266Y-142411303D01*
X61321636Y-142317845D01*
X61082110Y-142270200D01*
X60837890Y-142270200D01*
X60598364Y-142317845D01*
X60372734Y-142411303D01*
X60169673Y-142546984D01*
X59996984Y-142719673D01*
X59861303Y-142922734D01*
X59767845Y-143148364D01*
X59720200Y-143387890D01*
X59720200Y-143632110D01*
X59767845Y-143871636D01*
X59835057Y-144033902D01*
X58769239Y-145099721D01*
X58753027Y-145113026D01*
X58699917Y-145177740D01*
X58661481Y-145249650D01*
X58660453Y-145251573D01*
X58636150Y-145331686D01*
X58627945Y-145415000D01*
X58630001Y-145435876D01*
X58630001Y-145619092D01*
X58608776Y-145633274D01*
X58511274Y-145730776D01*
X58434668Y-145845426D01*
X58381901Y-145972818D01*
X58355000Y-146108056D01*
X58127269Y-146108056D01*
X58116977Y-146003569D01*
X58065514Y-145833919D01*
X57981943Y-145677568D01*
X57869475Y-145540525D01*
X57732432Y-145428057D01*
X57576081Y-145344486D01*
X57406431Y-145293023D01*
X57274207Y-145280000D01*
X55985793Y-145280000D01*
X55853569Y-145293023D01*
X55683919Y-145344486D01*
X55527568Y-145428057D01*
X55390525Y-145540525D01*
X55278057Y-145677568D01*
X55194486Y-145833919D01*
X55143023Y-146003569D01*
X55125646Y-146180000D01*
X55143023Y-146356431D01*
X55194486Y-146526081D01*
X55278057Y-146682432D01*
X55390525Y-146819475D01*
X55458033Y-146874877D01*
X55403714Y-146869551D01*
X55403708Y-146869551D01*
X55387961Y-146868000D01*
X53810347Y-146868000D01*
X53869475Y-146819475D01*
X53981943Y-146682432D01*
X54065514Y-146526081D01*
X54116977Y-146356431D01*
X54134354Y-146180000D01*
X54116977Y-146003569D01*
X54065514Y-145833919D01*
X53981943Y-145677568D01*
X53869475Y-145540525D01*
X53732432Y-145428057D01*
X53576081Y-145344486D01*
X53406431Y-145293023D01*
X53274207Y-145280000D01*
X51985793Y-145280000D01*
X51853569Y-145293023D01*
X51683919Y-145344486D01*
X51527568Y-145428057D01*
X51390525Y-145540525D01*
X51278057Y-145677568D01*
X51194486Y-145833919D01*
X51143023Y-146003569D01*
X51125646Y-146180000D01*
X51143023Y-146356431D01*
X51194486Y-146526081D01*
X51278057Y-146682432D01*
X51390525Y-146819475D01*
X51449653Y-146868000D01*
X51125000Y-146868000D01*
X51125000Y-144385581D01*
X52502602Y-144385581D01*
X52597852Y-144577414D01*
X52820354Y-144701690D01*
X53062826Y-144780170D01*
X53315950Y-144809838D01*
X53569998Y-144789554D01*
X53815207Y-144720097D01*
X54042154Y-144604137D01*
X54082148Y-144577414D01*
X54177398Y-144385581D01*
X55042602Y-144385581D01*
X55137852Y-144577414D01*
X55360354Y-144701690D01*
X55602826Y-144780170D01*
X55855950Y-144809838D01*
X56109998Y-144789554D01*
X56355207Y-144720097D01*
X56582154Y-144604137D01*
X56622148Y-144577414D01*
X56717398Y-144385581D01*
X55880000Y-143548184D01*
X55042602Y-144385581D01*
X54177398Y-144385581D01*
X53340000Y-143548184D01*
X52502602Y-144385581D01*
X51125000Y-144385581D01*
X51125000Y-143485950D01*
X52040162Y-143485950D01*
X52060446Y-143739998D01*
X52129903Y-143985207D01*
X52245863Y-144212154D01*
X52272586Y-144252148D01*
X52464419Y-144347398D01*
X53301816Y-143510000D01*
X53378184Y-143510000D01*
X54215581Y-144347398D01*
X54407414Y-144252148D01*
X54531690Y-144029646D01*
X54610170Y-143787174D01*
X54611235Y-143778087D01*
X54669903Y-143985207D01*
X54785863Y-144212154D01*
X54812586Y-144252148D01*
X55004419Y-144347398D01*
X55841816Y-143510000D01*
X55918184Y-143510000D01*
X56755581Y-144347398D01*
X56947414Y-144252148D01*
X57071690Y-144029646D01*
X57150170Y-143787174D01*
X57179838Y-143534050D01*
X57168169Y-143387890D01*
X57180200Y-143387890D01*
X57180200Y-143632110D01*
X57227845Y-143871636D01*
X57321303Y-144097266D01*
X57456984Y-144300327D01*
X57629673Y-144473016D01*
X57832734Y-144608697D01*
X58058364Y-144702155D01*
X58297890Y-144749800D01*
X58542110Y-144749800D01*
X58781636Y-144702155D01*
X59007266Y-144608697D01*
X59210327Y-144473016D01*
X59383016Y-144300327D01*
X59518697Y-144097266D01*
X59612155Y-143871636D01*
X59659800Y-143632110D01*
X59659800Y-143387890D01*
X59612155Y-143148364D01*
X59518697Y-142922734D01*
X59383016Y-142719673D01*
X59210327Y-142546984D01*
X59007266Y-142411303D01*
X58781636Y-142317845D01*
X58542110Y-142270200D01*
X58297890Y-142270200D01*
X58058364Y-142317845D01*
X57832734Y-142411303D01*
X57629673Y-142546984D01*
X57456984Y-142719673D01*
X57321303Y-142922734D01*
X57227845Y-143148364D01*
X57180200Y-143387890D01*
X57168169Y-143387890D01*
X57159554Y-143280002D01*
X57090097Y-143034793D01*
X56974137Y-142807846D01*
X56947414Y-142767852D01*
X56755581Y-142672602D01*
X55918184Y-143510000D01*
X55841816Y-143510000D01*
X55004419Y-142672602D01*
X54812586Y-142767852D01*
X54688310Y-142990354D01*
X54609830Y-143232826D01*
X54608765Y-143241913D01*
X54550097Y-143034793D01*
X54434137Y-142807846D01*
X54407414Y-142767852D01*
X54215581Y-142672602D01*
X53378184Y-143510000D01*
X53301816Y-143510000D01*
X52464419Y-142672602D01*
X52272586Y-142767852D01*
X52148310Y-142990354D01*
X52069830Y-143232826D01*
X52040162Y-143485950D01*
X51125000Y-143485950D01*
X51125000Y-142634419D01*
X52502602Y-142634419D01*
X53340000Y-143471816D01*
X54177398Y-142634419D01*
X55042602Y-142634419D01*
X55880000Y-143471816D01*
X56717398Y-142634419D01*
X56622148Y-142442586D01*
X56399646Y-142318310D01*
X56157174Y-142239830D01*
X55904050Y-142210162D01*
X55650002Y-142230446D01*
X55404793Y-142299903D01*
X55177846Y-142415863D01*
X55137852Y-142442586D01*
X55042602Y-142634419D01*
X54177398Y-142634419D01*
X54082148Y-142442586D01*
X53859646Y-142318310D01*
X53617174Y-142239830D01*
X53364050Y-142210162D01*
X53110002Y-142230446D01*
X52864793Y-142299903D01*
X52637846Y-142415863D01*
X52597852Y-142442586D01*
X52502602Y-142634419D01*
X51125000Y-142634419D01*
X51125000Y-140025000D01*
X103815000Y-140025000D01*
X103815001Y-156194039D01*
%TA.AperFunction,Conductor*%
D23*
G36*
X103815001Y-156194039D02*
G01*
X103815000Y-162235000D01*
X51125000Y-162235000D01*
X51125000Y-158627890D01*
X52100200Y-158627890D01*
X52100200Y-158872110D01*
X52147845Y-159111636D01*
X52241303Y-159337266D01*
X52376984Y-159540327D01*
X52549673Y-159713016D01*
X52752734Y-159848697D01*
X52978364Y-159942155D01*
X53217890Y-159989800D01*
X53462110Y-159989800D01*
X53701636Y-159942155D01*
X53927266Y-159848697D01*
X54130327Y-159713016D01*
X54303016Y-159540327D01*
X54438697Y-159337266D01*
X54532155Y-159111636D01*
X54579800Y-158872110D01*
X54579800Y-158627890D01*
X54532155Y-158388364D01*
X54438697Y-158162734D01*
X54303016Y-157959673D01*
X54130327Y-157786984D01*
X53927266Y-157651303D01*
X53701636Y-157557845D01*
X53462110Y-157510200D01*
X53217890Y-157510200D01*
X52978364Y-157557845D01*
X52752734Y-157651303D01*
X52549673Y-157786984D01*
X52376984Y-157959673D01*
X52241303Y-158162734D01*
X52147845Y-158388364D01*
X52100200Y-158627890D01*
X51125000Y-158627890D01*
X51125000Y-155392000D01*
X51449653Y-155392000D01*
X51390525Y-155440525D01*
X51278057Y-155577568D01*
X51194486Y-155733919D01*
X51143023Y-155903569D01*
X51125646Y-156080000D01*
X51143023Y-156256431D01*
X51194486Y-156426081D01*
X51278057Y-156582432D01*
X51390525Y-156719475D01*
X51527568Y-156831943D01*
X51683919Y-156915514D01*
X51853569Y-156966977D01*
X51985793Y-156980000D01*
X53274207Y-156980000D01*
X53406431Y-156966977D01*
X53576081Y-156915514D01*
X53732432Y-156831943D01*
X53869475Y-156719475D01*
X53981943Y-156582432D01*
X54065514Y-156426081D01*
X54116977Y-156256431D01*
X54134354Y-156080000D01*
X54116977Y-155903569D01*
X54065514Y-155733919D01*
X53981943Y-155577568D01*
X53869475Y-155440525D01*
X53810347Y-155392000D01*
X55387961Y-155392000D01*
X55402072Y-155390610D01*
X55406775Y-155390643D01*
X55411292Y-155390201D01*
X55457802Y-155385313D01*
X55390525Y-155440525D01*
X55278057Y-155577568D01*
X55194486Y-155733919D01*
X55143023Y-155903569D01*
X55125646Y-156080000D01*
X55143023Y-156256431D01*
X55194486Y-156426081D01*
X55278057Y-156582432D01*
X55390525Y-156719475D01*
X55527568Y-156831943D01*
X55683919Y-156915514D01*
X55853569Y-156966977D01*
X55985793Y-156980000D01*
X57048959Y-156980000D01*
X56403902Y-157625057D01*
X56241636Y-157557845D01*
X56002110Y-157510200D01*
X55757890Y-157510200D01*
X55518364Y-157557845D01*
X55292734Y-157651303D01*
X55089673Y-157786984D01*
X54916984Y-157959673D01*
X54781303Y-158162734D01*
X54687845Y-158388364D01*
X54640200Y-158627890D01*
X54640200Y-158872110D01*
X54687845Y-159111636D01*
X54781303Y-159337266D01*
X54916984Y-159540327D01*
X55089673Y-159713016D01*
X55292734Y-159848697D01*
X55518364Y-159942155D01*
X55757890Y-159989800D01*
X56002110Y-159989800D01*
X56241636Y-159942155D01*
X56467266Y-159848697D01*
X56670327Y-159713016D01*
X56843016Y-159540327D01*
X56978697Y-159337266D01*
X57072155Y-159111636D01*
X57119800Y-158872110D01*
X57119800Y-158627890D01*
X57072155Y-158388364D01*
X57004943Y-158226098D01*
X57580041Y-157651000D01*
X57833466Y-157651000D01*
X57832734Y-157651303D01*
X57629673Y-157786984D01*
X57456984Y-157959673D01*
X57321303Y-158162734D01*
X57227845Y-158388364D01*
X57180200Y-158627890D01*
X57180200Y-158872110D01*
X57227845Y-159111636D01*
X57321303Y-159337266D01*
X57456984Y-159540327D01*
X57629673Y-159713016D01*
X57832734Y-159848697D01*
X58058364Y-159942155D01*
X58297890Y-159989800D01*
X58542110Y-159989800D01*
X58781636Y-159942155D01*
X59007266Y-159848697D01*
X59210327Y-159713016D01*
X59383016Y-159540327D01*
X59518697Y-159337266D01*
X59612155Y-159111636D01*
X59659800Y-158872110D01*
X59659800Y-158627890D01*
X59618330Y-158419410D01*
X59851613Y-158186127D01*
X59767845Y-158388364D01*
X59720200Y-158627890D01*
X59720200Y-158872110D01*
X59767845Y-159111636D01*
X59861303Y-159337266D01*
X59996984Y-159540327D01*
X60169673Y-159713016D01*
X60372734Y-159848697D01*
X60598364Y-159942155D01*
X60837890Y-159989800D01*
X61082110Y-159989800D01*
X61321636Y-159942155D01*
X61547266Y-159848697D01*
X61750327Y-159713016D01*
X61923016Y-159540327D01*
X62058697Y-159337266D01*
X62152155Y-159111636D01*
X62199800Y-158872110D01*
X62199800Y-158627890D01*
X62152155Y-158388364D01*
X62084943Y-158226098D01*
X63041041Y-157270000D01*
X64378959Y-157270000D01*
X64023902Y-157625057D01*
X63861636Y-157557845D01*
X63622110Y-157510200D01*
X63377890Y-157510200D01*
X63138364Y-157557845D01*
X62912734Y-157651303D01*
X62709673Y-157786984D01*
X62536984Y-157959673D01*
X62401303Y-158162734D01*
X62307845Y-158388364D01*
X62260200Y-158627890D01*
X62260200Y-158872110D01*
X62307845Y-159111636D01*
X62401303Y-159337266D01*
X62536984Y-159540327D01*
X62709673Y-159713016D01*
X62912734Y-159848697D01*
X63138364Y-159942155D01*
X63377890Y-159989800D01*
X63622110Y-159989800D01*
X63861636Y-159942155D01*
X64087266Y-159848697D01*
X64290327Y-159713016D01*
X64463016Y-159540327D01*
X64598697Y-159337266D01*
X64692155Y-159111636D01*
X64739800Y-158872110D01*
X64739800Y-158627890D01*
X64692155Y-158388364D01*
X64624943Y-158226098D01*
X65073041Y-157778000D01*
X65263119Y-157778000D01*
X65249673Y-157786984D01*
X65076984Y-157959673D01*
X64941303Y-158162734D01*
X64847845Y-158388364D01*
X64800200Y-158627890D01*
X64800200Y-158872110D01*
X64847845Y-159111636D01*
X64941303Y-159337266D01*
X65076984Y-159540327D01*
X65249673Y-159713016D01*
X65452734Y-159848697D01*
X65678364Y-159942155D01*
X65917890Y-159989800D01*
X66162110Y-159989800D01*
X66401636Y-159942155D01*
X66627266Y-159848697D01*
X66830327Y-159713016D01*
X67003016Y-159540327D01*
X67138697Y-159337266D01*
X67232155Y-159111636D01*
X67279800Y-158872110D01*
X67279800Y-158627890D01*
X67232155Y-158388364D01*
X67164943Y-158226098D01*
X67986852Y-157404189D01*
X69324770Y-157404189D01*
X69103902Y-157625057D01*
X68941636Y-157557845D01*
X68702110Y-157510200D01*
X68457890Y-157510200D01*
X68218364Y-157557845D01*
X67992734Y-157651303D01*
X67789673Y-157786984D01*
X67616984Y-157959673D01*
X67481303Y-158162734D01*
X67387845Y-158388364D01*
X67340200Y-158627890D01*
X67340200Y-158872110D01*
X67387845Y-159111636D01*
X67481303Y-159337266D01*
X67616984Y-159540327D01*
X67789673Y-159713016D01*
X67992734Y-159848697D01*
X68218364Y-159942155D01*
X68457890Y-159989800D01*
X68702110Y-159989800D01*
X68941636Y-159942155D01*
X69167266Y-159848697D01*
X69370327Y-159713016D01*
X69543016Y-159540327D01*
X69678697Y-159337266D01*
X69772155Y-159111636D01*
X69819800Y-158872110D01*
X69819800Y-158627890D01*
X69772155Y-158388364D01*
X69704943Y-158226098D01*
X70076841Y-157854200D01*
X70262457Y-157854200D01*
X70156984Y-157959673D01*
X70021303Y-158162734D01*
X69927845Y-158388364D01*
X69880200Y-158627890D01*
X69880200Y-158872110D01*
X69927845Y-159111636D01*
X70021303Y-159337266D01*
X70156984Y-159540327D01*
X70329673Y-159713016D01*
X70532734Y-159848697D01*
X70758364Y-159942155D01*
X70997890Y-159989800D01*
X71242110Y-159989800D01*
X71481636Y-159942155D01*
X71707266Y-159848697D01*
X71910327Y-159713016D01*
X72083016Y-159540327D01*
X72218697Y-159337266D01*
X72312155Y-159111636D01*
X72359800Y-158872110D01*
X72359800Y-158627890D01*
X72312155Y-158388364D01*
X72218697Y-158162734D01*
X72170740Y-158090961D01*
X73235001Y-157026700D01*
X73235001Y-157584091D01*
X73072734Y-157651303D01*
X72869673Y-157786984D01*
X72696984Y-157959673D01*
X72561303Y-158162734D01*
X72467845Y-158388364D01*
X72420200Y-158627890D01*
X72420200Y-158872110D01*
X72467845Y-159111636D01*
X72561303Y-159337266D01*
X72696984Y-159540327D01*
X72869673Y-159713016D01*
X73072734Y-159848697D01*
X73298364Y-159942155D01*
X73537890Y-159989800D01*
X73782110Y-159989800D01*
X74021636Y-159942155D01*
X74247266Y-159848697D01*
X74450327Y-159713016D01*
X74576236Y-159587107D01*
X74580116Y-159594365D01*
X74633226Y-159659079D01*
X74649438Y-159672384D01*
X75790810Y-160813756D01*
X75804120Y-160829974D01*
X75868834Y-160883084D01*
X75942665Y-160922547D01*
X75942667Y-160922548D01*
X76022780Y-160946850D01*
X76106094Y-160955056D01*
X76126968Y-160953000D01*
X94053039Y-160953000D01*
X94073906Y-160955055D01*
X94094773Y-160953000D01*
X94094780Y-160953000D01*
X94157220Y-160946850D01*
X94237333Y-160922548D01*
X94311166Y-160883084D01*
X94375880Y-160829974D01*
X94389190Y-160813756D01*
X95540957Y-159661989D01*
X95557173Y-159648681D01*
X95605929Y-159589272D01*
X95729673Y-159713016D01*
X95932734Y-159848697D01*
X96158364Y-159942155D01*
X96397890Y-159989800D01*
X96642110Y-159989800D01*
X96881636Y-159942155D01*
X97107266Y-159848697D01*
X97310327Y-159713016D01*
X97397762Y-159625581D01*
X98222602Y-159625581D01*
X98317852Y-159817414D01*
X98540354Y-159941690D01*
X98782826Y-160020170D01*
X99035950Y-160049838D01*
X99289998Y-160029554D01*
X99535207Y-159960097D01*
X99762154Y-159844137D01*
X99802148Y-159817414D01*
X99897398Y-159625581D01*
X99060000Y-158788184D01*
X98222602Y-159625581D01*
X97397762Y-159625581D01*
X97483016Y-159540327D01*
X97618697Y-159337266D01*
X97712155Y-159111636D01*
X97759800Y-158872110D01*
X97759800Y-158725950D01*
X97760162Y-158725950D01*
X97780446Y-158979998D01*
X97849903Y-159225207D01*
X97965863Y-159452154D01*
X97992586Y-159492148D01*
X98184419Y-159587398D01*
X99021816Y-158750000D01*
X99098184Y-158750000D01*
X99935581Y-159587398D01*
X100127414Y-159492148D01*
X100251690Y-159269646D01*
X100330170Y-159027174D01*
X100359838Y-158774050D01*
X100348169Y-158627890D01*
X100360200Y-158627890D01*
X100360200Y-158872110D01*
X100407845Y-159111636D01*
X100501303Y-159337266D01*
X100636984Y-159540327D01*
X100809673Y-159713016D01*
X101012734Y-159848697D01*
X101238364Y-159942155D01*
X101477890Y-159989800D01*
X101722110Y-159989800D01*
X101961636Y-159942155D01*
X102187266Y-159848697D01*
X102390327Y-159713016D01*
X102563016Y-159540327D01*
X102698697Y-159337266D01*
X102792155Y-159111636D01*
X102839800Y-158872110D01*
X102839800Y-158627890D01*
X102792155Y-158388364D01*
X102698697Y-158162734D01*
X102563016Y-157959673D01*
X102390327Y-157786984D01*
X102187266Y-157651303D01*
X101961636Y-157557845D01*
X101722110Y-157510200D01*
X101477890Y-157510200D01*
X101238364Y-157557845D01*
X101012734Y-157651303D01*
X100809673Y-157786984D01*
X100636984Y-157959673D01*
X100501303Y-158162734D01*
X100407845Y-158388364D01*
X100360200Y-158627890D01*
X100348169Y-158627890D01*
X100339554Y-158520002D01*
X100270097Y-158274793D01*
X100154137Y-158047846D01*
X100127414Y-158007852D01*
X99935581Y-157912602D01*
X99098184Y-158750000D01*
X99021816Y-158750000D01*
X98184419Y-157912602D01*
X97992586Y-158007852D01*
X97868310Y-158230354D01*
X97789830Y-158472826D01*
X97760162Y-158725950D01*
X97759800Y-158725950D01*
X97759800Y-158627890D01*
X97712155Y-158388364D01*
X97618697Y-158162734D01*
X97483016Y-157959673D01*
X97310327Y-157786984D01*
X97258868Y-157752600D01*
X98283088Y-157752600D01*
X98222602Y-157874419D01*
X99060000Y-158711816D01*
X99897398Y-157874419D01*
X99802148Y-157682586D01*
X99579646Y-157558310D01*
X99339558Y-157480602D01*
X100837581Y-155982580D01*
X100862616Y-155987560D01*
X101000504Y-155987560D01*
X101135742Y-155960659D01*
X101263134Y-155907892D01*
X101377784Y-155831286D01*
X101475286Y-155733784D01*
X101551892Y-155619134D01*
X101604659Y-155491742D01*
X101631560Y-155356504D01*
X101631560Y-155218616D01*
X101604659Y-155083378D01*
X101551892Y-154955986D01*
X101475286Y-154841336D01*
X101377784Y-154743834D01*
X101263134Y-154667228D01*
X101167306Y-154627535D01*
X101712743Y-154082098D01*
X101792267Y-154057975D01*
X101879129Y-154011546D01*
X101955264Y-153949064D01*
X102017746Y-153872929D01*
X102064175Y-153786067D01*
X102092765Y-153691817D01*
X102100000Y-153618360D01*
X102100000Y-144644843D01*
X102187266Y-144608697D01*
X102390327Y-144473016D01*
X102563016Y-144300327D01*
X102698697Y-144097266D01*
X102792155Y-143871636D01*
X102839800Y-143632110D01*
X102839800Y-143387890D01*
X102792155Y-143148364D01*
X102698697Y-142922734D01*
X102563016Y-142719673D01*
X102390327Y-142546984D01*
X102187266Y-142411303D01*
X101961636Y-142317845D01*
X101722110Y-142270200D01*
X101477890Y-142270200D01*
X101238364Y-142317845D01*
X101012734Y-142411303D01*
X100809673Y-142546984D01*
X100636984Y-142719673D01*
X100501303Y-142922734D01*
X100407845Y-143148364D01*
X100360200Y-143387890D01*
X100360200Y-143632110D01*
X100407845Y-143871636D01*
X100501303Y-144097266D01*
X100636984Y-144300327D01*
X100809673Y-144473016D01*
X101012734Y-144608697D01*
X101100000Y-144644843D01*
X101100001Y-153492758D01*
X99470547Y-155122213D01*
X99413173Y-154967000D01*
X98325000Y-154967000D01*
X98325000Y-156055198D01*
X98480209Y-156112550D01*
X98172760Y-156420000D01*
X96923785Y-156420000D01*
X96971950Y-156329889D01*
X97002975Y-156227613D01*
X97013451Y-156121250D01*
X97013451Y-155633750D01*
X97002975Y-155527387D01*
X96971950Y-155425111D01*
X96921568Y-155330853D01*
X96853765Y-155248235D01*
X96771147Y-155180432D01*
X96723506Y-155154967D01*
X97113346Y-155154967D01*
X97121257Y-155194745D01*
X97193566Y-155419421D01*
X97308318Y-155625673D01*
X97461103Y-155805575D01*
X97646049Y-155952214D01*
X97856049Y-156059954D01*
X98083033Y-156124655D01*
X98271000Y-156055198D01*
X98271000Y-154967000D01*
X97182827Y-154967000D01*
X97113346Y-155154967D01*
X96723506Y-155154967D01*
X96676889Y-155130050D01*
X96574613Y-155099025D01*
X96468250Y-155088549D01*
X95555750Y-155088549D01*
X95449387Y-155099025D01*
X95347111Y-155130050D01*
X95252853Y-155180432D01*
X95170235Y-155248235D01*
X95102432Y-155330853D01*
X95052050Y-155425111D01*
X95043742Y-155452500D01*
X94286207Y-155452500D01*
X94272026Y-155431276D01*
X94174524Y-155333774D01*
X94059874Y-155257168D01*
X93932482Y-155204401D01*
X93797244Y-155177500D01*
X93659356Y-155177500D01*
X93524118Y-155204401D01*
X93396726Y-155257168D01*
X93282076Y-155333774D01*
X93184574Y-155431276D01*
X93107968Y-155545926D01*
X93055201Y-155673318D01*
X93028300Y-155808556D01*
X93028300Y-155876460D01*
X92009284Y-154857444D01*
X91995974Y-154841226D01*
X91931260Y-154788116D01*
X91857427Y-154748652D01*
X91779940Y-154725146D01*
X91802647Y-154697477D01*
X91830504Y-154645360D01*
X91847659Y-154588810D01*
X91853451Y-154530000D01*
X91853451Y-153230000D01*
X91847659Y-153171190D01*
X91830504Y-153114640D01*
X91802647Y-153062523D01*
X91765158Y-153016842D01*
X91719477Y-152979353D01*
X91667360Y-152951496D01*
X91610810Y-152934341D01*
X91552000Y-152928549D01*
X89652000Y-152928549D01*
X89593190Y-152934341D01*
X89536640Y-152951496D01*
X89484523Y-152979353D01*
X89438842Y-153016842D01*
X89401353Y-153062523D01*
X89373496Y-153114640D01*
X89356341Y-153171190D01*
X89350549Y-153230000D01*
X89350549Y-154530000D01*
X89356341Y-154588810D01*
X89373496Y-154645360D01*
X89401353Y-154697477D01*
X89418360Y-154718200D01*
X86561441Y-154718200D01*
X86417782Y-154574541D01*
X86510584Y-154593000D01*
X86717416Y-154593000D01*
X86920274Y-154552650D01*
X87111362Y-154473498D01*
X87283336Y-154358589D01*
X87429589Y-154212336D01*
X87544498Y-154040362D01*
X87623650Y-153849274D01*
X87664000Y-153646416D01*
X87664000Y-153439584D01*
X87623650Y-153236726D01*
X87544498Y-153045638D01*
X87429589Y-152873664D01*
X87283336Y-152727411D01*
X87111362Y-152612502D01*
X86920274Y-152533350D01*
X86717416Y-152493000D01*
X86510584Y-152493000D01*
X86307726Y-152533350D01*
X86116638Y-152612502D01*
X85944664Y-152727411D01*
X85798411Y-152873664D01*
X85683502Y-153045638D01*
X85604350Y-153236726D01*
X85564000Y-153439584D01*
X85564000Y-153646416D01*
X85582459Y-153739218D01*
X82782876Y-150939636D01*
X82782876Y-150344660D01*
X83145558Y-149981978D01*
X83192375Y-149924932D01*
X83227162Y-149859849D01*
X83248585Y-149789229D01*
X83255818Y-149715787D01*
X83248585Y-149642345D01*
X83243202Y-149624600D01*
X84659960Y-149624600D01*
X85663721Y-150628362D01*
X85665065Y-150630000D01*
X84563950Y-150630000D01*
X84520224Y-150586274D01*
X84405574Y-150509668D01*
X84278182Y-150456901D01*
X84142944Y-150430000D01*
X84005056Y-150430000D01*
X83869818Y-150456901D01*
X83742426Y-150509668D01*
X83627776Y-150586274D01*
X83530274Y-150683776D01*
X83453668Y-150798426D01*
X83400901Y-150925818D01*
X83374000Y-151061056D01*
X83374000Y-151198944D01*
X83400901Y-151334182D01*
X83453668Y-151461574D01*
X83530274Y-151576224D01*
X83627776Y-151673726D01*
X83742426Y-151750332D01*
X83869818Y-151803099D01*
X84005056Y-151830000D01*
X84142944Y-151830000D01*
X84278182Y-151803099D01*
X84405574Y-151750332D01*
X84520224Y-151673726D01*
X84563950Y-151630000D01*
X95377840Y-151630000D01*
X95402400Y-151632419D01*
X95426960Y-151630000D01*
X95500417Y-151622765D01*
X95512001Y-151619251D01*
X95512000Y-153217858D01*
X95449387Y-153224025D01*
X95347111Y-153255050D01*
X95252853Y-153305432D01*
X95170235Y-153373235D01*
X95102432Y-153455853D01*
X95053451Y-153547490D01*
X95053451Y-153230000D01*
X95047659Y-153171190D01*
X95030504Y-153114640D01*
X95002647Y-153062523D01*
X94965158Y-153016842D01*
X94919477Y-152979353D01*
X94867360Y-152951496D01*
X94810810Y-152934341D01*
X94752000Y-152928549D01*
X92852000Y-152928549D01*
X92793190Y-152934341D01*
X92736640Y-152951496D01*
X92684523Y-152979353D01*
X92638842Y-153016842D01*
X92601353Y-153062523D01*
X92573496Y-153114640D01*
X92556341Y-153171190D01*
X92550549Y-153230000D01*
X92550549Y-154530000D01*
X92556341Y-154588810D01*
X92573496Y-154645360D01*
X92601353Y-154697477D01*
X92638842Y-154743158D01*
X92684523Y-154780647D01*
X92736640Y-154808504D01*
X92793190Y-154825659D01*
X92852000Y-154831451D01*
X94752000Y-154831451D01*
X94810810Y-154825659D01*
X94867360Y-154808504D01*
X94919477Y-154780647D01*
X94965158Y-154743158D01*
X95002647Y-154697477D01*
X95030504Y-154645360D01*
X95047659Y-154588810D01*
X95053451Y-154530000D01*
X95053451Y-154457510D01*
X95102432Y-154549147D01*
X95170235Y-154631765D01*
X95252853Y-154699568D01*
X95347111Y-154749950D01*
X95449387Y-154780975D01*
X95555750Y-154791451D01*
X96468250Y-154791451D01*
X96574613Y-154780975D01*
X96676889Y-154749950D01*
X96723505Y-154725033D01*
X97113346Y-154725033D01*
X97182827Y-154913000D01*
X98271000Y-154913000D01*
X98271000Y-153824802D01*
X98325000Y-153824802D01*
X98325000Y-154913000D01*
X99413173Y-154913000D01*
X99482654Y-154725033D01*
X99474743Y-154685255D01*
X99402434Y-154460579D01*
X99287682Y-154254327D01*
X99134897Y-154074425D01*
X98949951Y-153927786D01*
X98739951Y-153820046D01*
X98512967Y-153755345D01*
X98325000Y-153824802D01*
X98271000Y-153824802D01*
X98083033Y-153755345D01*
X97856049Y-153820046D01*
X97646049Y-153927786D01*
X97461103Y-154074425D01*
X97308318Y-154254327D01*
X97193566Y-154460579D01*
X97121257Y-154685255D01*
X97113346Y-154725033D01*
X96723505Y-154725033D01*
X96771147Y-154699568D01*
X96853765Y-154631765D01*
X96921568Y-154549147D01*
X96971950Y-154454889D01*
X97002975Y-154352613D01*
X97013451Y-154246250D01*
X97013451Y-153758750D01*
X97002975Y-153652387D01*
X96971950Y-153550111D01*
X96921568Y-153455853D01*
X96853765Y-153373235D01*
X96771147Y-153305432D01*
X96676889Y-153255050D01*
X96574613Y-153224025D01*
X96512000Y-153217858D01*
X96512000Y-152286735D01*
X97148000Y-152286735D01*
X97148000Y-152513265D01*
X97192194Y-152735443D01*
X97278884Y-152944729D01*
X97404737Y-153133082D01*
X97564918Y-153293263D01*
X97753271Y-153419116D01*
X97940727Y-153496764D01*
X97942916Y-153500859D01*
X97996026Y-153565574D01*
X98060740Y-153618684D01*
X98134573Y-153658148D01*
X98214686Y-153682450D01*
X98298000Y-153690656D01*
X98381313Y-153682450D01*
X98461426Y-153658148D01*
X98535259Y-153618684D01*
X98599974Y-153565574D01*
X98653084Y-153500860D01*
X98655274Y-153496763D01*
X98842729Y-153419116D01*
X99031082Y-153293263D01*
X99191263Y-153133082D01*
X99317116Y-152944729D01*
X99403806Y-152735443D01*
X99448000Y-152513265D01*
X99448000Y-152286735D01*
X99403806Y-152064557D01*
X99317116Y-151855271D01*
X99191263Y-151666918D01*
X99031082Y-151506737D01*
X98842729Y-151380884D01*
X98633443Y-151294194D01*
X98411265Y-151250000D01*
X98184735Y-151250000D01*
X97962557Y-151294194D01*
X97753271Y-151380884D01*
X97564918Y-151506737D01*
X97404737Y-151666918D01*
X97278884Y-151855271D01*
X97192194Y-152064557D01*
X97148000Y-152286735D01*
X96512000Y-152286735D01*
X96512000Y-150544959D01*
X96514419Y-150520400D01*
X96512000Y-150495840D01*
X96512000Y-149746735D01*
X97148000Y-149746735D01*
X97148000Y-149973265D01*
X97192194Y-150195443D01*
X97278884Y-150404729D01*
X97404737Y-150593082D01*
X97564918Y-150753263D01*
X97753271Y-150879116D01*
X97962557Y-150965806D01*
X98184735Y-151010000D01*
X98411265Y-151010000D01*
X98633443Y-150965806D01*
X98842729Y-150879116D01*
X99031082Y-150753263D01*
X99191263Y-150593082D01*
X99317116Y-150404729D01*
X99403806Y-150195443D01*
X99448000Y-149973265D01*
X99448000Y-149746735D01*
X99403806Y-149524557D01*
X99317116Y-149315271D01*
X99191263Y-149126918D01*
X99031082Y-148966737D01*
X98842729Y-148840884D01*
X98633443Y-148754194D01*
X98411265Y-148710000D01*
X98184735Y-148710000D01*
X97962557Y-148754194D01*
X97753271Y-148840884D01*
X97564918Y-148966737D01*
X97404737Y-149126918D01*
X97278884Y-149315271D01*
X97192194Y-149524557D01*
X97148000Y-149746735D01*
X96512000Y-149746735D01*
X96512000Y-149042142D01*
X96574613Y-149035975D01*
X96676889Y-149004950D01*
X96771147Y-148954568D01*
X96853765Y-148886765D01*
X96921568Y-148804147D01*
X96946501Y-148757500D01*
X97335940Y-148757500D01*
X97360500Y-148759919D01*
X97385060Y-148757500D01*
X97458517Y-148750265D01*
X97552767Y-148721675D01*
X97639629Y-148675246D01*
X97715764Y-148612764D01*
X97731429Y-148593676D01*
X97853654Y-148471451D01*
X99148000Y-148471451D01*
X99206810Y-148465659D01*
X99263360Y-148448504D01*
X99315477Y-148420647D01*
X99361158Y-148383158D01*
X99398647Y-148337477D01*
X99426504Y-148285360D01*
X99443659Y-148228810D01*
X99449451Y-148170000D01*
X99449451Y-146470000D01*
X99443659Y-146411190D01*
X99426504Y-146354640D01*
X99398647Y-146302523D01*
X99361158Y-146256842D01*
X99315477Y-146219353D01*
X99263360Y-146191496D01*
X99206810Y-146174341D01*
X99148000Y-146168549D01*
X97448000Y-146168549D01*
X97389190Y-146174341D01*
X97332640Y-146191496D01*
X97280523Y-146219353D01*
X97234842Y-146256842D01*
X97197353Y-146302523D01*
X97169496Y-146354640D01*
X97152341Y-146411190D01*
X97146549Y-146470000D01*
X97146549Y-147757500D01*
X96946501Y-147757500D01*
X96921568Y-147710853D01*
X96853765Y-147628235D01*
X96771147Y-147560432D01*
X96676889Y-147510050D01*
X96574613Y-147479025D01*
X96468250Y-147468549D01*
X95555750Y-147468549D01*
X95449387Y-147479025D01*
X95347111Y-147510050D01*
X95252853Y-147560432D01*
X95170235Y-147628235D01*
X95102432Y-147710853D01*
X95053451Y-147802490D01*
X95053451Y-147730000D01*
X95047659Y-147671190D01*
X95030504Y-147614640D01*
X95002647Y-147562523D01*
X94965158Y-147516842D01*
X94919477Y-147479353D01*
X94867360Y-147451496D01*
X94810810Y-147434341D01*
X94752000Y-147428549D01*
X94317244Y-147428549D01*
X94426232Y-147355726D01*
X94523734Y-147258224D01*
X94600340Y-147143574D01*
X94653107Y-147016182D01*
X94680008Y-146880944D01*
X94680008Y-146807500D01*
X95043742Y-146807500D01*
X95052050Y-146834889D01*
X95102432Y-146929147D01*
X95170235Y-147011765D01*
X95252853Y-147079568D01*
X95347111Y-147129950D01*
X95449387Y-147160975D01*
X95555750Y-147171451D01*
X96468250Y-147171451D01*
X96574613Y-147160975D01*
X96676889Y-147129950D01*
X96771147Y-147079568D01*
X96853765Y-147011765D01*
X96921568Y-146929147D01*
X96971950Y-146834889D01*
X97002975Y-146732613D01*
X97013451Y-146626250D01*
X97013451Y-146138750D01*
X97002975Y-146032387D01*
X96971950Y-145930111D01*
X96921568Y-145835853D01*
X96853765Y-145753235D01*
X96771147Y-145685432D01*
X96676889Y-145635050D01*
X96574613Y-145604025D01*
X96468250Y-145593549D01*
X95555750Y-145593549D01*
X95449387Y-145604025D01*
X95347111Y-145635050D01*
X95252853Y-145685432D01*
X95170235Y-145753235D01*
X95102432Y-145835853D01*
X95052050Y-145930111D01*
X95043742Y-145957500D01*
X94430375Y-145957500D01*
X94409508Y-145955445D01*
X94388641Y-145957500D01*
X94388634Y-145957500D01*
X94326194Y-145963650D01*
X94246080Y-145987952D01*
X94238496Y-145992006D01*
X94172248Y-146027416D01*
X94107534Y-146080526D01*
X94094229Y-146096738D01*
X94073987Y-146116980D01*
X94048952Y-146112000D01*
X93911064Y-146112000D01*
X93775826Y-146138901D01*
X93648434Y-146191668D01*
X93533784Y-146268274D01*
X93436282Y-146365776D01*
X93359676Y-146480426D01*
X93306909Y-146607818D01*
X93280008Y-146743056D01*
X93280008Y-146880944D01*
X93306909Y-147016182D01*
X93359676Y-147143574D01*
X93436282Y-147258224D01*
X93533784Y-147355726D01*
X93642772Y-147428549D01*
X93165590Y-147428549D01*
X92447440Y-146710400D01*
X94265763Y-144892078D01*
X94281974Y-144878774D01*
X94335084Y-144814060D01*
X94374548Y-144740227D01*
X94392486Y-144681092D01*
X94567266Y-144608697D01*
X94770327Y-144473016D01*
X94943016Y-144300327D01*
X95078697Y-144097266D01*
X95172155Y-143871636D01*
X95219800Y-143632110D01*
X95219800Y-143387890D01*
X95280200Y-143387890D01*
X95280200Y-143632110D01*
X95327845Y-143871636D01*
X95421303Y-144097266D01*
X95556984Y-144300327D01*
X95729673Y-144473016D01*
X95932734Y-144608697D01*
X96158364Y-144702155D01*
X96397890Y-144749800D01*
X96642110Y-144749800D01*
X96881636Y-144702155D01*
X97107266Y-144608697D01*
X97310327Y-144473016D01*
X97483016Y-144300327D01*
X97618697Y-144097266D01*
X97712155Y-143871636D01*
X97759800Y-143632110D01*
X97759800Y-143387890D01*
X97820200Y-143387890D01*
X97820200Y-143632110D01*
X97867845Y-143871636D01*
X97961303Y-144097266D01*
X98096984Y-144300327D01*
X98269673Y-144473016D01*
X98472734Y-144608697D01*
X98698364Y-144702155D01*
X98937890Y-144749800D01*
X99182110Y-144749800D01*
X99421636Y-144702155D01*
X99647266Y-144608697D01*
X99850327Y-144473016D01*
X100023016Y-144300327D01*
X100158697Y-144097266D01*
X100252155Y-143871636D01*
X100299800Y-143632110D01*
X100299800Y-143387890D01*
X100252155Y-143148364D01*
X100158697Y-142922734D01*
X100023016Y-142719673D01*
X99850327Y-142546984D01*
X99647266Y-142411303D01*
X99421636Y-142317845D01*
X99182110Y-142270200D01*
X98937890Y-142270200D01*
X98698364Y-142317845D01*
X98472734Y-142411303D01*
X98269673Y-142546984D01*
X98096984Y-142719673D01*
X97961303Y-142922734D01*
X97867845Y-143148364D01*
X97820200Y-143387890D01*
X97759800Y-143387890D01*
X97712155Y-143148364D01*
X97618697Y-142922734D01*
X97483016Y-142719673D01*
X97310327Y-142546984D01*
X97107266Y-142411303D01*
X96881636Y-142317845D01*
X96642110Y-142270200D01*
X96397890Y-142270200D01*
X96158364Y-142317845D01*
X95932734Y-142411303D01*
X95729673Y-142546984D01*
X95556984Y-142719673D01*
X95421303Y-142922734D01*
X95327845Y-143148364D01*
X95280200Y-143387890D01*
X95219800Y-143387890D01*
X95172155Y-143148364D01*
X95078697Y-142922734D01*
X94943016Y-142719673D01*
X94770327Y-142546984D01*
X94567266Y-142411303D01*
X94341636Y-142317845D01*
X94102110Y-142270200D01*
X93857890Y-142270200D01*
X93618364Y-142317845D01*
X93392734Y-142411303D01*
X93189673Y-142546984D01*
X93016984Y-142719673D01*
X92881303Y-142922734D01*
X92787845Y-143148364D01*
X92740200Y-143387890D01*
X92740200Y-143632110D01*
X92787845Y-143871636D01*
X92881303Y-144097266D01*
X93016984Y-144300327D01*
X93189673Y-144473016D01*
X93365356Y-144590403D01*
X91670360Y-146285400D01*
X89265640Y-146285400D01*
X90815481Y-144735560D01*
X90815485Y-144735555D01*
X90916097Y-144634943D01*
X91078364Y-144702155D01*
X91317890Y-144749800D01*
X91562110Y-144749800D01*
X91801636Y-144702155D01*
X92027266Y-144608697D01*
X92230327Y-144473016D01*
X92403016Y-144300327D01*
X92538697Y-144097266D01*
X92632155Y-143871636D01*
X92679800Y-143632110D01*
X92679800Y-143387890D01*
X92632155Y-143148364D01*
X92538697Y-142922734D01*
X92403016Y-142719673D01*
X92230327Y-142546984D01*
X92027266Y-142411303D01*
X91801636Y-142317845D01*
X91562110Y-142270200D01*
X91317890Y-142270200D01*
X91078364Y-142317845D01*
X90852734Y-142411303D01*
X90649673Y-142546984D01*
X90476984Y-142719673D01*
X90341303Y-142922734D01*
X90247845Y-143148364D01*
X90200200Y-143387890D01*
X90200200Y-143632110D01*
X90247845Y-143871636D01*
X90315057Y-144033903D01*
X90214445Y-144134515D01*
X90214440Y-144134519D01*
X88618527Y-145730433D01*
X87280607Y-145730433D01*
X88376097Y-144634943D01*
X88538364Y-144702155D01*
X88777890Y-144749800D01*
X89022110Y-144749800D01*
X89261636Y-144702155D01*
X89487266Y-144608697D01*
X89690327Y-144473016D01*
X89863016Y-144300327D01*
X89998697Y-144097266D01*
X90092155Y-143871636D01*
X90139800Y-143632110D01*
X90139800Y-143387890D01*
X90092155Y-143148364D01*
X89998697Y-142922734D01*
X89863016Y-142719673D01*
X89690327Y-142546984D01*
X89487266Y-142411303D01*
X89261636Y-142317845D01*
X89022110Y-142270200D01*
X88777890Y-142270200D01*
X88538364Y-142317845D01*
X88312734Y-142411303D01*
X88109673Y-142546984D01*
X87936984Y-142719673D01*
X87801303Y-142922734D01*
X87707845Y-143148364D01*
X87660200Y-143387890D01*
X87660200Y-143632110D01*
X87707845Y-143871636D01*
X87775057Y-144033903D01*
X86528538Y-145280422D01*
X85190618Y-145280422D01*
X85836098Y-144634943D01*
X85998364Y-144702155D01*
X86237890Y-144749800D01*
X86482110Y-144749800D01*
X86721636Y-144702155D01*
X86947266Y-144608697D01*
X87150327Y-144473016D01*
X87323016Y-144300327D01*
X87458697Y-144097266D01*
X87552155Y-143871636D01*
X87599800Y-143632110D01*
X87599800Y-143387890D01*
X87552155Y-143148364D01*
X87458697Y-142922734D01*
X87323016Y-142719673D01*
X87150327Y-142546984D01*
X86947266Y-142411303D01*
X86721636Y-142317845D01*
X86482110Y-142270200D01*
X86237890Y-142270200D01*
X85998364Y-142317845D01*
X85772734Y-142411303D01*
X85569673Y-142546984D01*
X85396984Y-142719673D01*
X85261303Y-142922734D01*
X85167845Y-143148364D01*
X85120200Y-143387890D01*
X85120200Y-143632110D01*
X85167845Y-143871636D01*
X85235057Y-144033902D01*
X84438549Y-144830411D01*
X79892535Y-144830411D01*
X80369802Y-144353145D01*
X80489673Y-144473016D01*
X80692734Y-144608697D01*
X80918364Y-144702155D01*
X81157890Y-144749800D01*
X81402110Y-144749800D01*
X81641636Y-144702155D01*
X81867266Y-144608697D01*
X82070327Y-144473016D01*
X82243016Y-144300327D01*
X82378697Y-144097266D01*
X82472155Y-143871636D01*
X82519800Y-143632110D01*
X82519800Y-143387890D01*
X82580200Y-143387890D01*
X82580200Y-143632110D01*
X82627845Y-143871636D01*
X82721303Y-144097266D01*
X82856984Y-144300327D01*
X83029673Y-144473016D01*
X83232734Y-144608697D01*
X83458364Y-144702155D01*
X83697890Y-144749800D01*
X83942110Y-144749800D01*
X84181636Y-144702155D01*
X84407266Y-144608697D01*
X84610327Y-144473016D01*
X84783016Y-144300327D01*
X84918697Y-144097266D01*
X85012155Y-143871636D01*
X85059800Y-143632110D01*
X85059800Y-143387890D01*
X85012155Y-143148364D01*
X84918697Y-142922734D01*
X84783016Y-142719673D01*
X84610327Y-142546984D01*
X84407266Y-142411303D01*
X84181636Y-142317845D01*
X83942110Y-142270200D01*
X83697890Y-142270200D01*
X83458364Y-142317845D01*
X83232734Y-142411303D01*
X83029673Y-142546984D01*
X82856984Y-142719673D01*
X82721303Y-142922734D01*
X82627845Y-143148364D01*
X82580200Y-143387890D01*
X82519800Y-143387890D01*
X82472155Y-143148364D01*
X82378697Y-142922734D01*
X82243016Y-142719673D01*
X82070327Y-142546984D01*
X81867266Y-142411303D01*
X81641636Y-142317845D01*
X81402110Y-142270200D01*
X81157890Y-142270200D01*
X80918364Y-142317845D01*
X80692734Y-142411303D01*
X80489673Y-142546984D01*
X80316984Y-142719673D01*
X80181303Y-142922734D01*
X80087845Y-143148364D01*
X80040200Y-143387890D01*
X80040200Y-143480665D01*
X79979800Y-143541065D01*
X79979800Y-143387890D01*
X79932155Y-143148364D01*
X79838697Y-142922734D01*
X79703016Y-142719673D01*
X79530327Y-142546984D01*
X79327266Y-142411303D01*
X79101636Y-142317845D01*
X78862110Y-142270200D01*
X78617890Y-142270200D01*
X78378364Y-142317845D01*
X78152734Y-142411303D01*
X77949673Y-142546984D01*
X77776984Y-142719673D01*
X77641303Y-142922734D01*
X77547845Y-143148364D01*
X77500200Y-143387890D01*
X77500200Y-143632110D01*
X77547845Y-143871636D01*
X77615057Y-144033902D01*
X77243160Y-144405800D01*
X77057543Y-144405800D01*
X77163016Y-144300327D01*
X77298697Y-144097266D01*
X77392155Y-143871636D01*
X77439800Y-143632110D01*
X77439800Y-143387890D01*
X77392155Y-143148364D01*
X77298697Y-142922734D01*
X77163016Y-142719673D01*
X76990327Y-142546984D01*
X76787266Y-142411303D01*
X76561636Y-142317845D01*
X76322110Y-142270200D01*
X76077890Y-142270200D01*
X75838364Y-142317845D01*
X75612734Y-142411303D01*
X75409673Y-142546984D01*
X75236984Y-142719673D01*
X75101303Y-142922734D01*
X75007845Y-143148364D01*
X74960200Y-143387890D01*
X74960200Y-143632110D01*
X75007845Y-143871636D01*
X75075057Y-144033902D01*
X74085000Y-145023960D01*
X74085000Y-144675909D01*
X74247266Y-144608697D01*
X74450327Y-144473016D01*
X74623016Y-144300327D01*
X74758697Y-144097266D01*
X74852155Y-143871636D01*
X74899800Y-143632110D01*
X74899800Y-143387890D01*
X74852155Y-143148364D01*
X74758697Y-142922734D01*
X74623016Y-142719673D01*
X74450327Y-142546984D01*
X74247266Y-142411303D01*
X74021636Y-142317845D01*
X73782110Y-142270200D01*
X73537890Y-142270200D01*
X73298364Y-142317845D01*
X73072734Y-142411303D01*
X72869673Y-142546984D01*
X72696984Y-142719673D01*
X72561303Y-142922734D01*
X72467845Y-143148364D01*
X72420200Y-143387890D01*
X72420200Y-143632110D01*
X72467845Y-143871636D01*
X72561303Y-144097266D01*
X72696984Y-144300327D01*
X72869673Y-144473016D01*
X73072734Y-144608697D01*
X73235000Y-144675909D01*
X73235001Y-145938361D01*
X71826001Y-144529361D01*
X71910327Y-144473016D01*
X72083016Y-144300327D01*
X72218697Y-144097266D01*
X72312155Y-143871636D01*
X72359800Y-143632110D01*
X72359800Y-143387890D01*
X72312155Y-143148364D01*
X72218697Y-142922734D01*
X72083016Y-142719673D01*
X71910327Y-142546984D01*
X71707266Y-142411303D01*
X71481636Y-142317845D01*
X71242110Y-142270200D01*
X70997890Y-142270200D01*
X70758364Y-142317845D01*
X70532734Y-142411303D01*
X70329673Y-142546984D01*
X70156984Y-142719673D01*
X70021303Y-142922734D01*
X69927845Y-143148364D01*
X69880200Y-143387890D01*
X69880200Y-143632110D01*
X69927845Y-143871636D01*
X69966713Y-143965473D01*
X69788866Y-143787626D01*
X69819800Y-143632110D01*
X69819800Y-143387890D01*
X69772155Y-143148364D01*
X69678697Y-142922734D01*
X69543016Y-142719673D01*
X69370327Y-142546984D01*
X69167266Y-142411303D01*
X68941636Y-142317845D01*
X68702110Y-142270200D01*
X68457890Y-142270200D01*
X68218364Y-142317845D01*
X67992734Y-142411303D01*
X67789673Y-142546984D01*
X67616984Y-142719673D01*
X67481303Y-142922734D01*
X67387845Y-143148364D01*
X67340200Y-143387890D01*
X67340200Y-143632110D01*
X67387845Y-143871636D01*
X67481303Y-144097266D01*
X67616984Y-144300327D01*
X67697057Y-144380400D01*
X67511441Y-144380400D01*
X67164943Y-144033902D01*
X67232155Y-143871636D01*
X67279800Y-143632110D01*
X67279800Y-143387890D01*
X67232155Y-143148364D01*
X67138697Y-142922734D01*
X67003016Y-142719673D01*
X66830327Y-142546984D01*
X66627266Y-142411303D01*
X66401636Y-142317845D01*
X66162110Y-142270200D01*
X65917890Y-142270200D01*
X65678364Y-142317845D01*
X65452734Y-142411303D01*
X65249673Y-142546984D01*
X65076984Y-142719673D01*
X64941303Y-142922734D01*
X64847845Y-143148364D01*
X64800200Y-143387890D01*
X64800200Y-143632110D01*
X64847845Y-143871636D01*
X64941303Y-144097266D01*
X65076984Y-144300327D01*
X65249673Y-144473016D01*
X65452734Y-144608697D01*
X65678364Y-144702155D01*
X65917890Y-144749800D01*
X66162110Y-144749800D01*
X66401636Y-144702155D01*
X66563902Y-144634943D01*
X66759370Y-144830411D01*
X65421452Y-144830411D01*
X64624943Y-144033902D01*
X64692155Y-143871636D01*
X64739800Y-143632110D01*
X64739800Y-143387890D01*
X64692155Y-143148364D01*
X64598697Y-142922734D01*
X64463016Y-142719673D01*
X64290327Y-142546984D01*
X64087266Y-142411303D01*
X63861636Y-142317845D01*
X63622110Y-142270200D01*
X63377890Y-142270200D01*
X63138364Y-142317845D01*
X62912734Y-142411303D01*
X62709673Y-142546984D01*
X62536984Y-142719673D01*
X62401303Y-142922734D01*
X62307845Y-143148364D01*
X62260200Y-143387890D01*
X62260200Y-143632110D01*
X62307845Y-143871636D01*
X62401303Y-144097266D01*
X62536984Y-144300327D01*
X62709673Y-144473016D01*
X62912734Y-144608697D01*
X63138364Y-144702155D01*
X63377890Y-144749800D01*
X63622110Y-144749800D01*
X63861636Y-144702155D01*
X64023902Y-144634943D01*
X64930130Y-145541171D01*
X64943437Y-145557385D01*
X64959649Y-145570690D01*
X64959650Y-145570691D01*
X64967266Y-145576941D01*
X64992778Y-145597879D01*
X64822984Y-145767673D01*
X64687303Y-145970734D01*
X64593845Y-146196364D01*
X64546200Y-146435890D01*
X64546200Y-146680110D01*
X64593845Y-146919636D01*
X64687303Y-147145266D01*
X64822984Y-147348327D01*
X64995673Y-147521016D01*
X65198734Y-147656697D01*
X65424364Y-147750155D01*
X65663890Y-147797800D01*
X65908110Y-147797800D01*
X66147636Y-147750155D01*
X66373266Y-147656697D01*
X66576327Y-147521016D01*
X66663762Y-147433581D01*
X67488602Y-147433581D01*
X67583852Y-147625414D01*
X67806354Y-147749690D01*
X68048826Y-147828170D01*
X68057913Y-147829235D01*
X67850793Y-147887903D01*
X67623846Y-148003863D01*
X67583852Y-148030586D01*
X67488602Y-148222419D01*
X68326000Y-149059816D01*
X69163398Y-148222419D01*
X69068148Y-148030586D01*
X68845646Y-147906310D01*
X68603174Y-147827830D01*
X68594087Y-147826765D01*
X68801207Y-147768097D01*
X69028154Y-147652137D01*
X69068148Y-147625414D01*
X69163398Y-147433581D01*
X68326000Y-146596184D01*
X67488602Y-147433581D01*
X66663762Y-147433581D01*
X66749016Y-147348327D01*
X66884697Y-147145266D01*
X66978155Y-146919636D01*
X67025800Y-146680110D01*
X67025800Y-146435890D01*
X66978155Y-146196364D01*
X66884697Y-145970734D01*
X66749016Y-145767673D01*
X66661754Y-145680411D01*
X67410225Y-145680411D01*
X67450417Y-145720603D01*
X67258586Y-145815852D01*
X67134310Y-146038354D01*
X67055830Y-146280826D01*
X67026162Y-146533950D01*
X67046446Y-146787998D01*
X67115903Y-147033207D01*
X67231863Y-147260154D01*
X67258586Y-147300148D01*
X67450419Y-147395398D01*
X68287816Y-146558000D01*
X68273674Y-146543858D01*
X68311858Y-146505674D01*
X68326000Y-146519816D01*
X68340142Y-146505674D01*
X68378326Y-146543858D01*
X68364184Y-146558000D01*
X69201581Y-147395398D01*
X69393414Y-147300148D01*
X69517690Y-147077646D01*
X69596170Y-146835174D01*
X69625838Y-146582050D01*
X69606722Y-146342636D01*
X72245542Y-148981456D01*
X72245542Y-149049338D01*
X72935678Y-149739474D01*
X72949820Y-149725332D01*
X72988004Y-149763516D01*
X72973862Y-149777658D01*
X73663998Y-150467794D01*
X73789156Y-150467794D01*
X73814762Y-150444610D01*
X73859000Y-150390707D01*
X73891871Y-150329209D01*
X73912114Y-150262479D01*
X73912423Y-150259341D01*
X73913801Y-150258604D01*
X73970847Y-150211787D01*
X74076913Y-150105721D01*
X74123730Y-150048675D01*
X74158517Y-149983592D01*
X74168701Y-149950021D01*
X74202272Y-149939837D01*
X74267355Y-149905050D01*
X74324401Y-149858233D01*
X74335530Y-149847104D01*
X74358501Y-149962582D01*
X74411268Y-150089974D01*
X74487874Y-150204624D01*
X74585376Y-150302126D01*
X74700026Y-150378732D01*
X74827418Y-150431499D01*
X74962656Y-150458400D01*
X75100544Y-150458400D01*
X75235782Y-150431499D01*
X75363174Y-150378732D01*
X75477824Y-150302126D01*
X75575326Y-150204624D01*
X75651932Y-150089974D01*
X75655447Y-150081489D01*
X75697069Y-150181975D01*
X75773675Y-150296625D01*
X75871177Y-150394127D01*
X75985827Y-150470733D01*
X76113219Y-150523500D01*
X76248457Y-150550401D01*
X76386345Y-150550401D01*
X76411381Y-150545421D01*
X77045000Y-151179041D01*
X77045001Y-154843047D01*
X76913862Y-154974186D01*
X76845978Y-154974186D01*
X76155842Y-155664322D01*
X76169984Y-155678464D01*
X76131800Y-155716648D01*
X76117658Y-155702506D01*
X76103516Y-155716648D01*
X76065332Y-155678464D01*
X76079474Y-155664322D01*
X76065332Y-155650180D01*
X76103516Y-155611996D01*
X76117658Y-155626138D01*
X76807794Y-154936002D01*
X76807794Y-154810844D01*
X76784610Y-154785238D01*
X76730707Y-154741000D01*
X76669209Y-154708129D01*
X76602479Y-154687886D01*
X76599341Y-154687577D01*
X76598604Y-154686199D01*
X76551787Y-154629153D01*
X76445721Y-154523087D01*
X76388675Y-154476270D01*
X76323592Y-154441483D01*
X76290021Y-154431299D01*
X76279837Y-154397728D01*
X76245050Y-154332645D01*
X76198233Y-154275599D01*
X76092167Y-154169533D01*
X76035121Y-154122716D01*
X75970038Y-154087929D01*
X75936468Y-154077745D01*
X75926284Y-154044175D01*
X75891497Y-153979092D01*
X75844680Y-153922046D01*
X75738614Y-153815980D01*
X75681568Y-153769163D01*
X75616485Y-153734376D01*
X75582915Y-153724192D01*
X75572731Y-153690622D01*
X75537944Y-153625539D01*
X75491127Y-153568493D01*
X75385061Y-153462427D01*
X75328015Y-153415610D01*
X75262932Y-153380823D01*
X75229361Y-153370639D01*
X75219177Y-153337068D01*
X75184390Y-153271985D01*
X75137573Y-153214939D01*
X75031507Y-153108873D01*
X74974461Y-153062056D01*
X74909378Y-153027269D01*
X74875808Y-153017085D01*
X74865624Y-152983515D01*
X74830837Y-152918432D01*
X74784020Y-152861386D01*
X74677954Y-152755320D01*
X74620908Y-152708503D01*
X74555825Y-152673716D01*
X74522255Y-152663532D01*
X74512071Y-152629962D01*
X74477284Y-152564879D01*
X74430467Y-152507833D01*
X74324401Y-152401767D01*
X74267355Y-152354950D01*
X74202272Y-152320163D01*
X74168701Y-152309979D01*
X74158517Y-152276408D01*
X74123730Y-152211325D01*
X74076913Y-152154279D01*
X73970847Y-152048213D01*
X73913801Y-152001396D01*
X73848718Y-151966609D01*
X73815148Y-151956425D01*
X73804964Y-151922855D01*
X73770177Y-151857772D01*
X73723360Y-151800726D01*
X73617294Y-151694660D01*
X73560248Y-151647843D01*
X73495165Y-151613056D01*
X73461594Y-151602872D01*
X73451410Y-151569301D01*
X73416623Y-151504218D01*
X73369806Y-151447172D01*
X73263740Y-151341106D01*
X73206694Y-151294289D01*
X73141611Y-151259502D01*
X73070991Y-151238079D01*
X72997549Y-151230846D01*
X72924107Y-151238079D01*
X72853487Y-151259502D01*
X72788404Y-151294289D01*
X72731358Y-151341106D01*
X71794442Y-152278022D01*
X71747625Y-152335068D01*
X71716417Y-152393455D01*
X71344198Y-152765674D01*
X71362803Y-152672141D01*
X71362803Y-152534253D01*
X71335902Y-152399015D01*
X71283135Y-152271623D01*
X71206529Y-152156973D01*
X71162803Y-152113247D01*
X71162803Y-150326043D01*
X71253734Y-150416974D01*
X71267039Y-150433186D01*
X71331753Y-150486296D01*
X71405586Y-150525760D01*
X71461396Y-150542690D01*
X71485698Y-150550062D01*
X71494111Y-150550891D01*
X71548139Y-150556212D01*
X71548145Y-150556212D01*
X71569012Y-150558267D01*
X71589879Y-150556212D01*
X72368676Y-150556212D01*
X72731358Y-150918894D01*
X72788404Y-150965711D01*
X72853487Y-151000498D01*
X72924107Y-151021921D01*
X72997549Y-151029154D01*
X73070991Y-151021921D01*
X73141611Y-151000498D01*
X73206694Y-150965711D01*
X73263740Y-150918894D01*
X73369806Y-150812828D01*
X73416623Y-150755782D01*
X73417360Y-150754403D01*
X73420499Y-150754094D01*
X73487229Y-150733851D01*
X73548727Y-150700980D01*
X73602630Y-150656742D01*
X73625814Y-150631136D01*
X73625814Y-150505978D01*
X72935678Y-149815842D01*
X72921536Y-149829984D01*
X72883352Y-149791800D01*
X72897494Y-149777658D01*
X72207358Y-149087522D01*
X72082200Y-149087522D01*
X72056594Y-149110706D01*
X72012356Y-149164609D01*
X71979485Y-149226107D01*
X71959242Y-149292837D01*
X71958933Y-149295976D01*
X71957554Y-149296713D01*
X71900508Y-149343530D01*
X71794442Y-149449596D01*
X71747625Y-149506642D01*
X71712838Y-149571725D01*
X71691415Y-149642345D01*
X71690498Y-149651656D01*
X71357821Y-149318980D01*
X71362801Y-149293944D01*
X71362801Y-149156056D01*
X71335900Y-149020818D01*
X71283133Y-148893426D01*
X71206527Y-148778776D01*
X71109025Y-148681274D01*
X70994375Y-148604668D01*
X70866983Y-148551901D01*
X70731745Y-148525000D01*
X70593857Y-148525000D01*
X70458619Y-148551901D01*
X70331227Y-148604668D01*
X70216577Y-148681274D01*
X70119075Y-148778776D01*
X70042469Y-148893426D01*
X69989702Y-149020818D01*
X69962801Y-149156056D01*
X69962801Y-149293944D01*
X69989702Y-149429182D01*
X70042469Y-149556574D01*
X70119075Y-149671224D01*
X70162804Y-149714953D01*
X70162803Y-152113247D01*
X70119077Y-152156973D01*
X70042471Y-152271623D01*
X69989704Y-152399015D01*
X69962803Y-152534253D01*
X69962803Y-152672141D01*
X69989704Y-152807379D01*
X70042471Y-152934771D01*
X70063070Y-152965600D01*
X65335505Y-152965600D01*
X65378184Y-152930574D01*
X65391493Y-152914357D01*
X65715251Y-152590599D01*
X65740287Y-152595579D01*
X65878175Y-152595579D01*
X66013413Y-152568678D01*
X66140805Y-152515911D01*
X66255455Y-152439305D01*
X66352957Y-152341803D01*
X66429563Y-152227153D01*
X66482330Y-152099761D01*
X66509231Y-151964523D01*
X66509231Y-151826635D01*
X66482330Y-151691397D01*
X66429563Y-151564005D01*
X66352957Y-151449355D01*
X66277902Y-151374300D01*
X66329723Y-151322478D01*
X66406329Y-151207828D01*
X66438566Y-151130000D01*
X67770549Y-151130000D01*
X67770549Y-151892000D01*
X67776341Y-151950810D01*
X67793496Y-152007360D01*
X67821353Y-152059477D01*
X67858842Y-152105158D01*
X67904523Y-152142647D01*
X67956640Y-152170504D01*
X68013190Y-152187659D01*
X68072000Y-152193451D01*
X69596000Y-152193451D01*
X69654810Y-152187659D01*
X69711360Y-152170504D01*
X69763477Y-152142647D01*
X69809158Y-152105158D01*
X69846647Y-152059477D01*
X69874504Y-152007360D01*
X69891659Y-151950810D01*
X69897451Y-151892000D01*
X69897451Y-151130000D01*
X69891659Y-151071190D01*
X69874504Y-151014640D01*
X69846647Y-150962523D01*
X69809158Y-150916842D01*
X69763477Y-150879353D01*
X69711360Y-150851496D01*
X69654810Y-150834341D01*
X69596000Y-150828549D01*
X68072000Y-150828549D01*
X68013190Y-150834341D01*
X67956640Y-150851496D01*
X67904523Y-150879353D01*
X67858842Y-150916842D01*
X67821353Y-150962523D01*
X67793496Y-151014640D01*
X67776341Y-151071190D01*
X67770549Y-151130000D01*
X66438566Y-151130000D01*
X66459096Y-151080436D01*
X66485997Y-150945198D01*
X66485997Y-150807310D01*
X66459096Y-150672072D01*
X66406329Y-150544680D01*
X66329723Y-150430030D01*
X66232221Y-150332528D01*
X66160704Y-150284742D01*
X66373266Y-150196697D01*
X66576327Y-150061016D01*
X66663762Y-149973581D01*
X67488602Y-149973581D01*
X67583852Y-150165414D01*
X67806354Y-150289690D01*
X68048826Y-150368170D01*
X68301950Y-150397838D01*
X68555998Y-150377554D01*
X68801207Y-150308097D01*
X69028154Y-150192137D01*
X69068148Y-150165414D01*
X69163398Y-149973581D01*
X68326000Y-149136184D01*
X67488602Y-149973581D01*
X66663762Y-149973581D01*
X66749016Y-149888327D01*
X66884697Y-149685266D01*
X66978155Y-149459636D01*
X67025800Y-149220110D01*
X67025800Y-149073950D01*
X67026162Y-149073950D01*
X67046446Y-149327998D01*
X67115903Y-149573207D01*
X67231863Y-149800154D01*
X67258586Y-149840148D01*
X67450419Y-149935398D01*
X68287816Y-149098000D01*
X68364184Y-149098000D01*
X69201581Y-149935398D01*
X69393414Y-149840148D01*
X69517690Y-149617646D01*
X69596170Y-149375174D01*
X69625838Y-149122050D01*
X69605554Y-148868002D01*
X69536097Y-148622793D01*
X69420137Y-148395846D01*
X69393414Y-148355852D01*
X69201581Y-148260602D01*
X68364184Y-149098000D01*
X68287816Y-149098000D01*
X67450419Y-148260602D01*
X67258586Y-148355852D01*
X67134310Y-148578354D01*
X67055830Y-148820826D01*
X67026162Y-149073950D01*
X67025800Y-149073950D01*
X67025800Y-148975890D01*
X66978155Y-148736364D01*
X66884697Y-148510734D01*
X66749016Y-148307673D01*
X66576327Y-148134984D01*
X66373266Y-147999303D01*
X66147636Y-147905845D01*
X65908110Y-147858200D01*
X65663890Y-147858200D01*
X65424364Y-147905845D01*
X65198734Y-147999303D01*
X64995673Y-148134984D01*
X64822984Y-148307673D01*
X64687303Y-148510734D01*
X64593845Y-148736364D01*
X64546200Y-148975890D01*
X64546200Y-149220110D01*
X64593845Y-149459636D01*
X64687303Y-149685266D01*
X64822984Y-149888327D01*
X64995673Y-150061016D01*
X65198734Y-150196697D01*
X65199466Y-150197000D01*
X63832534Y-150197000D01*
X63833266Y-150196697D01*
X64036327Y-150061016D01*
X64209016Y-149888327D01*
X64344697Y-149685266D01*
X64438155Y-149459636D01*
X64485800Y-149220110D01*
X64485800Y-148975890D01*
X64438155Y-148736364D01*
X64344697Y-148510734D01*
X64209016Y-148307673D01*
X64036327Y-148134984D01*
X63833266Y-147999303D01*
X63607636Y-147905845D01*
X63368110Y-147858200D01*
X63123890Y-147858200D01*
X62884364Y-147905845D01*
X62658734Y-147999303D01*
X62455673Y-148134984D01*
X62282984Y-148307673D01*
X62147303Y-148510734D01*
X62053845Y-148736364D01*
X62006200Y-148975890D01*
X62006200Y-149220110D01*
X62053845Y-149459636D01*
X62147303Y-149685266D01*
X62282984Y-149888327D01*
X62455673Y-150061016D01*
X62658734Y-150196697D01*
X62659466Y-150197000D01*
X61576701Y-150197000D01*
X61580327Y-150191574D01*
X61633094Y-150064182D01*
X61659995Y-149928944D01*
X61659995Y-149791056D01*
X61633094Y-149655818D01*
X61580327Y-149528426D01*
X61503721Y-149413776D01*
X61406219Y-149316274D01*
X61291569Y-149239668D01*
X61164177Y-149186901D01*
X61028939Y-149160000D01*
X60891051Y-149160000D01*
X60755813Y-149186901D01*
X60628421Y-149239668D01*
X60513771Y-149316274D01*
X60500045Y-149330000D01*
X57821916Y-149330000D01*
X57815360Y-149326496D01*
X57758810Y-149309341D01*
X57700000Y-149303549D01*
X56600000Y-149303549D01*
X56541190Y-149309341D01*
X56484640Y-149326496D01*
X56459000Y-149340201D01*
X56459000Y-147939039D01*
X56457610Y-147924928D01*
X56457643Y-147920225D01*
X56457201Y-147915709D01*
X56441656Y-147767807D01*
X56435731Y-147738945D01*
X56430213Y-147710020D01*
X56428902Y-147705676D01*
X56384926Y-147563609D01*
X56373513Y-147536458D01*
X56362476Y-147509142D01*
X56360346Y-147505135D01*
X56289613Y-147374317D01*
X56273129Y-147349878D01*
X56257011Y-147325249D01*
X56254143Y-147321732D01*
X56159347Y-147207143D01*
X56138437Y-147186379D01*
X56117837Y-147165343D01*
X56114340Y-147162450D01*
X56013246Y-147080000D01*
X57274207Y-147080000D01*
X57406431Y-147066977D01*
X57576081Y-147015514D01*
X57732432Y-146931943D01*
X57869475Y-146819475D01*
X57981943Y-146682432D01*
X58065514Y-146526081D01*
X58116977Y-146356431D01*
X58134354Y-146180000D01*
X58127269Y-146108056D01*
X58355000Y-146108056D01*
X58355000Y-146245944D01*
X58381901Y-146381182D01*
X58434668Y-146508574D01*
X58511274Y-146623224D01*
X58608776Y-146720726D01*
X58723426Y-146797332D01*
X58850818Y-146850099D01*
X58986056Y-146877000D01*
X59123944Y-146877000D01*
X59259182Y-146850099D01*
X59386574Y-146797332D01*
X59501224Y-146720726D01*
X59598726Y-146623224D01*
X59675332Y-146508574D01*
X59705438Y-146435890D01*
X62006200Y-146435890D01*
X62006200Y-146680110D01*
X62053845Y-146919636D01*
X62147303Y-147145266D01*
X62282984Y-147348327D01*
X62455673Y-147521016D01*
X62658734Y-147656697D01*
X62884364Y-147750155D01*
X63123890Y-147797800D01*
X63368110Y-147797800D01*
X63607636Y-147750155D01*
X63833266Y-147656697D01*
X64036327Y-147521016D01*
X64209016Y-147348327D01*
X64344697Y-147145266D01*
X64438155Y-146919636D01*
X64485800Y-146680110D01*
X64485800Y-146435890D01*
X64438155Y-146196364D01*
X64344697Y-145970734D01*
X64209016Y-145767673D01*
X64036327Y-145594984D01*
X63833266Y-145459303D01*
X63607636Y-145365845D01*
X63368110Y-145318200D01*
X63123890Y-145318200D01*
X62884364Y-145365845D01*
X62658734Y-145459303D01*
X62455673Y-145594984D01*
X62282984Y-145767673D01*
X62147303Y-145970734D01*
X62053845Y-146196364D01*
X62006200Y-146435890D01*
X59705438Y-146435890D01*
X59728099Y-146381182D01*
X59755000Y-146245944D01*
X59755000Y-146108056D01*
X59728099Y-145972818D01*
X59675332Y-145845426D01*
X59598726Y-145730776D01*
X59501224Y-145633274D01*
X59480000Y-145619093D01*
X59480000Y-145591040D01*
X60436098Y-144634943D01*
X60598364Y-144702155D01*
X60837890Y-144749800D01*
X61082110Y-144749800D01*
X61321636Y-144702155D01*
X61547266Y-144608697D01*
X61750327Y-144473016D01*
X61923016Y-144300327D01*
X62058697Y-144097266D01*
X62152155Y-143871636D01*
X62199800Y-143632110D01*
X62199800Y-143387890D01*
X62152155Y-143148364D01*
X62058697Y-142922734D01*
X61923016Y-142719673D01*
X61750327Y-142546984D01*
X61547266Y-142411303D01*
X61321636Y-142317845D01*
X61082110Y-142270200D01*
X60837890Y-142270200D01*
X60598364Y-142317845D01*
X60372734Y-142411303D01*
X60169673Y-142546984D01*
X59996984Y-142719673D01*
X59861303Y-142922734D01*
X59767845Y-143148364D01*
X59720200Y-143387890D01*
X59720200Y-143632110D01*
X59767845Y-143871636D01*
X59835057Y-144033902D01*
X58769239Y-145099721D01*
X58753027Y-145113026D01*
X58699917Y-145177740D01*
X58661481Y-145249650D01*
X58660453Y-145251573D01*
X58636150Y-145331686D01*
X58627945Y-145415000D01*
X58630001Y-145435876D01*
X58630001Y-145619092D01*
X58608776Y-145633274D01*
X58511274Y-145730776D01*
X58434668Y-145845426D01*
X58381901Y-145972818D01*
X58355000Y-146108056D01*
X58127269Y-146108056D01*
X58116977Y-146003569D01*
X58065514Y-145833919D01*
X57981943Y-145677568D01*
X57869475Y-145540525D01*
X57732432Y-145428057D01*
X57576081Y-145344486D01*
X57406431Y-145293023D01*
X57274207Y-145280000D01*
X55985793Y-145280000D01*
X55853569Y-145293023D01*
X55683919Y-145344486D01*
X55527568Y-145428057D01*
X55390525Y-145540525D01*
X55278057Y-145677568D01*
X55194486Y-145833919D01*
X55143023Y-146003569D01*
X55125646Y-146180000D01*
X55143023Y-146356431D01*
X55194486Y-146526081D01*
X55278057Y-146682432D01*
X55390525Y-146819475D01*
X55458033Y-146874877D01*
X55403714Y-146869551D01*
X55403708Y-146869551D01*
X55387961Y-146868000D01*
X53810347Y-146868000D01*
X53869475Y-146819475D01*
X53981943Y-146682432D01*
X54065514Y-146526081D01*
X54116977Y-146356431D01*
X54134354Y-146180000D01*
X54116977Y-146003569D01*
X54065514Y-145833919D01*
X53981943Y-145677568D01*
X53869475Y-145540525D01*
X53732432Y-145428057D01*
X53576081Y-145344486D01*
X53406431Y-145293023D01*
X53274207Y-145280000D01*
X51985793Y-145280000D01*
X51853569Y-145293023D01*
X51683919Y-145344486D01*
X51527568Y-145428057D01*
X51390525Y-145540525D01*
X51278057Y-145677568D01*
X51194486Y-145833919D01*
X51143023Y-146003569D01*
X51125646Y-146180000D01*
X51143023Y-146356431D01*
X51194486Y-146526081D01*
X51278057Y-146682432D01*
X51390525Y-146819475D01*
X51449653Y-146868000D01*
X51125000Y-146868000D01*
X51125000Y-144385581D01*
X52502602Y-144385581D01*
X52597852Y-144577414D01*
X52820354Y-144701690D01*
X53062826Y-144780170D01*
X53315950Y-144809838D01*
X53569998Y-144789554D01*
X53815207Y-144720097D01*
X54042154Y-144604137D01*
X54082148Y-144577414D01*
X54177398Y-144385581D01*
X55042602Y-144385581D01*
X55137852Y-144577414D01*
X55360354Y-144701690D01*
X55602826Y-144780170D01*
X55855950Y-144809838D01*
X56109998Y-144789554D01*
X56355207Y-144720097D01*
X56582154Y-144604137D01*
X56622148Y-144577414D01*
X56717398Y-144385581D01*
X55880000Y-143548184D01*
X55042602Y-144385581D01*
X54177398Y-144385581D01*
X53340000Y-143548184D01*
X52502602Y-144385581D01*
X51125000Y-144385581D01*
X51125000Y-143485950D01*
X52040162Y-143485950D01*
X52060446Y-143739998D01*
X52129903Y-143985207D01*
X52245863Y-144212154D01*
X52272586Y-144252148D01*
X52464419Y-144347398D01*
X53301816Y-143510000D01*
X53378184Y-143510000D01*
X54215581Y-144347398D01*
X54407414Y-144252148D01*
X54531690Y-144029646D01*
X54610170Y-143787174D01*
X54611235Y-143778087D01*
X54669903Y-143985207D01*
X54785863Y-144212154D01*
X54812586Y-144252148D01*
X55004419Y-144347398D01*
X55841816Y-143510000D01*
X55918184Y-143510000D01*
X56755581Y-144347398D01*
X56947414Y-144252148D01*
X57071690Y-144029646D01*
X57150170Y-143787174D01*
X57179838Y-143534050D01*
X57168169Y-143387890D01*
X57180200Y-143387890D01*
X57180200Y-143632110D01*
X57227845Y-143871636D01*
X57321303Y-144097266D01*
X57456984Y-144300327D01*
X57629673Y-144473016D01*
X57832734Y-144608697D01*
X58058364Y-144702155D01*
X58297890Y-144749800D01*
X58542110Y-144749800D01*
X58781636Y-144702155D01*
X59007266Y-144608697D01*
X59210327Y-144473016D01*
X59383016Y-144300327D01*
X59518697Y-144097266D01*
X59612155Y-143871636D01*
X59659800Y-143632110D01*
X59659800Y-143387890D01*
X59612155Y-143148364D01*
X59518697Y-142922734D01*
X59383016Y-142719673D01*
X59210327Y-142546984D01*
X59007266Y-142411303D01*
X58781636Y-142317845D01*
X58542110Y-142270200D01*
X58297890Y-142270200D01*
X58058364Y-142317845D01*
X57832734Y-142411303D01*
X57629673Y-142546984D01*
X57456984Y-142719673D01*
X57321303Y-142922734D01*
X57227845Y-143148364D01*
X57180200Y-143387890D01*
X57168169Y-143387890D01*
X57159554Y-143280002D01*
X57090097Y-143034793D01*
X56974137Y-142807846D01*
X56947414Y-142767852D01*
X56755581Y-142672602D01*
X55918184Y-143510000D01*
X55841816Y-143510000D01*
X55004419Y-142672602D01*
X54812586Y-142767852D01*
X54688310Y-142990354D01*
X54609830Y-143232826D01*
X54608765Y-143241913D01*
X54550097Y-143034793D01*
X54434137Y-142807846D01*
X54407414Y-142767852D01*
X54215581Y-142672602D01*
X53378184Y-143510000D01*
X53301816Y-143510000D01*
X52464419Y-142672602D01*
X52272586Y-142767852D01*
X52148310Y-142990354D01*
X52069830Y-143232826D01*
X52040162Y-143485950D01*
X51125000Y-143485950D01*
X51125000Y-142634419D01*
X52502602Y-142634419D01*
X53340000Y-143471816D01*
X54177398Y-142634419D01*
X55042602Y-142634419D01*
X55880000Y-143471816D01*
X56717398Y-142634419D01*
X56622148Y-142442586D01*
X56399646Y-142318310D01*
X56157174Y-142239830D01*
X55904050Y-142210162D01*
X55650002Y-142230446D01*
X55404793Y-142299903D01*
X55177846Y-142415863D01*
X55137852Y-142442586D01*
X55042602Y-142634419D01*
X54177398Y-142634419D01*
X54082148Y-142442586D01*
X53859646Y-142318310D01*
X53617174Y-142239830D01*
X53364050Y-142210162D01*
X53110002Y-142230446D01*
X52864793Y-142299903D01*
X52637846Y-142415863D01*
X52597852Y-142442586D01*
X52502602Y-142634419D01*
X51125000Y-142634419D01*
X51125000Y-140025000D01*
X103815000Y-140025000D01*
X103815001Y-156194039D01*
G37*
%TD.AperFunction*%
D22*
X67723122Y-154870604D02*
X67716287Y-154940000D01*
X67718000Y-155205500D01*
X67806500Y-155294000D01*
X68807000Y-155294000D01*
X68807000Y-155274000D01*
X68861000Y-155274000D01*
X68861000Y-155294000D01*
X69861500Y-155294000D01*
X69950000Y-155205500D01*
X69951713Y-154940000D01*
X69944878Y-154870604D01*
X69933046Y-154831600D01*
X71399594Y-154831600D01*
X70577027Y-155654167D01*
X69951404Y-155654167D01*
X69950000Y-155436500D01*
X69861500Y-155348000D01*
X68861000Y-155348000D01*
X68861000Y-155368000D01*
X68807000Y-155368000D01*
X68807000Y-155348000D01*
X67806500Y-155348000D01*
X67718000Y-155436500D01*
X67716596Y-155654167D01*
X67080699Y-155654167D01*
X67059832Y-155652112D01*
X67038966Y-155654167D01*
X67038959Y-155654167D01*
X66976519Y-155660317D01*
X66896406Y-155684619D01*
X66822573Y-155724083D01*
X66757859Y-155777193D01*
X66754924Y-155780769D01*
X66724399Y-155797085D01*
X66659685Y-155850195D01*
X66646380Y-155866407D01*
X66092788Y-156420000D01*
X62885867Y-156420000D01*
X62865000Y-156417945D01*
X62844133Y-156420000D01*
X62844126Y-156420000D01*
X62789327Y-156425397D01*
X62781685Y-156426150D01*
X62701572Y-156450452D01*
X62693148Y-156454955D01*
X62627740Y-156489916D01*
X62603201Y-156510055D01*
X62579844Y-156529224D01*
X62563026Y-156543026D01*
X62549721Y-156559238D01*
X61483902Y-157625057D01*
X61321636Y-157557845D01*
X61082110Y-157510200D01*
X60837890Y-157510200D01*
X60598364Y-157557845D01*
X60396127Y-157641613D01*
X61245762Y-156791979D01*
X61261974Y-156778674D01*
X61315084Y-156713960D01*
X61346077Y-156655975D01*
X61354548Y-156640128D01*
X61378850Y-156560014D01*
X61379715Y-156551227D01*
X61385000Y-156497574D01*
X61385000Y-156497567D01*
X61387055Y-156476700D01*
X61385305Y-156458929D01*
X61432274Y-156529224D01*
X61529776Y-156626726D01*
X61644426Y-156703332D01*
X61771818Y-156756099D01*
X61907056Y-156783000D01*
X62044944Y-156783000D01*
X62180182Y-156756099D01*
X62307574Y-156703332D01*
X62422224Y-156626726D01*
X62519726Y-156529224D01*
X62596332Y-156414574D01*
X62649099Y-156287182D01*
X62676000Y-156151944D01*
X62676000Y-156014056D01*
X62673890Y-156003451D01*
X64008000Y-156003451D01*
X64066810Y-155997659D01*
X64123360Y-155980504D01*
X64175477Y-155952647D01*
X64221158Y-155915158D01*
X64258647Y-155869477D01*
X64286504Y-155817360D01*
X64303659Y-155760810D01*
X64309451Y-155702000D01*
X64309451Y-154940000D01*
X64303659Y-154881190D01*
X64288615Y-154831600D01*
X67734954Y-154831600D01*
X67723122Y-154870604D01*
%TA.AperFunction,Conductor*%
D23*
G36*
X67723122Y-154870604D02*
G01*
X67716287Y-154940000D01*
X67718000Y-155205500D01*
X67806500Y-155294000D01*
X68807000Y-155294000D01*
X68807000Y-155274000D01*
X68861000Y-155274000D01*
X68861000Y-155294000D01*
X69861500Y-155294000D01*
X69950000Y-155205500D01*
X69951713Y-154940000D01*
X69944878Y-154870604D01*
X69933046Y-154831600D01*
X71399594Y-154831600D01*
X70577027Y-155654167D01*
X69951404Y-155654167D01*
X69950000Y-155436500D01*
X69861500Y-155348000D01*
X68861000Y-155348000D01*
X68861000Y-155368000D01*
X68807000Y-155368000D01*
X68807000Y-155348000D01*
X67806500Y-155348000D01*
X67718000Y-155436500D01*
X67716596Y-155654167D01*
X67080699Y-155654167D01*
X67059832Y-155652112D01*
X67038966Y-155654167D01*
X67038959Y-155654167D01*
X66976519Y-155660317D01*
X66896406Y-155684619D01*
X66822573Y-155724083D01*
X66757859Y-155777193D01*
X66754924Y-155780769D01*
X66724399Y-155797085D01*
X66659685Y-155850195D01*
X66646380Y-155866407D01*
X66092788Y-156420000D01*
X62885867Y-156420000D01*
X62865000Y-156417945D01*
X62844133Y-156420000D01*
X62844126Y-156420000D01*
X62789327Y-156425397D01*
X62781685Y-156426150D01*
X62701572Y-156450452D01*
X62693148Y-156454955D01*
X62627740Y-156489916D01*
X62603201Y-156510055D01*
X62579844Y-156529224D01*
X62563026Y-156543026D01*
X62549721Y-156559238D01*
X61483902Y-157625057D01*
X61321636Y-157557845D01*
X61082110Y-157510200D01*
X60837890Y-157510200D01*
X60598364Y-157557845D01*
X60396127Y-157641613D01*
X61245762Y-156791979D01*
X61261974Y-156778674D01*
X61315084Y-156713960D01*
X61346077Y-156655975D01*
X61354548Y-156640128D01*
X61378850Y-156560014D01*
X61379715Y-156551227D01*
X61385000Y-156497574D01*
X61385000Y-156497567D01*
X61387055Y-156476700D01*
X61385305Y-156458929D01*
X61432274Y-156529224D01*
X61529776Y-156626726D01*
X61644426Y-156703332D01*
X61771818Y-156756099D01*
X61907056Y-156783000D01*
X62044944Y-156783000D01*
X62180182Y-156756099D01*
X62307574Y-156703332D01*
X62422224Y-156626726D01*
X62519726Y-156529224D01*
X62596332Y-156414574D01*
X62649099Y-156287182D01*
X62676000Y-156151944D01*
X62676000Y-156014056D01*
X62673890Y-156003451D01*
X64008000Y-156003451D01*
X64066810Y-155997659D01*
X64123360Y-155980504D01*
X64175477Y-155952647D01*
X64221158Y-155915158D01*
X64258647Y-155869477D01*
X64286504Y-155817360D01*
X64303659Y-155760810D01*
X64309451Y-155702000D01*
X64309451Y-154940000D01*
X64303659Y-154881190D01*
X64288615Y-154831600D01*
X67734954Y-154831600D01*
X67723122Y-154870604D01*
G37*
%TD.AperFunction*%
D22*
X60543121Y-152914362D02*
X60556426Y-152930574D01*
X60572638Y-152943879D01*
X60572639Y-152943880D01*
X60581919Y-152951496D01*
X60621140Y-152983684D01*
X60669626Y-153009600D01*
X60621140Y-153035516D01*
X60556426Y-153088626D01*
X60543121Y-153104838D01*
X58769243Y-154878717D01*
X58753026Y-154892026D01*
X58699916Y-154956741D01*
X58660452Y-155030574D01*
X58649072Y-155068089D01*
X58637436Y-155106449D01*
X58636150Y-155110687D01*
X58630000Y-155173127D01*
X58630000Y-155173133D01*
X58627945Y-155194000D01*
X58630000Y-155214867D01*
X58630000Y-155525118D01*
X58608776Y-155539300D01*
X58511274Y-155636802D01*
X58434668Y-155751452D01*
X58381901Y-155878844D01*
X58355000Y-156014082D01*
X58355000Y-156151970D01*
X58381901Y-156287208D01*
X58434668Y-156414600D01*
X58511274Y-156529250D01*
X58608776Y-156626752D01*
X58723426Y-156703358D01*
X58850818Y-156756125D01*
X58986056Y-156783026D01*
X59123944Y-156783026D01*
X59157636Y-156776324D01*
X59132960Y-156801000D01*
X57770136Y-156801000D01*
X57869475Y-156719475D01*
X57981943Y-156582432D01*
X58065514Y-156426081D01*
X58116977Y-156256431D01*
X58134354Y-156080000D01*
X58116977Y-155903569D01*
X58065514Y-155733919D01*
X57981943Y-155577568D01*
X57869475Y-155440525D01*
X57732432Y-155328057D01*
X57576081Y-155244486D01*
X57406431Y-155193023D01*
X57274207Y-155180000D01*
X56013903Y-155180000D01*
X56119857Y-155092347D01*
X56140604Y-155071454D01*
X56161657Y-155050837D01*
X56164550Y-155047340D01*
X56258543Y-154932094D01*
X56274838Y-154907567D01*
X56291485Y-154883255D01*
X56293644Y-154879263D01*
X56363462Y-154747954D01*
X56374683Y-154720728D01*
X56386290Y-154693647D01*
X56387633Y-154689312D01*
X56430617Y-154546943D01*
X56436341Y-154518030D01*
X56442462Y-154489234D01*
X56442937Y-154484721D01*
X56457449Y-154336714D01*
X56457449Y-154336708D01*
X56459000Y-154320961D01*
X56459000Y-152981030D01*
X56463875Y-152983636D01*
X56530604Y-153003878D01*
X56600000Y-153010713D01*
X57034500Y-153009000D01*
X57123000Y-152920500D01*
X57123000Y-152457000D01*
X57177000Y-152457000D01*
X57177000Y-152920500D01*
X57265500Y-153009000D01*
X57700000Y-153010713D01*
X57769396Y-153003878D01*
X57836125Y-152983636D01*
X57897624Y-152950765D01*
X57951527Y-152906527D01*
X57995765Y-152852624D01*
X58028636Y-152791125D01*
X58048878Y-152724396D01*
X58055713Y-152655000D01*
X58054000Y-152545500D01*
X57965500Y-152457000D01*
X57177000Y-152457000D01*
X57123000Y-152457000D01*
X57103000Y-152457000D01*
X57103000Y-152403000D01*
X57123000Y-152403000D01*
X57123000Y-151807000D01*
X57177000Y-151807000D01*
X57177000Y-152403000D01*
X57965500Y-152403000D01*
X58054000Y-152314500D01*
X58055713Y-152205000D01*
X58048878Y-152135604D01*
X58039594Y-152105000D01*
X58048878Y-152074396D01*
X58055713Y-152005000D01*
X58054000Y-151895500D01*
X57965500Y-151807000D01*
X57177000Y-151807000D01*
X57123000Y-151807000D01*
X57103000Y-151807000D01*
X57103000Y-151753000D01*
X57123000Y-151753000D01*
X57123000Y-151733000D01*
X57177000Y-151733000D01*
X57177000Y-151753000D01*
X57965500Y-151753000D01*
X58054000Y-151664500D01*
X58055713Y-151555000D01*
X59183760Y-151555000D01*
X60543121Y-152914362D01*
%TA.AperFunction,Conductor*%
D23*
G36*
X60543121Y-152914362D02*
G01*
X60556426Y-152930574D01*
X60572638Y-152943879D01*
X60572639Y-152943880D01*
X60581919Y-152951496D01*
X60621140Y-152983684D01*
X60669626Y-153009600D01*
X60621140Y-153035516D01*
X60556426Y-153088626D01*
X60543121Y-153104838D01*
X58769243Y-154878717D01*
X58753026Y-154892026D01*
X58699916Y-154956741D01*
X58660452Y-155030574D01*
X58649072Y-155068089D01*
X58637436Y-155106449D01*
X58636150Y-155110687D01*
X58630000Y-155173127D01*
X58630000Y-155173133D01*
X58627945Y-155194000D01*
X58630000Y-155214867D01*
X58630000Y-155525118D01*
X58608776Y-155539300D01*
X58511274Y-155636802D01*
X58434668Y-155751452D01*
X58381901Y-155878844D01*
X58355000Y-156014082D01*
X58355000Y-156151970D01*
X58381901Y-156287208D01*
X58434668Y-156414600D01*
X58511274Y-156529250D01*
X58608776Y-156626752D01*
X58723426Y-156703358D01*
X58850818Y-156756125D01*
X58986056Y-156783026D01*
X59123944Y-156783026D01*
X59157636Y-156776324D01*
X59132960Y-156801000D01*
X57770136Y-156801000D01*
X57869475Y-156719475D01*
X57981943Y-156582432D01*
X58065514Y-156426081D01*
X58116977Y-156256431D01*
X58134354Y-156080000D01*
X58116977Y-155903569D01*
X58065514Y-155733919D01*
X57981943Y-155577568D01*
X57869475Y-155440525D01*
X57732432Y-155328057D01*
X57576081Y-155244486D01*
X57406431Y-155193023D01*
X57274207Y-155180000D01*
X56013903Y-155180000D01*
X56119857Y-155092347D01*
X56140604Y-155071454D01*
X56161657Y-155050837D01*
X56164550Y-155047340D01*
X56258543Y-154932094D01*
X56274838Y-154907567D01*
X56291485Y-154883255D01*
X56293644Y-154879263D01*
X56363462Y-154747954D01*
X56374683Y-154720728D01*
X56386290Y-154693647D01*
X56387633Y-154689312D01*
X56430617Y-154546943D01*
X56436341Y-154518030D01*
X56442462Y-154489234D01*
X56442937Y-154484721D01*
X56457449Y-154336714D01*
X56457449Y-154336708D01*
X56459000Y-154320961D01*
X56459000Y-152981030D01*
X56463875Y-152983636D01*
X56530604Y-153003878D01*
X56600000Y-153010713D01*
X57034500Y-153009000D01*
X57123000Y-152920500D01*
X57123000Y-152457000D01*
X57177000Y-152457000D01*
X57177000Y-152920500D01*
X57265500Y-153009000D01*
X57700000Y-153010713D01*
X57769396Y-153003878D01*
X57836125Y-152983636D01*
X57897624Y-152950765D01*
X57951527Y-152906527D01*
X57995765Y-152852624D01*
X58028636Y-152791125D01*
X58048878Y-152724396D01*
X58055713Y-152655000D01*
X58054000Y-152545500D01*
X57965500Y-152457000D01*
X57177000Y-152457000D01*
X57123000Y-152457000D01*
X57103000Y-152457000D01*
X57103000Y-152403000D01*
X57123000Y-152403000D01*
X57123000Y-151807000D01*
X57177000Y-151807000D01*
X57177000Y-152403000D01*
X57965500Y-152403000D01*
X58054000Y-152314500D01*
X58055713Y-152205000D01*
X58048878Y-152135604D01*
X58039594Y-152105000D01*
X58048878Y-152074396D01*
X58055713Y-152005000D01*
X58054000Y-151895500D01*
X57965500Y-151807000D01*
X57177000Y-151807000D01*
X57123000Y-151807000D01*
X57103000Y-151807000D01*
X57103000Y-151753000D01*
X57123000Y-151753000D01*
X57123000Y-151733000D01*
X57177000Y-151733000D01*
X57177000Y-151753000D01*
X57965500Y-151753000D01*
X58054000Y-151664500D01*
X58055713Y-151555000D01*
X59183760Y-151555000D01*
X60543121Y-152914362D01*
G37*
%TD.AperFunction*%
D22*
X82056648Y-152468200D02*
X82042506Y-152482342D01*
X82732642Y-153172478D01*
X82857800Y-153172478D01*
X82883406Y-153149294D01*
X82927644Y-153095391D01*
X82960515Y-153033893D01*
X82980758Y-152967163D01*
X82981067Y-152964024D01*
X82982446Y-152963287D01*
X83039492Y-152916470D01*
X83145558Y-152810404D01*
X83192375Y-152753358D01*
X83227162Y-152688275D01*
X83248585Y-152617655D01*
X83249502Y-152608342D01*
X85943559Y-155302400D01*
X84738881Y-155302400D01*
X82694458Y-153257977D01*
X82694458Y-153210662D01*
X82004322Y-152520526D01*
X81990180Y-152534668D01*
X81951996Y-152496484D01*
X81966138Y-152482342D01*
X81951996Y-152468200D01*
X81990180Y-152430016D01*
X82004322Y-152444158D01*
X82018464Y-152430016D01*
X82056648Y-152468200D01*
%TA.AperFunction,Conductor*%
D23*
G36*
X82056648Y-152468200D02*
G01*
X82042506Y-152482342D01*
X82732642Y-153172478D01*
X82857800Y-153172478D01*
X82883406Y-153149294D01*
X82927644Y-153095391D01*
X82960515Y-153033893D01*
X82980758Y-152967163D01*
X82981067Y-152964024D01*
X82982446Y-152963287D01*
X83039492Y-152916470D01*
X83145558Y-152810404D01*
X83192375Y-152753358D01*
X83227162Y-152688275D01*
X83248585Y-152617655D01*
X83249502Y-152608342D01*
X85943559Y-155302400D01*
X84738881Y-155302400D01*
X82694458Y-153257977D01*
X82694458Y-153210662D01*
X82004322Y-152520526D01*
X81990180Y-152534668D01*
X81951996Y-152496484D01*
X81966138Y-152482342D01*
X81951996Y-152468200D01*
X81990180Y-152430016D01*
X82004322Y-152444158D01*
X82018464Y-152430016D01*
X82056648Y-152468200D01*
G37*
%TD.AperFunction*%
D22*
X89350549Y-148066789D02*
X89350549Y-149030000D01*
X89356341Y-149088810D01*
X89373496Y-149145360D01*
X89401353Y-149197477D01*
X89438842Y-149243158D01*
X89484523Y-149280647D01*
X89536640Y-149308504D01*
X89593190Y-149325659D01*
X89652000Y-149331451D01*
X89912383Y-149331451D01*
X89901800Y-149384656D01*
X89901800Y-149522544D01*
X89928701Y-149657782D01*
X89981468Y-149785174D01*
X90058074Y-149899824D01*
X90075850Y-149917600D01*
X86155041Y-149917600D01*
X85183040Y-148945600D01*
X85564000Y-148564640D01*
X85564000Y-148766416D01*
X85604350Y-148969274D01*
X85683502Y-149160362D01*
X85798411Y-149332336D01*
X85944664Y-149478589D01*
X86116638Y-149593498D01*
X86307726Y-149672650D01*
X86510584Y-149713000D01*
X86717416Y-149713000D01*
X86920274Y-149672650D01*
X87111362Y-149593498D01*
X87283336Y-149478589D01*
X87429589Y-149332336D01*
X87544498Y-149160362D01*
X87623650Y-148969274D01*
X87664000Y-148766416D01*
X87664000Y-148559584D01*
X87623650Y-148356726D01*
X87544498Y-148165638D01*
X87429589Y-147993664D01*
X87333325Y-147897400D01*
X89181160Y-147897400D01*
X89350549Y-148066789D01*
%TA.AperFunction,Conductor*%
D23*
G36*
X89350549Y-148066789D02*
G01*
X89350549Y-149030000D01*
X89356341Y-149088810D01*
X89373496Y-149145360D01*
X89401353Y-149197477D01*
X89438842Y-149243158D01*
X89484523Y-149280647D01*
X89536640Y-149308504D01*
X89593190Y-149325659D01*
X89652000Y-149331451D01*
X89912383Y-149331451D01*
X89901800Y-149384656D01*
X89901800Y-149522544D01*
X89928701Y-149657782D01*
X89981468Y-149785174D01*
X90058074Y-149899824D01*
X90075850Y-149917600D01*
X86155041Y-149917600D01*
X85183040Y-148945600D01*
X85564000Y-148564640D01*
X85564000Y-148766416D01*
X85604350Y-148969274D01*
X85683502Y-149160362D01*
X85798411Y-149332336D01*
X85944664Y-149478589D01*
X86116638Y-149593498D01*
X86307726Y-149672650D01*
X86510584Y-149713000D01*
X86717416Y-149713000D01*
X86920274Y-149672650D01*
X87111362Y-149593498D01*
X87283336Y-149478589D01*
X87429589Y-149332336D01*
X87544498Y-149160362D01*
X87623650Y-148969274D01*
X87664000Y-148766416D01*
X87664000Y-148559584D01*
X87623650Y-148356726D01*
X87544498Y-148165638D01*
X87429589Y-147993664D01*
X87333325Y-147897400D01*
X89181160Y-147897400D01*
X89350549Y-148066789D01*
G37*
%TD.AperFunction*%
D22*
X80692902Y-146676261D02*
X80666001Y-146811499D01*
X80666001Y-146949387D01*
X80669346Y-146966202D01*
X80611322Y-146966202D01*
X79921186Y-147656338D01*
X79935328Y-147670480D01*
X79897144Y-147708664D01*
X79883002Y-147694522D01*
X79868860Y-147708664D01*
X79830676Y-147670480D01*
X79844818Y-147656338D01*
X79830676Y-147642196D01*
X79868860Y-147604012D01*
X79883002Y-147618154D01*
X80573138Y-146928018D01*
X80573138Y-146802860D01*
X80549954Y-146777254D01*
X80496051Y-146733016D01*
X80434553Y-146700145D01*
X80367823Y-146679902D01*
X80364685Y-146679593D01*
X80363948Y-146678215D01*
X80317131Y-146621169D01*
X80276395Y-146580433D01*
X80732595Y-146580433D01*
X80692902Y-146676261D01*
%TA.AperFunction,Conductor*%
D23*
G36*
X80692902Y-146676261D02*
G01*
X80666001Y-146811499D01*
X80666001Y-146949387D01*
X80669346Y-146966202D01*
X80611322Y-146966202D01*
X79921186Y-147656338D01*
X79935328Y-147670480D01*
X79897144Y-147708664D01*
X79883002Y-147694522D01*
X79868860Y-147708664D01*
X79830676Y-147670480D01*
X79844818Y-147656338D01*
X79830676Y-147642196D01*
X79868860Y-147604012D01*
X79883002Y-147618154D01*
X80573138Y-146928018D01*
X80573138Y-146802860D01*
X80549954Y-146777254D01*
X80496051Y-146733016D01*
X80434553Y-146700145D01*
X80367823Y-146679902D01*
X80364685Y-146679593D01*
X80363948Y-146678215D01*
X80317131Y-146621169D01*
X80276395Y-146580433D01*
X80732595Y-146580433D01*
X80692902Y-146676261D01*
G37*
%TD.AperFunction*%
%TD*%
M02*
