%TF.GenerationSoftware,KiCad,Pcbnew,(5.1.9)-1*%
%TF.CreationDate,2021-02-16T15:18:36+08:00*%
%TF.ProjectId,STM32_Core_Board,53544d33-325f-4436-9f72-655f426f6172,rev?*%
%TF.SameCoordinates,Original*%
%TF.FileFunction,Legend,Top*%
%TF.FilePolarity,Positive*%
%FSLAX46Y46*%
G04 Gerber Fmt 4.6, Leading zero omitted, Abs format (unit mm)*
G04 Created by KiCad (PCBNEW (5.1.9)-1) date 2021-02-16 15:18:36*
%MOMM*%
%LPD*%
G01*
G04 APERTURE LIST*
%ADD10C,0.150000*%
%ADD11C,0.200000*%
%ADD12C,0.120000*%
%ADD13C,0.100000*%
%ADD14C,0.127000*%
%ADD15C,0.203200*%
G04 APERTURE END LIST*
D10*
X100679371Y-140989104D02*
X100946038Y-141789104D01*
X101212704Y-140989104D01*
X101288895Y-141865295D02*
X101898419Y-141865295D01*
X102355561Y-141370057D02*
X102469847Y-141408152D01*
X102507942Y-141446247D01*
X102546038Y-141522438D01*
X102546038Y-141636723D01*
X102507942Y-141712914D01*
X102469847Y-141751009D01*
X102393657Y-141789104D01*
X102088895Y-141789104D01*
X102088895Y-140989104D01*
X102355561Y-140989104D01*
X102431752Y-141027200D01*
X102469847Y-141065295D01*
X102507942Y-141141485D01*
X102507942Y-141217676D01*
X102469847Y-141293866D01*
X102431752Y-141331961D01*
X102355561Y-141370057D01*
X102088895Y-141370057D01*
X98545714Y-141712914D02*
X98507619Y-141751009D01*
X98393333Y-141789104D01*
X98317142Y-141789104D01*
X98202857Y-141751009D01*
X98126666Y-141674819D01*
X98088571Y-141598628D01*
X98050476Y-141446247D01*
X98050476Y-141331961D01*
X98088571Y-141179580D01*
X98126666Y-141103390D01*
X98202857Y-141027200D01*
X98317142Y-140989104D01*
X98393333Y-140989104D01*
X98507619Y-141027200D01*
X98545714Y-141065295D01*
X99307619Y-141789104D02*
X98850476Y-141789104D01*
X99079047Y-141789104D02*
X99079047Y-140989104D01*
X99002857Y-141103390D01*
X98926666Y-141179580D01*
X98850476Y-141217676D01*
X99574285Y-140989104D02*
X100069523Y-140989104D01*
X99802857Y-141293866D01*
X99917142Y-141293866D01*
X99993333Y-141331961D01*
X100031428Y-141370057D01*
X100069523Y-141446247D01*
X100069523Y-141636723D01*
X100031428Y-141712914D01*
X99993333Y-141751009D01*
X99917142Y-141789104D01*
X99688571Y-141789104D01*
X99612380Y-141751009D01*
X99574285Y-141712914D01*
X95980314Y-141712914D02*
X95942219Y-141751009D01*
X95827933Y-141789104D01*
X95751742Y-141789104D01*
X95637457Y-141751009D01*
X95561266Y-141674819D01*
X95523171Y-141598628D01*
X95485076Y-141446247D01*
X95485076Y-141331961D01*
X95523171Y-141179580D01*
X95561266Y-141103390D01*
X95637457Y-141027200D01*
X95751742Y-140989104D01*
X95827933Y-140989104D01*
X95942219Y-141027200D01*
X95980314Y-141065295D01*
X96742219Y-141789104D02*
X96285076Y-141789104D01*
X96513647Y-141789104D02*
X96513647Y-140989104D01*
X96437457Y-141103390D01*
X96361266Y-141179580D01*
X96285076Y-141217676D01*
X97427933Y-141255771D02*
X97427933Y-141789104D01*
X97237457Y-140951009D02*
X97046980Y-141522438D01*
X97542219Y-141522438D01*
X93440314Y-141712914D02*
X93402219Y-141751009D01*
X93287933Y-141789104D01*
X93211742Y-141789104D01*
X93097457Y-141751009D01*
X93021266Y-141674819D01*
X92983171Y-141598628D01*
X92945076Y-141446247D01*
X92945076Y-141331961D01*
X92983171Y-141179580D01*
X93021266Y-141103390D01*
X93097457Y-141027200D01*
X93211742Y-140989104D01*
X93287933Y-140989104D01*
X93402219Y-141027200D01*
X93440314Y-141065295D01*
X94202219Y-141789104D02*
X93745076Y-141789104D01*
X93973647Y-141789104D02*
X93973647Y-140989104D01*
X93897457Y-141103390D01*
X93821266Y-141179580D01*
X93745076Y-141217676D01*
X94926028Y-140989104D02*
X94545076Y-140989104D01*
X94506980Y-141370057D01*
X94545076Y-141331961D01*
X94621266Y-141293866D01*
X94811742Y-141293866D01*
X94887933Y-141331961D01*
X94926028Y-141370057D01*
X94964123Y-141446247D01*
X94964123Y-141636723D01*
X94926028Y-141712914D01*
X94887933Y-141751009D01*
X94811742Y-141789104D01*
X94621266Y-141789104D01*
X94545076Y-141751009D01*
X94506980Y-141712914D01*
X90868571Y-141560533D02*
X91249523Y-141560533D01*
X90792380Y-141789104D02*
X91059047Y-140989104D01*
X91325714Y-141789104D01*
X91744761Y-140989104D02*
X91820952Y-140989104D01*
X91897142Y-141027200D01*
X91935238Y-141065295D01*
X91973333Y-141141485D01*
X92011428Y-141293866D01*
X92011428Y-141484342D01*
X91973333Y-141636723D01*
X91935238Y-141712914D01*
X91897142Y-141751009D01*
X91820952Y-141789104D01*
X91744761Y-141789104D01*
X91668571Y-141751009D01*
X91630476Y-141712914D01*
X91592380Y-141636723D01*
X91554285Y-141484342D01*
X91554285Y-141293866D01*
X91592380Y-141141485D01*
X91630476Y-141065295D01*
X91668571Y-141027200D01*
X91744761Y-140989104D01*
X88328571Y-141560533D02*
X88709523Y-141560533D01*
X88252380Y-141789104D02*
X88519047Y-140989104D01*
X88785714Y-141789104D01*
X89471428Y-141789104D02*
X89014285Y-141789104D01*
X89242857Y-141789104D02*
X89242857Y-140989104D01*
X89166666Y-141103390D01*
X89090476Y-141179580D01*
X89014285Y-141217676D01*
X85813971Y-141560533D02*
X86194923Y-141560533D01*
X85737780Y-141789104D02*
X86004447Y-140989104D01*
X86271114Y-141789104D01*
X86499685Y-141065295D02*
X86537780Y-141027200D01*
X86613971Y-140989104D01*
X86804447Y-140989104D01*
X86880638Y-141027200D01*
X86918733Y-141065295D01*
X86956828Y-141141485D01*
X86956828Y-141217676D01*
X86918733Y-141331961D01*
X86461590Y-141789104D01*
X86956828Y-141789104D01*
X83273971Y-141560533D02*
X83654923Y-141560533D01*
X83197780Y-141789104D02*
X83464447Y-140989104D01*
X83731114Y-141789104D01*
X83921590Y-140989104D02*
X84416828Y-140989104D01*
X84150161Y-141293866D01*
X84264447Y-141293866D01*
X84340638Y-141331961D01*
X84378733Y-141370057D01*
X84416828Y-141446247D01*
X84416828Y-141636723D01*
X84378733Y-141712914D01*
X84340638Y-141751009D01*
X84264447Y-141789104D01*
X84035876Y-141789104D01*
X83959685Y-141751009D01*
X83921590Y-141712914D01*
X80708571Y-141560533D02*
X81089523Y-141560533D01*
X80632380Y-141789104D02*
X80899047Y-140989104D01*
X81165714Y-141789104D01*
X81775238Y-141255771D02*
X81775238Y-141789104D01*
X81584761Y-140951009D02*
X81394285Y-141522438D01*
X81889523Y-141522438D01*
X78168571Y-141560533D02*
X78549523Y-141560533D01*
X78092380Y-141789104D02*
X78359047Y-140989104D01*
X78625714Y-141789104D01*
X79273333Y-140989104D02*
X78892380Y-140989104D01*
X78854285Y-141370057D01*
X78892380Y-141331961D01*
X78968571Y-141293866D01*
X79159047Y-141293866D01*
X79235238Y-141331961D01*
X79273333Y-141370057D01*
X79311428Y-141446247D01*
X79311428Y-141636723D01*
X79273333Y-141712914D01*
X79235238Y-141751009D01*
X79159047Y-141789104D01*
X78968571Y-141789104D01*
X78892380Y-141751009D01*
X78854285Y-141712914D01*
X75628571Y-141535133D02*
X76009523Y-141535133D01*
X75552380Y-141763704D02*
X75819047Y-140963704D01*
X76085714Y-141763704D01*
X76695238Y-140963704D02*
X76542857Y-140963704D01*
X76466666Y-141001800D01*
X76428571Y-141039895D01*
X76352380Y-141154180D01*
X76314285Y-141306561D01*
X76314285Y-141611323D01*
X76352380Y-141687514D01*
X76390476Y-141725609D01*
X76466666Y-141763704D01*
X76619047Y-141763704D01*
X76695238Y-141725609D01*
X76733333Y-141687514D01*
X76771428Y-141611323D01*
X76771428Y-141420847D01*
X76733333Y-141344657D01*
X76695238Y-141306561D01*
X76619047Y-141268466D01*
X76466666Y-141268466D01*
X76390476Y-141306561D01*
X76352380Y-141344657D01*
X76314285Y-141420847D01*
X73088571Y-141535133D02*
X73469523Y-141535133D01*
X73012380Y-141763704D02*
X73279047Y-140963704D01*
X73545714Y-141763704D01*
X73736190Y-140963704D02*
X74269523Y-140963704D01*
X73926666Y-141763704D01*
X70770790Y-141344657D02*
X70885076Y-141382752D01*
X70923171Y-141420847D01*
X70961266Y-141497038D01*
X70961266Y-141611323D01*
X70923171Y-141687514D01*
X70885076Y-141725609D01*
X70808885Y-141763704D01*
X70504123Y-141763704D01*
X70504123Y-140963704D01*
X70770790Y-140963704D01*
X70846980Y-141001800D01*
X70885076Y-141039895D01*
X70923171Y-141116085D01*
X70923171Y-141192276D01*
X70885076Y-141268466D01*
X70846980Y-141306561D01*
X70770790Y-141344657D01*
X70504123Y-141344657D01*
X71456504Y-140963704D02*
X71532695Y-140963704D01*
X71608885Y-141001800D01*
X71646980Y-141039895D01*
X71685076Y-141116085D01*
X71723171Y-141268466D01*
X71723171Y-141458942D01*
X71685076Y-141611323D01*
X71646980Y-141687514D01*
X71608885Y-141725609D01*
X71532695Y-141763704D01*
X71456504Y-141763704D01*
X71380314Y-141725609D01*
X71342219Y-141687514D01*
X71304123Y-141611323D01*
X71266028Y-141458942D01*
X71266028Y-141268466D01*
X71304123Y-141116085D01*
X71342219Y-141039895D01*
X71380314Y-141001800D01*
X71456504Y-140963704D01*
X68256190Y-141344657D02*
X68370476Y-141382752D01*
X68408571Y-141420847D01*
X68446666Y-141497038D01*
X68446666Y-141611323D01*
X68408571Y-141687514D01*
X68370476Y-141725609D01*
X68294285Y-141763704D01*
X67989523Y-141763704D01*
X67989523Y-140963704D01*
X68256190Y-140963704D01*
X68332380Y-141001800D01*
X68370476Y-141039895D01*
X68408571Y-141116085D01*
X68408571Y-141192276D01*
X68370476Y-141268466D01*
X68332380Y-141306561D01*
X68256190Y-141344657D01*
X67989523Y-141344657D01*
X69208571Y-141763704D02*
X68751428Y-141763704D01*
X68980000Y-141763704D02*
X68980000Y-140963704D01*
X68903809Y-141077990D01*
X68827619Y-141154180D01*
X68751428Y-141192276D01*
X65309838Y-141344657D02*
X65424123Y-141382752D01*
X65462219Y-141420847D01*
X65500314Y-141497038D01*
X65500314Y-141611323D01*
X65462219Y-141687514D01*
X65424123Y-141725609D01*
X65347933Y-141763704D01*
X65043171Y-141763704D01*
X65043171Y-140963704D01*
X65309838Y-140963704D01*
X65386028Y-141001800D01*
X65424123Y-141039895D01*
X65462219Y-141116085D01*
X65462219Y-141192276D01*
X65424123Y-141268466D01*
X65386028Y-141306561D01*
X65309838Y-141344657D01*
X65043171Y-141344657D01*
X66262219Y-141763704D02*
X65805076Y-141763704D01*
X66033647Y-141763704D02*
X66033647Y-140963704D01*
X65957457Y-141077990D01*
X65881266Y-141154180D01*
X65805076Y-141192276D01*
X66757457Y-140963704D02*
X66833647Y-140963704D01*
X66909838Y-141001800D01*
X66947933Y-141039895D01*
X66986028Y-141116085D01*
X67024123Y-141268466D01*
X67024123Y-141458942D01*
X66986028Y-141611323D01*
X66947933Y-141687514D01*
X66909838Y-141725609D01*
X66833647Y-141763704D01*
X66757457Y-141763704D01*
X66681266Y-141725609D01*
X66643171Y-141687514D01*
X66605076Y-141611323D01*
X66566980Y-141458942D01*
X66566980Y-141268466D01*
X66605076Y-141116085D01*
X66643171Y-141039895D01*
X66681266Y-141001800D01*
X66757457Y-140963704D01*
X62769838Y-141344657D02*
X62884123Y-141382752D01*
X62922219Y-141420847D01*
X62960314Y-141497038D01*
X62960314Y-141611323D01*
X62922219Y-141687514D01*
X62884123Y-141725609D01*
X62807933Y-141763704D01*
X62503171Y-141763704D01*
X62503171Y-140963704D01*
X62769838Y-140963704D01*
X62846028Y-141001800D01*
X62884123Y-141039895D01*
X62922219Y-141116085D01*
X62922219Y-141192276D01*
X62884123Y-141268466D01*
X62846028Y-141306561D01*
X62769838Y-141344657D01*
X62503171Y-141344657D01*
X63722219Y-141763704D02*
X63265076Y-141763704D01*
X63493647Y-141763704D02*
X63493647Y-140963704D01*
X63417457Y-141077990D01*
X63341266Y-141154180D01*
X63265076Y-141192276D01*
X64484123Y-141763704D02*
X64026980Y-141763704D01*
X64255552Y-141763704D02*
X64255552Y-140963704D01*
X64179361Y-141077990D01*
X64103171Y-141154180D01*
X64026980Y-141192276D01*
X61207619Y-141763704D02*
X60940952Y-141382752D01*
X60750476Y-141763704D02*
X60750476Y-140963704D01*
X61055238Y-140963704D01*
X61131428Y-141001800D01*
X61169523Y-141039895D01*
X61207619Y-141116085D01*
X61207619Y-141230371D01*
X61169523Y-141306561D01*
X61131428Y-141344657D01*
X61055238Y-141382752D01*
X60750476Y-141382752D01*
X57429523Y-140963704D02*
X57924761Y-140963704D01*
X57658095Y-141268466D01*
X57772380Y-141268466D01*
X57848571Y-141306561D01*
X57886666Y-141344657D01*
X57924761Y-141420847D01*
X57924761Y-141611323D01*
X57886666Y-141687514D01*
X57848571Y-141725609D01*
X57772380Y-141763704D01*
X57543809Y-141763704D01*
X57467619Y-141725609D01*
X57429523Y-141687514D01*
X58153333Y-140963704D02*
X58420000Y-141763704D01*
X58686666Y-140963704D01*
X58877142Y-140963704D02*
X59372380Y-140963704D01*
X59105714Y-141268466D01*
X59220000Y-141268466D01*
X59296190Y-141306561D01*
X59334285Y-141344657D01*
X59372380Y-141420847D01*
X59372380Y-141611323D01*
X59334285Y-141687514D01*
X59296190Y-141725609D01*
X59220000Y-141763704D01*
X58991428Y-141763704D01*
X58915238Y-141725609D01*
X58877142Y-141687514D01*
X55270476Y-141001800D02*
X55194285Y-140963704D01*
X55080000Y-140963704D01*
X54965714Y-141001800D01*
X54889523Y-141077990D01*
X54851428Y-141154180D01*
X54813333Y-141306561D01*
X54813333Y-141420847D01*
X54851428Y-141573228D01*
X54889523Y-141649419D01*
X54965714Y-141725609D01*
X55080000Y-141763704D01*
X55156190Y-141763704D01*
X55270476Y-141725609D01*
X55308571Y-141687514D01*
X55308571Y-141420847D01*
X55156190Y-141420847D01*
X55651428Y-141763704D02*
X55651428Y-140963704D01*
X56108571Y-141763704D01*
X56108571Y-140963704D01*
X56489523Y-141763704D02*
X56489523Y-140963704D01*
X56680000Y-140963704D01*
X56794285Y-141001800D01*
X56870476Y-141077990D01*
X56908571Y-141154180D01*
X56946666Y-141306561D01*
X56946666Y-141420847D01*
X56908571Y-141573228D01*
X56870476Y-141649419D01*
X56794285Y-141725609D01*
X56680000Y-141763704D01*
X56489523Y-141763704D01*
X52730476Y-141001800D02*
X52654285Y-140963704D01*
X52540000Y-140963704D01*
X52425714Y-141001800D01*
X52349523Y-141077990D01*
X52311428Y-141154180D01*
X52273333Y-141306561D01*
X52273333Y-141420847D01*
X52311428Y-141573228D01*
X52349523Y-141649419D01*
X52425714Y-141725609D01*
X52540000Y-141763704D01*
X52616190Y-141763704D01*
X52730476Y-141725609D01*
X52768571Y-141687514D01*
X52768571Y-141420847D01*
X52616190Y-141420847D01*
X53111428Y-141763704D02*
X53111428Y-140963704D01*
X53568571Y-141763704D01*
X53568571Y-140963704D01*
X53949523Y-141763704D02*
X53949523Y-140963704D01*
X54140000Y-140963704D01*
X54254285Y-141001800D01*
X54330476Y-141077990D01*
X54368571Y-141154180D01*
X54406666Y-141306561D01*
X54406666Y-141420847D01*
X54368571Y-141573228D01*
X54330476Y-141649419D01*
X54254285Y-141725609D01*
X54140000Y-141763704D01*
X53949523Y-141763704D01*
D11*
X52070000Y-144780000D02*
X52070000Y-142240000D01*
X102870000Y-144780000D02*
X52070000Y-144780000D01*
X102870000Y-142240000D02*
X102870000Y-144780000D01*
X52070000Y-142240000D02*
X102870000Y-142240000D01*
D10*
X100609523Y-160496304D02*
X101104761Y-160496304D01*
X100838095Y-160801066D01*
X100952380Y-160801066D01*
X101028571Y-160839161D01*
X101066666Y-160877257D01*
X101104761Y-160953447D01*
X101104761Y-161143923D01*
X101066666Y-161220114D01*
X101028571Y-161258209D01*
X100952380Y-161296304D01*
X100723809Y-161296304D01*
X100647619Y-161258209D01*
X100609523Y-161220114D01*
X101333333Y-160496304D02*
X101600000Y-161296304D01*
X101866666Y-160496304D01*
X102057142Y-160496304D02*
X102552380Y-160496304D01*
X102285714Y-160801066D01*
X102400000Y-160801066D01*
X102476190Y-160839161D01*
X102514285Y-160877257D01*
X102552380Y-160953447D01*
X102552380Y-161143923D01*
X102514285Y-161220114D01*
X102476190Y-161258209D01*
X102400000Y-161296304D01*
X102171428Y-161296304D01*
X102095238Y-161258209D01*
X102057142Y-161220114D01*
X98450476Y-160534400D02*
X98374285Y-160496304D01*
X98260000Y-160496304D01*
X98145714Y-160534400D01*
X98069523Y-160610590D01*
X98031428Y-160686780D01*
X97993333Y-160839161D01*
X97993333Y-160953447D01*
X98031428Y-161105828D01*
X98069523Y-161182019D01*
X98145714Y-161258209D01*
X98260000Y-161296304D01*
X98336190Y-161296304D01*
X98450476Y-161258209D01*
X98488571Y-161220114D01*
X98488571Y-160953447D01*
X98336190Y-160953447D01*
X98831428Y-161296304D02*
X98831428Y-160496304D01*
X99288571Y-161296304D01*
X99288571Y-160496304D01*
X99669523Y-161296304D02*
X99669523Y-160496304D01*
X99860000Y-160496304D01*
X99974285Y-160534400D01*
X100050476Y-160610590D01*
X100088571Y-160686780D01*
X100126666Y-160839161D01*
X100126666Y-160953447D01*
X100088571Y-161105828D01*
X100050476Y-161182019D01*
X99974285Y-161258209D01*
X99860000Y-161296304D01*
X99669523Y-161296304D01*
X96367619Y-160496304D02*
X95986666Y-160496304D01*
X95948571Y-160877257D01*
X95986666Y-160839161D01*
X96062857Y-160801066D01*
X96253333Y-160801066D01*
X96329523Y-160839161D01*
X96367619Y-160877257D01*
X96405714Y-160953447D01*
X96405714Y-161143923D01*
X96367619Y-161220114D01*
X96329523Y-161258209D01*
X96253333Y-161296304D01*
X96062857Y-161296304D01*
X95986666Y-161258209D01*
X95948571Y-161220114D01*
X96634285Y-160496304D02*
X96900952Y-161296304D01*
X97167619Y-160496304D01*
X93656190Y-160877257D02*
X93770476Y-160915352D01*
X93808571Y-160953447D01*
X93846666Y-161029638D01*
X93846666Y-161143923D01*
X93808571Y-161220114D01*
X93770476Y-161258209D01*
X93694285Y-161296304D01*
X93389523Y-161296304D01*
X93389523Y-160496304D01*
X93656190Y-160496304D01*
X93732380Y-160534400D01*
X93770476Y-160572495D01*
X93808571Y-160648685D01*
X93808571Y-160724876D01*
X93770476Y-160801066D01*
X93732380Y-160839161D01*
X93656190Y-160877257D01*
X93389523Y-160877257D01*
X94227619Y-161296304D02*
X94380000Y-161296304D01*
X94456190Y-161258209D01*
X94494285Y-161220114D01*
X94570476Y-161105828D01*
X94608571Y-160953447D01*
X94608571Y-160648685D01*
X94570476Y-160572495D01*
X94532380Y-160534400D01*
X94456190Y-160496304D01*
X94303809Y-160496304D01*
X94227619Y-160534400D01*
X94189523Y-160572495D01*
X94151428Y-160648685D01*
X94151428Y-160839161D01*
X94189523Y-160915352D01*
X94227619Y-160953447D01*
X94303809Y-160991542D01*
X94456190Y-160991542D01*
X94532380Y-160953447D01*
X94570476Y-160915352D01*
X94608571Y-160839161D01*
X91090790Y-160877257D02*
X91205076Y-160915352D01*
X91243171Y-160953447D01*
X91281266Y-161029638D01*
X91281266Y-161143923D01*
X91243171Y-161220114D01*
X91205076Y-161258209D01*
X91128885Y-161296304D01*
X90824123Y-161296304D01*
X90824123Y-160496304D01*
X91090790Y-160496304D01*
X91166980Y-160534400D01*
X91205076Y-160572495D01*
X91243171Y-160648685D01*
X91243171Y-160724876D01*
X91205076Y-160801066D01*
X91166980Y-160839161D01*
X91090790Y-160877257D01*
X90824123Y-160877257D01*
X91738409Y-160839161D02*
X91662219Y-160801066D01*
X91624123Y-160762971D01*
X91586028Y-160686780D01*
X91586028Y-160648685D01*
X91624123Y-160572495D01*
X91662219Y-160534400D01*
X91738409Y-160496304D01*
X91890790Y-160496304D01*
X91966980Y-160534400D01*
X92005076Y-160572495D01*
X92043171Y-160648685D01*
X92043171Y-160686780D01*
X92005076Y-160762971D01*
X91966980Y-160801066D01*
X91890790Y-160839161D01*
X91738409Y-160839161D01*
X91662219Y-160877257D01*
X91624123Y-160915352D01*
X91586028Y-160991542D01*
X91586028Y-161143923D01*
X91624123Y-161220114D01*
X91662219Y-161258209D01*
X91738409Y-161296304D01*
X91890790Y-161296304D01*
X91966980Y-161258209D01*
X92005076Y-161220114D01*
X92043171Y-161143923D01*
X92043171Y-160991542D01*
X92005076Y-160915352D01*
X91966980Y-160877257D01*
X91890790Y-160839161D01*
X88550790Y-160877257D02*
X88665076Y-160915352D01*
X88703171Y-160953447D01*
X88741266Y-161029638D01*
X88741266Y-161143923D01*
X88703171Y-161220114D01*
X88665076Y-161258209D01*
X88588885Y-161296304D01*
X88284123Y-161296304D01*
X88284123Y-160496304D01*
X88550790Y-160496304D01*
X88626980Y-160534400D01*
X88665076Y-160572495D01*
X88703171Y-160648685D01*
X88703171Y-160724876D01*
X88665076Y-160801066D01*
X88626980Y-160839161D01*
X88550790Y-160877257D01*
X88284123Y-160877257D01*
X89007933Y-160496304D02*
X89541266Y-160496304D01*
X89198409Y-161296304D01*
X86036190Y-160877257D02*
X86150476Y-160915352D01*
X86188571Y-160953447D01*
X86226666Y-161029638D01*
X86226666Y-161143923D01*
X86188571Y-161220114D01*
X86150476Y-161258209D01*
X86074285Y-161296304D01*
X85769523Y-161296304D01*
X85769523Y-160496304D01*
X86036190Y-160496304D01*
X86112380Y-160534400D01*
X86150476Y-160572495D01*
X86188571Y-160648685D01*
X86188571Y-160724876D01*
X86150476Y-160801066D01*
X86112380Y-160839161D01*
X86036190Y-160877257D01*
X85769523Y-160877257D01*
X86912380Y-160496304D02*
X86760000Y-160496304D01*
X86683809Y-160534400D01*
X86645714Y-160572495D01*
X86569523Y-160686780D01*
X86531428Y-160839161D01*
X86531428Y-161143923D01*
X86569523Y-161220114D01*
X86607619Y-161258209D01*
X86683809Y-161296304D01*
X86836190Y-161296304D01*
X86912380Y-161258209D01*
X86950476Y-161220114D01*
X86988571Y-161143923D01*
X86988571Y-160953447D01*
X86950476Y-160877257D01*
X86912380Y-160839161D01*
X86836190Y-160801066D01*
X86683809Y-160801066D01*
X86607619Y-160839161D01*
X86569523Y-160877257D01*
X86531428Y-160953447D01*
X83496190Y-160877257D02*
X83610476Y-160915352D01*
X83648571Y-160953447D01*
X83686666Y-161029638D01*
X83686666Y-161143923D01*
X83648571Y-161220114D01*
X83610476Y-161258209D01*
X83534285Y-161296304D01*
X83229523Y-161296304D01*
X83229523Y-160496304D01*
X83496190Y-160496304D01*
X83572380Y-160534400D01*
X83610476Y-160572495D01*
X83648571Y-160648685D01*
X83648571Y-160724876D01*
X83610476Y-160801066D01*
X83572380Y-160839161D01*
X83496190Y-160877257D01*
X83229523Y-160877257D01*
X84410476Y-160496304D02*
X84029523Y-160496304D01*
X83991428Y-160877257D01*
X84029523Y-160839161D01*
X84105714Y-160801066D01*
X84296190Y-160801066D01*
X84372380Y-160839161D01*
X84410476Y-160877257D01*
X84448571Y-160953447D01*
X84448571Y-161143923D01*
X84410476Y-161220114D01*
X84372380Y-161258209D01*
X84296190Y-161296304D01*
X84105714Y-161296304D01*
X84029523Y-161258209D01*
X83991428Y-161220114D01*
X80930790Y-160877257D02*
X81045076Y-160915352D01*
X81083171Y-160953447D01*
X81121266Y-161029638D01*
X81121266Y-161143923D01*
X81083171Y-161220114D01*
X81045076Y-161258209D01*
X80968885Y-161296304D01*
X80664123Y-161296304D01*
X80664123Y-160496304D01*
X80930790Y-160496304D01*
X81006980Y-160534400D01*
X81045076Y-160572495D01*
X81083171Y-160648685D01*
X81083171Y-160724876D01*
X81045076Y-160801066D01*
X81006980Y-160839161D01*
X80930790Y-160877257D01*
X80664123Y-160877257D01*
X81806980Y-160762971D02*
X81806980Y-161296304D01*
X81616504Y-160458209D02*
X81426028Y-161029638D01*
X81921266Y-161029638D01*
X78441590Y-160877257D02*
X78555876Y-160915352D01*
X78593971Y-160953447D01*
X78632066Y-161029638D01*
X78632066Y-161143923D01*
X78593971Y-161220114D01*
X78555876Y-161258209D01*
X78479685Y-161296304D01*
X78174923Y-161296304D01*
X78174923Y-160496304D01*
X78441590Y-160496304D01*
X78517780Y-160534400D01*
X78555876Y-160572495D01*
X78593971Y-160648685D01*
X78593971Y-160724876D01*
X78555876Y-160801066D01*
X78517780Y-160839161D01*
X78441590Y-160877257D01*
X78174923Y-160877257D01*
X78898733Y-160496304D02*
X79393971Y-160496304D01*
X79127304Y-160801066D01*
X79241590Y-160801066D01*
X79317780Y-160839161D01*
X79355876Y-160877257D01*
X79393971Y-160953447D01*
X79393971Y-161143923D01*
X79355876Y-161220114D01*
X79317780Y-161258209D01*
X79241590Y-161296304D01*
X79013019Y-161296304D01*
X78936828Y-161258209D01*
X78898733Y-161220114D01*
X75273019Y-161042333D02*
X75653971Y-161042333D01*
X75196828Y-161270904D02*
X75463495Y-160470904D01*
X75730161Y-161270904D01*
X76415876Y-161270904D02*
X75958733Y-161270904D01*
X76187304Y-161270904D02*
X76187304Y-160470904D01*
X76111114Y-160585190D01*
X76034923Y-160661380D01*
X75958733Y-160699476D01*
X77139685Y-160470904D02*
X76758733Y-160470904D01*
X76720638Y-160851857D01*
X76758733Y-160813761D01*
X76834923Y-160775666D01*
X77025400Y-160775666D01*
X77101590Y-160813761D01*
X77139685Y-160851857D01*
X77177780Y-160928047D01*
X77177780Y-161118523D01*
X77139685Y-161194714D01*
X77101590Y-161232809D01*
X77025400Y-161270904D01*
X76834923Y-161270904D01*
X76758733Y-161232809D01*
X76720638Y-161194714D01*
X72758419Y-161042333D02*
X73139371Y-161042333D01*
X72682228Y-161270904D02*
X72948895Y-160470904D01*
X73215561Y-161270904D01*
X73901276Y-161270904D02*
X73444133Y-161270904D01*
X73672704Y-161270904D02*
X73672704Y-160470904D01*
X73596514Y-160585190D01*
X73520323Y-160661380D01*
X73444133Y-160699476D01*
X74206038Y-160547095D02*
X74244133Y-160509000D01*
X74320323Y-160470904D01*
X74510800Y-160470904D01*
X74586990Y-160509000D01*
X74625085Y-160547095D01*
X74663180Y-160623285D01*
X74663180Y-160699476D01*
X74625085Y-160813761D01*
X74167942Y-161270904D01*
X74663180Y-161270904D01*
X70193019Y-161042333D02*
X70573971Y-161042333D01*
X70116828Y-161270904D02*
X70383495Y-160470904D01*
X70650161Y-161270904D01*
X71335876Y-161270904D02*
X70878733Y-161270904D01*
X71107304Y-161270904D02*
X71107304Y-160470904D01*
X71031114Y-160585190D01*
X70954923Y-160661380D01*
X70878733Y-160699476D01*
X72097780Y-161270904D02*
X71640638Y-161270904D01*
X71869209Y-161270904D02*
X71869209Y-160470904D01*
X71793019Y-160585190D01*
X71716828Y-160661380D01*
X71640638Y-160699476D01*
X67678419Y-161042333D02*
X68059371Y-161042333D01*
X67602228Y-161270904D02*
X67868895Y-160470904D01*
X68135561Y-161270904D01*
X68821276Y-161270904D02*
X68364133Y-161270904D01*
X68592704Y-161270904D02*
X68592704Y-160470904D01*
X68516514Y-160585190D01*
X68440323Y-160661380D01*
X68364133Y-160699476D01*
X69316514Y-160470904D02*
X69392704Y-160470904D01*
X69468895Y-160509000D01*
X69506990Y-160547095D01*
X69545085Y-160623285D01*
X69583180Y-160775666D01*
X69583180Y-160966142D01*
X69545085Y-161118523D01*
X69506990Y-161194714D01*
X69468895Y-161232809D01*
X69392704Y-161270904D01*
X69316514Y-161270904D01*
X69240323Y-161232809D01*
X69202228Y-161194714D01*
X69164133Y-161118523D01*
X69126038Y-160966142D01*
X69126038Y-160775666D01*
X69164133Y-160623285D01*
X69202228Y-160547095D01*
X69240323Y-160509000D01*
X69316514Y-160470904D01*
X65468571Y-161042333D02*
X65849523Y-161042333D01*
X65392380Y-161270904D02*
X65659047Y-160470904D01*
X65925714Y-161270904D01*
X66230476Y-161270904D02*
X66382857Y-161270904D01*
X66459047Y-161232809D01*
X66497142Y-161194714D01*
X66573333Y-161080428D01*
X66611428Y-160928047D01*
X66611428Y-160623285D01*
X66573333Y-160547095D01*
X66535238Y-160509000D01*
X66459047Y-160470904D01*
X66306666Y-160470904D01*
X66230476Y-160509000D01*
X66192380Y-160547095D01*
X66154285Y-160623285D01*
X66154285Y-160813761D01*
X66192380Y-160889952D01*
X66230476Y-160928047D01*
X66306666Y-160966142D01*
X66459047Y-160966142D01*
X66535238Y-160928047D01*
X66573333Y-160889952D01*
X66611428Y-160813761D01*
X62928571Y-161042333D02*
X63309523Y-161042333D01*
X62852380Y-161270904D02*
X63119047Y-160470904D01*
X63385714Y-161270904D01*
X63766666Y-160813761D02*
X63690476Y-160775666D01*
X63652380Y-160737571D01*
X63614285Y-160661380D01*
X63614285Y-160623285D01*
X63652380Y-160547095D01*
X63690476Y-160509000D01*
X63766666Y-160470904D01*
X63919047Y-160470904D01*
X63995238Y-160509000D01*
X64033333Y-160547095D01*
X64071428Y-160623285D01*
X64071428Y-160661380D01*
X64033333Y-160737571D01*
X63995238Y-160775666D01*
X63919047Y-160813761D01*
X63766666Y-160813761D01*
X63690476Y-160851857D01*
X63652380Y-160889952D01*
X63614285Y-160966142D01*
X63614285Y-161118523D01*
X63652380Y-161194714D01*
X63690476Y-161232809D01*
X63766666Y-161270904D01*
X63919047Y-161270904D01*
X63995238Y-161232809D01*
X64033333Y-161194714D01*
X64071428Y-161118523D01*
X64071428Y-160966142D01*
X64033333Y-160889952D01*
X63995238Y-160851857D01*
X63919047Y-160813761D01*
X60255238Y-160877257D02*
X60369523Y-160915352D01*
X60407619Y-160953447D01*
X60445714Y-161029638D01*
X60445714Y-161143923D01*
X60407619Y-161220114D01*
X60369523Y-161258209D01*
X60293333Y-161296304D01*
X59988571Y-161296304D01*
X59988571Y-160496304D01*
X60255238Y-160496304D01*
X60331428Y-160534400D01*
X60369523Y-160572495D01*
X60407619Y-160648685D01*
X60407619Y-160724876D01*
X60369523Y-160801066D01*
X60331428Y-160839161D01*
X60255238Y-160877257D01*
X59988571Y-160877257D01*
X61207619Y-161296304D02*
X60750476Y-161296304D01*
X60979047Y-161296304D02*
X60979047Y-160496304D01*
X60902857Y-160610590D01*
X60826666Y-160686780D01*
X60750476Y-160724876D01*
X61931428Y-160496304D02*
X61550476Y-160496304D01*
X61512380Y-160877257D01*
X61550476Y-160839161D01*
X61626666Y-160801066D01*
X61817142Y-160801066D01*
X61893333Y-160839161D01*
X61931428Y-160877257D01*
X61969523Y-160953447D01*
X61969523Y-161143923D01*
X61931428Y-161220114D01*
X61893333Y-161258209D01*
X61817142Y-161296304D01*
X61626666Y-161296304D01*
X61550476Y-161258209D01*
X61512380Y-161220114D01*
X57715238Y-160851857D02*
X57829523Y-160889952D01*
X57867619Y-160928047D01*
X57905714Y-161004238D01*
X57905714Y-161118523D01*
X57867619Y-161194714D01*
X57829523Y-161232809D01*
X57753333Y-161270904D01*
X57448571Y-161270904D01*
X57448571Y-160470904D01*
X57715238Y-160470904D01*
X57791428Y-160509000D01*
X57829523Y-160547095D01*
X57867619Y-160623285D01*
X57867619Y-160699476D01*
X57829523Y-160775666D01*
X57791428Y-160813761D01*
X57715238Y-160851857D01*
X57448571Y-160851857D01*
X58667619Y-161270904D02*
X58210476Y-161270904D01*
X58439047Y-161270904D02*
X58439047Y-160470904D01*
X58362857Y-160585190D01*
X58286666Y-160661380D01*
X58210476Y-160699476D01*
X59353333Y-160737571D02*
X59353333Y-161270904D01*
X59162857Y-160432809D02*
X58972380Y-161004238D01*
X59467619Y-161004238D01*
X55149838Y-160851857D02*
X55264123Y-160889952D01*
X55302219Y-160928047D01*
X55340314Y-161004238D01*
X55340314Y-161118523D01*
X55302219Y-161194714D01*
X55264123Y-161232809D01*
X55187933Y-161270904D01*
X54883171Y-161270904D01*
X54883171Y-160470904D01*
X55149838Y-160470904D01*
X55226028Y-160509000D01*
X55264123Y-160547095D01*
X55302219Y-160623285D01*
X55302219Y-160699476D01*
X55264123Y-160775666D01*
X55226028Y-160813761D01*
X55149838Y-160851857D01*
X54883171Y-160851857D01*
X56102219Y-161270904D02*
X55645076Y-161270904D01*
X55873647Y-161270904D02*
X55873647Y-160470904D01*
X55797457Y-160585190D01*
X55721266Y-160661380D01*
X55645076Y-160699476D01*
X56368885Y-160470904D02*
X56864123Y-160470904D01*
X56597457Y-160775666D01*
X56711742Y-160775666D01*
X56787933Y-160813761D01*
X56826028Y-160851857D01*
X56864123Y-160928047D01*
X56864123Y-161118523D01*
X56826028Y-161194714D01*
X56787933Y-161232809D01*
X56711742Y-161270904D01*
X56483171Y-161270904D01*
X56406980Y-161232809D01*
X56368885Y-161194714D01*
X52609838Y-160851857D02*
X52724123Y-160889952D01*
X52762219Y-160928047D01*
X52800314Y-161004238D01*
X52800314Y-161118523D01*
X52762219Y-161194714D01*
X52724123Y-161232809D01*
X52647933Y-161270904D01*
X52343171Y-161270904D01*
X52343171Y-160470904D01*
X52609838Y-160470904D01*
X52686028Y-160509000D01*
X52724123Y-160547095D01*
X52762219Y-160623285D01*
X52762219Y-160699476D01*
X52724123Y-160775666D01*
X52686028Y-160813761D01*
X52609838Y-160851857D01*
X52343171Y-160851857D01*
X53562219Y-161270904D02*
X53105076Y-161270904D01*
X53333647Y-161270904D02*
X53333647Y-160470904D01*
X53257457Y-160585190D01*
X53181266Y-160661380D01*
X53105076Y-160699476D01*
X53866980Y-160547095D02*
X53905076Y-160509000D01*
X53981266Y-160470904D01*
X54171742Y-160470904D01*
X54247933Y-160509000D01*
X54286028Y-160547095D01*
X54324123Y-160623285D01*
X54324123Y-160699476D01*
X54286028Y-160813761D01*
X53828885Y-161270904D01*
X54324123Y-161270904D01*
D11*
X52070000Y-159994600D02*
X52070000Y-157480000D01*
X102895400Y-160020000D02*
X52070000Y-159994600D01*
X102895400Y-157480000D02*
X102895400Y-160020000D01*
X52070000Y-157480000D02*
X102895400Y-157480000D01*
D12*
%TO.C,U1*%
X72682887Y-150811802D02*
X72364689Y-151130000D01*
X72364689Y-151130000D02*
X72682887Y-151448198D01*
X77151802Y-146342887D02*
X77470000Y-146024689D01*
X77470000Y-146024689D02*
X77788198Y-146342887D01*
X77788198Y-155917113D02*
X77470000Y-156235311D01*
X77470000Y-156235311D02*
X77151802Y-155917113D01*
X82257113Y-151448198D02*
X82575311Y-151130000D01*
X82575311Y-151130000D02*
X82257113Y-150811802D01*
X82257113Y-150811802D02*
X83169281Y-149899634D01*
D13*
%TO.C,J1*%
X50680000Y-147180000D02*
X55380000Y-147180000D01*
X56180000Y-147980000D02*
X56180000Y-154280000D01*
X55380000Y-155080000D02*
X50680000Y-155080000D01*
D14*
X50680000Y-147130000D02*
X50680000Y-155130000D01*
X57180000Y-147130000D02*
X57180000Y-149290000D01*
X57180000Y-152970000D02*
X57180000Y-155130000D01*
X57180000Y-147130000D02*
X50680000Y-147130000D01*
X57180000Y-155130000D02*
X50680000Y-155130000D01*
D13*
X50680000Y-147180000D02*
X50680000Y-155080000D01*
D11*
X58500000Y-149830000D02*
G75*
G03*
X58500000Y-149830000I-100000J0D01*
G01*
D13*
X55380000Y-147180000D02*
G75*
G02*
X56180000Y-147980000I0J-800000D01*
G01*
X56180000Y-154280000D02*
G75*
G02*
X55380000Y-155080000I-800000J0D01*
G01*
D12*
%TO.C,Y2*%
X90402000Y-153030000D02*
X90402000Y-149230000D01*
X90402000Y-146930000D02*
X90402000Y-147530000D01*
X94002000Y-146930000D02*
X94002000Y-147530000D01*
X90402000Y-146930000D02*
X91702000Y-146930000D01*
X92702000Y-146930000D02*
X94002000Y-146930000D01*
X94002000Y-149230000D02*
X94002000Y-153030000D01*
X90402000Y-155330000D02*
X90402000Y-154730000D01*
X94002000Y-155330000D02*
X90402000Y-155330000D01*
X94002000Y-154730000D02*
X94002000Y-155330000D01*
X91702000Y-146930000D02*
G75*
G03*
X92702000Y-146930000I500000J0D01*
G01*
%TO.C,Y1*%
X84089000Y-154303000D02*
X84089000Y-147903000D01*
X89139000Y-154303000D02*
X89139000Y-147903000D01*
X89139000Y-147903000D02*
G75*
G03*
X84089000Y-147903000I-2525000J0D01*
G01*
X89139000Y-154303000D02*
G75*
G02*
X84089000Y-154303000I-2525000J0D01*
G01*
D15*
%TO.C,SW1*%
X67310000Y-153416000D02*
G75*
G03*
X67310000Y-153416000I-1270000J0D01*
G01*
X64500760Y-150876000D02*
X67579240Y-150876000D01*
X63500000Y-154655520D02*
X63500000Y-152176480D01*
X67579240Y-155956000D02*
X64500760Y-155956000D01*
X68580000Y-152176480D02*
X68580000Y-154686000D01*
D12*
%TO.C,J3*%
X99738000Y-145990000D02*
X99738000Y-156270000D01*
X99738000Y-156270000D02*
X102398000Y-156270000D01*
X102398000Y-156270000D02*
X102398000Y-145990000D01*
X102398000Y-145990000D02*
X99738000Y-145990000D01*
X102398000Y-146940000D02*
X108398000Y-146940000D01*
X108398000Y-146940000D02*
X108398000Y-147700000D01*
X108398000Y-147700000D02*
X102398000Y-147700000D01*
X102398000Y-147000000D02*
X108398000Y-147000000D01*
X102398000Y-147120000D02*
X108398000Y-147120000D01*
X102398000Y-147240000D02*
X108398000Y-147240000D01*
X102398000Y-147360000D02*
X108398000Y-147360000D01*
X102398000Y-147480000D02*
X108398000Y-147480000D01*
X102398000Y-147600000D02*
X108398000Y-147600000D01*
X99408000Y-146940000D02*
X99738000Y-146940000D01*
X99408000Y-147700000D02*
X99738000Y-147700000D01*
X99738000Y-148590000D02*
X102398000Y-148590000D01*
X102398000Y-149480000D02*
X108398000Y-149480000D01*
X108398000Y-149480000D02*
X108398000Y-150240000D01*
X108398000Y-150240000D02*
X102398000Y-150240000D01*
X99340929Y-149480000D02*
X99738000Y-149480000D01*
X99340929Y-150240000D02*
X99738000Y-150240000D01*
X99738000Y-151130000D02*
X102398000Y-151130000D01*
X102398000Y-152020000D02*
X108398000Y-152020000D01*
X108398000Y-152020000D02*
X108398000Y-152780000D01*
X108398000Y-152780000D02*
X102398000Y-152780000D01*
X99340929Y-152020000D02*
X99738000Y-152020000D01*
X99340929Y-152780000D02*
X99738000Y-152780000D01*
X99738000Y-153670000D02*
X102398000Y-153670000D01*
X102398000Y-154560000D02*
X108398000Y-154560000D01*
X108398000Y-154560000D02*
X108398000Y-155320000D01*
X108398000Y-155320000D02*
X102398000Y-155320000D01*
X99340929Y-154560000D02*
X99738000Y-154560000D01*
X99340929Y-155320000D02*
X99738000Y-155320000D01*
X97028000Y-147320000D02*
X97028000Y-146050000D01*
X97028000Y-146050000D02*
X98298000Y-146050000D01*
D15*
%TO.C,J2*%
X62611000Y-150700740D02*
X63881000Y-150700740D01*
X63881000Y-150700740D02*
X62611000Y-150700740D01*
X62611000Y-150368000D02*
X63881000Y-150368000D01*
X65151000Y-150368000D02*
X66421000Y-150368000D01*
X67691000Y-150368000D02*
X68961000Y-150368000D01*
X69596000Y-145923000D02*
X69596000Y-149733000D01*
X67056000Y-145923000D02*
X67056000Y-149733000D01*
X64516000Y-145923000D02*
X64516000Y-149733000D01*
X68961000Y-145288000D02*
X69596000Y-145923000D01*
X67691000Y-145288000D02*
X68961000Y-145288000D01*
X67056000Y-145923000D02*
X67691000Y-145288000D01*
X66421000Y-145288000D02*
X67056000Y-145923000D01*
X65151000Y-145288000D02*
X66421000Y-145288000D01*
X64516000Y-145923000D02*
X65151000Y-145288000D01*
X63881000Y-145288000D02*
X64516000Y-145923000D01*
X62611000Y-145288000D02*
X63881000Y-145288000D01*
X61976000Y-145923000D02*
X62611000Y-145288000D01*
X61976000Y-149733000D02*
X61976000Y-145923000D01*
X68961000Y-150368000D02*
X69596000Y-149733000D01*
X67056000Y-149733000D02*
X67691000Y-150368000D01*
X66421000Y-150368000D02*
X67056000Y-149733000D01*
X64516000Y-149733000D02*
X65151000Y-150368000D01*
X63881000Y-150368000D02*
X64516000Y-149733000D01*
X61976000Y-149733000D02*
X62611000Y-150368000D01*
D12*
%TO.C,D2*%
X96972000Y-148320000D02*
X96972000Y-145635000D01*
X96972000Y-145635000D02*
X95052000Y-145635000D01*
X95052000Y-145635000D02*
X95052000Y-148320000D01*
%TO.C,D1*%
X95052000Y-153940000D02*
X95052000Y-156625000D01*
X95052000Y-156625000D02*
X96972000Y-156625000D01*
X96972000Y-156625000D02*
X96972000Y-153940000D01*
%TO.C,U1*%
D10*
X76733495Y-150658580D02*
X76733495Y-151468104D01*
X76781114Y-151563342D01*
X76828733Y-151610961D01*
X76923971Y-151658580D01*
X77114447Y-151658580D01*
X77209685Y-151610961D01*
X77257304Y-151563342D01*
X77304923Y-151468104D01*
X77304923Y-150658580D01*
X78304923Y-151658580D02*
X77733495Y-151658580D01*
X78019209Y-151658580D02*
X78019209Y-150658580D01*
X77923971Y-150801438D01*
X77828733Y-150896676D01*
X77733495Y-150944295D01*
%TO.C,J1*%
D14*
X59221619Y-153108066D02*
X58507333Y-153108066D01*
X58364476Y-153060447D01*
X58269238Y-152965209D01*
X58221619Y-152822352D01*
X58221619Y-152727114D01*
X58221619Y-154108066D02*
X58221619Y-153536638D01*
X58221619Y-153822352D02*
X59221619Y-153822352D01*
X59078761Y-153727114D01*
X58983523Y-153631876D01*
X58935904Y-153536638D01*
%TO.C,Y2*%
D10*
X92505209Y-150679209D02*
X92029019Y-150679209D01*
X93029019Y-150345876D02*
X92505209Y-150679209D01*
X93029019Y-151012542D01*
X92933780Y-151298257D02*
X92981400Y-151345876D01*
X93029019Y-151441114D01*
X93029019Y-151679209D01*
X92981400Y-151774447D01*
X92933780Y-151822066D01*
X92838542Y-151869685D01*
X92743304Y-151869685D01*
X92600447Y-151822066D01*
X92029019Y-151250638D01*
X92029019Y-151869685D01*
%TO.C,Y1*%
X86637809Y-150603009D02*
X86161619Y-150603009D01*
X87161619Y-150269676D02*
X86637809Y-150603009D01*
X87161619Y-150936342D01*
X86161619Y-151793485D02*
X86161619Y-151222057D01*
X86161619Y-151507771D02*
X87161619Y-151507771D01*
X87018761Y-151412533D01*
X86923523Y-151317295D01*
X86875904Y-151222057D01*
%TO.C,SW1*%
D14*
X65227200Y-156837742D02*
X65314285Y-156866771D01*
X65459428Y-156866771D01*
X65517485Y-156837742D01*
X65546514Y-156808714D01*
X65575542Y-156750657D01*
X65575542Y-156692600D01*
X65546514Y-156634542D01*
X65517485Y-156605514D01*
X65459428Y-156576485D01*
X65343314Y-156547457D01*
X65285257Y-156518428D01*
X65256228Y-156489400D01*
X65227200Y-156431342D01*
X65227200Y-156373285D01*
X65256228Y-156315228D01*
X65285257Y-156286200D01*
X65343314Y-156257171D01*
X65488457Y-156257171D01*
X65575542Y-156286200D01*
X65778742Y-156257171D02*
X65923885Y-156866771D01*
X66040000Y-156431342D01*
X66156114Y-156866771D01*
X66301257Y-156257171D01*
X66852800Y-156866771D02*
X66504457Y-156866771D01*
X66678628Y-156866771D02*
X66678628Y-156257171D01*
X66620571Y-156344257D01*
X66562514Y-156402314D01*
X66504457Y-156431342D01*
X70133028Y-152530628D02*
X70423314Y-152327428D01*
X70133028Y-152182285D02*
X70742628Y-152182285D01*
X70742628Y-152414514D01*
X70713600Y-152472571D01*
X70684571Y-152501600D01*
X70626514Y-152530628D01*
X70539428Y-152530628D01*
X70481371Y-152501600D01*
X70452342Y-152472571D01*
X70423314Y-152414514D01*
X70423314Y-152182285D01*
X70452342Y-152791885D02*
X70452342Y-152995085D01*
X70133028Y-153082171D02*
X70133028Y-152791885D01*
X70742628Y-152791885D01*
X70742628Y-153082171D01*
X70162057Y-153314400D02*
X70133028Y-153401485D01*
X70133028Y-153546628D01*
X70162057Y-153604685D01*
X70191085Y-153633714D01*
X70249142Y-153662742D01*
X70307200Y-153662742D01*
X70365257Y-153633714D01*
X70394285Y-153604685D01*
X70423314Y-153546628D01*
X70452342Y-153430514D01*
X70481371Y-153372457D01*
X70510400Y-153343428D01*
X70568457Y-153314400D01*
X70626514Y-153314400D01*
X70684571Y-153343428D01*
X70713600Y-153372457D01*
X70742628Y-153430514D01*
X70742628Y-153575657D01*
X70713600Y-153662742D01*
X70452342Y-153924000D02*
X70452342Y-154127200D01*
X70133028Y-154214285D02*
X70133028Y-153924000D01*
X70742628Y-153924000D01*
X70742628Y-154214285D01*
X70742628Y-154388457D02*
X70742628Y-154736800D01*
X70133028Y-154562628D02*
X70742628Y-154562628D01*
%TO.C,J3*%
D10*
X101588819Y-146986666D02*
X100874533Y-146986666D01*
X100731676Y-146939047D01*
X100636438Y-146843809D01*
X100588819Y-146700952D01*
X100588819Y-146605714D01*
X101588819Y-147367619D02*
X101588819Y-147986666D01*
X101207866Y-147653333D01*
X101207866Y-147796190D01*
X101160247Y-147891428D01*
X101112628Y-147939047D01*
X101017390Y-147986666D01*
X100779295Y-147986666D01*
X100684057Y-147939047D01*
X100636438Y-147891428D01*
X100588819Y-147796190D01*
X100588819Y-147510476D01*
X100636438Y-147415238D01*
X100684057Y-147367619D01*
%TO.C,J2*%
D14*
X70408800Y-145538371D02*
X70408800Y-145973800D01*
X70379771Y-146060885D01*
X70321714Y-146118942D01*
X70234628Y-146147971D01*
X70176571Y-146147971D01*
X70670057Y-145596428D02*
X70699085Y-145567400D01*
X70757142Y-145538371D01*
X70902285Y-145538371D01*
X70960342Y-145567400D01*
X70989371Y-145596428D01*
X71018400Y-145654485D01*
X71018400Y-145712542D01*
X70989371Y-145799628D01*
X70641028Y-146147971D01*
X71018400Y-146147971D01*
%TO.C,D2*%
D10*
X95585019Y-149121904D02*
X96585019Y-149121904D01*
X96585019Y-149360000D01*
X96537400Y-149502857D01*
X96442161Y-149598095D01*
X96346923Y-149645714D01*
X96156447Y-149693333D01*
X96013590Y-149693333D01*
X95823114Y-149645714D01*
X95727876Y-149598095D01*
X95632638Y-149502857D01*
X95585019Y-149360000D01*
X95585019Y-149121904D01*
X96489780Y-150074285D02*
X96537400Y-150121904D01*
X96585019Y-150217142D01*
X96585019Y-150455238D01*
X96537400Y-150550476D01*
X96489780Y-150598095D01*
X96394542Y-150645714D01*
X96299304Y-150645714D01*
X96156447Y-150598095D01*
X95585019Y-150026666D01*
X95585019Y-150645714D01*
%TO.C,D1*%
X95559619Y-151560304D02*
X96559619Y-151560304D01*
X96559619Y-151798400D01*
X96512000Y-151941257D01*
X96416761Y-152036495D01*
X96321523Y-152084114D01*
X96131047Y-152131733D01*
X95988190Y-152131733D01*
X95797714Y-152084114D01*
X95702476Y-152036495D01*
X95607238Y-151941257D01*
X95559619Y-151798400D01*
X95559619Y-151560304D01*
X95559619Y-153084114D02*
X95559619Y-152512685D01*
X95559619Y-152798400D02*
X96559619Y-152798400D01*
X96416761Y-152703161D01*
X96321523Y-152607923D01*
X96273904Y-152512685D01*
%TD*%
M02*
