M48
; DRILL file {KiCad (5.1.9)-1} date 02/16/21 15:23:04
; FORMAT={-:-/ absolute / inch / decimal}
; #@! TF.CreationDate,2021-02-16T15:23:04+08:00
; #@! TF.GenerationSoftware,Kicad,Pcbnew,(5.1.9)-1
; #@! TF.FileFunction,Plated,1,2,PTH
FMAT,2
INCH
T1C0.0079
T2C0.0157
T3C0.0236
T4C0.0315
T5C0.0394
T6C0.0400
%
G90
G05
T1
X2.425Y-6.185
X2.595Y-6.14
X3.025Y-6.06
X3.175Y-5.775
X3.31Y-6.065
T2
X2.275Y-5.825
X2.275Y-6.075
X2.325Y-5.755
X2.325Y-6.145
X2.4Y-5.9
X2.44Y-6.145
X2.59Y-5.94
X2.5909Y-5.9801
X2.782Y-5.875
X2.782Y-6.008
X2.954Y-5.896
X3.0046Y-5.8996
X3.05Y-6.16
X3.075Y-5.865
X3.12Y-6.02
X3.1418Y-5.9
X3.191Y-5.95
X3.2034Y-5.7827
X3.31Y-5.95
X3.315Y-5.806
X3.35Y-6.0
X3.48Y-5.85
X3.567Y-5.884
X3.63Y-5.89
X3.6901Y-6.1369
X3.693Y-5.884
X3.7Y-5.78
X3.94Y-5.735
X3.9737Y-6.1137
T4
X3.41Y-5.8529
X3.41Y-6.045
T5
X3.87Y-5.8
X3.87Y-5.9
X3.87Y-6.0
X3.87Y-6.1
T6
X2.1Y-5.65
X2.1Y-6.25
X2.2Y-5.65
X2.2Y-6.25
X2.3Y-5.65
X2.3Y-6.25
X2.4Y-5.65
X2.4Y-6.25
X2.49Y-5.77
X2.49Y-5.87
X2.5Y-5.65
X2.5Y-6.25
X2.59Y-5.77
X2.59Y-5.87
X2.6Y-5.65
X2.6Y-6.25
X2.69Y-5.77
X2.69Y-5.87
X2.7Y-5.65
X2.7Y-6.25
X2.8Y-5.65
X2.8Y-6.25
X2.9Y-5.65
X2.9Y-6.25
X3.0Y-5.65
X3.0Y-6.25
X3.1Y-5.65
X3.1Y-6.25
X3.2Y-5.65
X3.2Y-6.25
X3.3Y-5.65
X3.3Y-6.25
X3.4Y-5.65
X3.4Y-6.25
X3.5Y-5.65
X3.5Y-6.25
X3.6Y-5.65
X3.6Y-6.25
X3.7Y-5.65
X3.7Y-6.25
X3.8Y-5.65
X3.8Y-6.25
X3.9Y-5.65
X3.9Y-6.25
X4.0Y-5.65
X4.0Y-6.25
T3
G00X2.0957Y-5.7551
M15
G01X2.0484Y-5.7551
M16
G05
G00X2.0957Y-6.1449
M15
G01X2.0484Y-6.1449
M16
G05
G00X2.2472Y-5.7551
M15
G01X2.2118Y-5.7551
M16
G05
G00X2.2472Y-6.1449
M15
G01X2.2118Y-6.1449
M16
G05
T0
M30
