%TF.GenerationSoftware,KiCad,Pcbnew,(5.1.9)-1*%
%TF.CreationDate,2021-02-16T15:18:36+08:00*%
%TF.ProjectId,STM32_Core_Board,53544d33-325f-4436-9f72-655f426f6172,rev?*%
%TF.SameCoordinates,Original*%
%TF.FileFunction,Legend,Bot*%
%TF.FilePolarity,Positive*%
%FSLAX46Y46*%
G04 Gerber Fmt 4.6, Leading zero omitted, Abs format (unit mm)*
G04 Created by KiCad (PCBNEW (5.1.9)-1) date 2021-02-16 15:18:36*
%MOMM*%
%LPD*%
G01*
G04 APERTURE LIST*
%ADD10C,0.120000*%
%ADD11C,0.203200*%
%ADD12C,0.150000*%
%ADD13C,0.127000*%
G04 APERTURE END LIST*
D10*
%TO.C,C14*%
X87235420Y-147068000D02*
X87516580Y-147068000D01*
X87235420Y-146048000D02*
X87516580Y-146048000D01*
%TO.C,C13*%
X87235420Y-156212000D02*
X87516580Y-156212000D01*
X87235420Y-155192000D02*
X87516580Y-155192000D01*
%TO.C,C12*%
X93292200Y-150989420D02*
X93292200Y-151270580D01*
X94312200Y-150989420D02*
X94312200Y-151270580D01*
%TO.C,C11*%
X90091800Y-150989420D02*
X90091800Y-151270580D01*
X91111800Y-150989420D02*
X91111800Y-151270580D01*
%TO.C,C10*%
X80237000Y-147200252D02*
X80237000Y-146677748D01*
X78767000Y-147200252D02*
X78767000Y-146677748D01*
%TO.C,C9*%
X99200580Y-156208000D02*
X98919420Y-156208000D01*
X99200580Y-157228000D02*
X98919420Y-157228000D01*
%TO.C,C8*%
X77599000Y-147079580D02*
X77599000Y-146798420D01*
X76579000Y-147079580D02*
X76579000Y-146798420D01*
%TO.C,C7*%
X68439420Y-154815000D02*
X68720580Y-154815000D01*
X68439420Y-153795000D02*
X68720580Y-153795000D01*
%TO.C,C6*%
X68841252Y-155475000D02*
X68318748Y-155475000D01*
X68841252Y-156945000D02*
X68318748Y-156945000D01*
%TO.C,C5*%
X68439420Y-153291000D02*
X68720580Y-153291000D01*
X68439420Y-152271000D02*
X68720580Y-152271000D01*
%TO.C,C4*%
X60450000Y-153758020D02*
X60450000Y-154039180D01*
X61470000Y-153758020D02*
X61470000Y-154039180D01*
%TO.C,C3*%
X79388580Y-150620000D02*
X79107420Y-150620000D01*
X79388580Y-151640000D02*
X79107420Y-151640000D01*
%TO.C,C2*%
X75551420Y-151640000D02*
X75832580Y-151640000D01*
X75551420Y-150620000D02*
X75832580Y-150620000D01*
%TO.C,C1*%
X60450000Y-147179420D02*
X60450000Y-147460580D01*
X61470000Y-147179420D02*
X61470000Y-147460580D01*
%TO.C,U2*%
X63870000Y-152441000D02*
X65670000Y-152441000D01*
X65670000Y-155661000D02*
X63220000Y-155661000D01*
%TO.C,R9*%
X88787500Y-151367258D02*
X88787500Y-150892742D01*
X87742500Y-151367258D02*
X87742500Y-150892742D01*
%TO.C,R8*%
X73293500Y-147176258D02*
X73293500Y-146701742D01*
X72248500Y-147176258D02*
X72248500Y-146701742D01*
%TO.C,R7*%
X76722500Y-155939258D02*
X76722500Y-155464742D01*
X75677500Y-155939258D02*
X75677500Y-155464742D01*
%TO.C,R6*%
X74690500Y-155939258D02*
X74690500Y-155464742D01*
X73645500Y-155939258D02*
X73645500Y-155464742D01*
%TO.C,R5*%
X72658500Y-155939258D02*
X72658500Y-155464742D01*
X71613500Y-155939258D02*
X71613500Y-155464742D01*
%TO.C,R4*%
X95489500Y-147082742D02*
X95489500Y-147557258D01*
X96534500Y-147082742D02*
X96534500Y-147557258D01*
%TO.C,R3*%
X96534500Y-155177258D02*
X96534500Y-154702742D01*
X95489500Y-155177258D02*
X95489500Y-154702742D01*
%TO.C,R2*%
X74407500Y-146701742D02*
X74407500Y-147176258D01*
X75452500Y-146701742D02*
X75452500Y-147176258D01*
%TO.C,R1*%
X80757500Y-155464742D02*
X80757500Y-155939258D01*
X81802500Y-155464742D02*
X81802500Y-155939258D01*
D11*
%TO.C,J5*%
X54610000Y-159385000D02*
X53975000Y-160020000D01*
X52705000Y-160020000D02*
X53975000Y-160020000D01*
X52070000Y-159385000D02*
X52705000Y-160020000D01*
X52070000Y-158115000D02*
X52070000Y-159385000D01*
X52705000Y-157480000D02*
X52070000Y-158115000D01*
X53975000Y-157480000D02*
X52705000Y-157480000D01*
X53975000Y-157480000D02*
X54610000Y-158115000D01*
X57150000Y-159385000D02*
X56515000Y-160020000D01*
X55245000Y-160020000D02*
X56515000Y-160020000D01*
X54610000Y-159385000D02*
X55245000Y-160020000D01*
X55245000Y-157480000D02*
X54610000Y-158115000D01*
X56515000Y-157480000D02*
X55245000Y-157480000D01*
X56515000Y-157480000D02*
X57150000Y-158115000D01*
X59690000Y-159385000D02*
X59055000Y-160020000D01*
X57785000Y-160020000D02*
X59055000Y-160020000D01*
X57150000Y-159385000D02*
X57785000Y-160020000D01*
X57785000Y-157480000D02*
X57150000Y-158115000D01*
X59055000Y-157480000D02*
X57785000Y-157480000D01*
X59055000Y-157480000D02*
X59690000Y-158115000D01*
X62230000Y-159385000D02*
X61595000Y-160020000D01*
X60325000Y-160020000D02*
X61595000Y-160020000D01*
X59690000Y-159385000D02*
X60325000Y-160020000D01*
X60325000Y-157480000D02*
X59690000Y-158115000D01*
X61595000Y-157480000D02*
X60325000Y-157480000D01*
X61595000Y-157480000D02*
X62230000Y-158115000D01*
X64770000Y-159385000D02*
X64135000Y-160020000D01*
X62865000Y-160020000D02*
X64135000Y-160020000D01*
X62230000Y-159385000D02*
X62865000Y-160020000D01*
X62865000Y-157480000D02*
X62230000Y-158115000D01*
X64135000Y-157480000D02*
X62865000Y-157480000D01*
X64135000Y-157480000D02*
X64770000Y-158115000D01*
X67310000Y-159385000D02*
X66675000Y-160020000D01*
X65405000Y-160020000D02*
X66675000Y-160020000D01*
X64770000Y-159385000D02*
X65405000Y-160020000D01*
X65405000Y-157480000D02*
X64770000Y-158115000D01*
X66675000Y-157480000D02*
X65405000Y-157480000D01*
X66675000Y-157480000D02*
X67310000Y-158115000D01*
X83185000Y-160020000D02*
X84455000Y-160020000D01*
X85090000Y-159385000D02*
X84455000Y-160020000D01*
X84455000Y-157480000D02*
X85090000Y-158115000D01*
X81915000Y-160020000D02*
X82550000Y-159385000D01*
X80645000Y-160020000D02*
X81915000Y-160020000D01*
X80010000Y-159385000D02*
X80645000Y-160020000D01*
X80645000Y-157480000D02*
X80010000Y-158115000D01*
X81915000Y-157480000D02*
X80645000Y-157480000D01*
X82550000Y-158115000D02*
X81915000Y-157480000D01*
X82550000Y-159385000D02*
X83185000Y-160020000D01*
X83185000Y-157480000D02*
X82550000Y-158115000D01*
X84455000Y-157480000D02*
X83185000Y-157480000D01*
X75565000Y-160020000D02*
X76835000Y-160020000D01*
X77470000Y-159385000D02*
X76835000Y-160020000D01*
X76835000Y-157480000D02*
X77470000Y-158115000D01*
X79375000Y-160020000D02*
X80010000Y-159385000D01*
X78105000Y-160020000D02*
X79375000Y-160020000D01*
X77470000Y-159385000D02*
X78105000Y-160020000D01*
X78105000Y-157480000D02*
X77470000Y-158115000D01*
X79375000Y-157480000D02*
X78105000Y-157480000D01*
X80010000Y-158115000D02*
X79375000Y-157480000D01*
X74295000Y-160020000D02*
X74930000Y-159385000D01*
X73025000Y-160020000D02*
X74295000Y-160020000D01*
X72390000Y-159385000D02*
X73025000Y-160020000D01*
X73025000Y-157480000D02*
X72390000Y-158115000D01*
X74295000Y-157480000D02*
X73025000Y-157480000D01*
X74930000Y-158115000D02*
X74295000Y-157480000D01*
X74930000Y-159385000D02*
X75565000Y-160020000D01*
X75565000Y-157480000D02*
X74930000Y-158115000D01*
X76835000Y-157480000D02*
X75565000Y-157480000D01*
X67945000Y-160020000D02*
X69215000Y-160020000D01*
X69850000Y-159385000D02*
X69215000Y-160020000D01*
X69215000Y-157480000D02*
X69850000Y-158115000D01*
X71755000Y-160020000D02*
X72390000Y-159385000D01*
X70485000Y-160020000D02*
X71755000Y-160020000D01*
X69850000Y-159385000D02*
X70485000Y-160020000D01*
X70485000Y-157480000D02*
X69850000Y-158115000D01*
X71755000Y-157480000D02*
X70485000Y-157480000D01*
X72390000Y-158115000D02*
X71755000Y-157480000D01*
X67310000Y-159385000D02*
X67945000Y-160020000D01*
X67945000Y-157480000D02*
X67310000Y-158115000D01*
X69215000Y-157480000D02*
X67945000Y-157480000D01*
X100965000Y-160020000D02*
X102235000Y-160020000D01*
X102870000Y-159385000D02*
X102235000Y-160020000D01*
X102235000Y-157480000D02*
X102870000Y-158115000D01*
X102870000Y-158115000D02*
X102870000Y-159385000D01*
X99695000Y-160020000D02*
X100330000Y-159385000D01*
X98425000Y-160020000D02*
X99695000Y-160020000D01*
X97790000Y-159385000D02*
X98425000Y-160020000D01*
X98425000Y-157480000D02*
X97790000Y-158115000D01*
X99695000Y-157480000D02*
X98425000Y-157480000D01*
X100330000Y-158115000D02*
X99695000Y-157480000D01*
X100330000Y-159385000D02*
X100965000Y-160020000D01*
X100965000Y-157480000D02*
X100330000Y-158115000D01*
X102235000Y-157480000D02*
X100965000Y-157480000D01*
X93345000Y-160020000D02*
X94615000Y-160020000D01*
X95250000Y-159385000D02*
X94615000Y-160020000D01*
X94615000Y-157480000D02*
X95250000Y-158115000D01*
X97155000Y-160020000D02*
X97790000Y-159385000D01*
X95885000Y-160020000D02*
X97155000Y-160020000D01*
X95250000Y-159385000D02*
X95885000Y-160020000D01*
X95885000Y-157480000D02*
X95250000Y-158115000D01*
X97155000Y-157480000D02*
X95885000Y-157480000D01*
X97790000Y-158115000D02*
X97155000Y-157480000D01*
X92075000Y-160020000D02*
X92710000Y-159385000D01*
X90805000Y-160020000D02*
X92075000Y-160020000D01*
X90170000Y-159385000D02*
X90805000Y-160020000D01*
X90805000Y-157480000D02*
X90170000Y-158115000D01*
X92075000Y-157480000D02*
X90805000Y-157480000D01*
X92710000Y-158115000D02*
X92075000Y-157480000D01*
X92710000Y-159385000D02*
X93345000Y-160020000D01*
X93345000Y-157480000D02*
X92710000Y-158115000D01*
X94615000Y-157480000D02*
X93345000Y-157480000D01*
X85725000Y-160020000D02*
X86995000Y-160020000D01*
X87630000Y-159385000D02*
X86995000Y-160020000D01*
X86995000Y-157480000D02*
X87630000Y-158115000D01*
X89535000Y-160020000D02*
X90170000Y-159385000D01*
X88265000Y-160020000D02*
X89535000Y-160020000D01*
X87630000Y-159385000D02*
X88265000Y-160020000D01*
X88265000Y-157480000D02*
X87630000Y-158115000D01*
X89535000Y-157480000D02*
X88265000Y-157480000D01*
X90170000Y-158115000D02*
X89535000Y-157480000D01*
X85090000Y-159385000D02*
X85725000Y-160020000D01*
X85725000Y-157480000D02*
X85090000Y-158115000D01*
X86995000Y-157480000D02*
X85725000Y-157480000D01*
%TO.C,J4*%
X54610000Y-144145000D02*
X53975000Y-144780000D01*
X52705000Y-144780000D02*
X53975000Y-144780000D01*
X52070000Y-144145000D02*
X52705000Y-144780000D01*
X52070000Y-142875000D02*
X52070000Y-144145000D01*
X52705000Y-142240000D02*
X52070000Y-142875000D01*
X53975000Y-142240000D02*
X52705000Y-142240000D01*
X53975000Y-142240000D02*
X54610000Y-142875000D01*
X57150000Y-144145000D02*
X56515000Y-144780000D01*
X55245000Y-144780000D02*
X56515000Y-144780000D01*
X54610000Y-144145000D02*
X55245000Y-144780000D01*
X55245000Y-142240000D02*
X54610000Y-142875000D01*
X56515000Y-142240000D02*
X55245000Y-142240000D01*
X56515000Y-142240000D02*
X57150000Y-142875000D01*
X59690000Y-144145000D02*
X59055000Y-144780000D01*
X57785000Y-144780000D02*
X59055000Y-144780000D01*
X57150000Y-144145000D02*
X57785000Y-144780000D01*
X57785000Y-142240000D02*
X57150000Y-142875000D01*
X59055000Y-142240000D02*
X57785000Y-142240000D01*
X59055000Y-142240000D02*
X59690000Y-142875000D01*
X62230000Y-144145000D02*
X61595000Y-144780000D01*
X60325000Y-144780000D02*
X61595000Y-144780000D01*
X59690000Y-144145000D02*
X60325000Y-144780000D01*
X60325000Y-142240000D02*
X59690000Y-142875000D01*
X61595000Y-142240000D02*
X60325000Y-142240000D01*
X61595000Y-142240000D02*
X62230000Y-142875000D01*
X64770000Y-144145000D02*
X64135000Y-144780000D01*
X62865000Y-144780000D02*
X64135000Y-144780000D01*
X62230000Y-144145000D02*
X62865000Y-144780000D01*
X62865000Y-142240000D02*
X62230000Y-142875000D01*
X64135000Y-142240000D02*
X62865000Y-142240000D01*
X64135000Y-142240000D02*
X64770000Y-142875000D01*
X67310000Y-144145000D02*
X66675000Y-144780000D01*
X65405000Y-144780000D02*
X66675000Y-144780000D01*
X64770000Y-144145000D02*
X65405000Y-144780000D01*
X65405000Y-142240000D02*
X64770000Y-142875000D01*
X66675000Y-142240000D02*
X65405000Y-142240000D01*
X66675000Y-142240000D02*
X67310000Y-142875000D01*
X83185000Y-144780000D02*
X84455000Y-144780000D01*
X85090000Y-144145000D02*
X84455000Y-144780000D01*
X84455000Y-142240000D02*
X85090000Y-142875000D01*
X81915000Y-144780000D02*
X82550000Y-144145000D01*
X80645000Y-144780000D02*
X81915000Y-144780000D01*
X80010000Y-144145000D02*
X80645000Y-144780000D01*
X80645000Y-142240000D02*
X80010000Y-142875000D01*
X81915000Y-142240000D02*
X80645000Y-142240000D01*
X82550000Y-142875000D02*
X81915000Y-142240000D01*
X82550000Y-144145000D02*
X83185000Y-144780000D01*
X83185000Y-142240000D02*
X82550000Y-142875000D01*
X84455000Y-142240000D02*
X83185000Y-142240000D01*
X75565000Y-144780000D02*
X76835000Y-144780000D01*
X77470000Y-144145000D02*
X76835000Y-144780000D01*
X76835000Y-142240000D02*
X77470000Y-142875000D01*
X79375000Y-144780000D02*
X80010000Y-144145000D01*
X78105000Y-144780000D02*
X79375000Y-144780000D01*
X77470000Y-144145000D02*
X78105000Y-144780000D01*
X78105000Y-142240000D02*
X77470000Y-142875000D01*
X79375000Y-142240000D02*
X78105000Y-142240000D01*
X80010000Y-142875000D02*
X79375000Y-142240000D01*
X74295000Y-144780000D02*
X74930000Y-144145000D01*
X73025000Y-144780000D02*
X74295000Y-144780000D01*
X72390000Y-144145000D02*
X73025000Y-144780000D01*
X73025000Y-142240000D02*
X72390000Y-142875000D01*
X74295000Y-142240000D02*
X73025000Y-142240000D01*
X74930000Y-142875000D02*
X74295000Y-142240000D01*
X74930000Y-144145000D02*
X75565000Y-144780000D01*
X75565000Y-142240000D02*
X74930000Y-142875000D01*
X76835000Y-142240000D02*
X75565000Y-142240000D01*
X67945000Y-144780000D02*
X69215000Y-144780000D01*
X69850000Y-144145000D02*
X69215000Y-144780000D01*
X69215000Y-142240000D02*
X69850000Y-142875000D01*
X71755000Y-144780000D02*
X72390000Y-144145000D01*
X70485000Y-144780000D02*
X71755000Y-144780000D01*
X69850000Y-144145000D02*
X70485000Y-144780000D01*
X70485000Y-142240000D02*
X69850000Y-142875000D01*
X71755000Y-142240000D02*
X70485000Y-142240000D01*
X72390000Y-142875000D02*
X71755000Y-142240000D01*
X67310000Y-144145000D02*
X67945000Y-144780000D01*
X67945000Y-142240000D02*
X67310000Y-142875000D01*
X69215000Y-142240000D02*
X67945000Y-142240000D01*
X100965000Y-144780000D02*
X102235000Y-144780000D01*
X102870000Y-144145000D02*
X102235000Y-144780000D01*
X102235000Y-142240000D02*
X102870000Y-142875000D01*
X102870000Y-142875000D02*
X102870000Y-144145000D01*
X99695000Y-144780000D02*
X100330000Y-144145000D01*
X98425000Y-144780000D02*
X99695000Y-144780000D01*
X97790000Y-144145000D02*
X98425000Y-144780000D01*
X98425000Y-142240000D02*
X97790000Y-142875000D01*
X99695000Y-142240000D02*
X98425000Y-142240000D01*
X100330000Y-142875000D02*
X99695000Y-142240000D01*
X100330000Y-144145000D02*
X100965000Y-144780000D01*
X100965000Y-142240000D02*
X100330000Y-142875000D01*
X102235000Y-142240000D02*
X100965000Y-142240000D01*
X93345000Y-144780000D02*
X94615000Y-144780000D01*
X95250000Y-144145000D02*
X94615000Y-144780000D01*
X94615000Y-142240000D02*
X95250000Y-142875000D01*
X97155000Y-144780000D02*
X97790000Y-144145000D01*
X95885000Y-144780000D02*
X97155000Y-144780000D01*
X95250000Y-144145000D02*
X95885000Y-144780000D01*
X95885000Y-142240000D02*
X95250000Y-142875000D01*
X97155000Y-142240000D02*
X95885000Y-142240000D01*
X97790000Y-142875000D02*
X97155000Y-142240000D01*
X92075000Y-144780000D02*
X92710000Y-144145000D01*
X90805000Y-144780000D02*
X92075000Y-144780000D01*
X90170000Y-144145000D02*
X90805000Y-144780000D01*
X90805000Y-142240000D02*
X90170000Y-142875000D01*
X92075000Y-142240000D02*
X90805000Y-142240000D01*
X92710000Y-142875000D02*
X92075000Y-142240000D01*
X92710000Y-144145000D02*
X93345000Y-144780000D01*
X93345000Y-142240000D02*
X92710000Y-142875000D01*
X94615000Y-142240000D02*
X93345000Y-142240000D01*
X85725000Y-144780000D02*
X86995000Y-144780000D01*
X87630000Y-144145000D02*
X86995000Y-144780000D01*
X86995000Y-142240000D02*
X87630000Y-142875000D01*
X89535000Y-144780000D02*
X90170000Y-144145000D01*
X88265000Y-144780000D02*
X89535000Y-144780000D01*
X87630000Y-144145000D02*
X88265000Y-144780000D01*
X88265000Y-142240000D02*
X87630000Y-142875000D01*
X89535000Y-142240000D02*
X88265000Y-142240000D01*
X90170000Y-142875000D02*
X89535000Y-142240000D01*
X85090000Y-144145000D02*
X85725000Y-144780000D01*
X85725000Y-142240000D02*
X85090000Y-142875000D01*
X86995000Y-142240000D02*
X85725000Y-142240000D01*
%TO.C,C14*%
D12*
X85269342Y-145915142D02*
X85316961Y-145867523D01*
X85364580Y-145724666D01*
X85364580Y-145629428D01*
X85316961Y-145486571D01*
X85221723Y-145391333D01*
X85126485Y-145343714D01*
X84936009Y-145296095D01*
X84793152Y-145296095D01*
X84602676Y-145343714D01*
X84507438Y-145391333D01*
X84412200Y-145486571D01*
X84364580Y-145629428D01*
X84364580Y-145724666D01*
X84412200Y-145867523D01*
X84459819Y-145915142D01*
X85364580Y-146867523D02*
X85364580Y-146296095D01*
X85364580Y-146581809D02*
X84364580Y-146581809D01*
X84507438Y-146486571D01*
X84602676Y-146391333D01*
X84650295Y-146296095D01*
X84697914Y-147724666D02*
X85364580Y-147724666D01*
X84316961Y-147486571D02*
X85031247Y-147248476D01*
X85031247Y-147867523D01*
%TO.C,C13*%
X85370942Y-155059142D02*
X85418561Y-155011523D01*
X85466180Y-154868666D01*
X85466180Y-154773428D01*
X85418561Y-154630571D01*
X85323323Y-154535333D01*
X85228085Y-154487714D01*
X85037609Y-154440095D01*
X84894752Y-154440095D01*
X84704276Y-154487714D01*
X84609038Y-154535333D01*
X84513800Y-154630571D01*
X84466180Y-154773428D01*
X84466180Y-154868666D01*
X84513800Y-155011523D01*
X84561419Y-155059142D01*
X85466180Y-156011523D02*
X85466180Y-155440095D01*
X85466180Y-155725809D02*
X84466180Y-155725809D01*
X84609038Y-155630571D01*
X84704276Y-155535333D01*
X84751895Y-155440095D01*
X84466180Y-156344857D02*
X84466180Y-156963904D01*
X84847133Y-156630571D01*
X84847133Y-156773428D01*
X84894752Y-156868666D01*
X84942371Y-156916285D01*
X85037609Y-156963904D01*
X85275704Y-156963904D01*
X85370942Y-156916285D01*
X85418561Y-156868666D01*
X85466180Y-156773428D01*
X85466180Y-156487714D01*
X85418561Y-156392476D01*
X85370942Y-156344857D01*
%TO.C,C12*%
X94159342Y-147667742D02*
X94206961Y-147620123D01*
X94254580Y-147477266D01*
X94254580Y-147382028D01*
X94206961Y-147239171D01*
X94111723Y-147143933D01*
X94016485Y-147096314D01*
X93826009Y-147048695D01*
X93683152Y-147048695D01*
X93492676Y-147096314D01*
X93397438Y-147143933D01*
X93302200Y-147239171D01*
X93254580Y-147382028D01*
X93254580Y-147477266D01*
X93302200Y-147620123D01*
X93349819Y-147667742D01*
X94254580Y-148620123D02*
X94254580Y-148048695D01*
X94254580Y-148334409D02*
X93254580Y-148334409D01*
X93397438Y-148239171D01*
X93492676Y-148143933D01*
X93540295Y-148048695D01*
X93349819Y-149001076D02*
X93302200Y-149048695D01*
X93254580Y-149143933D01*
X93254580Y-149382028D01*
X93302200Y-149477266D01*
X93349819Y-149524885D01*
X93445057Y-149572504D01*
X93540295Y-149572504D01*
X93683152Y-149524885D01*
X94254580Y-148953457D01*
X94254580Y-149572504D01*
%TO.C,C11*%
X90933542Y-147667742D02*
X90981161Y-147620123D01*
X91028780Y-147477266D01*
X91028780Y-147382028D01*
X90981161Y-147239171D01*
X90885923Y-147143933D01*
X90790685Y-147096314D01*
X90600209Y-147048695D01*
X90457352Y-147048695D01*
X90266876Y-147096314D01*
X90171638Y-147143933D01*
X90076400Y-147239171D01*
X90028780Y-147382028D01*
X90028780Y-147477266D01*
X90076400Y-147620123D01*
X90124019Y-147667742D01*
X91028780Y-148620123D02*
X91028780Y-148048695D01*
X91028780Y-148334409D02*
X90028780Y-148334409D01*
X90171638Y-148239171D01*
X90266876Y-148143933D01*
X90314495Y-148048695D01*
X91028780Y-149572504D02*
X91028780Y-149001076D01*
X91028780Y-149286790D02*
X90028780Y-149286790D01*
X90171638Y-149191552D01*
X90266876Y-149096314D01*
X90314495Y-149001076D01*
%TO.C,C10*%
X81764142Y-146016742D02*
X81811761Y-145969123D01*
X81859380Y-145826266D01*
X81859380Y-145731028D01*
X81811761Y-145588171D01*
X81716523Y-145492933D01*
X81621285Y-145445314D01*
X81430809Y-145397695D01*
X81287952Y-145397695D01*
X81097476Y-145445314D01*
X81002238Y-145492933D01*
X80907000Y-145588171D01*
X80859380Y-145731028D01*
X80859380Y-145826266D01*
X80907000Y-145969123D01*
X80954619Y-146016742D01*
X81859380Y-146969123D02*
X81859380Y-146397695D01*
X81859380Y-146683409D02*
X80859380Y-146683409D01*
X81002238Y-146588171D01*
X81097476Y-146492933D01*
X81145095Y-146397695D01*
X80859380Y-147588171D02*
X80859380Y-147683409D01*
X80907000Y-147778647D01*
X80954619Y-147826266D01*
X81049857Y-147873885D01*
X81240333Y-147921504D01*
X81478428Y-147921504D01*
X81668904Y-147873885D01*
X81764142Y-147826266D01*
X81811761Y-147778647D01*
X81859380Y-147683409D01*
X81859380Y-147588171D01*
X81811761Y-147492933D01*
X81764142Y-147445314D01*
X81668904Y-147397695D01*
X81478428Y-147350076D01*
X81240333Y-147350076D01*
X81049857Y-147397695D01*
X80954619Y-147445314D01*
X80907000Y-147492933D01*
X80859380Y-147588171D01*
%TO.C,C9*%
X100382342Y-154849533D02*
X100429961Y-154801914D01*
X100477580Y-154659057D01*
X100477580Y-154563819D01*
X100429961Y-154420961D01*
X100334723Y-154325723D01*
X100239485Y-154278104D01*
X100049009Y-154230485D01*
X99906152Y-154230485D01*
X99715676Y-154278104D01*
X99620438Y-154325723D01*
X99525200Y-154420961D01*
X99477580Y-154563819D01*
X99477580Y-154659057D01*
X99525200Y-154801914D01*
X99572819Y-154849533D01*
X100477580Y-155325723D02*
X100477580Y-155516200D01*
X100429961Y-155611438D01*
X100382342Y-155659057D01*
X100239485Y-155754295D01*
X100049009Y-155801914D01*
X99668057Y-155801914D01*
X99572819Y-155754295D01*
X99525200Y-155706676D01*
X99477580Y-155611438D01*
X99477580Y-155420961D01*
X99525200Y-155325723D01*
X99572819Y-155278104D01*
X99668057Y-155230485D01*
X99906152Y-155230485D01*
X100001390Y-155278104D01*
X100049009Y-155325723D01*
X100096628Y-155420961D01*
X100096628Y-155611438D01*
X100049009Y-155706676D01*
X100001390Y-155754295D01*
X99906152Y-155801914D01*
%TO.C,C8*%
X77446142Y-149109133D02*
X77493761Y-149061514D01*
X77541380Y-148918657D01*
X77541380Y-148823419D01*
X77493761Y-148680561D01*
X77398523Y-148585323D01*
X77303285Y-148537704D01*
X77112809Y-148490085D01*
X76969952Y-148490085D01*
X76779476Y-148537704D01*
X76684238Y-148585323D01*
X76589000Y-148680561D01*
X76541380Y-148823419D01*
X76541380Y-148918657D01*
X76589000Y-149061514D01*
X76636619Y-149109133D01*
X76969952Y-149680561D02*
X76922333Y-149585323D01*
X76874714Y-149537704D01*
X76779476Y-149490085D01*
X76731857Y-149490085D01*
X76636619Y-149537704D01*
X76589000Y-149585323D01*
X76541380Y-149680561D01*
X76541380Y-149871038D01*
X76589000Y-149966276D01*
X76636619Y-150013895D01*
X76731857Y-150061514D01*
X76779476Y-150061514D01*
X76874714Y-150013895D01*
X76922333Y-149966276D01*
X76969952Y-149871038D01*
X76969952Y-149680561D01*
X77017571Y-149585323D01*
X77065190Y-149537704D01*
X77160428Y-149490085D01*
X77350904Y-149490085D01*
X77446142Y-149537704D01*
X77493761Y-149585323D01*
X77541380Y-149680561D01*
X77541380Y-149871038D01*
X77493761Y-149966276D01*
X77446142Y-150013895D01*
X77350904Y-150061514D01*
X77160428Y-150061514D01*
X77065190Y-150013895D01*
X77017571Y-149966276D01*
X76969952Y-149871038D01*
%TO.C,C7*%
X70956466Y-154662142D02*
X71004085Y-154709761D01*
X71146942Y-154757380D01*
X71242180Y-154757380D01*
X71385038Y-154709761D01*
X71480276Y-154614523D01*
X71527895Y-154519285D01*
X71575514Y-154328809D01*
X71575514Y-154185952D01*
X71527895Y-153995476D01*
X71480276Y-153900238D01*
X71385038Y-153805000D01*
X71242180Y-153757380D01*
X71146942Y-153757380D01*
X71004085Y-153805000D01*
X70956466Y-153852619D01*
X70623133Y-153757380D02*
X69956466Y-153757380D01*
X70385038Y-154757380D01*
%TO.C,C6*%
X66181266Y-156770342D02*
X66228885Y-156817961D01*
X66371742Y-156865580D01*
X66466980Y-156865580D01*
X66609838Y-156817961D01*
X66705076Y-156722723D01*
X66752695Y-156627485D01*
X66800314Y-156437009D01*
X66800314Y-156294152D01*
X66752695Y-156103676D01*
X66705076Y-156008438D01*
X66609838Y-155913200D01*
X66466980Y-155865580D01*
X66371742Y-155865580D01*
X66228885Y-155913200D01*
X66181266Y-155960819D01*
X65324123Y-155865580D02*
X65514600Y-155865580D01*
X65609838Y-155913200D01*
X65657457Y-155960819D01*
X65752695Y-156103676D01*
X65800314Y-156294152D01*
X65800314Y-156675104D01*
X65752695Y-156770342D01*
X65705076Y-156817961D01*
X65609838Y-156865580D01*
X65419361Y-156865580D01*
X65324123Y-156817961D01*
X65276504Y-156770342D01*
X65228885Y-156675104D01*
X65228885Y-156437009D01*
X65276504Y-156341771D01*
X65324123Y-156294152D01*
X65419361Y-156246533D01*
X65609838Y-156246533D01*
X65705076Y-156294152D01*
X65752695Y-156341771D01*
X65800314Y-156437009D01*
%TO.C,C5*%
X70956466Y-153138142D02*
X71004085Y-153185761D01*
X71146942Y-153233380D01*
X71242180Y-153233380D01*
X71385038Y-153185761D01*
X71480276Y-153090523D01*
X71527895Y-152995285D01*
X71575514Y-152804809D01*
X71575514Y-152661952D01*
X71527895Y-152471476D01*
X71480276Y-152376238D01*
X71385038Y-152281000D01*
X71242180Y-152233380D01*
X71146942Y-152233380D01*
X71004085Y-152281000D01*
X70956466Y-152328619D01*
X70051704Y-152233380D02*
X70527895Y-152233380D01*
X70575514Y-152709571D01*
X70527895Y-152661952D01*
X70432657Y-152614333D01*
X70194561Y-152614333D01*
X70099323Y-152661952D01*
X70051704Y-152709571D01*
X70004085Y-152804809D01*
X70004085Y-153042904D01*
X70051704Y-153138142D01*
X70099323Y-153185761D01*
X70194561Y-153233380D01*
X70432657Y-153233380D01*
X70527895Y-153185761D01*
X70575514Y-153138142D01*
%TO.C,C4*%
X59887142Y-153731933D02*
X59934761Y-153684314D01*
X59982380Y-153541457D01*
X59982380Y-153446219D01*
X59934761Y-153303361D01*
X59839523Y-153208123D01*
X59744285Y-153160504D01*
X59553809Y-153112885D01*
X59410952Y-153112885D01*
X59220476Y-153160504D01*
X59125238Y-153208123D01*
X59030000Y-153303361D01*
X58982380Y-153446219D01*
X58982380Y-153541457D01*
X59030000Y-153684314D01*
X59077619Y-153731933D01*
X59315714Y-154589076D02*
X59982380Y-154589076D01*
X58934761Y-154350980D02*
X59649047Y-154112885D01*
X59649047Y-154731933D01*
%TO.C,C3*%
X79579742Y-152812333D02*
X79627361Y-152764714D01*
X79674980Y-152621857D01*
X79674980Y-152526619D01*
X79627361Y-152383761D01*
X79532123Y-152288523D01*
X79436885Y-152240904D01*
X79246409Y-152193285D01*
X79103552Y-152193285D01*
X78913076Y-152240904D01*
X78817838Y-152288523D01*
X78722600Y-152383761D01*
X78674980Y-152526619D01*
X78674980Y-152621857D01*
X78722600Y-152764714D01*
X78770219Y-152812333D01*
X78674980Y-153145666D02*
X78674980Y-153764714D01*
X79055933Y-153431380D01*
X79055933Y-153574238D01*
X79103552Y-153669476D01*
X79151171Y-153717095D01*
X79246409Y-153764714D01*
X79484504Y-153764714D01*
X79579742Y-153717095D01*
X79627361Y-153669476D01*
X79674980Y-153574238D01*
X79674980Y-153288523D01*
X79627361Y-153193285D01*
X79579742Y-153145666D01*
%TO.C,C2*%
X76049142Y-152812333D02*
X76096761Y-152764714D01*
X76144380Y-152621857D01*
X76144380Y-152526619D01*
X76096761Y-152383761D01*
X76001523Y-152288523D01*
X75906285Y-152240904D01*
X75715809Y-152193285D01*
X75572952Y-152193285D01*
X75382476Y-152240904D01*
X75287238Y-152288523D01*
X75192000Y-152383761D01*
X75144380Y-152526619D01*
X75144380Y-152621857D01*
X75192000Y-152764714D01*
X75239619Y-152812333D01*
X75239619Y-153193285D02*
X75192000Y-153240904D01*
X75144380Y-153336142D01*
X75144380Y-153574238D01*
X75192000Y-153669476D01*
X75239619Y-153717095D01*
X75334857Y-153764714D01*
X75430095Y-153764714D01*
X75572952Y-153717095D01*
X76144380Y-153145666D01*
X76144380Y-153764714D01*
%TO.C,C1*%
X59887142Y-147153333D02*
X59934761Y-147105714D01*
X59982380Y-146962857D01*
X59982380Y-146867619D01*
X59934761Y-146724761D01*
X59839523Y-146629523D01*
X59744285Y-146581904D01*
X59553809Y-146534285D01*
X59410952Y-146534285D01*
X59220476Y-146581904D01*
X59125238Y-146629523D01*
X59030000Y-146724761D01*
X58982380Y-146867619D01*
X58982380Y-146962857D01*
X59030000Y-147105714D01*
X59077619Y-147153333D01*
X59982380Y-148105714D02*
X59982380Y-147534285D01*
X59982380Y-147820000D02*
X58982380Y-147820000D01*
X59125238Y-147724761D01*
X59220476Y-147629523D01*
X59268095Y-147534285D01*
%TO.C,U2*%
X61834780Y-153289095D02*
X62644304Y-153289095D01*
X62739542Y-153336714D01*
X62787161Y-153384333D01*
X62834780Y-153479571D01*
X62834780Y-153670047D01*
X62787161Y-153765285D01*
X62739542Y-153812904D01*
X62644304Y-153860523D01*
X61834780Y-153860523D01*
X61930019Y-154289095D02*
X61882400Y-154336714D01*
X61834780Y-154431952D01*
X61834780Y-154670047D01*
X61882400Y-154765285D01*
X61930019Y-154812904D01*
X62025257Y-154860523D01*
X62120495Y-154860523D01*
X62263352Y-154812904D01*
X62834780Y-154241476D01*
X62834780Y-154860523D01*
%TO.C,R9*%
X88717380Y-148651933D02*
X88241190Y-148318600D01*
X88717380Y-148080504D02*
X87717380Y-148080504D01*
X87717380Y-148461457D01*
X87765000Y-148556695D01*
X87812619Y-148604314D01*
X87907857Y-148651933D01*
X88050714Y-148651933D01*
X88145952Y-148604314D01*
X88193571Y-148556695D01*
X88241190Y-148461457D01*
X88241190Y-148080504D01*
X88717380Y-149128123D02*
X88717380Y-149318600D01*
X88669761Y-149413838D01*
X88622142Y-149461457D01*
X88479285Y-149556695D01*
X88288809Y-149604314D01*
X87907857Y-149604314D01*
X87812619Y-149556695D01*
X87765000Y-149509076D01*
X87717380Y-149413838D01*
X87717380Y-149223361D01*
X87765000Y-149128123D01*
X87812619Y-149080504D01*
X87907857Y-149032885D01*
X88145952Y-149032885D01*
X88241190Y-149080504D01*
X88288809Y-149128123D01*
X88336428Y-149223361D01*
X88336428Y-149413838D01*
X88288809Y-149509076D01*
X88241190Y-149556695D01*
X88145952Y-149604314D01*
%TO.C,R8*%
X73223380Y-149083733D02*
X72747190Y-148750400D01*
X73223380Y-148512304D02*
X72223380Y-148512304D01*
X72223380Y-148893257D01*
X72271000Y-148988495D01*
X72318619Y-149036114D01*
X72413857Y-149083733D01*
X72556714Y-149083733D01*
X72651952Y-149036114D01*
X72699571Y-148988495D01*
X72747190Y-148893257D01*
X72747190Y-148512304D01*
X72651952Y-149655161D02*
X72604333Y-149559923D01*
X72556714Y-149512304D01*
X72461476Y-149464685D01*
X72413857Y-149464685D01*
X72318619Y-149512304D01*
X72271000Y-149559923D01*
X72223380Y-149655161D01*
X72223380Y-149845638D01*
X72271000Y-149940876D01*
X72318619Y-149988495D01*
X72413857Y-150036114D01*
X72461476Y-150036114D01*
X72556714Y-149988495D01*
X72604333Y-149940876D01*
X72651952Y-149845638D01*
X72651952Y-149655161D01*
X72699571Y-149559923D01*
X72747190Y-149512304D01*
X72842428Y-149464685D01*
X73032904Y-149464685D01*
X73128142Y-149512304D01*
X73175761Y-149559923D01*
X73223380Y-149655161D01*
X73223380Y-149845638D01*
X73175761Y-149940876D01*
X73128142Y-149988495D01*
X73032904Y-150036114D01*
X72842428Y-150036114D01*
X72747190Y-149988495D01*
X72699571Y-149940876D01*
X72651952Y-149845638D01*
%TO.C,R7*%
X78082380Y-155535333D02*
X77606190Y-155202000D01*
X78082380Y-154963904D02*
X77082380Y-154963904D01*
X77082380Y-155344857D01*
X77130000Y-155440095D01*
X77177619Y-155487714D01*
X77272857Y-155535333D01*
X77415714Y-155535333D01*
X77510952Y-155487714D01*
X77558571Y-155440095D01*
X77606190Y-155344857D01*
X77606190Y-154963904D01*
X77082380Y-155868666D02*
X77082380Y-156535333D01*
X78082380Y-156106761D01*
%TO.C,R6*%
X74620380Y-153147733D02*
X74144190Y-152814400D01*
X74620380Y-152576304D02*
X73620380Y-152576304D01*
X73620380Y-152957257D01*
X73668000Y-153052495D01*
X73715619Y-153100114D01*
X73810857Y-153147733D01*
X73953714Y-153147733D01*
X74048952Y-153100114D01*
X74096571Y-153052495D01*
X74144190Y-152957257D01*
X74144190Y-152576304D01*
X73620380Y-154004876D02*
X73620380Y-153814400D01*
X73668000Y-153719161D01*
X73715619Y-153671542D01*
X73858476Y-153576304D01*
X74048952Y-153528685D01*
X74429904Y-153528685D01*
X74525142Y-153576304D01*
X74572761Y-153623923D01*
X74620380Y-153719161D01*
X74620380Y-153909638D01*
X74572761Y-154004876D01*
X74525142Y-154052495D01*
X74429904Y-154100114D01*
X74191809Y-154100114D01*
X74096571Y-154052495D01*
X74048952Y-154004876D01*
X74001333Y-153909638D01*
X74001333Y-153719161D01*
X74048952Y-153623923D01*
X74096571Y-153576304D01*
X74191809Y-153528685D01*
%TO.C,R5*%
X72893180Y-153147733D02*
X72416990Y-152814400D01*
X72893180Y-152576304D02*
X71893180Y-152576304D01*
X71893180Y-152957257D01*
X71940800Y-153052495D01*
X71988419Y-153100114D01*
X72083657Y-153147733D01*
X72226514Y-153147733D01*
X72321752Y-153100114D01*
X72369371Y-153052495D01*
X72416990Y-152957257D01*
X72416990Y-152576304D01*
X71893180Y-154052495D02*
X71893180Y-153576304D01*
X72369371Y-153528685D01*
X72321752Y-153576304D01*
X72274133Y-153671542D01*
X72274133Y-153909638D01*
X72321752Y-154004876D01*
X72369371Y-154052495D01*
X72464609Y-154100114D01*
X72702704Y-154100114D01*
X72797942Y-154052495D01*
X72845561Y-154004876D01*
X72893180Y-153909638D01*
X72893180Y-153671542D01*
X72845561Y-153576304D01*
X72797942Y-153528685D01*
%TO.C,R4*%
X96464380Y-149515533D02*
X95988190Y-149182200D01*
X96464380Y-148944104D02*
X95464380Y-148944104D01*
X95464380Y-149325057D01*
X95512000Y-149420295D01*
X95559619Y-149467914D01*
X95654857Y-149515533D01*
X95797714Y-149515533D01*
X95892952Y-149467914D01*
X95940571Y-149420295D01*
X95988190Y-149325057D01*
X95988190Y-148944104D01*
X95797714Y-150372676D02*
X96464380Y-150372676D01*
X95416761Y-150134580D02*
X96131047Y-149896485D01*
X96131047Y-150515533D01*
%TO.C,R3*%
X96464380Y-152385733D02*
X95988190Y-152052400D01*
X96464380Y-151814304D02*
X95464380Y-151814304D01*
X95464380Y-152195257D01*
X95512000Y-152290495D01*
X95559619Y-152338114D01*
X95654857Y-152385733D01*
X95797714Y-152385733D01*
X95892952Y-152338114D01*
X95940571Y-152290495D01*
X95988190Y-152195257D01*
X95988190Y-151814304D01*
X95464380Y-152719066D02*
X95464380Y-153338114D01*
X95845333Y-153004780D01*
X95845333Y-153147638D01*
X95892952Y-153242876D01*
X95940571Y-153290495D01*
X96035809Y-153338114D01*
X96273904Y-153338114D01*
X96369142Y-153290495D01*
X96416761Y-153242876D01*
X96464380Y-153147638D01*
X96464380Y-152861923D01*
X96416761Y-152766685D01*
X96369142Y-152719066D01*
%TO.C,R2*%
X75382380Y-149083733D02*
X74906190Y-148750400D01*
X75382380Y-148512304D02*
X74382380Y-148512304D01*
X74382380Y-148893257D01*
X74430000Y-148988495D01*
X74477619Y-149036114D01*
X74572857Y-149083733D01*
X74715714Y-149083733D01*
X74810952Y-149036114D01*
X74858571Y-148988495D01*
X74906190Y-148893257D01*
X74906190Y-148512304D01*
X74477619Y-149464685D02*
X74430000Y-149512304D01*
X74382380Y-149607542D01*
X74382380Y-149845638D01*
X74430000Y-149940876D01*
X74477619Y-149988495D01*
X74572857Y-150036114D01*
X74668095Y-150036114D01*
X74810952Y-149988495D01*
X75382380Y-149417066D01*
X75382380Y-150036114D01*
%TO.C,R1*%
X80360780Y-155535333D02*
X79884590Y-155202000D01*
X80360780Y-154963904D02*
X79360780Y-154963904D01*
X79360780Y-155344857D01*
X79408400Y-155440095D01*
X79456019Y-155487714D01*
X79551257Y-155535333D01*
X79694114Y-155535333D01*
X79789352Y-155487714D01*
X79836971Y-155440095D01*
X79884590Y-155344857D01*
X79884590Y-154963904D01*
X80360780Y-156487714D02*
X80360780Y-155916285D01*
X80360780Y-156202000D02*
X79360780Y-156202000D01*
X79503638Y-156106761D01*
X79598876Y-156011523D01*
X79646495Y-155916285D01*
%TO.C,J5*%
D13*
X101803200Y-156511171D02*
X101803200Y-156946600D01*
X101832228Y-157033685D01*
X101890285Y-157091742D01*
X101977371Y-157120771D01*
X102035428Y-157120771D01*
X101222628Y-156511171D02*
X101512914Y-156511171D01*
X101541942Y-156801457D01*
X101512914Y-156772428D01*
X101454857Y-156743400D01*
X101309714Y-156743400D01*
X101251657Y-156772428D01*
X101222628Y-156801457D01*
X101193600Y-156859514D01*
X101193600Y-157004657D01*
X101222628Y-157062714D01*
X101251657Y-157091742D01*
X101309714Y-157120771D01*
X101454857Y-157120771D01*
X101512914Y-157091742D01*
X101541942Y-157062714D01*
%TO.C,J4*%
X101803200Y-141271171D02*
X101803200Y-141706600D01*
X101832228Y-141793685D01*
X101890285Y-141851742D01*
X101977371Y-141880771D01*
X102035428Y-141880771D01*
X101251657Y-141474371D02*
X101251657Y-141880771D01*
X101396800Y-141242142D02*
X101541942Y-141677571D01*
X101164571Y-141677571D01*
%TD*%
M02*
