M48
;GenerationSoftware,Autodesk,EAGLE,9.6.2*%
;CreationDate,2020-08-10T13:56:09Z*%
FMAT,2
ICI,OFF
METRIC,TZ,000.000
T8C0.350
T7C0.800
T6C0.914
T5C1.000
T4C1.016
T3C1.100
T2C1.600
T1C3.000
%
G90
M71
T1
X6350Y73660
X6350Y22860
X93980Y22860
X93980Y73660
T2
X85950Y26670
X81990Y26670
X78030Y26670
X74070Y26670
T3
X7620Y33020
X2540Y38100
X2540Y35560
X2540Y33020
X7620Y38100
X7620Y35560
T4
X52070Y44450
X52070Y46990
X52070Y49530
X52070Y52070
X52070Y54610
X52070Y57150
X52070Y59690
X52070Y62230
X52070Y64770
X52070Y67310
X52070Y69850
X52070Y72390
X27661Y22149
X23139Y22149
X67310Y57150
X23139Y28651
X27661Y28651
X30759Y22149
X35281Y22149
X30759Y28651
X35281Y28651
X38379Y22149
X42901Y22149
X38379Y28651
X42901Y28651
X83820Y74930
X81280Y74930
X78740Y74930
X15519Y22149
X20041Y22149
X15519Y28651
X20041Y28651
X67310Y24130
X67310Y26670
X67310Y29210
X67310Y31750
X67310Y34290
X67310Y36830
X67310Y39370
X67310Y41910
X67310Y44450
X67310Y46990
X67310Y49530
X67310Y52070
X67310Y54610
X76200Y74930
X67310Y59690
X67310Y62230
X67310Y64770
X67310Y67310
X67310Y69850
X67310Y72390
X52070Y24130
X52070Y26670
X52070Y29210
X52070Y31750
X52070Y34290
X52070Y36830
X52070Y39370
X52070Y41910
T5
X5080Y47010
X5080Y49510
X14430Y60960
T6
X95250Y54610
X92710Y39370
X92710Y44450
X95250Y41910
X92710Y41910
X95250Y44450
X95250Y46990
X92710Y46990
X95250Y49530
X92710Y49530
X95250Y52070
X92710Y52070
X92710Y57150
X92710Y54610
X95250Y39370
X95250Y57150
T7
X8430Y60960
X11430Y56160
T8
X85725Y38735
X17780Y52070
X76835Y64135
X43180Y68580
X46990Y62230
X90170Y66040
X80645Y64135
X81915Y64135
X76200Y47625
X79375Y64135
X78105Y64135
X87630Y44450
X80645Y53975
X79375Y53975
X78105Y53975
X74295Y54000
X74295Y60960
X27940Y42545
X73025Y33630
X72390Y69850
X35560Y40640
X60960Y66040
X73025Y45593
M30