G04 EAGLE Gerber RS-274X export*
G75*
%MOMM*%
%FSLAX34Y34*%
%LPD*%
%IN*%
%IPPOS*%
%AMOC8*
5,1,8,0,0,1.08239X$1,22.5*%
G01*
%ADD10C,0.254000*%


D10*
X0Y228600D02*
X242Y223066D01*
X965Y217573D01*
X2164Y212165D01*
X3830Y206882D01*
X5949Y201764D01*
X8507Y196850D01*
X11484Y192178D01*
X14856Y187783D01*
X18599Y183699D01*
X22683Y179956D01*
X27078Y176584D01*
X31750Y173607D01*
X36664Y171049D01*
X41782Y168930D01*
X47065Y167264D01*
X52473Y166065D01*
X57966Y165342D01*
X63500Y165100D01*
X939800Y165100D01*
X945334Y165342D01*
X950827Y166065D01*
X956235Y167264D01*
X961518Y168930D01*
X966636Y171049D01*
X971550Y173607D01*
X976222Y176584D01*
X980617Y179956D01*
X984701Y183699D01*
X988444Y187783D01*
X991816Y192178D01*
X994793Y196850D01*
X997351Y201764D01*
X999470Y206882D01*
X1001136Y212165D01*
X1002335Y217573D01*
X1003058Y223066D01*
X1003300Y228600D01*
X1003300Y736600D01*
X1003058Y742134D01*
X1002335Y747627D01*
X1001136Y753035D01*
X999470Y758318D01*
X997351Y763436D01*
X994793Y768350D01*
X991816Y773022D01*
X988444Y777417D01*
X984701Y781501D01*
X980617Y785244D01*
X976222Y788616D01*
X971550Y791593D01*
X966636Y794151D01*
X961518Y796270D01*
X956235Y797936D01*
X950827Y799135D01*
X945334Y799858D01*
X939800Y800100D01*
X63500Y800100D01*
X57966Y799858D01*
X52473Y799135D01*
X47065Y797936D01*
X41782Y796270D01*
X36664Y794151D01*
X31750Y791593D01*
X27078Y788616D01*
X22683Y785244D01*
X18599Y781501D01*
X14856Y777417D01*
X11484Y773022D01*
X8507Y768350D01*
X5949Y763436D01*
X3830Y758318D01*
X2164Y753035D01*
X965Y747627D01*
X242Y742134D01*
X0Y736600D01*
X0Y228600D01*
X99300Y557600D02*
X129300Y557600D01*
X129300Y565600D01*
X99300Y565600D01*
X99300Y557600D01*
X139300Y592100D02*
X149300Y592100D01*
X149300Y627100D01*
X139300Y627100D01*
X139300Y592100D01*
X80300Y594600D02*
X88300Y594600D01*
X88300Y624600D01*
X80300Y624600D01*
X80300Y594600D01*
X48500Y737136D02*
X48576Y738204D01*
X48729Y739265D01*
X48957Y740312D01*
X49259Y741340D01*
X49633Y742344D01*
X50078Y743319D01*
X50592Y744259D01*
X51171Y745160D01*
X51813Y746018D01*
X52515Y746828D01*
X53272Y747585D01*
X54082Y748287D01*
X54940Y748929D01*
X55841Y749508D01*
X56781Y750022D01*
X57756Y750467D01*
X58760Y750841D01*
X59788Y751143D01*
X60835Y751371D01*
X61896Y751524D01*
X62964Y751600D01*
X64036Y751600D01*
X65104Y751524D01*
X66165Y751371D01*
X67212Y751143D01*
X68240Y750841D01*
X69244Y750467D01*
X70219Y750022D01*
X71159Y749508D01*
X72060Y748929D01*
X72918Y748287D01*
X73728Y747585D01*
X74485Y746828D01*
X75187Y746018D01*
X75829Y745160D01*
X76408Y744259D01*
X76922Y743319D01*
X77367Y742344D01*
X77741Y741340D01*
X78043Y740312D01*
X78271Y739265D01*
X78424Y738204D01*
X78500Y737136D01*
X78500Y736064D01*
X78424Y734996D01*
X78271Y733935D01*
X78043Y732888D01*
X77741Y731860D01*
X77367Y730856D01*
X76922Y729881D01*
X76408Y728941D01*
X75829Y728040D01*
X75187Y727182D01*
X74485Y726372D01*
X73728Y725615D01*
X72918Y724913D01*
X72060Y724271D01*
X71159Y723692D01*
X70219Y723178D01*
X69244Y722733D01*
X68240Y722359D01*
X67212Y722057D01*
X66165Y721829D01*
X65104Y721676D01*
X64036Y721600D01*
X62964Y721600D01*
X61896Y721676D01*
X60835Y721829D01*
X59788Y722057D01*
X58760Y722359D01*
X57756Y722733D01*
X56781Y723178D01*
X55841Y723692D01*
X54940Y724271D01*
X54082Y724913D01*
X53272Y725615D01*
X52515Y726372D01*
X51813Y727182D01*
X51171Y728040D01*
X50592Y728941D01*
X50078Y729881D01*
X49633Y730856D01*
X49259Y731860D01*
X48957Y732888D01*
X48729Y733935D01*
X48576Y734996D01*
X48500Y736064D01*
X48500Y737136D01*
X48500Y229136D02*
X48576Y230204D01*
X48729Y231265D01*
X48957Y232312D01*
X49259Y233340D01*
X49633Y234344D01*
X50078Y235319D01*
X50592Y236259D01*
X51171Y237160D01*
X51813Y238018D01*
X52515Y238828D01*
X53272Y239585D01*
X54082Y240287D01*
X54940Y240929D01*
X55841Y241508D01*
X56781Y242022D01*
X57756Y242467D01*
X58760Y242841D01*
X59788Y243143D01*
X60835Y243371D01*
X61896Y243524D01*
X62964Y243600D01*
X64036Y243600D01*
X65104Y243524D01*
X66165Y243371D01*
X67212Y243143D01*
X68240Y242841D01*
X69244Y242467D01*
X70219Y242022D01*
X71159Y241508D01*
X72060Y240929D01*
X72918Y240287D01*
X73728Y239585D01*
X74485Y238828D01*
X75187Y238018D01*
X75829Y237160D01*
X76408Y236259D01*
X76922Y235319D01*
X77367Y234344D01*
X77741Y233340D01*
X78043Y232312D01*
X78271Y231265D01*
X78424Y230204D01*
X78500Y229136D01*
X78500Y228064D01*
X78424Y226996D01*
X78271Y225935D01*
X78043Y224888D01*
X77741Y223860D01*
X77367Y222856D01*
X76922Y221881D01*
X76408Y220941D01*
X75829Y220040D01*
X75187Y219182D01*
X74485Y218372D01*
X73728Y217615D01*
X72918Y216913D01*
X72060Y216271D01*
X71159Y215692D01*
X70219Y215178D01*
X69244Y214733D01*
X68240Y214359D01*
X67212Y214057D01*
X66165Y213829D01*
X65104Y213676D01*
X64036Y213600D01*
X62964Y213600D01*
X61896Y213676D01*
X60835Y213829D01*
X59788Y214057D01*
X58760Y214359D01*
X57756Y214733D01*
X56781Y215178D01*
X55841Y215692D01*
X54940Y216271D01*
X54082Y216913D01*
X53272Y217615D01*
X52515Y218372D01*
X51813Y219182D01*
X51171Y220040D01*
X50592Y220941D01*
X50078Y221881D01*
X49633Y222856D01*
X49259Y223860D01*
X48957Y224888D01*
X48729Y225935D01*
X48576Y226996D01*
X48500Y228064D01*
X48500Y229136D01*
X924800Y229136D02*
X924876Y230204D01*
X925029Y231265D01*
X925257Y232312D01*
X925559Y233340D01*
X925933Y234344D01*
X926378Y235319D01*
X926892Y236259D01*
X927471Y237160D01*
X928113Y238018D01*
X928815Y238828D01*
X929572Y239585D01*
X930382Y240287D01*
X931240Y240929D01*
X932141Y241508D01*
X933081Y242022D01*
X934056Y242467D01*
X935060Y242841D01*
X936088Y243143D01*
X937135Y243371D01*
X938196Y243524D01*
X939264Y243600D01*
X940336Y243600D01*
X941404Y243524D01*
X942465Y243371D01*
X943512Y243143D01*
X944540Y242841D01*
X945544Y242467D01*
X946519Y242022D01*
X947459Y241508D01*
X948360Y240929D01*
X949218Y240287D01*
X950028Y239585D01*
X950785Y238828D01*
X951487Y238018D01*
X952129Y237160D01*
X952708Y236259D01*
X953222Y235319D01*
X953667Y234344D01*
X954041Y233340D01*
X954343Y232312D01*
X954571Y231265D01*
X954724Y230204D01*
X954800Y229136D01*
X954800Y228064D01*
X954724Y226996D01*
X954571Y225935D01*
X954343Y224888D01*
X954041Y223860D01*
X953667Y222856D01*
X953222Y221881D01*
X952708Y220941D01*
X952129Y220040D01*
X951487Y219182D01*
X950785Y218372D01*
X950028Y217615D01*
X949218Y216913D01*
X948360Y216271D01*
X947459Y215692D01*
X946519Y215178D01*
X945544Y214733D01*
X944540Y214359D01*
X943512Y214057D01*
X942465Y213829D01*
X941404Y213676D01*
X940336Y213600D01*
X939264Y213600D01*
X938196Y213676D01*
X937135Y213829D01*
X936088Y214057D01*
X935060Y214359D01*
X934056Y214733D01*
X933081Y215178D01*
X932141Y215692D01*
X931240Y216271D01*
X930382Y216913D01*
X929572Y217615D01*
X928815Y218372D01*
X928113Y219182D01*
X927471Y220040D01*
X926892Y220941D01*
X926378Y221881D01*
X925933Y222856D01*
X925559Y223860D01*
X925257Y224888D01*
X925029Y225935D01*
X924876Y226996D01*
X924800Y228064D01*
X924800Y229136D01*
X924800Y737136D02*
X924876Y738204D01*
X925029Y739265D01*
X925257Y740312D01*
X925559Y741340D01*
X925933Y742344D01*
X926378Y743319D01*
X926892Y744259D01*
X927471Y745160D01*
X928113Y746018D01*
X928815Y746828D01*
X929572Y747585D01*
X930382Y748287D01*
X931240Y748929D01*
X932141Y749508D01*
X933081Y750022D01*
X934056Y750467D01*
X935060Y750841D01*
X936088Y751143D01*
X937135Y751371D01*
X938196Y751524D01*
X939264Y751600D01*
X940336Y751600D01*
X941404Y751524D01*
X942465Y751371D01*
X943512Y751143D01*
X944540Y750841D01*
X945544Y750467D01*
X946519Y750022D01*
X947459Y749508D01*
X948360Y748929D01*
X949218Y748287D01*
X950028Y747585D01*
X950785Y746828D01*
X951487Y746018D01*
X952129Y745160D01*
X952708Y744259D01*
X953222Y743319D01*
X953667Y742344D01*
X954041Y741340D01*
X954343Y740312D01*
X954571Y739265D01*
X954724Y738204D01*
X954800Y737136D01*
X954800Y736064D01*
X954724Y734996D01*
X954571Y733935D01*
X954343Y732888D01*
X954041Y731860D01*
X953667Y730856D01*
X953222Y729881D01*
X952708Y728941D01*
X952129Y728040D01*
X951487Y727182D01*
X950785Y726372D01*
X950028Y725615D01*
X949218Y724913D01*
X948360Y724271D01*
X947459Y723692D01*
X946519Y723178D01*
X945544Y722733D01*
X944540Y722359D01*
X943512Y722057D01*
X942465Y721829D01*
X941404Y721676D01*
X940336Y721600D01*
X939264Y721600D01*
X938196Y721676D01*
X937135Y721829D01*
X936088Y722057D01*
X935060Y722359D01*
X934056Y722733D01*
X933081Y723178D01*
X932141Y723692D01*
X931240Y724271D01*
X930382Y724913D01*
X929572Y725615D01*
X928815Y726372D01*
X928113Y727182D01*
X927471Y728040D01*
X926892Y728941D01*
X926378Y729881D01*
X925933Y730856D01*
X925559Y731860D01*
X925257Y732888D01*
X925029Y733935D01*
X924876Y734996D01*
X924800Y736064D01*
X924800Y737136D01*
M02*
