G04 EAGLE Gerber RS-274X export*
G75*
%MOMM*%
%FSLAX34Y34*%
%LPD*%
%INSolderpaste Top*%
%IPPOS*%
%AMOC8*
5,1,8,0,0,1.08239X$1,22.5*%
G01*
%ADD10R,10.800000X10.410000*%
%ADD11R,1.066800X2.159000*%
%ADD12R,1.600000X3.500000*%
%ADD13R,1.700000X1.800000*%
%ADD14R,1.500000X1.300000*%
%ADD15R,1.200000X1.200000*%
%ADD16R,1.300000X1.500000*%
%ADD17R,1.701800X0.609600*%
%ADD18R,0.660400X2.032000*%
%ADD19R,1.800000X3.600000*%


D10*
X254000Y537210D03*
D11*
X219964Y453898D03*
X236982Y453898D03*
X254000Y453898D03*
X271018Y453898D03*
X288036Y453898D03*
D12*
X152400Y505028D03*
X152400Y451028D03*
D13*
X342900Y500200D03*
X342900Y541200D03*
D14*
X177800Y549300D03*
X177800Y568300D03*
D15*
X243500Y647700D03*
X264500Y647700D03*
D16*
X181000Y647700D03*
X200000Y647700D03*
D17*
X399288Y692150D03*
X399288Y679450D03*
X399288Y666750D03*
X399288Y654050D03*
X464312Y654050D03*
X464312Y666750D03*
X464312Y679450D03*
X464312Y692150D03*
D18*
X742950Y559308D03*
X755650Y559308D03*
X768350Y559308D03*
X781050Y559308D03*
X793750Y559308D03*
X806450Y559308D03*
X819150Y559308D03*
X831850Y559308D03*
X831850Y659892D03*
X819150Y659892D03*
X806450Y659892D03*
X793750Y659892D03*
X781050Y659892D03*
X768350Y659892D03*
X755650Y659892D03*
X742950Y659892D03*
X844550Y559308D03*
X857250Y559308D03*
X844550Y659892D03*
X857250Y659892D03*
D12*
X419100Y505028D03*
X419100Y451028D03*
D14*
X419100Y549300D03*
X419100Y568300D03*
D18*
X742950Y356108D03*
X755650Y356108D03*
X768350Y356108D03*
X781050Y356108D03*
X793750Y356108D03*
X806450Y356108D03*
X819150Y356108D03*
X831850Y356108D03*
X831850Y456692D03*
X819150Y456692D03*
X806450Y456692D03*
X793750Y456692D03*
X781050Y456692D03*
X768350Y456692D03*
X755650Y456692D03*
X742950Y456692D03*
X844550Y356108D03*
X857250Y356108D03*
X844550Y456692D03*
X857250Y456692D03*
D16*
X441300Y622300D03*
X422300Y622300D03*
D14*
X192314Y352400D03*
X192314Y333400D03*
X152400Y352400D03*
X152400Y333400D03*
X272143Y352400D03*
X272143Y333400D03*
X232229Y352400D03*
X232229Y333400D03*
X351971Y352400D03*
X351971Y333400D03*
X312057Y352400D03*
X312057Y333400D03*
X431800Y352400D03*
X431800Y333400D03*
X391886Y352400D03*
X391886Y333400D03*
D16*
X747420Y698500D03*
X766420Y698500D03*
X747420Y495300D03*
X766420Y495300D03*
D19*
X324170Y450850D03*
X364170Y450850D03*
M02*
