G04 EAGLE Gerber RS-274X export*
G75*
%MOMM*%
%FSLAX34Y34*%
%LPD*%
%INSoldermask Bottom*%
%IPPOS*%
%AMOC8*
5,1,8,0,0,1.08239X$1,22.5*%
G01*
%ADD10C,2.387600*%
%ADD11R,1.803200X1.803200*%
%ADD12P,1.951766X8X112.500000*%
%ADD13C,3.203200*%
%ADD14C,1.879600*%
%ADD15C,1.727200*%
%ADD16P,1.759533X8X292.500000*%


D10*
X103378Y561600D02*
X125222Y561600D01*
X84300Y598678D02*
X84300Y620522D01*
X144300Y620522D02*
X144300Y598678D01*
D11*
X50800Y495100D03*
D12*
X50800Y470100D03*
D13*
X859500Y266700D03*
X819900Y266700D03*
X780300Y266700D03*
X740700Y266700D03*
D14*
X76200Y381000D03*
X76200Y355600D03*
X76200Y330200D03*
X25400Y381000D03*
X25400Y355600D03*
X25400Y330200D03*
D15*
X155194Y229108D02*
X155194Y213868D01*
X200406Y213868D02*
X200406Y229108D01*
X155194Y278892D02*
X155194Y294132D01*
X200406Y294132D02*
X200406Y278892D01*
X665480Y241300D02*
X680720Y241300D01*
X680720Y266700D02*
X665480Y266700D01*
X665480Y292100D02*
X680720Y292100D01*
X680720Y317500D02*
X665480Y317500D01*
X665480Y342900D02*
X680720Y342900D01*
X680720Y368300D02*
X665480Y368300D01*
X665480Y393700D02*
X680720Y393700D01*
X680720Y419100D02*
X665480Y419100D01*
X665480Y444500D02*
X680720Y444500D01*
X680720Y469900D02*
X665480Y469900D01*
X665480Y495300D02*
X680720Y495300D01*
X680720Y520700D02*
X665480Y520700D01*
X665480Y546100D02*
X680720Y546100D01*
X680720Y571500D02*
X665480Y571500D01*
X665480Y596900D02*
X680720Y596900D01*
X680720Y622300D02*
X665480Y622300D01*
X665480Y647700D02*
X680720Y647700D01*
X680720Y673100D02*
X665480Y673100D01*
X665480Y698500D02*
X680720Y698500D01*
X680720Y723900D02*
X665480Y723900D01*
X528320Y241300D02*
X513080Y241300D01*
X513080Y266700D02*
X528320Y266700D01*
X528320Y292100D02*
X513080Y292100D01*
X513080Y317500D02*
X528320Y317500D01*
X528320Y342900D02*
X513080Y342900D01*
X513080Y368300D02*
X528320Y368300D01*
X528320Y393700D02*
X513080Y393700D01*
X513080Y419100D02*
X528320Y419100D01*
X528320Y444500D02*
X513080Y444500D01*
X513080Y469900D02*
X528320Y469900D01*
X528320Y495300D02*
X513080Y495300D01*
X513080Y520700D02*
X528320Y520700D01*
X528320Y546100D02*
X513080Y546100D01*
X513080Y571500D02*
X528320Y571500D01*
X528320Y596900D02*
X513080Y596900D01*
X513080Y622300D02*
X528320Y622300D01*
X528320Y647700D02*
X513080Y647700D01*
X513080Y673100D02*
X528320Y673100D01*
X528320Y698500D02*
X513080Y698500D01*
X513080Y723900D02*
X528320Y723900D01*
D16*
X927100Y571500D03*
X952500Y571500D03*
X927100Y546100D03*
X952500Y546100D03*
X927100Y520700D03*
X952500Y520700D03*
X927100Y495300D03*
X952500Y495300D03*
X927100Y469900D03*
X952500Y469900D03*
X927100Y444500D03*
X952500Y444500D03*
X927100Y419100D03*
X952500Y419100D03*
X927100Y393700D03*
X952500Y393700D03*
D15*
X231394Y229108D02*
X231394Y213868D01*
X276606Y213868D02*
X276606Y229108D01*
X231394Y278892D02*
X231394Y294132D01*
X276606Y294132D02*
X276606Y278892D01*
X307594Y229108D02*
X307594Y213868D01*
X352806Y213868D02*
X352806Y229108D01*
X307594Y278892D02*
X307594Y294132D01*
X352806Y294132D02*
X352806Y278892D01*
X383794Y229108D02*
X383794Y213868D01*
X429006Y213868D02*
X429006Y229108D01*
X383794Y278892D02*
X383794Y294132D01*
X429006Y294132D02*
X429006Y278892D01*
X838200Y741680D02*
X838200Y756920D01*
X812800Y756920D02*
X812800Y741680D01*
X787400Y741680D02*
X787400Y756920D01*
X762000Y756920D02*
X762000Y741680D01*
D13*
X63500Y736600D03*
X63500Y228600D03*
X939800Y228600D03*
X939800Y736600D03*
M02*
